<?xml version="1.0" encoding="utf-8" standalone="no"?>
<!DOCTYPE svg PUBLIC "-//W3C//DTD SVG 1.1//EN"
  "http://www.w3.org/Graphics/SVG/1.1/DTD/svg11.dtd">
<svg xmlns:xlink="http://www.w3.org/1999/xlink" width="324pt" height="216pt" viewBox="0 0 324 216" xmlns="http://www.w3.org/2000/svg" version="1.1">
 <metadata>
  <rdf:RDF xmlns:dc="http://purl.org/dc/elements/1.1/" xmlns:cc="http://creativecommons.org/ns#" xmlns:rdf="http://www.w3.org/1999/02/22-rdf-syntax-ns#">
   <cc:Work>
    <dc:type rdf:resource="http://purl.org/dc/dcmitype/StillImage"/>
    <dc:date>2025-08-12T14:30:31.219621</dc:date>
    <dc:format>image/svg+xml</dc:format>
    <dc:creator>
     <cc:Agent>
      <dc:title>Matplotlib v3.7.1, https://matplotlib.org/</dc:title>
     </cc:Agent>
    </dc:creator>
   </cc:Work>
  </rdf:RDF>
 </metadata>
 <defs>
  <style type="text/css">*{stroke-linejoin: round; stroke-linecap: butt}</style>
 </defs>
 <g id="figure_1">
  <g id="patch_1">
   <path d="M 0 216 
L 324 216 
L 324 0 
L 0 0 
z
" style="fill: #ffffff"/>
  </g>
  <g id="axes_1">
   <g id="patch_2">
    <path d="M 36.653935 168.64 
L 312.12 168.64 
L 312.12 11.88 
L 36.653935 11.88 
z
" style="fill: #ffffff"/>
   </g>
   <g id="line2d_1">
    <path d="M 53.227283 159.997345 
L 55.674953 142.938127 
L 58.122624 122.935588 
L 60.570294 107.057867 
L 63.017964 94.817873 
L 65.465635 85.039674 
L 67.913305 76.932894 
L 70.360976 70.015262 
L 72.808646 63.983337 
L 75.256316 58.636192 
L 77.703987 53.834435 
L 80.151657 49.477673 
L 82.599328 45.491577 
L 85.046998 41.820216 
L 87.494668 38.421522 
L 89.942339 35.264849 
L 92.390009 32.330112 
L 94.83768 29.608258 
L 97.28535 27.102932 
L 99.73302 24.833066 
L 102.180691 22.835825 
L 104.628361 21.168874 
L 107.076032 19.91041 
L 109.523702 19.155211 
L 111.971372 19.005455 
L 114.419043 19.556506 
L 116.866713 20.880042 
L 119.314384 23.008672 
L 121.762054 25.926565 
L 124.209724 29.568921 
L 126.657395 33.830163 
L 129.105065 38.578019 
L 131.552735 43.669459 
L 134.000406 48.964917 
L 136.448076 54.338694 
L 138.895747 59.684996 
L 141.343417 64.92015 
L 143.791087 69.982022 
L 146.238758 74.827739 
L 148.686428 79.430587 
L 151.134099 83.776741 
L 153.581769 87.862191 
L 156.029439 91.690078 
L 158.47711 95.268497 
L 160.92478 98.608772 
L 163.372451 101.724134 
L 165.820121 104.628758 
L 168.267791 107.337071 
L 170.715462 109.863281 
L 173.163132 112.221068 
L 175.610803 114.423394 
L 178.058473 116.482401 
L 180.506143 118.409367 
L 182.953814 120.214706 
L 185.401484 121.907988 
L 187.849155 123.497984 
L 190.296825 124.992714 
L 192.744495 126.399503 
L 195.192166 127.725032 
L 197.639836 128.975398 
L 200.087507 130.156164 
L 202.535177 131.272405 
L 204.982847 132.328757 
L 207.430518 133.329457 
L 209.878188 134.278378 
L 212.325858 135.179069 
L 214.773529 136.034782 
L 217.221199 136.848501 
L 219.66887 137.622967 
L 222.11654 138.360701 
L 224.56421 139.064025 
L 227.011881 139.73508 
L 229.459551 140.375842 
L 231.907222 140.988135 
L 234.354892 141.57365 
L 236.802562 142.133951 
L 239.250233 142.67049 
L 241.697903 143.184613 
L 244.145574 143.677572 
L 246.593244 144.150533 
L 249.040914 144.604579 
L 251.488585 145.040723 
L 253.936255 145.459907 
L 256.383926 145.863015 
L 258.831596 146.25087 
L 261.279266 146.624244 
L 263.726937 146.98386 
L 266.174607 147.330395 
L 268.622278 147.664485 
L 271.069948 147.986728 
L 273.517618 148.297685 
L 275.965289 148.597884 
L 278.412959 148.887822 
L 280.860629 149.167968 
L 283.3083 149.438764 
L 285.75597 149.700625 
L 288.203641 149.953946 
L 290.651311 150.199099 
L 293.098981 150.436434 
L 295.546652 150.666285 
" clip-path="url(#pb60047d448)" style="fill: none; stroke: #000000; stroke-width: 1.5; stroke-linecap: square"/>
   </g>
   <g id="line2d_2">
    <path d="M 53.227283 160.093976 
L 55.674953 144.037935 
L 58.122624 125.171198 
L 60.570294 110.358852 
L 63.017964 99.17787 
L 65.465635 90.4807 
L 67.913305 83.486332 
L 70.360976 77.717329 
L 72.808646 72.874509 
L 75.256316 68.76157 
L 77.703987 65.244382 
L 80.151657 62.22859 
L 82.599328 59.646781 
L 85.046998 57.450842 
L 87.494668 55.607348 
L 89.942339 54.094797 
L 92.390009 52.902054 
L 94.83768 52.027559 
L 97.28535 51.478984 
L 99.73302 51.272965 
L 102.180691 51.43449 
L 104.628361 51.995409 
L 107.076032 52.991519 
L 109.523702 54.457825 
L 111.971372 56.422023 
L 114.419043 58.896939 
L 116.866713 61.873491 
L 119.314384 65.316142 
L 121.762054 69.162542 
L 124.209724 73.327893 
L 126.657395 77.713142 
L 129.105065 82.214943 
L 131.552735 86.735103 
L 134.000406 91.187798 
L 136.448076 95.503782 
L 138.895747 99.63171 
L 141.343417 103.537289 
L 143.791087 107.20102 
L 146.238758 110.615337 
L 148.686428 113.781691 
L 151.134099 116.707908 
L 153.581769 119.40598 
L 156.029439 121.890338 
L 158.47711 124.17657 
L 160.92478 126.280507 
L 163.372451 128.217618 
L 165.820121 130.002624 
L 168.267791 131.649282 
L 170.715462 133.170279 
L 173.163132 134.577211 
L 175.610803 135.880601 
L 178.058473 137.089964 
L 180.506143 138.213866 
L 182.953814 139.260012 
L 185.401484 140.235323 
L 187.849155 141.146012 
L 190.296825 141.997657 
L 192.744495 142.795273 
L 195.192166 143.543365 
L 197.639836 144.245993 
L 200.087507 144.906815 
L 202.535177 145.529131 
L 204.982847 146.115926 
L 207.430518 146.669901 
L 209.878188 147.193506 
L 212.325858 147.688967 
L 214.773529 148.158306 
L 217.221199 148.603369 
L 219.66887 149.025837 
L 222.11654 149.427249 
L 224.56421 149.809013 
L 227.011881 150.17242 
L 229.459551 150.518654 
L 231.907222 150.848806 
L 234.354892 151.163879 
L 236.802562 151.464797 
L 239.250233 151.752417 
L 241.697903 152.027526 
L 244.145574 152.290856 
L 246.593244 152.543085 
L 249.040914 152.784842 
L 251.488585 153.01671 
L 253.936255 153.239233 
L 256.383926 153.452917 
L 258.831596 153.658233 
L 261.279266 153.855621 
L 263.726937 154.045492 
L 266.174607 154.22823 
L 268.622278 154.404196 
L 271.069948 154.573724 
L 273.517618 154.737132 
L 275.965289 154.894716 
L 278.412959 155.046754 
L 280.860629 155.193508 
L 283.3083 155.335224 
L 285.75597 155.472132 
L 288.203641 155.604453 
L 290.651311 155.732391 
L 293.098981 155.856141 
L 295.546652 155.975886 
" clip-path="url(#pb60047d448)" style="fill: none; stroke-dasharray: 1.5,2.475; stroke-dashoffset: 0; stroke: #000000; stroke-width: 1.5"/>
   </g>
   <g id="line2d_3">
    <path d="M 53.227283 161.461321 
L 55.674953 160.666176 
L 58.122624 158.988949 
L 60.570294 156.579249 
L 63.017964 153.626313 
L 65.465635 150.32485 
L 67.913305 146.850127 
L 70.360976 143.345189 
L 72.808646 139.918001 
L 75.256316 136.644603 
L 77.703987 133.574865 
L 80.151657 130.73863 
L 82.599328 128.151169 
L 85.046998 125.817548 
L 87.494668 123.735921 
L 89.942339 121.899902 
L 92.390009 120.30022 
L 94.83768 118.925845 
L 97.28535 117.764743 
L 99.73302 116.804363 
L 102.180691 116.031964 
L 104.628361 115.43482 
L 107.076032 115.000357 
L 109.523702 114.716253 
L 111.971372 114.570495 
L 114.419043 114.55144 
L 116.866713 114.647846 
L 119.314384 114.848911 
L 121.762054 115.144298 
L 124.209724 115.52416 
L 126.657395 115.979157 
L 129.105065 116.500468 
L 131.552735 117.079806 
L 134.000406 117.709414 
L 136.448076 118.382068 
L 138.895747 119.091074 
L 141.343417 119.830253 
L 143.791087 120.593931 
L 146.238758 121.376923 
L 148.686428 122.174514 
L 151.134099 122.982434 
L 153.581769 123.796841 
L 156.029439 124.614292 
L 158.47711 125.431721 
L 160.92478 126.246413 
L 163.372451 127.05598 
L 165.820121 127.858335 
L 168.267791 128.651666 
L 170.715462 129.43442 
L 173.163132 130.205273 
L 175.610803 130.96311 
L 178.058473 131.70701 
L 180.506143 132.436222 
L 182.953814 133.150147 
L 185.401484 133.848325 
L 187.849155 134.53042 
L 190.296825 135.1962 
L 192.744495 135.845533 
L 195.192166 136.478365 
L 197.639836 137.09472 
L 200.087507 137.694682 
L 202.535177 138.27839 
L 204.982847 138.846029 
L 207.430518 139.397824 
L 209.878188 139.934032 
L 212.325858 140.454939 
L 214.773529 140.960851 
L 217.221199 141.452093 
L 219.66887 141.929004 
L 222.11654 142.391933 
L 224.56421 142.841236 
L 227.011881 143.277273 
L 229.459551 143.70041 
L 231.907222 144.111009 
L 234.354892 144.509433 
L 236.802562 144.896042 
L 239.250233 145.271193 
L 241.697903 145.635236 
L 244.145574 145.988516 
L 246.593244 146.331373 
L 249.040914 146.664138 
L 251.488585 146.987135 
L 253.936255 147.30068 
L 256.383926 147.605082 
L 258.831596 147.90064 
L 261.279266 148.187645 
L 263.726937 148.466381 
L 266.174607 148.73712 
L 268.622278 149.00013 
L 271.069948 149.255667 
L 273.517618 149.503981 
L 275.965289 149.745311 
L 278.412959 149.979892 
L 280.860629 150.207948 
L 283.3083 150.429695 
L 285.75597 150.645345 
L 288.203641 150.855099 
L 290.651311 151.059152 
L 293.098981 151.257694 
L 295.546652 151.450905 
" clip-path="url(#pb60047d448)" style="fill: none; stroke: #0000ff; stroke-width: 1.5; stroke-linecap: square"/>
   </g>
   <g id="line2d_4">
    <path d="M 53.227283 161.479477 
L 55.674953 160.954792 
L 58.122624 159.843405 
L 60.570294 158.236491 
L 63.017964 156.253136 
L 65.465635 154.020978 
L 67.913305 151.660284 
L 70.360976 149.273939 
L 72.808646 146.943212 
L 75.256316 144.727781 
L 77.703987 142.668216 
L 80.151657 140.789473 
L 82.599328 139.104468 
L 85.046998 137.61726 
L 87.494668 136.325649 
L 89.942339 135.223199 
L 92.390009 134.300732 
L 94.83768 133.547418 
L 97.28535 132.951539 
L 99.73302 132.501015 
L 102.180691 132.183766 
L 104.628361 131.987944 
L 107.076032 131.902097 
L 109.523702 131.915256 
L 111.971372 132.017008 
L 114.419043 132.197522 
L 116.866713 132.44757 
L 119.314384 132.758531 
L 121.762054 133.122392 
L 124.209724 133.531734 
L 126.657395 133.979723 
L 129.105065 134.460087 
L 131.552735 134.967102 
L 134.000406 135.495567 
L 136.448076 136.040776 
L 138.895747 136.598498 
L 141.343417 137.164944 
L 143.791087 137.736744 
L 146.238758 138.310916 
L 148.686428 138.884838 
L 151.134099 139.45622 
L 153.581769 140.02308 
L 156.029439 140.583712 
L 158.47711 141.136668 
L 160.92478 141.680725 
L 163.372451 142.21487 
L 165.820121 142.738275 
L 168.267791 143.250276 
L 170.715462 143.750356 
L 173.163132 144.23813 
L 175.610803 144.713325 
L 178.058473 145.175766 
L 180.506143 145.625366 
L 182.953814 146.062115 
L 185.401484 146.486062 
L 187.849155 146.897315 
L 190.296825 147.296025 
L 192.744495 147.682382 
L 195.192166 148.056609 
L 197.639836 148.418953 
L 200.087507 148.769682 
L 202.535177 149.10908 
L 204.982847 149.437443 
L 207.430518 149.755077 
L 209.878188 150.06229 
L 212.325858 150.359397 
L 214.773529 150.646712 
L 217.221199 150.924547 
L 219.66887 151.193213 
L 222.11654 151.453017 
L 224.56421 151.704262 
L 227.011881 151.947243 
L 229.459551 152.182251 
L 231.907222 152.409567 
L 234.354892 152.629468 
L 236.802562 152.842221 
L 239.250233 153.048085 
L 241.697903 153.247314 
L 244.145574 153.44015 
L 246.593244 153.626828 
L 249.040914 153.807576 
L 251.488585 153.982614 
L 253.936255 154.152153 
L 256.383926 154.316396 
L 258.831596 154.475539 
L 261.279266 154.629772 
L 263.726937 154.779276 
L 266.174607 154.924225 
L 268.622278 155.064787 
L 271.069948 155.201123 
L 273.517618 155.333387 
L 275.965289 155.461729 
L 278.412959 155.586291 
L 280.860629 155.70721 
L 283.3083 155.824618 
L 285.75597 155.93864 
L 288.203641 156.049398 
L 290.651311 156.157009 
L 293.098981 156.261583 
L 295.546652 156.363228 
" clip-path="url(#pb60047d448)" style="fill: none; stroke-dasharray: 1.5,2.475; stroke-dashoffset: 0; stroke: #0000ff; stroke-width: 1.5"/>
   </g>
   <g id="line2d_5">
    <path d="M 53.227283 161.512955 
L 55.674953 161.488883 
L 58.122624 161.436087 
L 60.570294 161.355104 
L 63.017964 161.246752 
L 65.465635 161.112111 
L 67.913305 160.952501 
L 70.360976 160.769457 
L 72.808646 160.564697 
L 75.256316 160.340092 
L 77.703987 160.097632 
L 80.151657 159.839394 
L 82.599328 159.567504 
L 85.046998 159.284111 
L 87.494668 158.991356 
L 89.942339 158.691344 
L 92.390009 158.38612 
L 94.83768 158.077651 
L 97.28535 157.767806 
L 99.73302 157.458343 
L 102.180691 157.1509 
L 104.628361 156.846985 
L 107.076032 156.547973 
L 109.523702 156.255104 
L 111.971372 155.969481 
L 114.419043 155.692074 
L 116.866713 155.423725 
L 119.314384 155.165148 
L 121.762054 154.916939 
L 124.209724 154.679583 
L 126.657395 154.453459 
L 129.105065 154.238849 
L 131.552735 154.035944 
L 134.000406 153.844857 
L 136.448076 153.665624 
L 138.895747 153.498214 
L 141.343417 153.342542 
L 143.791087 153.198464 
L 146.238758 153.065797 
L 148.686428 152.944315 
L 151.134099 152.833759 
L 153.581769 152.733842 
L 156.029439 152.644254 
L 158.47711 152.564666 
L 160.92478 152.494733 
L 163.372451 152.434102 
L 165.820121 152.382408 
L 168.267791 152.339284 
L 170.715462 152.304359 
L 173.163132 152.277263 
L 175.610803 152.257627 
L 178.058473 152.245086 
L 180.506143 152.239281 
L 182.953814 152.239858 
L 185.401484 152.246471 
L 187.849155 152.258783 
L 190.296825 152.276464 
L 192.744495 152.299197 
L 195.192166 152.326673 
L 197.639836 152.358593 
L 200.087507 152.394669 
L 202.535177 152.434626 
L 204.982847 152.478196 
L 207.430518 152.525126 
L 209.878188 152.575171 
L 212.325858 152.628097 
L 214.773529 152.683682 
L 217.221199 152.741714 
L 219.66887 152.801989 
L 222.11654 152.864316 
L 224.56421 152.928511 
L 227.011881 152.994401 
L 229.459551 153.061823 
L 231.907222 153.130619 
L 234.354892 153.200643 
L 236.802562 153.271755 
L 239.250233 153.343825 
L 241.697903 153.416729 
L 244.145574 153.49035 
L 246.593244 153.564578 
L 249.040914 153.63931 
L 251.488585 153.71445 
L 253.936255 153.789907 
L 256.383926 153.865595 
L 258.831596 153.941435 
L 261.279266 154.017353 
L 263.726937 154.093279 
L 266.174607 154.169149 
L 268.622278 154.244901 
L 271.069948 154.320481 
L 273.517618 154.395835 
L 275.965289 154.470916 
L 278.412959 154.545679 
L 280.860629 154.620082 
L 283.3083 154.694087 
L 285.75597 154.76766 
L 288.203641 154.840767 
L 290.651311 154.91338 
L 293.098981 154.985472 
L 295.546652 155.057016 
" clip-path="url(#pb60047d448)" style="fill: none; stroke: #ff0000; stroke-width: 1.5; stroke-linecap: square"/>
   </g>
   <g id="line2d_6">
    <path d="M 53.227283 161.513713 
L 55.674953 161.501113 
L 58.122624 161.473471 
L 60.570294 161.431056 
L 63.017964 161.374276 
L 65.465635 161.303673 
L 67.913305 161.219911 
L 70.360976 161.123761 
L 72.808646 161.016095 
L 75.256316 160.897864 
L 77.703987 160.770084 
L 80.151657 160.633821 
L 82.599328 160.490174 
L 85.046998 160.340259 
L 87.494668 160.185195 
L 89.942339 160.02609 
L 92.390009 159.864027 
L 94.83768 159.700055 
L 97.28535 159.535177 
L 99.73302 159.370342 
L 102.180691 159.206444 
L 104.628361 159.044307 
L 107.076032 158.88469 
L 109.523702 158.728283 
L 111.971372 158.575702 
L 114.419043 158.427494 
L 116.866713 158.284136 
L 119.314384 158.146037 
L 121.762054 158.01354 
L 124.209724 157.886928 
L 126.657395 157.766423 
L 129.105065 157.652195 
L 131.552735 157.544359 
L 134.000406 157.442988 
L 136.448076 157.34811 
L 138.895747 157.259715 
L 141.343417 157.177759 
L 143.791087 157.102169 
L 146.238758 157.032842 
L 148.686428 156.969655 
L 151.134099 156.912465 
L 153.581769 156.861109 
L 156.029439 156.815414 
L 158.47711 156.775194 
L 160.92478 156.740255 
L 163.372451 156.710394 
L 165.820121 156.685407 
L 168.267791 156.665083 
L 170.715462 156.649213 
L 173.163132 156.637587 
L 175.610803 156.629994 
L 178.058473 156.626229 
L 180.506143 156.626086 
L 182.953814 156.629367 
L 185.401484 156.635875 
L 187.849155 156.645419 
L 190.296825 156.657815 
L 192.744495 156.672883 
L 195.192166 156.69045 
L 197.639836 156.710349 
L 200.087507 156.732418 
L 202.535177 156.756505 
L 204.982847 156.78246 
L 207.430518 156.810143 
L 209.878188 156.839418 
L 212.325858 156.870157 
L 214.773529 156.902238 
L 217.221199 156.935543 
L 219.66887 156.969962 
L 222.11654 157.005391 
L 224.56421 157.041731 
L 227.011881 157.078886 
L 229.459551 157.11677 
L 231.907222 157.155298 
L 234.354892 157.194391 
L 236.802562 157.233977 
L 239.250233 157.273984 
L 241.697903 157.314348 
L 244.145574 157.355007 
L 246.593244 157.395904 
L 249.040914 157.436985 
L 251.488585 157.4782 
L 253.936255 157.519502 
L 256.383926 157.560848 
L 258.831596 157.602196 
L 261.279266 157.643509 
L 263.726937 157.684752 
L 266.174607 157.725892 
L 268.622278 157.7669 
L 271.069948 157.807746 
L 273.517618 157.848407 
L 275.965289 157.888857 
L 278.412959 157.929076 
L 280.860629 157.969043 
L 283.3083 158.00874 
L 285.75597 158.048151 
L 288.203641 158.08726 
L 290.651311 158.126054 
L 293.098981 158.16452 
L 295.546652 158.202648 
" clip-path="url(#pb60047d448)" style="fill: none; stroke-dasharray: 1.5,2.475; stroke-dashoffset: 0; stroke: #ff0000; stroke-width: 1.5"/>
   </g>
   <g id="matplotlib.axis_1">
    <g id="xtick_1">
     <g id="line2d_7">
      <defs>
       <path id="m7250bb51bf" d="M 0 0 
L 0 3.5 
" style="stroke: #000000; stroke-width: 0.8"/>
      </defs>
      <g>
       <use xlink:href="#m7250bb51bf" x="52.41685" y="168.64" style="stroke: #000000; stroke-width: 0.8"/>
      </g>
     </g>
     <g id="text_1">
      <!-- $0$ -->
      <g transform="translate(49.91685 183.238438) scale(0.1 -0.1)">
       <defs>
        <path id="Cmr10-30" d="M 1600 -141 
Q 816 -141 533 504 
Q 250 1150 250 2041 
Q 250 2597 351 3087 
Q 453 3578 754 3920 
Q 1056 4263 1600 4263 
Q 2022 4263 2290 4056 
Q 2559 3850 2700 3523 
Q 2841 3197 2892 2823 
Q 2944 2450 2944 2041 
Q 2944 1491 2842 1011 
Q 2741 531 2444 195 
Q 2147 -141 1600 -141 
z
M 1600 25 
Q 1956 25 2131 390 
Q 2306 756 2347 1200 
Q 2388 1644 2388 2144 
Q 2388 2625 2347 3031 
Q 2306 3438 2132 3767 
Q 1959 4097 1600 4097 
Q 1238 4097 1063 3765 
Q 888 3434 847 3029 
Q 806 2625 806 2144 
Q 806 1788 823 1472 
Q 841 1156 916 820 
Q 991 484 1158 254 
Q 1325 25 1600 25 
z
" transform="scale(0.015625)"/>
       </defs>
       <use xlink:href="#Cmr10-30" transform="translate(0 0.390625)"/>
      </g>
     </g>
    </g>
    <g id="xtick_2">
     <g id="line2d_8">
      <g>
       <use xlink:href="#m7250bb51bf" x="133.460117" y="168.64" style="stroke: #000000; stroke-width: 0.8"/>
      </g>
     </g>
     <g id="text_2">
      <!-- $1$ -->
      <g transform="translate(130.960117 183.238438) scale(0.1 -0.1)">
       <defs>
        <path id="Cmr10-31" d="M 594 0 
L 594 225 
Q 1394 225 1394 428 
L 1394 3788 
Q 1063 3628 556 3628 
L 556 3853 
Q 1341 3853 1741 4263 
L 1831 4263 
Q 1853 4263 1873 4245 
Q 1894 4228 1894 4206 
L 1894 428 
Q 1894 225 2694 225 
L 2694 0 
L 594 0 
z
" transform="scale(0.015625)"/>
       </defs>
       <use xlink:href="#Cmr10-31" transform="translate(0 0.390625)"/>
      </g>
     </g>
    </g>
    <g id="xtick_3">
     <g id="line2d_9">
      <g>
       <use xlink:href="#m7250bb51bf" x="214.503385" y="168.64" style="stroke: #000000; stroke-width: 0.8"/>
      </g>
     </g>
     <g id="text_3">
      <!-- $2$ -->
      <g transform="translate(212.003385 183.238438) scale(0.1 -0.1)">
       <defs>
        <path id="Cmr10-32" d="M 319 0 
L 319 172 
Q 319 188 331 206 
L 1325 1306 
Q 1550 1550 1690 1715 
Q 1831 1881 1968 2097 
Q 2106 2313 2186 2536 
Q 2266 2759 2266 3009 
Q 2266 3272 2169 3511 
Q 2072 3750 1880 3894 
Q 1688 4038 1416 4038 
Q 1138 4038 916 3870 
Q 694 3703 603 3438 
Q 628 3444 672 3444 
Q 816 3444 917 3347 
Q 1019 3250 1019 3097 
Q 1019 2950 917 2848 
Q 816 2747 672 2747 
Q 522 2747 420 2851 
Q 319 2956 319 3097 
Q 319 3338 409 3548 
Q 500 3759 670 3923 
Q 841 4088 1055 4175 
Q 1269 4263 1509 4263 
Q 1875 4263 2190 4108 
Q 2506 3953 2690 3670 
Q 2875 3388 2875 3009 
Q 2875 2731 2753 2481 
Q 2631 2231 2440 2026 
Q 2250 1822 1953 1562 
Q 1656 1303 1563 1216 
L 838 519 
L 1453 519 
Q 1906 519 2211 526 
Q 2516 534 2534 550 
Q 2609 631 2688 1141 
L 2875 1141 
L 2694 0 
L 319 0 
z
" transform="scale(0.015625)"/>
       </defs>
       <use xlink:href="#Cmr10-32" transform="translate(0 0.390625)"/>
      </g>
     </g>
    </g>
    <g id="xtick_4">
     <g id="line2d_10">
      <g>
       <use xlink:href="#m7250bb51bf" x="295.546652" y="168.64" style="stroke: #000000; stroke-width: 0.8"/>
      </g>
     </g>
     <g id="text_4">
      <!-- $3$ -->
      <g transform="translate(293.046652 183.238438) scale(0.1 -0.1)">
       <defs>
        <path id="Cmr10-33" d="M 609 494 
Q 759 275 1012 169 
Q 1266 63 1556 63 
Q 1928 63 2084 380 
Q 2241 697 2241 1100 
Q 2241 1281 2208 1462 
Q 2175 1644 2097 1800 
Q 2019 1956 1883 2050 
Q 1747 2144 1550 2144 
L 1125 2144 
Q 1069 2144 1069 2203 
L 1069 2259 
Q 1069 2309 1125 2309 
L 1478 2338 
Q 1703 2338 1851 2506 
Q 2000 2675 2069 2917 
Q 2138 3159 2138 3378 
Q 2138 3684 1994 3881 
Q 1850 4078 1556 4078 
Q 1313 4078 1091 3986 
Q 869 3894 738 3706 
Q 750 3709 759 3711 
Q 769 3713 781 3713 
Q 925 3713 1022 3613 
Q 1119 3513 1119 3372 
Q 1119 3234 1022 3134 
Q 925 3034 781 3034 
Q 641 3034 541 3134 
Q 441 3234 441 3372 
Q 441 3647 606 3850 
Q 772 4053 1033 4158 
Q 1294 4263 1556 4263 
Q 1750 4263 1965 4205 
Q 2181 4147 2356 4039 
Q 2531 3931 2642 3762 
Q 2753 3594 2753 3378 
Q 2753 3109 2633 2881 
Q 2513 2653 2303 2487 
Q 2094 2322 1844 2241 
Q 2122 2188 2372 2031 
Q 2622 1875 2773 1631 
Q 2925 1388 2925 1106 
Q 2925 753 2731 467 
Q 2538 181 2222 20 
Q 1906 -141 1556 -141 
Q 1256 -141 954 -26 
Q 653 88 461 316 
Q 269 544 269 863 
Q 269 1022 375 1128 
Q 481 1234 641 1234 
Q 744 1234 830 1186 
Q 916 1138 964 1050 
Q 1013 963 1013 863 
Q 1013 706 903 600 
Q 794 494 641 494 
L 609 494 
z
" transform="scale(0.015625)"/>
       </defs>
       <use xlink:href="#Cmr10-33" transform="translate(0 0.390625)"/>
      </g>
     </g>
    </g>
    <g id="text_5">
     <!-- $I_0 / I_{\mathrm{c}}$ -->
     <g transform="translate(162.451967 197.568125) scale(0.11 -0.11)">
      <defs>
       <path id="Cmmi10-49" d="M 269 0 
Q 206 0 206 84 
Q 231 225 288 225 
Q 666 225 800 250 
Q 947 284 984 441 
L 1863 3956 
Q 1875 4019 1875 4038 
Q 1875 4078 1854 4095 
Q 1834 4113 1791 4122 
Q 1663 4147 1306 4147 
Q 1241 4147 1241 4231 
Q 1263 4313 1275 4342 
Q 1288 4372 1350 4372 
L 3138 4372 
Q 3200 4372 3200 4288 
Q 3197 4272 3187 4234 
Q 3178 4197 3162 4172 
Q 3147 4147 3116 4147 
Q 2741 4147 2597 4122 
Q 2456 4088 2419 3928 
L 1544 416 
Q 1528 338 1528 331 
Q 1528 316 1533 302 
Q 1538 288 1552 277 
Q 1566 266 1580 261 
Q 1594 256 1613 250 
Q 1734 225 2100 225 
Q 2163 225 2163 141 
Q 2141 50 2128 25 
Q 2116 0 2053 0 
L 269 0 
z
" transform="scale(0.015625)"/>
       <path id="Cmmi10-3d" d="M 359 -1472 
Q 359 -1453 366 -1447 
L 2591 4722 
Q 2603 4759 2634 4779 
Q 2666 4800 2706 4800 
Q 2763 4800 2798 4765 
Q 2834 4731 2834 4672 
L 2834 4647 
L 609 -1522 
Q 572 -1600 488 -1600 
Q 434 -1600 396 -1562 
Q 359 -1525 359 -1472 
z
" transform="scale(0.015625)"/>
       <path id="Cmr10-63" d="M 1594 -72 
Q 1206 -72 890 129 
Q 575 331 394 667 
Q 213 1003 213 1381 
Q 213 1759 392 2106 
Q 572 2453 889 2661 
Q 1206 2869 1594 2869 
Q 1969 2869 2276 2722 
Q 2584 2575 2584 2241 
Q 2584 2116 2495 2023 
Q 2406 1931 2278 1931 
Q 2150 1931 2061 2023 
Q 1972 2116 1972 2241 
Q 1972 2353 2044 2436 
Q 2116 2519 2222 2541 
Q 2000 2681 1600 2681 
Q 1294 2681 1106 2478 
Q 919 2275 844 1975 
Q 769 1675 769 1381 
Q 769 1072 861 783 
Q 953 494 1158 305 
Q 1363 116 1672 116 
Q 1975 116 2187 302 
Q 2400 488 2478 788 
Q 2478 825 2528 825 
L 2606 825 
Q 2625 825 2640 808 
Q 2656 791 2656 769 
L 2656 750 
Q 2559 372 2271 150 
Q 1984 -72 1594 -72 
z
" transform="scale(0.015625)"/>
      </defs>
      <use xlink:href="#Cmmi10-49"/>
      <use xlink:href="#Cmr10-30" transform="translate(43.896484 -17.00625) scale(0.7)"/>
      <use xlink:href="#Cmmi10-3d" transform="translate(85.273828 0)"/>
      <use xlink:href="#Cmmi10-49" transform="translate(135.273828 0)"/>
      <use xlink:href="#Cmr10-63" transform="translate(179.170312 -17.00625) scale(0.7)"/>
     </g>
    </g>
   </g>
   <g id="matplotlib.axis_2">
    <g id="ytick_1">
     <g id="line2d_11">
      <defs>
       <path id="maab9f28416" d="M 0 0 
L -3.5 0 
" style="stroke: #000000; stroke-width: 0.8"/>
      </defs>
      <g>
       <use xlink:href="#maab9f28416" x="36.653935" y="161.514545" style="stroke: #000000; stroke-width: 0.8"/>
      </g>
     </g>
     <g id="text_6">
      <!-- $2$ -->
      <g transform="translate(24.653935 165.313764) scale(0.1 -0.1)">
       <use xlink:href="#Cmr10-32" transform="translate(0 0.390625)"/>
      </g>
     </g>
    </g>
    <g id="ytick_2">
     <g id="line2d_12">
      <g>
       <use xlink:href="#maab9f28416" x="36.653935" y="85.590156" style="stroke: #000000; stroke-width: 0.8"/>
      </g>
     </g>
     <g id="text_7">
      <!-- $10^1$ -->
      <g transform="translate(15.053935 89.389374) scale(0.1 -0.1)">
       <use xlink:href="#Cmr10-31" transform="translate(0 0.109375)"/>
       <use xlink:href="#Cmr10-30" transform="translate(50 0.109375)"/>
       <use xlink:href="#Cmr10-31" transform="translate(104.464141 38.373438) scale(0.7)"/>
      </g>
     </g>
    </g>
    <g id="ytick_3">
     <g id="line2d_13">
      <defs>
       <path id="m5869f157df" d="M 0 0 
L -2 0 
" style="stroke: #000000; stroke-width: 0.6"/>
      </defs>
      <g>
       <use xlink:href="#m5869f157df" x="36.653935" y="142.386942" style="stroke: #000000; stroke-width: 0.6"/>
      </g>
     </g>
    </g>
    <g id="ytick_4">
     <g id="line2d_14">
      <g>
       <use xlink:href="#m5869f157df" x="36.653935" y="128.815691" style="stroke: #000000; stroke-width: 0.6"/>
      </g>
     </g>
    </g>
    <g id="ytick_5">
     <g id="line2d_15">
      <g>
       <use xlink:href="#m5869f157df" x="36.653935" y="118.289011" style="stroke: #000000; stroke-width: 0.6"/>
      </g>
     </g>
    </g>
    <g id="ytick_6">
     <g id="line2d_16">
      <g>
       <use xlink:href="#m5869f157df" x="36.653935" y="109.688087" style="stroke: #000000; stroke-width: 0.6"/>
      </g>
     </g>
    </g>
    <g id="ytick_7">
     <g id="line2d_17">
      <g>
       <use xlink:href="#m5869f157df" x="36.653935" y="102.416109" style="stroke: #000000; stroke-width: 0.6"/>
      </g>
     </g>
    </g>
    <g id="ytick_8">
     <g id="line2d_18">
      <g>
       <use xlink:href="#m5869f157df" x="36.653935" y="96.116836" style="stroke: #000000; stroke-width: 0.6"/>
      </g>
     </g>
    </g>
    <g id="ytick_9">
     <g id="line2d_19">
      <g>
       <use xlink:href="#m5869f157df" x="36.653935" y="90.560483" style="stroke: #000000; stroke-width: 0.6"/>
      </g>
     </g>
    </g>
    <g id="ytick_10">
     <g id="line2d_20">
      <g>
       <use xlink:href="#m5869f157df" x="36.653935" y="52.891301" style="stroke: #000000; stroke-width: 0.6"/>
      </g>
     </g>
    </g>
    <g id="ytick_11">
     <g id="line2d_21">
      <g>
       <use xlink:href="#m5869f157df" x="36.653935" y="33.763697" style="stroke: #000000; stroke-width: 0.6"/>
      </g>
     </g>
    </g>
    <g id="ytick_12">
     <g id="line2d_22">
      <g>
       <use xlink:href="#m5869f157df" x="36.653935" y="20.192446" style="stroke: #000000; stroke-width: 0.6"/>
      </g>
     </g>
    </g>
   </g>
   <g id="LineCollection_1">
    <path d="M 49.17512 161.514545 
L 299.598815 161.514545 
" clip-path="url(#pb60047d448)" style="fill: none; stroke-dasharray: 7.4,3.2; stroke-dashoffset: 0; stroke: #000000; stroke-width: 2"/>
   </g>
   <g id="patch_3">
    <path d="M 36.653935 168.64 
L 36.653935 11.88 
" style="fill: none; stroke: #000000; stroke-width: 0.8; stroke-linejoin: miter; stroke-linecap: square"/>
   </g>
   <g id="patch_4">
    <path d="M 312.12 168.64 
L 312.12 11.88 
" style="fill: none; stroke: #000000; stroke-width: 0.8; stroke-linejoin: miter; stroke-linecap: square"/>
   </g>
   <g id="patch_5">
    <path d="M 36.653935 168.64 
L 312.12 168.64 
" style="fill: none; stroke: #000000; stroke-width: 0.8; stroke-linejoin: miter; stroke-linecap: square"/>
   </g>
   <g id="patch_6">
    <path d="M 36.653935 11.88 
L 312.12 11.88 
" style="fill: none; stroke: #000000; stroke-width: 0.8; stroke-linejoin: miter; stroke-linecap: square"/>
   </g>
   <g id="text_8">
    <!-- $\tilde{\mathcal{Q}}$ -->
    <g transform="translate(124.803076 25.955144) scale(0.11 -0.11)">
     <defs>
      <path id="Cmr10-7e" d="M 531 3769 
L 716 3988 
Q 966 4275 1216 4275 
Q 1338 4275 1483 4203 
Q 1628 4131 1773 4059 
Q 1919 3988 2041 3988 
Q 2297 3988 2534 4275 
L 2663 4166 
L 2478 3950 
Q 2225 3659 1978 3659 
Q 1856 3659 1711 3732 
Q 1566 3806 1420 3878 
Q 1275 3950 1153 3950 
Q 897 3950 659 3659 
L 531 3769 
z
" transform="scale(0.015625)"/>
      <path id="Cmsy10-51" d="M 897 -184 
Q 850 -159 850 -134 
Q 850 -28 1039 75 
Q 1228 178 1338 191 
Q 1844 191 2158 217 
Q 2472 244 2800 355 
Q 3128 466 3431 703 
Q 3878 1078 4134 1589 
Q 4391 2100 4391 2669 
Q 4391 2956 4309 3223 
Q 4228 3491 4067 3695 
Q 3906 3900 3662 4017 
Q 3419 4134 3116 4134 
Q 2644 4134 2222 3829 
Q 1800 3525 1550 3056 
Q 1300 2588 1300 2119 
Q 1300 1828 1417 1578 
Q 1534 1328 1756 1179 
Q 1978 1031 2278 1031 
Q 2478 1031 2741 1119 
Q 2828 1163 2887 1192 
Q 2947 1222 3012 1250 
Q 3078 1278 3150 1281 
L 3188 1281 
Q 3231 1259 3231 1234 
Q 3231 1203 3206 1166 
Q 3106 1028 2859 911 
Q 2613 794 2330 723 
Q 2047 653 1850 653 
L 1813 653 
Q 1481 653 1234 814 
Q 988 975 858 1244 
Q 728 1513 728 1838 
Q 728 2328 976 2809 
Q 1225 3291 1645 3680 
Q 2066 4069 2567 4291 
Q 3069 4513 3547 4513 
L 3578 4513 
Q 3909 4513 4167 4391 
Q 4425 4269 4603 4051 
Q 4781 3834 4870 3551 
Q 4959 3269 4959 2944 
Q 4959 2431 4759 1951 
Q 4559 1472 4217 1090 
Q 3875 709 3428 425 
Q 2981 141 2478 -19 
Q 2613 -63 2842 -144 
Q 3072 -225 3286 -289 
Q 3500 -353 3700 -389 
Q 3900 -425 4109 -428 
Q 4266 -428 4347 -359 
Q 4409 -294 4439 -208 
Q 4469 -122 4500 -78 
Q 4581 31 4709 103 
Q 4838 175 4966 191 
L 4997 191 
Q 5044 169 5044 128 
Q 4972 -134 4748 -348 
Q 4525 -563 4236 -684 
Q 3947 -806 3688 -806 
L 3653 -806 
Q 3334 -806 3042 -732 
Q 2750 -659 2294 -500 
Q 1838 -341 1541 -262 
Q 1244 -184 897 -184 
z
" transform="scale(0.015625)"/>
     </defs>
     <use xlink:href="#Cmr10-7e" transform="translate(26.101074 26.203125)"/>
     <use xlink:href="#Cmsy10-51" transform="translate(0 0.359375)"/>
    </g>
   </g>
   <g id="text_9">
    <!-- $\tilde{\mathcal{L}}$ -->
    <g transform="translate(111.029772 75.104281) scale(0.11 -0.11)">
     <defs>
      <path id="Cmsy10-4c" d="M 238 -141 
Q 197 -141 197 -97 
Q 197 -72 219 -38 
Q 266 38 359 130 
Q 453 222 494 275 
Q 656 509 750 691 
Q 913 1028 1031 1466 
Q 1206 2163 1348 2597 
Q 1491 3031 1722 3419 
Q 1903 3719 2168 3967 
Q 2434 4216 2757 4364 
Q 3081 4513 3419 4513 
L 3456 4513 
Q 3622 4513 3734 4430 
Q 3847 4347 3905 4208 
Q 3963 4069 3963 3909 
Q 3963 3666 3884 3572 
Q 3663 3331 3359 3291 
L 3322 3291 
Q 3284 3291 3284 3334 
Q 3284 3341 3300 3431 
Q 3316 3522 3316 3584 
Q 3316 3791 3212 3944 
Q 3109 4097 2906 4097 
Q 2669 4097 2669 4056 
Q 2494 3934 2333 3651 
Q 2172 3369 2051 3039 
Q 1931 2709 1837 2376 
Q 1744 2044 1672 1753 
Q 1594 1438 1470 1148 
Q 1347 859 1178 603 
Q 1253 628 1363 628 
L 1403 628 
Q 1625 628 1847 583 
Q 2069 538 2378 450 
Q 2688 363 2894 320 
Q 3100 278 3328 275 
Q 3397 275 3440 337 
Q 3484 400 3526 511 
Q 3569 622 3597 659 
Q 3694 766 3834 844 
Q 3975 922 4116 941 
L 4153 941 
Q 4172 941 4184 928 
Q 4197 916 4197 897 
Q 4197 897 4191 878 
Q 4128 628 3897 386 
Q 3666 144 3370 1 
Q 3075 -141 2828 -141 
L 2791 -141 
Q 2569 -141 2356 -100 
Q 2144 -59 1834 28 
Q 1525 116 1304 162 
Q 1084 209 863 213 
Q 578 -100 275 -141 
L 238 -141 
z
" transform="scale(0.015625)"/>
     </defs>
     <use xlink:href="#Cmr10-7e" transform="translate(17.927246 26.203125)"/>
     <use xlink:href="#Cmsy10-4c" transform="translate(0 0.359375)"/>
    </g>
   </g>
   <g id="legend_1">
    <g id="patch_7">
     <path d="M 240.72 63.914375 
L 305.12 63.914375 
Q 307.12 63.914375 307.12 61.914375 
L 307.12 18.88 
Q 307.12 16.88 305.12 16.88 
L 240.72 16.88 
Q 238.72 16.88 238.72 18.88 
L 238.72 61.914375 
Q 238.72 63.914375 240.72 63.914375 
z
" style="fill: #ffffff; opacity: 0.8; stroke: #cccccc; stroke-linejoin: miter"/>
    </g>
    <g id="line2d_23">
     <path d="M 242.72 24.978438 
L 252.72 24.978438 
L 262.72 24.978438 
" style="fill: none; stroke: #000000; stroke-width: 1.5; stroke-linecap: square"/>
    </g>
    <g id="text_10">
     <!-- $D = 0.1$ -->
     <g transform="translate(270.72 28.478438) scale(0.1 -0.1)">
      <defs>
       <path id="Cmmi10-44" d="M 313 0 
Q 250 0 250 84 
Q 253 100 262 139 
Q 272 178 289 201 
Q 306 225 331 225 
Q 722 225 878 269 
Q 959 297 997 441 
L 1875 3956 
Q 1888 4019 1888 4044 
Q 1888 4113 1813 4122 
Q 1691 4147 1350 4147 
Q 1288 4147 1288 4231 
Q 1291 4247 1300 4286 
Q 1309 4325 1326 4348 
Q 1344 4372 1369 4372 
L 3669 4372 
Q 4116 4372 4450 4155 
Q 4784 3938 4962 3570 
Q 5141 3203 5141 2759 
Q 5141 2269 4937 1778 
Q 4734 1288 4368 881 
Q 4003 475 3534 237 
Q 3066 0 2572 0 
L 313 0 
z
M 1509 275 
Q 1509 225 1728 225 
L 2472 225 
Q 2828 225 3159 372 
Q 3491 519 3750 775 
Q 3991 1016 4175 1406 
Q 4359 1797 4461 2222 
Q 4563 2647 4563 3003 
Q 4563 3263 4486 3472 
Q 4409 3681 4270 3831 
Q 4131 3981 3922 4064 
Q 3713 4147 3450 4147 
L 2747 4147 
Q 2572 4147 2515 4117 
Q 2459 4088 2413 3928 
L 1538 416 
Q 1509 338 1509 275 
z
" transform="scale(0.015625)"/>
       <path id="Cmr10-3d" d="M 481 850 
Q 428 850 393 890 
Q 359 931 359 978 
Q 359 1031 393 1068 
Q 428 1106 481 1106 
L 4500 1106 
Q 4547 1106 4581 1068 
Q 4616 1031 4616 978 
Q 4616 931 4581 890 
Q 4547 850 4500 850 
L 481 850 
z
M 481 2094 
Q 428 2094 393 2131 
Q 359 2169 359 2222 
Q 359 2269 393 2309 
Q 428 2350 481 2350 
L 4500 2350 
Q 4547 2350 4581 2309 
Q 4616 2269 4616 2222 
Q 4616 2169 4581 2131 
Q 4547 2094 4500 2094 
L 481 2094 
z
" transform="scale(0.015625)"/>
       <path id="Cmmi10-3a" d="M 538 353 
Q 538 497 644 600 
Q 750 703 891 703 
Q 978 703 1062 656 
Q 1147 609 1194 525 
Q 1241 441 1241 353 
Q 1241 213 1137 106 
Q 1034 0 891 0 
Q 750 0 644 106 
Q 538 213 538 353 
z
" transform="scale(0.015625)"/>
      </defs>
      <use xlink:href="#Cmmi10-44" transform="translate(0 0.6875)"/>
      <use xlink:href="#Cmr10-3d" transform="translate(100.273438 0.6875)"/>
      <use xlink:href="#Cmr10-30" transform="translate(195.517578 0.6875)"/>
      <use xlink:href="#Cmmi10-3a" transform="translate(245.517578 0.6875)"/>
      <use xlink:href="#Cmr10-31" transform="translate(273.203125 0.6875)"/>
     </g>
    </g>
    <g id="line2d_24">
     <path d="M 242.72 39.656563 
L 252.72 39.656563 
L 262.72 39.656563 
" style="fill: none; stroke: #0000ff; stroke-width: 1.5; stroke-linecap: square"/>
    </g>
    <g id="text_11">
     <!-- $D = 0.5$ -->
     <g transform="translate(270.72 43.156563) scale(0.1 -0.1)">
      <defs>
       <path id="Cmr10-35" d="M 556 728 
Q 622 541 758 387 
Q 894 234 1080 148 
Q 1266 63 1466 63 
Q 1928 63 2103 422 
Q 2278 781 2278 1294 
Q 2278 1516 2270 1667 
Q 2263 1819 2228 1959 
Q 2169 2184 2020 2353 
Q 1872 2522 1656 2522 
Q 1441 2522 1286 2456 
Q 1131 2391 1034 2303 
Q 938 2216 863 2119 
Q 788 2022 769 2016 
L 697 2016 
Q 681 2016 657 2036 
Q 634 2056 634 2075 
L 634 4213 
Q 634 4228 654 4245 
Q 675 4263 697 4263 
L 716 4263 
Q 1147 4056 1631 4056 
Q 2106 4056 2547 4263 
L 2566 4263 
Q 2588 4263 2606 4247 
Q 2625 4231 2625 4213 
L 2625 4153 
Q 2625 4122 2613 4122 
Q 2394 3831 2064 3668 
Q 1734 3506 1381 3506 
Q 1125 3506 856 3578 
L 856 2369 
Q 1069 2541 1236 2614 
Q 1403 2688 1663 2688 
Q 2016 2688 2295 2484 
Q 2575 2281 2725 1954 
Q 2875 1628 2875 1288 
Q 2875 903 2686 575 
Q 2497 247 2172 53 
Q 1847 -141 1466 -141 
Q 1150 -141 886 21 
Q 622 184 470 459 
Q 319 734 319 1044 
Q 319 1188 412 1278 
Q 506 1369 647 1369 
Q 788 1369 883 1276 
Q 978 1184 978 1044 
Q 978 906 883 811 
Q 788 716 647 716 
Q 625 716 597 720 
Q 569 725 556 728 
z
" transform="scale(0.015625)"/>
      </defs>
      <use xlink:href="#Cmmi10-44" transform="translate(0 0.6875)"/>
      <use xlink:href="#Cmr10-3d" transform="translate(100.273438 0.6875)"/>
      <use xlink:href="#Cmr10-30" transform="translate(195.517578 0.6875)"/>
      <use xlink:href="#Cmmi10-3a" transform="translate(245.517578 0.6875)"/>
      <use xlink:href="#Cmr10-35" transform="translate(273.203125 0.6875)"/>
     </g>
    </g>
    <g id="line2d_25">
     <path d="M 242.72 54.334688 
L 252.72 54.334688 
L 262.72 54.334688 
" style="fill: none; stroke: #ff0000; stroke-width: 1.5; stroke-linecap: square"/>
    </g>
    <g id="text_12">
     <!-- $D = 1.5$ -->
     <g transform="translate(270.72 57.834688) scale(0.1 -0.1)">
      <use xlink:href="#Cmmi10-44" transform="translate(0 0.6875)"/>
      <use xlink:href="#Cmr10-3d" transform="translate(100.273438 0.6875)"/>
      <use xlink:href="#Cmr10-31" transform="translate(195.517578 0.6875)"/>
      <use xlink:href="#Cmmi10-3a" transform="translate(245.517578 0.6875)"/>
      <use xlink:href="#Cmr10-35" transform="translate(273.203125 0.6875)"/>
     </g>
    </g>
   </g>
  </g>
 </g>
 <defs>
  <clipPath id="pb60047d448">
   <rect x="36.653935" y="11.88" width="275.466065" height="156.76"/>
  </clipPath>
 </defs>
</svg>
