<?xml version="1.0" encoding="utf-8" standalone="no"?>
<!DOCTYPE svg PUBLIC "-//W3C//DTD SVG 1.1//EN"
  "http://www.w3.org/Graphics/SVG/1.1/DTD/svg11.dtd">
<svg xmlns:xlink="http://www.w3.org/1999/xlink" width="324pt" height="388.8pt" viewBox="0 0 324 388.8" xmlns="http://www.w3.org/2000/svg" version="1.1">
 <metadata>
  <rdf:RDF xmlns:dc="http://purl.org/dc/elements/1.1/" xmlns:cc="http://creativecommons.org/ns#" xmlns:rdf="http://www.w3.org/1999/02/22-rdf-syntax-ns#">
   <cc:Work>
    <dc:type rdf:resource="http://purl.org/dc/dcmitype/StillImage"/>
    <dc:date>2025-08-12T20:05:52.812336</dc:date>
    <dc:format>image/svg+xml</dc:format>
    <dc:creator>
     <cc:Agent>
      <dc:title>Matplotlib v3.7.1, https://matplotlib.org/</dc:title>
     </cc:Agent>
    </dc:creator>
   </cc:Work>
  </rdf:RDF>
 </metadata>
 <defs>
  <style type="text/css">*{stroke-linejoin: round; stroke-linecap: butt}</style>
 </defs>
 <g id="figure_1">
  <g id="patch_1">
   <path d="M 0 388.8 
L 324 388.8 
L 324 0 
L 0 0 
z
" style="fill: #ffffff"/>
  </g>
  <g id="axes_1">
   <g id="patch_2">
    <path d="M 24.8875 171.13 
L 294.24125 171.13 
L 294.24125 11.88 
L 24.8875 11.88 
z
" style="fill: #ffffff"/>
   </g>
   <g id="patch_3">
    <path d="M 131.282231 93.654875 
C 132.889484 93.654875 134.431124 93.092759 135.567623 92.092326 
C 136.704122 91.091894 137.342691 89.734825 137.342691 88.32 
C 137.342691 86.905175 136.704122 85.548106 135.567623 84.547674 
C 134.431124 83.547241 132.889484 82.985125 131.282231 82.985125 
C 129.674979 82.985125 128.133339 83.547241 126.996839 84.547674 
C 125.86034 85.548106 125.221772 86.905175 125.221772 88.32 
C 125.221772 89.734825 125.86034 91.091894 126.996839 92.092326 
C 128.133339 93.092759 129.674979 93.654875 131.282231 93.654875 
z
" clip-path="url(#p394a73f003)" style="stroke: #000000; stroke-linejoin: miter"/>
   </g>
   <g id="matplotlib.axis_1">
    <g id="xtick_1">
     <g id="line2d_1">
      <defs>
       <path id="m5fdfd9bd02" d="M 0 0 
L 0 3.5 
" style="stroke: #000000; stroke-width: 0.8"/>
      </defs>
      <g>
       <use xlink:href="#m5fdfd9bd02" x="98.347614" y="171.13" style="stroke: #000000; stroke-width: 0.8"/>
      </g>
     </g>
    </g>
    <g id="xtick_2">
     <g id="line2d_2">
      <g>
       <use xlink:href="#m5fdfd9bd02" x="220.781136" y="171.13" style="stroke: #000000; stroke-width: 0.8"/>
      </g>
     </g>
    </g>
   </g>
   <g id="matplotlib.axis_2"/>
   <g id="line2d_3">
    <path d="M 37.130852 19.118636 
L 50.121797 36.223249 
L 57.230049 45.206152 
L 63.112741 52.290358 
L 68.260096 58.159362 
L 73.162339 63.415347 
L 77.574358 67.836013 
L 81.986377 71.93909 
L 86.153284 75.505307 
L 90.075078 78.576021 
L 93.996873 81.361857 
L 97.673555 83.710606 
L 101.350238 85.803236 
L 105.02692 87.640469 
L 108.703602 89.225299 
L 112.380285 90.562962 
L 116.056967 91.660896 
L 119.733649 92.528667 
L 123.410332 93.177893 
L 127.332126 93.644826 
L 131.499033 93.906412 
L 135.911052 93.947508 
L 140.568183 93.763424 
L 145.715538 93.337914 
L 152.088454 92.576174 
L 163.608726 90.912577 
L 171.697427 89.855796 
L 177.335006 89.328776 
L 182.23725 89.083134 
L 186.649268 89.074551 
L 190.816175 89.282733 
L 194.73797 89.694204 
L 198.659764 90.33441 
L 202.336447 91.15748 
L 206.013129 92.208549 
L 209.689811 93.497602 
L 213.366494 95.032508 
L 217.043176 96.818949 
L 220.719858 98.860369 
L 224.396541 101.157946 
L 228.073223 103.710578 
L 231.995018 106.710675 
L 235.916812 109.99021 
L 240.083719 113.769976 
L 244.495738 118.087161 
L 249.152869 122.971928 
L 254.055112 128.444448 
L 259.447579 134.807943 
L 265.575383 142.40105 
L 272.928748 151.8873 
L 281.997898 163.891364 
L 281.997898 163.891364 
" clip-path="url(#p394a73f003)" style="fill: none; stroke: #000000; stroke-width: 1.5; stroke-linecap: square"/>
   </g>
   <g id="patch_4">
    <path d="M 24.8875 171.13 
L 24.8875 11.88 
" style="fill: none; stroke: #000000; stroke-width: 0.8; stroke-linejoin: miter; stroke-linecap: square"/>
   </g>
   <g id="patch_5">
    <path d="M 294.24125 171.13 
L 294.24125 11.88 
" style="fill: none; stroke: #000000; stroke-width: 0.8; stroke-linejoin: miter; stroke-linecap: square"/>
   </g>
   <g id="patch_6">
    <path d="M 24.8875 171.13 
L 294.24125 171.13 
" style="fill: none; stroke: #000000; stroke-width: 0.8; stroke-linejoin: miter; stroke-linecap: square"/>
   </g>
   <g id="patch_7">
    <path d="M 24.8875 11.88 
L 294.24125 11.88 
" style="fill: none; stroke: #000000; stroke-width: 0.8; stroke-linejoin: miter; stroke-linecap: square"/>
   </g>
  </g>
  <g id="axes_2">
   <g id="patch_8">
    <path d="M 24.8875 345.76 
L 294.24125 345.76 
L 294.24125 186.51 
L 24.8875 186.51 
z
" style="fill: #ffffff"/>
   </g>
   <g id="line2d_4">
    <path d="M 37.130852 337.17112 
L 60.171395 337.040813 
L 75.613461 336.75462 
L 83.211938 336.422065 
L 87.378845 336.02968 
L 90.32019 335.528519 
L 92.5262 334.935656 
L 94.487097 334.172608 
L 96.202882 333.255121 
L 97.673555 332.229979 
L 99.144228 330.933789 
L 100.614901 329.314304 
L 102.085574 327.317157 
L 103.556247 324.888504 
L 105.02692 321.978363 
L 106.497593 318.544532 
L 107.968266 314.556859 
L 109.684051 309.187293 
L 111.399836 303.0596 
L 113.360733 295.204925 
L 115.811855 284.360619 
L 123.900556 247.533695 
L 125.616341 241.183277 
L 127.087014 236.554254 
L 128.312575 233.354521 
L 129.538136 230.803678 
L 130.518584 229.252203 
L 131.499033 228.145959 
L 132.234369 227.610384 
L 132.969706 227.32584 
L 133.705042 227.289315 
L 134.440379 227.495994 
L 135.175715 227.939381 
L 135.911052 228.611429 
L 136.8915 229.846673 
L 137.871949 231.445721 
L 139.09751 233.911733 
L 140.568183 237.473852 
L 142.283968 242.316414 
L 144.489977 249.344452 
L 147.676435 260.378016 
L 152.823791 278.224566 
L 155.520024 286.788817 
L 157.971146 293.852066 
L 160.177155 299.558713 
L 162.383165 304.63816 
L 164.344062 308.640881 
L 166.304959 312.187634 
L 168.265857 315.311442 
L 170.226754 318.049415 
L 172.187651 320.44013 
L 174.393661 322.762028 
L 176.59967 324.74423 
L 178.805679 326.434131 
L 181.256801 328.02048 
L 183.707923 329.349231 
L 186.404156 330.564978 
L 189.345502 331.652072 
L 192.777072 332.670121 
L 196.453755 333.52937 
L 200.865774 334.323753 
L 206.013129 335.014392 
L 212.140933 335.607345 
L 219.73941 336.115015 
L 229.543896 336.539905 
L 242.779953 336.877596 
L 260.918252 337.103976 
L 281.997898 337.17112 
L 281.997898 337.17112 
" clip-path="url(#p3238bb4616)" style="fill: none; stroke: #000000; stroke-width: 1.5; stroke-linecap: square"/>
   </g>
   <g id="matplotlib.axis_3">
    <g id="xtick_3">
     <g id="line2d_5">
      <g>
       <use xlink:href="#m5fdfd9bd02" x="98.347614" y="345.76" style="stroke: #000000; stroke-width: 0.8"/>
      </g>
     </g>
     <g id="text_1">
      <!-- $0$ -->
      <g transform="translate(95.847614 360.358438) scale(0.1 -0.1)">
       <defs>
        <path id="Cmr10-30" d="M 1600 -141 
Q 816 -141 533 504 
Q 250 1150 250 2041 
Q 250 2597 351 3087 
Q 453 3578 754 3920 
Q 1056 4263 1600 4263 
Q 2022 4263 2290 4056 
Q 2559 3850 2700 3523 
Q 2841 3197 2892 2823 
Q 2944 2450 2944 2041 
Q 2944 1491 2842 1011 
Q 2741 531 2444 195 
Q 2147 -141 1600 -141 
z
M 1600 25 
Q 1956 25 2131 390 
Q 2306 756 2347 1200 
Q 2388 1644 2388 2144 
Q 2388 2625 2347 3031 
Q 2306 3438 2132 3767 
Q 1959 4097 1600 4097 
Q 1238 4097 1063 3765 
Q 888 3434 847 3029 
Q 806 2625 806 2144 
Q 806 1788 823 1472 
Q 841 1156 916 820 
Q 991 484 1158 254 
Q 1325 25 1600 25 
z
" transform="scale(0.015625)"/>
       </defs>
       <use xlink:href="#Cmr10-30" transform="translate(0 0.390625)"/>
      </g>
     </g>
    </g>
    <g id="xtick_4">
     <g id="line2d_6">
      <g>
       <use xlink:href="#m5fdfd9bd02" x="220.781136" y="345.76" style="stroke: #000000; stroke-width: 0.8"/>
      </g>
     </g>
     <g id="text_2">
      <!-- $\pi$ -->
      <g transform="translate(217.931136 360.358438) scale(0.1 -0.1)">
       <defs>
        <path id="Cmmi10-bc" d="M 647 109 
Q 647 144 672 213 
Q 850 584 1004 942 
Q 1159 1300 1282 1639 
Q 1406 1978 1509 2363 
L 1100 2363 
Q 866 2363 662 2216 
Q 459 2069 325 1844 
Q 313 1819 288 1819 
L 213 1819 
Q 153 1819 153 1881 
Q 153 1894 166 1919 
Q 375 2275 614 2517 
Q 853 2759 1153 2759 
L 3475 2759 
Q 3541 2759 3587 2715 
Q 3634 2672 3634 2597 
Q 3634 2503 3567 2433 
Q 3500 2363 3406 2363 
L 2591 2363 
Q 2488 1859 2478 1381 
Q 2478 766 2694 269 
Q 2713 231 2713 191 
Q 2713 122 2672 62 
Q 2631 3 2567 -34 
Q 2503 -72 2431 -72 
Q 2263 -72 2200 203 
Q 2138 478 2138 738 
Q 2138 1103 2200 1442 
Q 2263 1781 2400 2363 
L 1703 2363 
Q 1197 313 1094 103 
Q 1003 -72 844 -72 
Q 766 -72 706 -20 
Q 647 31 647 109 
z
" transform="scale(0.015625)"/>
       </defs>
       <use xlink:href="#Cmmi10-bc" transform="translate(0 0.890625)"/>
      </g>
     </g>
    </g>
    <g id="text_3">
     <!-- $\varphi$ -->
     <g transform="translate(155.934375 374.664063) scale(0.11 -0.11)">
      <defs>
       <path id="Cmmi10-27" d="M 1044 -1216 
Q 1044 -1191 1056 -1141 
L 1416 -13 
Q 938 106 628 428 
Q 319 750 319 1216 
Q 319 1450 406 1744 
Q 494 2038 631 2302 
Q 769 2566 928 2741 
Q 966 2759 972 2759 
L 1050 2759 
Q 1069 2759 1084 2740 
Q 1100 2722 1100 2700 
Q 1100 2675 1088 2663 
Q 981 2547 879 2380 
Q 778 2213 698 2028 
Q 619 1844 566 1641 
Q 513 1438 513 1288 
Q 513 909 814 676 
Q 1116 444 1528 366 
L 1709 941 
Q 1828 1313 1945 1605 
Q 2063 1897 2239 2176 
Q 2416 2456 2666 2642 
Q 2916 2828 3225 2828 
Q 3469 2828 3633 2706 
Q 3797 2584 3876 2381 
Q 3956 2178 3956 1947 
Q 3956 1566 3787 1202 
Q 3619 838 3325 548 
Q 3031 259 2662 93 
Q 2294 -72 1919 -72 
Q 1869 -69 1811 -66 
Q 1753 -63 1716 -63 
L 1503 -1178 
Q 1484 -1272 1407 -1333 
Q 1331 -1394 1234 -1394 
Q 1156 -1394 1100 -1345 
Q 1044 -1297 1044 -1216 
z
M 1784 331 
Q 1856 325 1991 325 
Q 2388 325 2798 520 
Q 3209 716 3479 1056 
Q 3750 1397 3750 1797 
Q 3750 1978 3676 2122 
Q 3603 2266 3470 2348 
Q 3338 2431 3163 2431 
Q 2666 2431 2331 1950 
Q 1997 1469 1894 916 
L 1784 331 
z
" transform="scale(0.015625)"/>
      </defs>
      <use xlink:href="#Cmmi10-27" transform="translate(0 0.8125)"/>
     </g>
    </g>
   </g>
   <g id="matplotlib.axis_4">
    <g id="ytick_1">
     <g id="line2d_7">
      <defs>
       <path id="mb5aaa31879" d="M 0 0 
L -3.5 0 
" style="stroke: #000000; stroke-width: 0.8"/>
      </defs>
      <g>
       <use xlink:href="#mb5aaa31879" x="24.8875" y="338.176667" style="stroke: #000000; stroke-width: 0.8"/>
      </g>
     </g>
     <g id="text_4">
      <!-- $0$ -->
      <g transform="translate(12.8875 341.975885) scale(0.1 -0.1)">
       <use xlink:href="#Cmr10-30" transform="translate(0 0.390625)"/>
      </g>
     </g>
    </g>
    <g id="ytick_2">
     <g id="line2d_8">
      <g>
       <use xlink:href="#mb5aaa31879" x="24.8875" y="211.787778" style="stroke: #000000; stroke-width: 0.8"/>
      </g>
     </g>
     <g id="text_5">
      <!-- $1$ -->
      <g transform="translate(12.8875 215.586997) scale(0.1 -0.1)">
       <defs>
        <path id="Cmr10-31" d="M 594 0 
L 594 225 
Q 1394 225 1394 428 
L 1394 3788 
Q 1063 3628 556 3628 
L 556 3853 
Q 1341 3853 1741 4263 
L 1831 4263 
Q 1853 4263 1873 4245 
Q 1894 4228 1894 4206 
L 1894 428 
Q 1894 225 2694 225 
L 2694 0 
L 594 0 
z
" transform="scale(0.015625)"/>
       </defs>
       <use xlink:href="#Cmr10-31" transform="translate(0 0.390625)"/>
      </g>
     </g>
    </g>
   </g>
   <g id="patch_9">
    <path d="M 24.8875 345.76 
L 24.8875 186.51 
" style="fill: none; stroke: #000000; stroke-width: 0.8; stroke-linejoin: miter; stroke-linecap: square"/>
   </g>
   <g id="patch_10">
    <path d="M 294.24125 345.76 
L 294.24125 186.51 
" style="fill: none; stroke: #000000; stroke-width: 0.8; stroke-linejoin: miter; stroke-linecap: square"/>
   </g>
   <g id="patch_11">
    <path d="M 24.8875 345.76 
L 294.24125 345.76 
" style="fill: none; stroke: #000000; stroke-width: 0.8; stroke-linejoin: miter; stroke-linecap: square"/>
   </g>
   <g id="patch_12">
    <path d="M 24.8875 186.51 
L 294.24125 186.51 
" style="fill: none; stroke: #000000; stroke-width: 0.8; stroke-linejoin: miter; stroke-linecap: square"/>
   </g>
   <g id="text_6">
    <!-- $\tilde{J}$ -->
    <g transform="translate(111.0807 253.790781) scale(0.11 -0.11)">
     <defs>
      <path id="Cmr10-7e" d="M 531 3769 
L 716 3988 
Q 966 4275 1216 4275 
Q 1338 4275 1483 4203 
Q 1628 4131 1773 4059 
Q 1919 3988 2041 3988 
Q 2297 3988 2534 4275 
L 2663 4166 
L 2478 3950 
Q 2225 3659 1978 3659 
Q 1856 3659 1711 3732 
Q 1566 3806 1420 3878 
Q 1275 3950 1153 3950 
Q 897 3950 659 3659 
L 531 3769 
z
" transform="scale(0.015625)"/>
      <path id="Cmmi10-4a" d="M 697 384 
Q 759 206 928 115 
Q 1097 25 1294 25 
Q 1494 25 1680 164 
Q 1866 303 1995 512 
Q 2125 722 2175 928 
L 2931 3956 
Q 2938 3981 2939 3993 
Q 2941 4006 2944 4019 
Q 2944 4088 2894 4103 
Q 2725 4147 2209 4147 
Q 2144 4147 2144 4231 
Q 2156 4281 2164 4309 
Q 2172 4338 2192 4355 
Q 2213 4372 2253 4372 
L 3988 4372 
Q 4050 4372 4050 4288 
Q 4025 4147 3969 4147 
Q 3744 4147 3628 4112 
Q 3513 4078 3469 3928 
L 2713 903 
Q 2641 606 2420 367 
Q 2200 128 1897 -6 
Q 1594 -141 1288 -141 
Q 950 -141 695 46 
Q 441 234 441 556 
Q 441 769 556 922 
Q 672 1075 884 1075 
Q 1006 1075 1089 1000 
Q 1172 925 1172 806 
Q 1172 634 1044 506 
Q 916 378 744 378 
Q 709 378 697 384 
z
" transform="scale(0.015625)"/>
     </defs>
     <use xlink:href="#Cmr10-7e" transform="translate(9.558105 24.203125)"/>
     <use xlink:href="#Cmmi10-4a" transform="translate(0 0.5625)"/>
    </g>
   </g>
   <g id="text_7">
    <!-- $\delta$ -->
    <g transform="translate(138.016075 202.830781) scale(0.11 -0.11)">
     <defs>
      <path id="Cmmi10-b1" d="M 1281 -97 
Q 1059 -97 868 -14 
Q 678 69 536 225 
Q 394 381 325 573 
Q 256 766 256 991 
Q 256 1391 445 1767 
Q 634 2144 961 2419 
Q 1288 2694 1672 2791 
Q 1484 3138 1386 3389 
Q 1288 3641 1288 3903 
Q 1288 4097 1378 4245 
Q 1469 4394 1628 4478 
Q 1788 4563 1984 4563 
Q 2175 4563 2741 4434 
Q 2888 4400 2888 4263 
Q 2888 4156 2809 4068 
Q 2731 3981 2625 3981 
Q 2547 3981 2484 4017 
Q 2422 4053 2287 4143 
Q 2153 4234 2047 4282 
Q 1941 4331 1825 4331 
Q 1694 4331 1589 4251 
Q 1484 4172 1484 4044 
Q 1484 3841 1664 3577 
Q 1844 3313 2175 2900 
Q 2553 2419 2553 1838 
Q 2553 1550 2470 1215 
Q 2388 881 2230 584 
Q 2072 288 1826 95 
Q 1581 -97 1281 -97 
z
M 1294 78 
Q 1544 78 1723 337 
Q 1903 597 1995 955 
Q 2088 1313 2088 1556 
Q 2088 2034 1753 2631 
Q 1416 2538 1172 2238 
Q 928 1938 803 1547 
Q 678 1156 678 806 
Q 678 500 837 289 
Q 997 78 1294 78 
z
" transform="scale(0.015625)"/>
     </defs>
     <use xlink:href="#Cmmi10-b1" transform="translate(0 0.703125)"/>
    </g>
   </g>
   <g id="legend_1">
    <g id="patch_13">
     <path d="M 230.64125 223.86625 
L 287.24125 223.86625 
Q 289.24125 223.86625 289.24125 221.86625 
L 289.24125 193.51 
Q 289.24125 191.51 287.24125 191.51 
L 230.64125 191.51 
Q 228.64125 191.51 228.64125 193.51 
L 228.64125 221.86625 
Q 228.64125 223.86625 230.64125 223.86625 
z
" style="fill: #ffffff; opacity: 0.8; stroke: #cccccc; stroke-linejoin: miter"/>
    </g>
    <g id="line2d_9">
     <path d="M 232.64125 199.608438 
L 242.64125 199.608438 
L 252.64125 199.608438 
" style="fill: none; stroke-dasharray: 1.5,2.475; stroke-dashoffset: 0; stroke: #ff0000; stroke-width: 1.5"/>
    </g>
    <g id="text_8">
     <!-- $D = 0$ -->
     <g transform="translate(260.64125 203.108438) scale(0.1 -0.1)">
      <defs>
       <path id="Cmmi10-44" d="M 313 0 
Q 250 0 250 84 
Q 253 100 262 139 
Q 272 178 289 201 
Q 306 225 331 225 
Q 722 225 878 269 
Q 959 297 997 441 
L 1875 3956 
Q 1888 4019 1888 4044 
Q 1888 4113 1813 4122 
Q 1691 4147 1350 4147 
Q 1288 4147 1288 4231 
Q 1291 4247 1300 4286 
Q 1309 4325 1326 4348 
Q 1344 4372 1369 4372 
L 3669 4372 
Q 4116 4372 4450 4155 
Q 4784 3938 4962 3570 
Q 5141 3203 5141 2759 
Q 5141 2269 4937 1778 
Q 4734 1288 4368 881 
Q 4003 475 3534 237 
Q 3066 0 2572 0 
L 313 0 
z
M 1509 275 
Q 1509 225 1728 225 
L 2472 225 
Q 2828 225 3159 372 
Q 3491 519 3750 775 
Q 3991 1016 4175 1406 
Q 4359 1797 4461 2222 
Q 4563 2647 4563 3003 
Q 4563 3263 4486 3472 
Q 4409 3681 4270 3831 
Q 4131 3981 3922 4064 
Q 3713 4147 3450 4147 
L 2747 4147 
Q 2572 4147 2515 4117 
Q 2459 4088 2413 3928 
L 1538 416 
Q 1509 338 1509 275 
z
" transform="scale(0.015625)"/>
       <path id="Cmr10-3d" d="M 481 850 
Q 428 850 393 890 
Q 359 931 359 978 
Q 359 1031 393 1068 
Q 428 1106 481 1106 
L 4500 1106 
Q 4547 1106 4581 1068 
Q 4616 1031 4616 978 
Q 4616 931 4581 890 
Q 4547 850 4500 850 
L 481 850 
z
M 481 2094 
Q 428 2094 393 2131 
Q 359 2169 359 2222 
Q 359 2269 393 2309 
Q 428 2350 481 2350 
L 4500 2350 
Q 4547 2350 4581 2309 
Q 4616 2269 4616 2222 
Q 4616 2169 4581 2131 
Q 4547 2094 4500 2094 
L 481 2094 
z
" transform="scale(0.015625)"/>
      </defs>
      <use xlink:href="#Cmmi10-44" transform="translate(0 0.6875)"/>
      <use xlink:href="#Cmr10-3d" transform="translate(100.273438 0.6875)"/>
      <use xlink:href="#Cmr10-30" transform="translate(195.517578 0.6875)"/>
     </g>
    </g>
    <g id="line2d_10">
     <path d="M 232.64125 214.286563 
L 242.64125 214.286563 
L 252.64125 214.286563 
" style="fill: none; stroke: #000000; stroke-width: 1.5; stroke-linecap: square"/>
    </g>
    <g id="text_9">
     <!-- $D &gt; 0$ -->
     <g transform="translate(260.64125 217.786563) scale(0.1 -0.1)">
      <defs>
       <path id="Cmmi10-3e" d="M 531 -128 
Q 531 -47 616 -6 
L 4013 1600 
L 594 3219 
Q 531 3238 531 3328 
Q 531 3372 567 3414 
Q 603 3456 659 3456 
Q 672 3456 709 3444 
L 4384 1709 
Q 4441 1681 4441 1600 
Q 4441 1516 4366 1484 
L 709 -244 
Q 672 -256 659 -256 
Q 603 -256 567 -214 
Q 531 -172 531 -128 
z
" transform="scale(0.015625)"/>
      </defs>
      <use xlink:href="#Cmmi10-44" transform="translate(0 0.6875)"/>
      <use xlink:href="#Cmmi10-3e" transform="translate(100.273438 0.6875)"/>
      <use xlink:href="#Cmr10-30" transform="translate(195.517578 0.6875)"/>
     </g>
    </g>
   </g>
  </g>
  <g id="axes_3">
   <g id="matplotlib.axis_5">
    <g id="ytick_3">
     <g id="line2d_11">
      <defs>
       <path id="m7f101fe07f" d="M 0 0 
L 3.5 0 
" style="stroke: #000000; stroke-width: 0.8"/>
      </defs>
      <g>
       <use xlink:href="#m7f101fe07f" x="294.24125" y="338.521364" style="stroke: #000000; stroke-width: 0.8"/>
      </g>
     </g>
     <g id="text_10">
      <!-- $0$ -->
      <g transform="translate(301.24125 342.320582) scale(0.1 -0.1)">
       <use xlink:href="#Cmr10-30" transform="translate(0 0.390625)"/>
      </g>
     </g>
    </g>
    <g id="ytick_4">
     <g id="line2d_12">
      <g>
       <use xlink:href="#m7f101fe07f" x="294.24125" y="193.748636" style="stroke: #000000; stroke-width: 0.8"/>
      </g>
     </g>
     <g id="text_11">
      <!-- $\infty$ -->
      <g transform="translate(301.24125 197.547855) scale(0.1 -0.1)">
       <defs>
        <path id="Cmsy10-31" d="M 1575 -72 
Q 1213 -72 933 140 
Q 653 353 506 690 
Q 359 1028 359 1381 
Q 359 1653 445 1912 
Q 531 2172 693 2378 
Q 856 2584 1086 2706 
Q 1316 2828 1594 2828 
Q 1881 2828 2150 2718 
Q 2419 2609 2642 2428 
Q 2866 2247 3059 2009 
L 3250 1753 
Q 3441 2056 3672 2295 
Q 3903 2534 4195 2681 
Q 4488 2828 4819 2828 
Q 5097 2828 5325 2704 
Q 5553 2581 5712 2368 
Q 5872 2156 5953 1898 
Q 6034 1641 6034 1381 
Q 6034 1019 5882 683 
Q 5731 347 5451 137 
Q 5172 -72 4800 -72 
Q 4381 -72 4004 153 
Q 3628 378 3334 750 
L 3144 1006 
Q 2850 528 2451 228 
Q 2053 -72 1575 -72 
z
M 1509 153 
Q 2322 153 2963 1241 
L 2625 1672 
Q 2331 2059 2078 2278 
Q 1825 2497 1491 2497 
Q 1206 2497 986 2336 
Q 766 2175 645 1915 
Q 525 1656 525 1375 
Q 525 1159 592 942 
Q 659 725 787 547 
Q 916 369 1098 261 
Q 1281 153 1509 153 
z
M 3769 1088 
Q 4063 700 4316 481 
Q 4569 263 4903 263 
Q 5116 263 5294 356 
Q 5472 450 5601 609 
Q 5731 769 5800 969 
Q 5869 1169 5869 1381 
Q 5869 1678 5750 1961 
Q 5631 2244 5407 2425 
Q 5184 2606 4884 2606 
Q 4072 2606 3431 1516 
L 3769 1088 
z
" transform="scale(0.015625)"/>
       </defs>
       <use xlink:href="#Cmsy10-31" transform="translate(0 0.8125)"/>
      </g>
     </g>
    </g>
   </g>
   <g id="line2d_13">
    <path d="M 37.130852 338.521364 
L 133.705042 338.521364 
L 133.950155 193.748636 
L 134.195267 338.521364 
L 281.997898 338.521364 
L 281.997898 338.521364 
" clip-path="url(#p3238bb4616)" style="fill: none; stroke-dasharray: 1.5,2.475; stroke-dashoffset: 0; stroke: #ff0000; stroke-width: 1.5"/>
   </g>
   <g id="patch_14">
    <path d="M 24.8875 345.76 
L 24.8875 186.51 
" style="fill: none; stroke: #000000; stroke-width: 0.8; stroke-linejoin: miter; stroke-linecap: square"/>
   </g>
   <g id="patch_15">
    <path d="M 294.24125 345.76 
L 294.24125 186.51 
" style="fill: none; stroke: #000000; stroke-width: 0.8; stroke-linejoin: miter; stroke-linecap: square"/>
   </g>
   <g id="patch_16">
    <path d="M 24.8875 345.76 
L 294.24125 345.76 
" style="fill: none; stroke: #000000; stroke-width: 0.8; stroke-linejoin: miter; stroke-linecap: square"/>
   </g>
   <g id="patch_17">
    <path d="M 24.8875 186.51 
L 294.24125 186.51 
" style="fill: none; stroke: #000000; stroke-width: 0.8; stroke-linejoin: miter; stroke-linecap: square"/>
   </g>
  </g>
 </g>
 <defs>
  <clipPath id="p394a73f003">
   <rect x="24.8875" y="11.88" width="269.35375" height="159.25"/>
  </clipPath>
  <clipPath id="p3238bb4616">
   <rect x="24.8875" y="186.51" width="269.35375" height="159.25"/>
  </clipPath>
 </defs>
</svg>
