<?xml version="1.0" encoding="utf-8" standalone="no"?>
<!DOCTYPE svg PUBLIC "-//W3C//DTD SVG 1.1//EN"
  "http://www.w3.org/Graphics/SVG/1.1/DTD/svg11.dtd">
<svg xmlns:xlink="http://www.w3.org/1999/xlink" width="324pt" height="252pt" viewBox="0 0 324 252" xmlns="http://www.w3.org/2000/svg" version="1.1">
 <metadata>
  <rdf:RDF xmlns:dc="http://purl.org/dc/elements/1.1/" xmlns:cc="http://creativecommons.org/ns#" xmlns:rdf="http://www.w3.org/1999/02/22-rdf-syntax-ns#">
   <cc:Work>
    <dc:type rdf:resource="http://purl.org/dc/dcmitype/StillImage"/>
    <dc:date>2025-08-12T15:07:50.793231</dc:date>
    <dc:format>image/svg+xml</dc:format>
    <dc:creator>
     <cc:Agent>
      <dc:title>Matplotlib v3.7.1, https://matplotlib.org/</dc:title>
     </cc:Agent>
    </dc:creator>
   </cc:Work>
  </rdf:RDF>
 </metadata>
 <defs>
  <style type="text/css">*{stroke-linejoin: round; stroke-linecap: butt}</style>
 </defs>
 <g id="figure_1">
  <g id="patch_1">
   <path d="M 0 252 
L 324 252 
L 324 0 
L 0 0 
z
" style="fill: #ffffff"/>
  </g>
  <g id="axes_1">
   <g id="patch_2">
    <path d="M 32.847183 100.75 
L 312.12 100.75 
L 312.12 11.88 
L 32.847183 11.88 
z
" style="fill: #ffffff"/>
   </g>
   <g id="patch_3">
    <path d="M 138.970853 47.87235 
C 140.081813 47.87235 141.147421 47.544613 141.932989 46.96132 
C 142.718556 46.378027 143.159945 45.586801 143.159945 44.7619 
C 143.159945 43.936999 142.718556 43.145773 141.932989 42.56248 
C 141.147421 41.979187 140.081813 41.65145 138.970853 41.65145 
C 137.859893 41.65145 136.794285 41.979187 136.008718 42.56248 
C 135.22315 43.145773 134.781761 43.936999 134.781761 44.7619 
C 134.781761 45.586801 135.22315 46.378027 136.008718 46.96132 
C 136.794285 47.544613 137.859893 47.87235 138.970853 47.87235 
z
" clip-path="url(#p9a3e2cfc02)" style="stroke: #000000; stroke-linejoin: miter"/>
   </g>
   <g id="patch_4">
    <path d="M 200.410873 64.75765 
C 201.521833 64.75765 202.587441 64.429913 203.373009 63.84662 
C 204.158576 63.263327 204.599965 62.472101 204.599965 61.6472 
C 204.599965 60.822299 204.158576 60.031073 203.373009 59.44778 
C 202.587441 58.864487 201.521833 58.53675 200.410873 58.53675 
C 199.299913 58.53675 198.234305 58.864487 197.448738 59.44778 
C 196.66317 60.031073 196.221781 60.822299 196.221781 61.6472 
C 196.221781 62.472101 196.66317 63.263327 197.448738 63.84662 
C 198.234305 64.429913 199.299913 64.75765 200.410873 64.75765 
z
" clip-path="url(#p9a3e2cfc02)" style="fill: #808080; stroke: #808080; stroke-linejoin: miter"/>
   </g>
   <g id="matplotlib.axis_1">
    <g id="xtick_1">
     <g id="line2d_1">
      <defs>
       <path id="m9252b41630" d="M 0 0 
L 0 3.5 
" style="stroke: #000000; stroke-width: 0.8"/>
      </defs>
      <g>
       <use xlink:href="#m9252b41630" x="109.012496" y="100.75" style="stroke: #000000; stroke-width: 0.8"/>
      </g>
     </g>
    </g>
    <g id="xtick_2">
     <g id="line2d_2">
      <g>
       <use xlink:href="#m9252b41630" x="235.954686" y="100.75" style="stroke: #000000; stroke-width: 0.8"/>
      </g>
     </g>
    </g>
   </g>
   <g id="matplotlib.axis_2">
    <g id="ytick_1">
     <g id="line2d_3">
      <defs>
       <path id="m2ba50bc133" d="M 0 0 
L -3.5 0 
" style="stroke: #000000; stroke-width: 0.8"/>
      </defs>
      <g>
       <use xlink:href="#m2ba50bc133" x="32.847183" y="83.510817" style="stroke: #000000; stroke-width: 0.8"/>
      </g>
     </g>
     <g id="text_1">
      <!-- $-4$ -->
      <g transform="translate(13.047183 87.310036) scale(0.1 -0.1)">
       <defs>
        <path id="Cmsy10-a1" d="M 653 1472 
Q 600 1472 565 1512 
Q 531 1553 531 1600 
Q 531 1647 565 1687 
Q 600 1728 653 1728 
L 4325 1728 
Q 4375 1728 4408 1687 
Q 4441 1647 4441 1600 
Q 4441 1553 4408 1512 
Q 4375 1472 4325 1472 
L 653 1472 
z
" transform="scale(0.015625)"/>
        <path id="Cmr10-34" d="M 178 1056 
L 178 1281 
L 2156 4231 
Q 2178 4263 2222 4263 
L 2316 4263 
Q 2388 4263 2388 4191 
L 2388 1281 
L 3016 1281 
L 3016 1056 
L 2388 1056 
L 2388 428 
Q 2388 297 2575 261 
Q 2763 225 3009 225 
L 3009 0 
L 1247 0 
L 1247 225 
Q 1494 225 1681 261 
Q 1869 297 1869 428 
L 1869 1056 
L 178 1056 
z
M 391 1281 
L 1906 1281 
L 1906 3547 
L 391 1281 
z
" transform="scale(0.015625)"/>
       </defs>
       <use xlink:href="#Cmsy10-a1" transform="translate(0 0.390625)"/>
       <use xlink:href="#Cmr10-34" transform="translate(77.685547 0.390625)"/>
      </g>
     </g>
    </g>
    <g id="ytick_2">
     <g id="line2d_4">
      <g>
       <use xlink:href="#m2ba50bc133" x="32.847183" y="32.077727" style="stroke: #000000; stroke-width: 0.8"/>
      </g>
     </g>
     <g id="text_2">
      <!-- $0$ -->
      <g transform="translate(20.847183 35.876946) scale(0.1 -0.1)">
       <defs>
        <path id="Cmr10-30" d="M 1600 -141 
Q 816 -141 533 504 
Q 250 1150 250 2041 
Q 250 2597 351 3087 
Q 453 3578 754 3920 
Q 1056 4263 1600 4263 
Q 2022 4263 2290 4056 
Q 2559 3850 2700 3523 
Q 2841 3197 2892 2823 
Q 2944 2450 2944 2041 
Q 2944 1491 2842 1011 
Q 2741 531 2444 195 
Q 2147 -141 1600 -141 
z
M 1600 25 
Q 1956 25 2131 390 
Q 2306 756 2347 1200 
Q 2388 1644 2388 2144 
Q 2388 2625 2347 3031 
Q 2306 3438 2132 3767 
Q 1959 4097 1600 4097 
Q 1238 4097 1063 3765 
Q 888 3434 847 3029 
Q 806 2625 806 2144 
Q 806 1788 823 1472 
Q 841 1156 916 820 
Q 991 484 1158 254 
Q 1325 25 1600 25 
z
" transform="scale(0.015625)"/>
       </defs>
       <use xlink:href="#Cmr10-30" transform="translate(0 0.390625)"/>
      </g>
     </g>
    </g>
   </g>
   <g id="line2d_5">
    <path d="M 45.541402 15.919545 
L 61.29799 24.818727 
L 69.684561 29.299575 
L 76.800439 32.861649 
L 83.408041 35.921469 
L 89.507365 38.501246 
L 95.352551 40.730736 
L 100.943599 42.626336 
L 106.534646 44.281031 
L 111.871555 45.631672 
L 117.208464 46.758888 
L 122.545373 47.666712 
L 128.13642 48.391057 
L 133.981606 48.914682 
L 140.08093 49.228024 
L 146.434393 49.331417 
L 153.550272 49.222839 
L 162.190981 48.855666 
L 176.931015 47.955714 
L 188.621387 47.344273 
L 196.499681 47.149507 
L 203.361421 47.199508 
L 209.460746 47.457469 
L 215.305932 47.921846 
L 220.896979 48.58502 
L 226.488026 49.477114 
L 231.824935 50.551583 
L 237.161844 51.848869 
L 242.498753 53.370039 
L 248.0898 55.200642 
L 253.680848 57.266033 
L 259.526034 59.66297 
L 265.625358 62.402787 
L 272.23296 65.614905 
L 279.602977 69.447869 
L 288.497825 74.335034 
L 299.425781 80.552273 
L 299.425781 80.552273 
" clip-path="url(#p9a3e2cfc02)" style="fill: none; stroke: #800080; stroke-width: 1.5; stroke-linecap: square"/>
   </g>
   <g id="line2d_6">
    <path d="M 45.541402 96.710455 
L 61.29799 87.811273 
L 69.684561 83.330425 
L 76.800439 79.768351 
L 83.408041 76.708531 
L 89.507365 74.128754 
L 95.352551 71.899264 
L 100.943599 70.003664 
L 106.534646 68.348969 
L 111.871555 66.998328 
L 117.208464 65.871112 
L 122.545373 64.963288 
L 128.13642 64.238943 
L 133.981606 63.715318 
L 140.08093 63.401976 
L 146.434393 63.298583 
L 153.550272 63.407161 
L 162.190981 63.774334 
L 176.931015 64.674286 
L 188.621387 65.285727 
L 196.499681 65.480493 
L 203.361421 65.430492 
L 209.460746 65.172531 
L 215.305932 64.708154 
L 220.896979 64.04498 
L 226.488026 63.152886 
L 231.824935 62.078417 
L 237.161844 60.781131 
L 242.498753 59.259961 
L 248.0898 57.429358 
L 253.680848 55.363967 
L 259.526034 52.96703 
L 265.625358 50.227213 
L 272.23296 47.015095 
L 279.602977 43.182131 
L 288.497825 38.294966 
L 299.425781 32.077727 
L 299.425781 32.077727 
" clip-path="url(#p9a3e2cfc02)" style="fill: none; stroke-dasharray: 1.5,2.475; stroke-dashoffset: 0; stroke: #800080; stroke-width: 1.5"/>
   </g>
   <g id="patch_5">
    <path d="M 32.847183 100.75 
L 32.847183 11.88 
" style="fill: none; stroke: #000000; stroke-width: 0.8; stroke-linejoin: miter; stroke-linecap: square"/>
   </g>
   <g id="patch_6">
    <path d="M 312.12 100.75 
L 312.12 11.88 
" style="fill: none; stroke: #000000; stroke-width: 0.8; stroke-linejoin: miter; stroke-linecap: square"/>
   </g>
   <g id="patch_7">
    <path d="M 32.847183 100.75 
L 312.12 100.75 
" style="fill: none; stroke: #000000; stroke-width: 0.8; stroke-linejoin: miter; stroke-linecap: square"/>
   </g>
   <g id="patch_8">
    <path d="M 32.847183 11.88 
L 312.12 11.88 
" style="fill: none; stroke: #000000; stroke-width: 0.8; stroke-linejoin: miter; stroke-linecap: square"/>
   </g>
   <g id="text_3">
    <!-- $U_{-}$ -->
    <g transform="translate(74.738105 29.125281) scale(0.11 -0.11)">
     <defs>
      <path id="Cmmi10-55" d="M 941 891 
Q 941 656 1033 472 
Q 1125 288 1300 186 
Q 1475 84 1709 84 
Q 1984 84 2245 196 
Q 2506 309 2715 509 
Q 2925 709 3073 965 
Q 3222 1222 3284 1472 
L 3859 3781 
Q 3872 3850 3872 3878 
Q 3872 4147 3378 4147 
Q 3316 4147 3316 4231 
Q 3338 4313 3350 4342 
Q 3363 4372 3425 4372 
L 4813 4372 
Q 4841 4372 4859 4344 
Q 4878 4316 4878 4288 
Q 4878 4284 4865 4239 
Q 4853 4194 4836 4170 
Q 4819 4147 4794 4147 
Q 4181 4147 4084 3756 
L 3506 1447 
Q 3434 1147 3264 864 
Q 3094 581 2845 351 
Q 2597 122 2298 -9 
Q 2000 -141 1691 -141 
Q 1338 -141 1045 14 
Q 753 169 587 447 
Q 422 725 422 1088 
Q 422 1297 469 1472 
L 1088 3956 
Q 1100 4019 1100 4044 
Q 1100 4113 1025 4122 
Q 903 4147 563 4147 
Q 500 4147 500 4231 
Q 522 4313 534 4342 
Q 547 4372 609 4372 
L 2328 4372 
Q 2394 4372 2394 4288 
Q 2391 4272 2381 4234 
Q 2372 4197 2356 4172 
Q 2341 4147 2309 4147 
Q 1919 4147 1766 4103 
Q 1681 4072 1644 3928 
L 1025 1447 
Q 941 1109 941 891 
z
" transform="scale(0.015625)"/>
     </defs>
     <use xlink:href="#Cmmi10-55" transform="translate(0 0.6875)"/>
     <use xlink:href="#Cmsy10-a1" transform="translate(68.212891 -16.31875) scale(0.7)"/>
    </g>
   </g>
   <g id="text_4">
    <!-- $U_{+}$ -->
    <g transform="translate(284.192718 28.882937) scale(0.11 -0.11)">
     <defs>
      <path id="Cmr10-2b" d="M 481 1472 
Q 428 1472 393 1512 
Q 359 1553 359 1600 
Q 359 1647 393 1687 
Q 428 1728 481 1728 
L 2363 1728 
L 2363 3616 
Q 2363 3666 2400 3698 
Q 2438 3731 2491 3731 
Q 2538 3731 2578 3698 
Q 2619 3666 2619 3616 
L 2619 1728 
L 4500 1728 
Q 4547 1728 4581 1687 
Q 4616 1647 4616 1600 
Q 4616 1553 4581 1512 
Q 4547 1472 4500 1472 
L 2619 1472 
L 2619 -416 
Q 2619 -466 2578 -498 
Q 2538 -531 2491 -531 
Q 2438 -531 2400 -498 
Q 2363 -466 2363 -416 
L 2363 1472 
L 481 1472 
z
" transform="scale(0.015625)"/>
     </defs>
     <use xlink:href="#Cmmi10-55" transform="translate(0 0.6875)"/>
     <use xlink:href="#Cmr10-2b" transform="translate(68.212891 -16.31875) scale(0.7)"/>
    </g>
   </g>
  </g>
  <g id="axes_2">
   <g id="patch_9">
    <path d="M 32.847183 208.96 
L 312.12 208.96 
L 312.12 120.09 
L 32.847183 120.09 
z
" style="fill: #ffffff"/>
   </g>
   <g id="line2d_7">
    <path d="M 45.541402 205.228245 
L 73.750777 205.103061 
L 90.015642 204.837771 
L 96.623244 204.532947 
L 100.435321 204.148531 
L 103.230845 203.654945 
L 105.518092 203.032408 
L 107.5512 202.242025 
L 109.33017 201.308927 
L 110.855001 200.286497 
L 112.379832 199.01999 
L 113.904663 197.472496 
L 115.429494 195.608926 
L 116.954325 193.398546 
L 118.479156 190.817827 
L 120.258126 187.321765 
L 122.037095 183.305363 
L 124.070204 178.11857 
L 126.35745 171.643116 
L 129.91539 160.760793 
L 133.727467 149.231427 
L 135.760575 143.708581 
L 137.539545 139.488404 
L 139.064376 136.438624 
L 140.335069 134.351816 
L 141.605761 132.710796 
L 142.622315 131.732474 
L 143.63887 131.057354 
L 144.655424 130.686276 
L 145.671978 130.615909 
L 146.688532 130.838996 
L 147.705086 131.344669 
L 148.72164 132.118842 
L 149.738194 133.144643 
L 151.008887 134.751352 
L 152.533718 137.100263 
L 154.312687 140.32358 
L 156.345795 144.490245 
L 159.395458 151.322111 
L 165.748921 165.75134 
L 168.544444 171.519373 
L 171.085829 176.265159 
L 173.373076 180.092709 
L 175.660323 183.494929 
L 177.947569 186.48584 
L 180.234816 189.091638 
L 182.522063 191.3457 
L 184.809309 193.284722 
L 187.096556 194.945898 
L 189.637941 196.509227 
L 192.179326 197.818951 
L 194.97485 199.014745 
L 198.024512 200.07914 
L 201.582452 201.068659 
L 205.394529 201.895386 
L 209.969023 202.649739 
L 215.305932 203.294816 
L 221.913533 203.855879 
L 230.300104 204.327807 
L 241.22806 204.707001 
L 256.476371 204.999587 
L 278.840561 205.188641 
L 299.425781 205.228245 
L 299.425781 205.228245 
" clip-path="url(#pd96f516c82)" style="fill: none; stroke: #000000; stroke-width: 1.5; stroke-linecap: square"/>
   </g>
   <g id="line2d_8">
    <path d="M 45.541402 205.228245 
L 75.529747 205.132574 
L 97.131521 204.858155 
L 111.109139 204.47389 
L 121.020541 203.990413 
L 128.390558 203.420041 
L 134.235744 202.755411 
L 139.064376 201.990656 
L 143.130592 201.130583 
L 146.688532 200.158102 
L 149.738194 199.112316 
L 152.533718 197.937575 
L 155.075103 196.650905 
L 157.616488 195.114898 
L 159.903735 193.482346 
L 162.190981 191.57602 
L 164.478228 189.358804 
L 166.765475 186.793827 
L 168.798583 184.194351 
L 171.085829 180.885261 
L 173.373076 177.15261 
L 175.660323 172.995971 
L 178.201708 167.909199 
L 181.25137 161.263828 
L 190.400357 140.819664 
L 192.179326 137.53145 
L 193.704158 135.112687 
L 194.97485 133.438207 
L 196.245543 132.118842 
L 197.262097 131.344669 
L 198.278651 130.838996 
L 199.295205 130.615909 
L 200.057621 130.640711 
L 200.820036 130.833923 
L 201.83659 131.356862 
L 202.853144 132.183955 
L 203.869698 133.312219 
L 205.140391 135.134495 
L 206.411083 137.391797 
L 207.935915 140.626417 
L 209.714884 145.027463 
L 211.747992 150.702209 
L 214.797655 159.970802 
L 219.372148 173.865627 
L 221.659395 180.133539 
L 223.692503 185.089154 
L 225.471472 188.884491 
L 227.250442 192.155588 
L 228.775273 194.548761 
L 230.300104 196.582276 
L 231.824935 198.28363 
L 233.349766 199.686075 
L 234.874597 200.825905 
L 236.653567 201.873094 
L 238.432537 202.66966 
L 240.465645 203.338928 
L 242.752892 203.862568 
L 245.548415 204.276451 
L 249.360493 204.600661 
L 255.205679 204.845087 
L 266.387774 205.050632 
L 287.989548 205.206215 
L 299.425781 205.228245 
L 299.425781 205.228245 
" clip-path="url(#pd96f516c82)" style="fill: none; stroke-dasharray: 1.5,2.475; stroke-dashoffset: 0; stroke: #000000; stroke-width: 1.5"/>
   </g>
   <g id="line2d_9">
    <path d="M 45.541402 196.518038 
L 53.165557 195.438798 
L 61.043851 194.094113 
L 69.430422 192.430175 
L 80.10424 190.065897 
L 96.623244 186.397284 
L 103.739122 185.069694 
L 109.584308 184.196087 
L 114.921217 183.610925 
L 120.003987 183.265638 
L 125.086758 183.139029 
L 130.169528 183.232485 
L 135.506437 183.557955 
L 141.097484 184.126527 
L 147.196809 184.973227 
L 154.312687 186.190864 
L 163.969951 188.085921 
L 186.588279 192.596315 
L 196.245543 194.24443 
L 205.140391 195.540299 
L 214.035239 196.61405 
L 223.184226 197.492588 
L 232.587351 198.169729 
L 242.244614 198.640531 
L 251.901878 198.891831 
L 261.559142 198.922195 
L 270.962267 198.727118 
L 279.857115 198.318081 
L 288.243686 197.708842 
L 296.12198 196.917384 
L 299.425781 196.518038 
L 299.425781 196.518038 
" clip-path="url(#pd96f516c82)" style="fill: none; stroke: #ff0000; stroke-width: 1.5; stroke-linecap: square"/>
   </g>
   <g id="line2d_10">
    <path d="M 45.541402 196.518038 
L 53.419696 197.403908 
L 61.552128 198.087556 
L 69.938699 198.568713 
L 78.833547 198.856166 
L 88.236673 198.935162 
L 97.893936 198.793451 
L 107.5512 198.432891 
L 117.208464 197.849727 
L 126.611589 197.056779 
L 135.760575 196.058607 
L 144.655424 194.864284 
L 153.80441 193.406584 
L 163.715812 191.591473 
L 177.185154 188.869107 
L 191.162772 186.097453 
L 198.786928 184.817765 
L 205.140391 183.978426 
L 210.731438 183.460249 
L 216.068347 183.188795 
L 221.151117 183.149929 
L 226.233888 183.331738 
L 231.316658 183.730281 
L 236.653567 184.366587 
L 242.498753 185.287757 
L 249.360493 186.60547 
L 258.50948 188.610642 
L 278.078146 192.956939 
L 286.464717 194.552619 
L 294.343011 195.823135 
L 299.425781 196.518038 
L 299.425781 196.518038 
" clip-path="url(#pd96f516c82)" style="fill: none; stroke-dasharray: 1.5,2.475; stroke-dashoffset: 0; stroke: #ff0000; stroke-width: 1.5"/>
   </g>
   <g id="matplotlib.axis_3">
    <g id="xtick_3">
     <g id="line2d_11">
      <g>
       <use xlink:href="#m9252b41630" x="109.012496" y="208.96" style="stroke: #000000; stroke-width: 0.8"/>
      </g>
     </g>
     <g id="text_5">
      <!-- $0$ -->
      <g transform="translate(106.512496 223.558438) scale(0.1 -0.1)">
       <use xlink:href="#Cmr10-30" transform="translate(0 0.390625)"/>
      </g>
     </g>
    </g>
    <g id="xtick_4">
     <g id="line2d_12">
      <g>
       <use xlink:href="#m9252b41630" x="235.954686" y="208.96" style="stroke: #000000; stroke-width: 0.8"/>
      </g>
     </g>
     <g id="text_6">
      <!-- $\pi$ -->
      <g transform="translate(233.104686 223.558438) scale(0.1 -0.1)">
       <defs>
        <path id="Cmmi10-bc" d="M 647 109 
Q 647 144 672 213 
Q 850 584 1004 942 
Q 1159 1300 1282 1639 
Q 1406 1978 1509 2363 
L 1100 2363 
Q 866 2363 662 2216 
Q 459 2069 325 1844 
Q 313 1819 288 1819 
L 213 1819 
Q 153 1819 153 1881 
Q 153 1894 166 1919 
Q 375 2275 614 2517 
Q 853 2759 1153 2759 
L 3475 2759 
Q 3541 2759 3587 2715 
Q 3634 2672 3634 2597 
Q 3634 2503 3567 2433 
Q 3500 2363 3406 2363 
L 2591 2363 
Q 2488 1859 2478 1381 
Q 2478 766 2694 269 
Q 2713 231 2713 191 
Q 2713 122 2672 62 
Q 2631 3 2567 -34 
Q 2503 -72 2431 -72 
Q 2263 -72 2200 203 
Q 2138 478 2138 738 
Q 2138 1103 2200 1442 
Q 2263 1781 2400 2363 
L 1703 2363 
Q 1197 313 1094 103 
Q 1003 -72 844 -72 
Q 766 -72 706 -20 
Q 647 31 647 109 
z
" transform="scale(0.015625)"/>
       </defs>
       <use xlink:href="#Cmmi10-bc" transform="translate(0 0.890625)"/>
      </g>
     </g>
    </g>
    <g id="text_7">
     <!-- $\varphi$ -->
     <g transform="translate(168.853591 237.864063) scale(0.11 -0.11)">
      <defs>
       <path id="Cmmi10-27" d="M 1044 -1216 
Q 1044 -1191 1056 -1141 
L 1416 -13 
Q 938 106 628 428 
Q 319 750 319 1216 
Q 319 1450 406 1744 
Q 494 2038 631 2302 
Q 769 2566 928 2741 
Q 966 2759 972 2759 
L 1050 2759 
Q 1069 2759 1084 2740 
Q 1100 2722 1100 2700 
Q 1100 2675 1088 2663 
Q 981 2547 879 2380 
Q 778 2213 698 2028 
Q 619 1844 566 1641 
Q 513 1438 513 1288 
Q 513 909 814 676 
Q 1116 444 1528 366 
L 1709 941 
Q 1828 1313 1945 1605 
Q 2063 1897 2239 2176 
Q 2416 2456 2666 2642 
Q 2916 2828 3225 2828 
Q 3469 2828 3633 2706 
Q 3797 2584 3876 2381 
Q 3956 2178 3956 1947 
Q 3956 1566 3787 1202 
Q 3619 838 3325 548 
Q 3031 259 2662 93 
Q 2294 -72 1919 -72 
Q 1869 -69 1811 -66 
Q 1753 -63 1716 -63 
L 1503 -1178 
Q 1484 -1272 1407 -1333 
Q 1331 -1394 1234 -1394 
Q 1156 -1394 1100 -1345 
Q 1044 -1297 1044 -1216 
z
M 1784 331 
Q 1856 325 1991 325 
Q 2388 325 2798 520 
Q 3209 716 3479 1056 
Q 3750 1397 3750 1797 
Q 3750 1978 3676 2122 
Q 3603 2266 3470 2348 
Q 3338 2431 3163 2431 
Q 2666 2431 2331 1950 
Q 1997 1469 1894 916 
L 1784 331 
z
" transform="scale(0.015625)"/>
      </defs>
      <use xlink:href="#Cmmi10-27" transform="translate(0 0.8125)"/>
     </g>
    </g>
   </g>
   <g id="matplotlib.axis_4">
    <g id="ytick_3">
     <g id="line2d_13">
      <g>
       <use xlink:href="#m2ba50bc133" x="32.847183" y="205.911035" style="stroke: #000000; stroke-width: 0.8"/>
      </g>
     </g>
     <g id="text_8">
      <!-- $0$ -->
      <g transform="translate(20.847183 209.710254) scale(0.1 -0.1)">
       <use xlink:href="#Cmr10-30" transform="translate(0 0.390625)"/>
      </g>
     </g>
    </g>
    <g id="ytick_4">
     <g id="line2d_14">
      <g>
       <use xlink:href="#m2ba50bc133" x="32.847183" y="120.09" style="stroke: #000000; stroke-width: 0.8"/>
      </g>
     </g>
     <g id="text_9">
      <!-- $1$ -->
      <g transform="translate(20.847183 123.889219) scale(0.1 -0.1)">
       <defs>
        <path id="Cmr10-31" d="M 594 0 
L 594 225 
Q 1394 225 1394 428 
L 1394 3788 
Q 1063 3628 556 3628 
L 556 3853 
Q 1341 3853 1741 4263 
L 1831 4263 
Q 1853 4263 1873 4245 
Q 1894 4228 1894 4206 
L 1894 428 
Q 1894 225 2694 225 
L 2694 0 
L 594 0 
z
" transform="scale(0.015625)"/>
       </defs>
       <use xlink:href="#Cmr10-31" transform="translate(0 0.390625)"/>
      </g>
     </g>
    </g>
   </g>
   <g id="patch_10">
    <path d="M 32.847183 208.96 
L 32.847183 120.09 
" style="fill: none; stroke: #000000; stroke-width: 0.8; stroke-linejoin: miter; stroke-linecap: square"/>
   </g>
   <g id="patch_11">
    <path d="M 312.12 208.96 
L 312.12 120.09 
" style="fill: none; stroke: #000000; stroke-width: 0.8; stroke-linejoin: miter; stroke-linecap: square"/>
   </g>
   <g id="patch_12">
    <path d="M 32.847183 208.96 
L 312.12 208.96 
" style="fill: none; stroke: #000000; stroke-width: 0.8; stroke-linejoin: miter; stroke-linecap: square"/>
   </g>
   <g id="patch_13">
    <path d="M 32.847183 120.09 
L 312.12 120.09 
" style="fill: none; stroke: #000000; stroke-width: 0.8; stroke-linejoin: miter; stroke-linecap: square"/>
   </g>
   <g id="text_10">
    <!-- $\tilde{J}_{-}$ -->
    <g transform="translate(113.8363 160.896844) scale(0.11 -0.11)">
     <defs>
      <path id="Cmr10-7e" d="M 531 3769 
L 716 3988 
Q 966 4275 1216 4275 
Q 1338 4275 1483 4203 
Q 1628 4131 1773 4059 
Q 1919 3988 2041 3988 
Q 2297 3988 2534 4275 
L 2663 4166 
L 2478 3950 
Q 2225 3659 1978 3659 
Q 1856 3659 1711 3732 
Q 1566 3806 1420 3878 
Q 1275 3950 1153 3950 
Q 897 3950 659 3659 
L 531 3769 
z
" transform="scale(0.015625)"/>
      <path id="Cmmi10-4a" d="M 697 384 
Q 759 206 928 115 
Q 1097 25 1294 25 
Q 1494 25 1680 164 
Q 1866 303 1995 512 
Q 2125 722 2175 928 
L 2931 3956 
Q 2938 3981 2939 3993 
Q 2941 4006 2944 4019 
Q 2944 4088 2894 4103 
Q 2725 4147 2209 4147 
Q 2144 4147 2144 4231 
Q 2156 4281 2164 4309 
Q 2172 4338 2192 4355 
Q 2213 4372 2253 4372 
L 3988 4372 
Q 4050 4372 4050 4288 
Q 4025 4147 3969 4147 
Q 3744 4147 3628 4112 
Q 3513 4078 3469 3928 
L 2713 903 
Q 2641 606 2420 367 
Q 2200 128 1897 -6 
Q 1594 -141 1288 -141 
Q 950 -141 695 46 
Q 441 234 441 556 
Q 441 769 556 922 
Q 672 1075 884 1075 
Q 1006 1075 1089 1000 
Q 1172 925 1172 806 
Q 1172 634 1044 506 
Q 916 378 744 378 
Q 709 378 697 384 
z
" transform="scale(0.015625)"/>
     </defs>
     <use xlink:href="#Cmr10-7e" transform="translate(9.558105 24.203125)"/>
     <use xlink:href="#Cmmi10-4a" transform="translate(0 0.5625)"/>
     <use xlink:href="#Cmsy10-a1" transform="translate(59.884062 -16.44375) scale(0.7)"/>
    </g>
   </g>
   <g id="text_11">
    <!-- $\tilde{J}_{+}$ -->
    <g transform="translate(219.95997 161.2045) scale(0.11 -0.11)">
     <use xlink:href="#Cmr10-7e" transform="translate(9.558105 24.203125)"/>
     <use xlink:href="#Cmmi10-4a" transform="translate(0 0.5625)"/>
     <use xlink:href="#Cmr10-2b" transform="translate(59.884062 -16.44375) scale(0.7)"/>
    </g>
   </g>
   <g id="legend_1">
    <g id="patch_14">
     <path d="M 240.72 157.44625 
L 305.12 157.44625 
Q 307.12 157.44625 307.12 155.44625 
L 307.12 127.09 
Q 307.12 125.09 305.12 125.09 
L 240.72 125.09 
Q 238.72 125.09 238.72 127.09 
L 238.72 155.44625 
Q 238.72 157.44625 240.72 157.44625 
z
" style="fill: #ffffff; opacity: 0.8; stroke: #cccccc; stroke-linejoin: miter"/>
    </g>
    <g id="line2d_15">
     <path d="M 242.72 133.188437 
L 252.72 133.188437 
L 262.72 133.188437 
" style="fill: none; stroke: #000000; stroke-width: 1.5; stroke-linecap: square"/>
    </g>
    <g id="text_12">
     <!-- $D = 0.1$ -->
     <g transform="translate(270.72 136.688437) scale(0.1 -0.1)">
      <defs>
       <path id="Cmmi10-44" d="M 313 0 
Q 250 0 250 84 
Q 253 100 262 139 
Q 272 178 289 201 
Q 306 225 331 225 
Q 722 225 878 269 
Q 959 297 997 441 
L 1875 3956 
Q 1888 4019 1888 4044 
Q 1888 4113 1813 4122 
Q 1691 4147 1350 4147 
Q 1288 4147 1288 4231 
Q 1291 4247 1300 4286 
Q 1309 4325 1326 4348 
Q 1344 4372 1369 4372 
L 3669 4372 
Q 4116 4372 4450 4155 
Q 4784 3938 4962 3570 
Q 5141 3203 5141 2759 
Q 5141 2269 4937 1778 
Q 4734 1288 4368 881 
Q 4003 475 3534 237 
Q 3066 0 2572 0 
L 313 0 
z
M 1509 275 
Q 1509 225 1728 225 
L 2472 225 
Q 2828 225 3159 372 
Q 3491 519 3750 775 
Q 3991 1016 4175 1406 
Q 4359 1797 4461 2222 
Q 4563 2647 4563 3003 
Q 4563 3263 4486 3472 
Q 4409 3681 4270 3831 
Q 4131 3981 3922 4064 
Q 3713 4147 3450 4147 
L 2747 4147 
Q 2572 4147 2515 4117 
Q 2459 4088 2413 3928 
L 1538 416 
Q 1509 338 1509 275 
z
" transform="scale(0.015625)"/>
       <path id="Cmr10-3d" d="M 481 850 
Q 428 850 393 890 
Q 359 931 359 978 
Q 359 1031 393 1068 
Q 428 1106 481 1106 
L 4500 1106 
Q 4547 1106 4581 1068 
Q 4616 1031 4616 978 
Q 4616 931 4581 890 
Q 4547 850 4500 850 
L 481 850 
z
M 481 2094 
Q 428 2094 393 2131 
Q 359 2169 359 2222 
Q 359 2269 393 2309 
Q 428 2350 481 2350 
L 4500 2350 
Q 4547 2350 4581 2309 
Q 4616 2269 4616 2222 
Q 4616 2169 4581 2131 
Q 4547 2094 4500 2094 
L 481 2094 
z
" transform="scale(0.015625)"/>
       <path id="Cmmi10-3a" d="M 538 353 
Q 538 497 644 600 
Q 750 703 891 703 
Q 978 703 1062 656 
Q 1147 609 1194 525 
Q 1241 441 1241 353 
Q 1241 213 1137 106 
Q 1034 0 891 0 
Q 750 0 644 106 
Q 538 213 538 353 
z
" transform="scale(0.015625)"/>
      </defs>
      <use xlink:href="#Cmmi10-44" transform="translate(0 0.6875)"/>
      <use xlink:href="#Cmr10-3d" transform="translate(100.273438 0.6875)"/>
      <use xlink:href="#Cmr10-30" transform="translate(195.517578 0.6875)"/>
      <use xlink:href="#Cmmi10-3a" transform="translate(245.517578 0.6875)"/>
      <use xlink:href="#Cmr10-31" transform="translate(273.203125 0.6875)"/>
     </g>
    </g>
    <g id="line2d_16">
     <path d="M 242.72 147.866562 
L 252.72 147.866562 
L 262.72 147.866562 
" style="fill: none; stroke: #ff0000; stroke-width: 1.5; stroke-linecap: square"/>
    </g>
    <g id="text_13">
     <!-- $D = 1.5$ -->
     <g transform="translate(270.72 151.366562) scale(0.1 -0.1)">
      <defs>
       <path id="Cmr10-35" d="M 556 728 
Q 622 541 758 387 
Q 894 234 1080 148 
Q 1266 63 1466 63 
Q 1928 63 2103 422 
Q 2278 781 2278 1294 
Q 2278 1516 2270 1667 
Q 2263 1819 2228 1959 
Q 2169 2184 2020 2353 
Q 1872 2522 1656 2522 
Q 1441 2522 1286 2456 
Q 1131 2391 1034 2303 
Q 938 2216 863 2119 
Q 788 2022 769 2016 
L 697 2016 
Q 681 2016 657 2036 
Q 634 2056 634 2075 
L 634 4213 
Q 634 4228 654 4245 
Q 675 4263 697 4263 
L 716 4263 
Q 1147 4056 1631 4056 
Q 2106 4056 2547 4263 
L 2566 4263 
Q 2588 4263 2606 4247 
Q 2625 4231 2625 4213 
L 2625 4153 
Q 2625 4122 2613 4122 
Q 2394 3831 2064 3668 
Q 1734 3506 1381 3506 
Q 1125 3506 856 3578 
L 856 2369 
Q 1069 2541 1236 2614 
Q 1403 2688 1663 2688 
Q 2016 2688 2295 2484 
Q 2575 2281 2725 1954 
Q 2875 1628 2875 1288 
Q 2875 903 2686 575 
Q 2497 247 2172 53 
Q 1847 -141 1466 -141 
Q 1150 -141 886 21 
Q 622 184 470 459 
Q 319 734 319 1044 
Q 319 1188 412 1278 
Q 506 1369 647 1369 
Q 788 1369 883 1276 
Q 978 1184 978 1044 
Q 978 906 883 811 
Q 788 716 647 716 
Q 625 716 597 720 
Q 569 725 556 728 
z
" transform="scale(0.015625)"/>
      </defs>
      <use xlink:href="#Cmmi10-44" transform="translate(0 0.6875)"/>
      <use xlink:href="#Cmr10-3d" transform="translate(100.273438 0.6875)"/>
      <use xlink:href="#Cmr10-31" transform="translate(195.517578 0.6875)"/>
      <use xlink:href="#Cmmi10-3a" transform="translate(245.517578 0.6875)"/>
      <use xlink:href="#Cmr10-35" transform="translate(273.203125 0.6875)"/>
     </g>
    </g>
   </g>
  </g>
 </g>
 <defs>
  <clipPath id="p9a3e2cfc02">
   <rect x="32.847183" y="11.88" width="279.272817" height="88.87"/>
  </clipPath>
  <clipPath id="pd96f516c82">
   <rect x="32.847183" y="120.09" width="279.272817" height="88.87"/>
  </clipPath>
 </defs>
</svg>
