<?xml version="1.0" encoding="utf-8" standalone="no"?>
<!DOCTYPE svg PUBLIC "-//W3C//DTD SVG 1.1//EN"
  "http://www.w3.org/Graphics/SVG/1.1/DTD/svg11.dtd">
<svg xmlns:xlink="http://www.w3.org/1999/xlink" width="324pt" height="252pt" viewBox="0 0 324 252" xmlns="http://www.w3.org/2000/svg" version="1.1">
 <metadata>
  <rdf:RDF xmlns:dc="http://purl.org/dc/elements/1.1/" xmlns:cc="http://creativecommons.org/ns#" xmlns:rdf="http://www.w3.org/1999/02/22-rdf-syntax-ns#">
   <cc:Work>
    <dc:type rdf:resource="http://purl.org/dc/dcmitype/StillImage"/>
    <dc:date>2025-08-12T15:19:51.968761</dc:date>
    <dc:format>image/svg+xml</dc:format>
    <dc:creator>
     <cc:Agent>
      <dc:title>Matplotlib v3.7.1, https://matplotlib.org/</dc:title>
     </cc:Agent>
    </dc:creator>
   </cc:Work>
  </rdf:RDF>
 </metadata>
 <defs>
  <style type="text/css">*{stroke-linejoin: round; stroke-linecap: butt}</style>
 </defs>
 <g id="figure_1">
  <g id="patch_1">
   <path d="M 0 252 
L 324 252 
L 324 0 
L 0 0 
z
" style="fill: #ffffff"/>
  </g>
  <g id="axes_1">
   <g id="patch_2">
    <path d="M 47.779679 101.589395 
L 312.12 101.589395 
L 312.12 11.88 
L 47.779679 11.88 
z
" style="fill: #ffffff"/>
   </g>
   <g id="matplotlib.axis_1">
    <g id="xtick_1">
     <g id="line2d_1">
      <defs>
       <path id="mbbd1bc6e8a" d="M 0 0 
L 0 3.5 
" style="stroke: #000000; stroke-width: 0.8"/>
      </defs>
      <g>
       <use xlink:href="#mbbd1bc6e8a" x="119.872494" y="101.589395" style="stroke: #000000; stroke-width: 0.8"/>
      </g>
     </g>
    </g>
    <g id="xtick_2">
     <g id="line2d_2">
      <g>
       <use xlink:href="#mbbd1bc6e8a" x="240.027185" y="101.589395" style="stroke: #000000; stroke-width: 0.8"/>
      </g>
     </g>
    </g>
   </g>
   <g id="matplotlib.axis_2">
    <g id="ytick_1">
     <g id="line2d_3">
      <defs>
       <path id="m4147719d00" d="M 0 0 
L -3.5 0 
" style="stroke: #000000; stroke-width: 0.8"/>
      </defs>
      <g>
       <use xlink:href="#m4147719d00" x="47.779679" y="101.244807" style="stroke: #000000; stroke-width: 0.8"/>
      </g>
     </g>
     <g id="text_1">
      <!-- $-4$ -->
      <g transform="translate(27.979679 105.044025) scale(0.1 -0.1)">
       <defs>
        <path id="Cmsy10-a1" d="M 653 1472 
Q 600 1472 565 1512 
Q 531 1553 531 1600 
Q 531 1647 565 1687 
Q 600 1728 653 1728 
L 4325 1728 
Q 4375 1728 4408 1687 
Q 4441 1647 4441 1600 
Q 4441 1553 4408 1512 
Q 4375 1472 4325 1472 
L 653 1472 
z
" transform="scale(0.015625)"/>
        <path id="Cmr10-34" d="M 178 1056 
L 178 1281 
L 2156 4231 
Q 2178 4263 2222 4263 
L 2316 4263 
Q 2388 4263 2388 4191 
L 2388 1281 
L 3016 1281 
L 3016 1056 
L 2388 1056 
L 2388 428 
Q 2388 297 2575 261 
Q 2763 225 3009 225 
L 3009 0 
L 1247 0 
L 1247 225 
Q 1494 225 1681 261 
Q 1869 297 1869 428 
L 1869 1056 
L 178 1056 
z
M 391 1281 
L 1906 1281 
L 1906 3547 
L 391 1281 
z
" transform="scale(0.015625)"/>
       </defs>
       <use xlink:href="#Cmsy10-a1" transform="translate(0 0.390625)"/>
       <use xlink:href="#Cmr10-34" transform="translate(77.685547 0.390625)"/>
      </g>
     </g>
    </g>
    <g id="ytick_2">
     <g id="line2d_4">
      <g>
       <use xlink:href="#m4147719d00" x="47.779679" y="36.346199" style="stroke: #000000; stroke-width: 0.8"/>
      </g>
     </g>
     <g id="text_2">
      <!-- $0$ -->
      <g transform="translate(35.779679 40.145418) scale(0.1 -0.1)">
       <defs>
        <path id="Cmr10-30" d="M 1600 -141 
Q 816 -141 533 504 
Q 250 1150 250 2041 
Q 250 2597 351 3087 
Q 453 3578 754 3920 
Q 1056 4263 1600 4263 
Q 2022 4263 2290 4056 
Q 2559 3850 2700 3523 
Q 2841 3197 2892 2823 
Q 2944 2450 2944 2041 
Q 2944 1491 2842 1011 
Q 2741 531 2444 195 
Q 2147 -141 1600 -141 
z
M 1600 25 
Q 1956 25 2131 390 
Q 2306 756 2347 1200 
Q 2388 1644 2388 2144 
Q 2388 2625 2347 3031 
Q 2306 3438 2132 3767 
Q 1959 4097 1600 4097 
Q 1238 4097 1063 3765 
Q 888 3434 847 3029 
Q 806 2625 806 2144 
Q 806 1788 823 1472 
Q 841 1156 916 820 
Q 991 484 1158 254 
Q 1325 25 1600 25 
z
" transform="scale(0.015625)"/>
       </defs>
       <use xlink:href="#Cmr10-30" transform="translate(0 0.390625)"/>
      </g>
     </g>
    </g>
   </g>
   <g id="line2d_5">
    <path d="M 59.795148 15.9577 
L 300.104531 97.511696 
L 300.104531 97.511696 
" clip-path="url(#p6a68de7a27)" style="fill: none; stroke: #0000ff; stroke-width: 1.5; stroke-linecap: square"/>
   </g>
   <g id="line2d_6">
    <path d="M 59.795148 97.511696 
L 300.104531 15.9577 
L 300.104531 15.9577 
" clip-path="url(#p6a68de7a27)" style="fill: none; stroke-dasharray: 1.5,2.475; stroke-dashoffset: 0; stroke: #800080; stroke-width: 1.5"/>
   </g>
   <g id="patch_3">
    <path d="M 47.779679 101.589395 
L 47.779679 11.88 
" style="fill: none; stroke: #000000; stroke-width: 0.8; stroke-linejoin: miter; stroke-linecap: square"/>
   </g>
   <g id="patch_4">
    <path d="M 312.12 101.589395 
L 312.12 11.88 
" style="fill: none; stroke: #000000; stroke-width: 0.8; stroke-linejoin: miter; stroke-linecap: square"/>
   </g>
   <g id="patch_5">
    <path d="M 47.779679 101.589395 
L 312.12 101.589395 
" style="fill: none; stroke: #000000; stroke-width: 0.8; stroke-linejoin: miter; stroke-linecap: square"/>
   </g>
   <g id="patch_6">
    <path d="M 47.779679 11.88 
L 312.12 11.88 
" style="fill: none; stroke: #000000; stroke-width: 0.8; stroke-linejoin: miter; stroke-linecap: square"/>
   </g>
   <g id="text_3">
    <!-- $U_{-}$ -->
    <g transform="translate(60.996695 29.209221) scale(0.11 -0.11)">
     <defs>
      <path id="Cmmi10-55" d="M 941 891 
Q 941 656 1033 472 
Q 1125 288 1300 186 
Q 1475 84 1709 84 
Q 1984 84 2245 196 
Q 2506 309 2715 509 
Q 2925 709 3073 965 
Q 3222 1222 3284 1472 
L 3859 3781 
Q 3872 3850 3872 3878 
Q 3872 4147 3378 4147 
Q 3316 4147 3316 4231 
Q 3338 4313 3350 4342 
Q 3363 4372 3425 4372 
L 4813 4372 
Q 4841 4372 4859 4344 
Q 4878 4316 4878 4288 
Q 4878 4284 4865 4239 
Q 4853 4194 4836 4170 
Q 4819 4147 4794 4147 
Q 4181 4147 4084 3756 
L 3506 1447 
Q 3434 1147 3264 864 
Q 3094 581 2845 351 
Q 2597 122 2298 -9 
Q 2000 -141 1691 -141 
Q 1338 -141 1045 14 
Q 753 169 587 447 
Q 422 725 422 1088 
Q 422 1297 469 1472 
L 1088 3956 
Q 1100 4019 1100 4044 
Q 1100 4113 1025 4122 
Q 903 4147 563 4147 
Q 500 4147 500 4231 
Q 522 4313 534 4342 
Q 547 4372 609 4372 
L 2328 4372 
Q 2394 4372 2394 4288 
Q 2391 4272 2381 4234 
Q 2372 4197 2356 4172 
Q 2341 4147 2309 4147 
Q 1919 4147 1766 4103 
Q 1681 4072 1644 3928 
L 1025 1447 
Q 941 1109 941 891 
z
" transform="scale(0.015625)"/>
     </defs>
     <use xlink:href="#Cmmi10-55" transform="translate(0 0.6875)"/>
     <use xlink:href="#Cmsy10-a1" transform="translate(68.212891 -16.31875) scale(0.7)"/>
    </g>
   </g>
   <g id="text_4">
    <!-- $U_{+}$ -->
    <g transform="translate(290.972774 28.966877) scale(0.11 -0.11)">
     <defs>
      <path id="Cmr10-2b" d="M 481 1472 
Q 428 1472 393 1512 
Q 359 1553 359 1600 
Q 359 1647 393 1687 
Q 428 1728 481 1728 
L 2363 1728 
L 2363 3616 
Q 2363 3666 2400 3698 
Q 2438 3731 2491 3731 
Q 2538 3731 2578 3698 
Q 2619 3666 2619 3616 
L 2619 1728 
L 4500 1728 
Q 4547 1728 4581 1687 
Q 4616 1647 4616 1600 
Q 4616 1553 4581 1512 
Q 4547 1472 4500 1472 
L 2619 1472 
L 2619 -416 
Q 2619 -466 2578 -498 
Q 2538 -531 2491 -531 
Q 2438 -531 2400 -498 
Q 2363 -466 2363 -416 
L 2363 1472 
L 481 1472 
z
" transform="scale(0.015625)"/>
     </defs>
     <use xlink:href="#Cmmi10-55" transform="translate(0 0.6875)"/>
     <use xlink:href="#Cmr10-2b" transform="translate(68.212891 -16.31875) scale(0.7)"/>
    </g>
   </g>
  </g>
  <g id="axes_2">
   <g id="patch_7">
    <path d="M 47.779679 208.96 
L 312.12 208.96 
L 312.12 119.250605 
L 47.779679 119.250605 
z
" style="fill: #ffffff"/>
   </g>
   <g id="line2d_7">
    <path d="M 59.795148 164.105302 
L 300.104531 164.105302 
L 300.104531 164.105302 
" clip-path="url(#p3fa611aca7)" style="fill: none; stroke: #0000ff; stroke-width: 1.5; stroke-linecap: square"/>
   </g>
   <g id="matplotlib.axis_3">
    <g id="xtick_3">
     <g id="line2d_8">
      <g>
       <use xlink:href="#mbbd1bc6e8a" x="119.872494" y="208.96" style="stroke: #000000; stroke-width: 0.8"/>
      </g>
     </g>
     <g id="text_5">
      <!-- $0$ -->
      <g transform="translate(117.372494 223.558437) scale(0.1 -0.1)">
       <use xlink:href="#Cmr10-30" transform="translate(0 0.390625)"/>
      </g>
     </g>
    </g>
    <g id="xtick_4">
     <g id="line2d_9">
      <g>
       <use xlink:href="#mbbd1bc6e8a" x="240.027185" y="208.96" style="stroke: #000000; stroke-width: 0.8"/>
      </g>
     </g>
     <g id="text_6">
      <!-- $\pi$ -->
      <g transform="translate(237.177185 223.558437) scale(0.1 -0.1)">
       <defs>
        <path id="Cmmi10-bc" d="M 647 109 
Q 647 144 672 213 
Q 850 584 1004 942 
Q 1159 1300 1282 1639 
Q 1406 1978 1509 2363 
L 1100 2363 
Q 866 2363 662 2216 
Q 459 2069 325 1844 
Q 313 1819 288 1819 
L 213 1819 
Q 153 1819 153 1881 
Q 153 1894 166 1919 
Q 375 2275 614 2517 
Q 853 2759 1153 2759 
L 3475 2759 
Q 3541 2759 3587 2715 
Q 3634 2672 3634 2597 
Q 3634 2503 3567 2433 
Q 3500 2363 3406 2363 
L 2591 2363 
Q 2488 1859 2478 1381 
Q 2478 766 2694 269 
Q 2713 231 2713 191 
Q 2713 122 2672 62 
Q 2631 3 2567 -34 
Q 2503 -72 2431 -72 
Q 2263 -72 2200 203 
Q 2138 478 2138 738 
Q 2138 1103 2200 1442 
Q 2263 1781 2400 2363 
L 1703 2363 
Q 1197 313 1094 103 
Q 1003 -72 844 -72 
Q 766 -72 706 -20 
Q 647 31 647 109 
z
" transform="scale(0.015625)"/>
       </defs>
       <use xlink:href="#Cmmi10-bc" transform="translate(0 0.890625)"/>
      </g>
     </g>
    </g>
    <g id="text_7">
     <!-- $\varphi$ -->
     <g transform="translate(176.319839 237.864062) scale(0.11 -0.11)">
      <defs>
       <path id="Cmmi10-27" d="M 1044 -1216 
Q 1044 -1191 1056 -1141 
L 1416 -13 
Q 938 106 628 428 
Q 319 750 319 1216 
Q 319 1450 406 1744 
Q 494 2038 631 2302 
Q 769 2566 928 2741 
Q 966 2759 972 2759 
L 1050 2759 
Q 1069 2759 1084 2740 
Q 1100 2722 1100 2700 
Q 1100 2675 1088 2663 
Q 981 2547 879 2380 
Q 778 2213 698 2028 
Q 619 1844 566 1641 
Q 513 1438 513 1288 
Q 513 909 814 676 
Q 1116 444 1528 366 
L 1709 941 
Q 1828 1313 1945 1605 
Q 2063 1897 2239 2176 
Q 2416 2456 2666 2642 
Q 2916 2828 3225 2828 
Q 3469 2828 3633 2706 
Q 3797 2584 3876 2381 
Q 3956 2178 3956 1947 
Q 3956 1566 3787 1202 
Q 3619 838 3325 548 
Q 3031 259 2662 93 
Q 2294 -72 1919 -72 
Q 1869 -69 1811 -66 
Q 1753 -63 1716 -63 
L 1503 -1178 
Q 1484 -1272 1407 -1333 
Q 1331 -1394 1234 -1394 
Q 1156 -1394 1100 -1345 
Q 1044 -1297 1044 -1216 
z
M 1784 331 
Q 1856 325 1991 325 
Q 2388 325 2798 520 
Q 3209 716 3479 1056 
Q 3750 1397 3750 1797 
Q 3750 1978 3676 2122 
Q 3603 2266 3470 2348 
Q 3338 2431 3163 2431 
Q 2666 2431 2331 1950 
Q 1997 1469 1894 916 
L 1784 331 
z
" transform="scale(0.015625)"/>
      </defs>
      <use xlink:href="#Cmmi10-27" transform="translate(0 0.8125)"/>
     </g>
    </g>
   </g>
   <g id="matplotlib.axis_4">
    <g id="ytick_3">
     <g id="line2d_10">
      <g>
       <use xlink:href="#m4147719d00" x="47.779679" y="208.96" style="stroke: #000000; stroke-width: 0.8"/>
      </g>
     </g>
     <g id="text_8">
      <!-- $0$ -->
      <g transform="translate(35.779679 212.759219) scale(0.1 -0.1)">
       <use xlink:href="#Cmr10-30" transform="translate(0 0.390625)"/>
      </g>
     </g>
    </g>
    <g id="ytick_4">
     <g id="line2d_11">
      <g>
       <use xlink:href="#m4147719d00" x="47.779679" y="164.105302" style="stroke: #000000; stroke-width: 0.8"/>
      </g>
     </g>
     <g id="text_9">
      <!-- $1/(2\pi)$ -->
      <g transform="translate(12.279679 167.855302) scale(0.1 -0.1)">
       <defs>
        <path id="Cmr10-31" d="M 594 0 
L 594 225 
Q 1394 225 1394 428 
L 1394 3788 
Q 1063 3628 556 3628 
L 556 3853 
Q 1341 3853 1741 4263 
L 1831 4263 
Q 1853 4263 1873 4245 
Q 1894 4228 1894 4206 
L 1894 428 
Q 1894 225 2694 225 
L 2694 0 
L 594 0 
z
" transform="scale(0.015625)"/>
        <path id="Cmmi10-3d" d="M 359 -1472 
Q 359 -1453 366 -1447 
L 2591 4722 
Q 2603 4759 2634 4779 
Q 2666 4800 2706 4800 
Q 2763 4800 2798 4765 
Q 2834 4731 2834 4672 
L 2834 4647 
L 609 -1522 
Q 572 -1600 488 -1600 
Q 434 -1600 396 -1562 
Q 359 -1525 359 -1472 
z
" transform="scale(0.015625)"/>
        <path id="Cmr10-28" d="M 1984 -1588 
Q 1628 -1306 1370 -942 
Q 1113 -578 948 -165 
Q 784 247 703 697 
Q 622 1147 622 1600 
Q 622 2059 703 2509 
Q 784 2959 951 3375 
Q 1119 3791 1378 4153 
Q 1638 4516 1984 4788 
Q 1984 4800 2016 4800 
L 2075 4800 
Q 2094 4800 2109 4783 
Q 2125 4766 2125 4744 
Q 2125 4716 2113 4703 
Q 1800 4397 1592 4047 
Q 1384 3697 1257 3301 
Q 1131 2906 1075 2482 
Q 1019 2059 1019 1600 
Q 1019 -434 2106 -1491 
Q 2125 -1509 2125 -1544 
Q 2125 -1559 2108 -1579 
Q 2091 -1600 2075 -1600 
L 2016 -1600 
Q 1984 -1600 1984 -1588 
z
" transform="scale(0.015625)"/>
        <path id="Cmr10-32" d="M 319 0 
L 319 172 
Q 319 188 331 206 
L 1325 1306 
Q 1550 1550 1690 1715 
Q 1831 1881 1968 2097 
Q 2106 2313 2186 2536 
Q 2266 2759 2266 3009 
Q 2266 3272 2169 3511 
Q 2072 3750 1880 3894 
Q 1688 4038 1416 4038 
Q 1138 4038 916 3870 
Q 694 3703 603 3438 
Q 628 3444 672 3444 
Q 816 3444 917 3347 
Q 1019 3250 1019 3097 
Q 1019 2950 917 2848 
Q 816 2747 672 2747 
Q 522 2747 420 2851 
Q 319 2956 319 3097 
Q 319 3338 409 3548 
Q 500 3759 670 3923 
Q 841 4088 1055 4175 
Q 1269 4263 1509 4263 
Q 1875 4263 2190 4108 
Q 2506 3953 2690 3670 
Q 2875 3388 2875 3009 
Q 2875 2731 2753 2481 
Q 2631 2231 2440 2026 
Q 2250 1822 1953 1562 
Q 1656 1303 1563 1216 
L 838 519 
L 1453 519 
Q 1906 519 2211 526 
Q 2516 534 2534 550 
Q 2609 631 2688 1141 
L 2875 1141 
L 2694 0 
L 319 0 
z
" transform="scale(0.015625)"/>
        <path id="Cmr10-29" d="M 416 -1600 
Q 359 -1600 359 -1544 
Q 359 -1516 372 -1503 
Q 1466 -434 1466 1600 
Q 1466 3634 384 4691 
Q 359 4706 359 4744 
Q 359 4766 376 4783 
Q 394 4800 416 4800 
L 475 4800 
Q 494 4800 506 4788 
Q 966 4425 1272 3906 
Q 1578 3388 1720 2800 
Q 1863 2213 1863 1600 
Q 1863 1147 1786 708 
Q 1709 269 1542 -157 
Q 1375 -584 1119 -945 
Q 863 -1306 506 -1588 
Q 494 -1600 475 -1600 
L 416 -1600 
z
" transform="scale(0.015625)"/>
       </defs>
       <use xlink:href="#Cmr10-31"/>
       <use xlink:href="#Cmmi10-3d" transform="translate(50 0)"/>
       <use xlink:href="#Cmr10-28" transform="translate(100 0)"/>
       <use xlink:href="#Cmr10-32" transform="translate(138.818359 0)"/>
       <use xlink:href="#Cmmi10-bc" transform="translate(188.818359 0)"/>
       <use xlink:href="#Cmr10-29" transform="translate(245.800781 0)"/>
      </g>
     </g>
    </g>
   </g>
   <g id="line2d_12">
    <path d="M 59.795148 164.105302 
L 300.104531 164.105302 
L 300.104531 164.105302 
" clip-path="url(#p3fa611aca7)" style="fill: none; stroke-dasharray: 1.5,2.475; stroke-dashoffset: 0; stroke: #800080; stroke-width: 1.5"/>
   </g>
   <g id="patch_8">
    <path d="M 47.779679 208.96 
L 47.779679 119.250605 
" style="fill: none; stroke: #000000; stroke-width: 0.8; stroke-linejoin: miter; stroke-linecap: square"/>
   </g>
   <g id="patch_9">
    <path d="M 312.12 208.96 
L 312.12 119.250605 
" style="fill: none; stroke: #000000; stroke-width: 0.8; stroke-linejoin: miter; stroke-linecap: square"/>
   </g>
   <g id="patch_10">
    <path d="M 47.779679 208.96 
L 312.12 208.96 
" style="fill: none; stroke: #000000; stroke-width: 0.8; stroke-linejoin: miter; stroke-linecap: square"/>
   </g>
   <g id="patch_11">
    <path d="M 47.779679 119.250605 
L 312.12 119.250605 
" style="fill: none; stroke: #000000; stroke-width: 0.8; stroke-linejoin: miter; stroke-linecap: square"/>
   </g>
   <g id="text_10">
    <!-- $\tilde{J}_{-}, \tilde{J}_{+}$ -->
    <g transform="translate(166.732823 160.658893) scale(0.11 -0.11)">
     <defs>
      <path id="Cmr10-7e" d="M 531 3769 
L 716 3988 
Q 966 4275 1216 4275 
Q 1338 4275 1483 4203 
Q 1628 4131 1773 4059 
Q 1919 3988 2041 3988 
Q 2297 3988 2534 4275 
L 2663 4166 
L 2478 3950 
Q 2225 3659 1978 3659 
Q 1856 3659 1711 3732 
Q 1566 3806 1420 3878 
Q 1275 3950 1153 3950 
Q 897 3950 659 3659 
L 531 3769 
z
" transform="scale(0.015625)"/>
      <path id="Cmmi10-4a" d="M 697 384 
Q 759 206 928 115 
Q 1097 25 1294 25 
Q 1494 25 1680 164 
Q 1866 303 1995 512 
Q 2125 722 2175 928 
L 2931 3956 
Q 2938 3981 2939 3993 
Q 2941 4006 2944 4019 
Q 2944 4088 2894 4103 
Q 2725 4147 2209 4147 
Q 2144 4147 2144 4231 
Q 2156 4281 2164 4309 
Q 2172 4338 2192 4355 
Q 2213 4372 2253 4372 
L 3988 4372 
Q 4050 4372 4050 4288 
Q 4025 4147 3969 4147 
Q 3744 4147 3628 4112 
Q 3513 4078 3469 3928 
L 2713 903 
Q 2641 606 2420 367 
Q 2200 128 1897 -6 
Q 1594 -141 1288 -141 
Q 950 -141 695 46 
Q 441 234 441 556 
Q 441 769 556 922 
Q 672 1075 884 1075 
Q 1006 1075 1089 1000 
Q 1172 925 1172 806 
Q 1172 634 1044 506 
Q 916 378 744 378 
Q 709 378 697 384 
z
" transform="scale(0.015625)"/>
      <path id="Cmmi10-3b" d="M 634 -1153 
Q 634 -1125 659 -1100 
Q 891 -878 1019 -587 
Q 1147 -297 1147 25 
L 1147 103 
Q 1044 0 891 0 
Q 744 0 641 103 
Q 538 206 538 353 
Q 538 503 641 603 
Q 744 703 891 703 
Q 1119 703 1216 492 
Q 1313 281 1313 25 
Q 1313 -331 1170 -651 
Q 1028 -972 769 -1228 
Q 744 -1241 728 -1241 
Q 697 -1241 665 -1212 
Q 634 -1184 634 -1153 
z
" transform="scale(0.015625)"/>
     </defs>
     <use xlink:href="#Cmr10-7e" transform="translate(9.558105 24.203125)"/>
     <use xlink:href="#Cmmi10-4a" transform="translate(0 0.5625)"/>
     <use xlink:href="#Cmsy10-a1" transform="translate(59.884062 -16.44375) scale(0.7)"/>
     <use xlink:href="#Cmmi10-3b" transform="translate(120.641289 0.5625)"/>
     <use xlink:href="#Cmr10-7e" transform="translate(175.443535 24.203125)"/>
     <use xlink:href="#Cmmi10-4a" transform="translate(165.88543 0.5625)"/>
     <use xlink:href="#Cmr10-2b" transform="translate(225.769492 -16.44375) scale(0.7)"/>
    </g>
   </g>
  </g>
 </g>
 <defs>
  <clipPath id="p6a68de7a27">
   <rect x="47.779679" y="11.88" width="264.340321" height="89.709395"/>
  </clipPath>
  <clipPath id="p3fa611aca7">
   <rect x="47.779679" y="119.250605" width="264.340321" height="89.709395"/>
  </clipPath>
 </defs>
</svg>
