<svg width="2796" height="1918" xmlns="http://www.w3.org/2000/svg" xmlns:xlink="http://www.w3.org/1999/xlink" xml:space="preserve" overflow="hidden"><defs><clipPath id="clip0"><rect x="1147" y="173" width="2796" height="1918"/></clipPath></defs><g clip-path="url(#clip0)" transform="translate(-1147 -173)"><g><g><g><path d="M0 1707 2560.5 1707 2560.5 0 0 0Z" fill="#FFFFFF" transform="matrix(1.0002 0 0 1 1203 384)"/><path d="M93.885 1613.11 2466.61 1613.11 2466.61 93.885 93.885 93.885Z" fill="#FFFFFF" transform="matrix(1.0002 0 0 1 1203 384)"/><g><path d="M93.885 370.109 139.012 388.929 184.139 405.793 229.266 420.744 274.393 433.85 321.895 445.758 369.397 455.869 419.274 464.739 473.902 472.664 535.655 479.784 611.658 486.633 865.794 507.818 925.172 515.404 979.799 524.148 1029.68 533.888 1077.18 544.923 1122.31 557.141 1167.43 571.159 1212.56 587.059 1257.69 604.898 1302.81 624.703 1347.94 646.475 1393.07 670.185 1440.57 697.175 1488.07 726.154 1537.95 758.582 1592.58 796.232 1651.95 839.362 1718.46 889.884 1801.59 955.35 2055.72 1157.11 2122.22 1206.74 2181.6 1248.86 2236.23 1285.42 2286.11 1316.75 2333.61 1344.6 2381.11 1370.4 2426.24 1392.94 2466.61 1411.45 2466.61 1411.45" stroke="#000000" stroke-width="11.8542" stroke-linecap="square" stroke-linejoin="round" fill="none" transform="matrix(1.0002 0 0 1 1203 384)"/></g><path d="M93.885 1613.11 93.885 93.885" stroke="#000000" stroke-width="6.32222" stroke-linecap="square" fill="none" transform="matrix(1.0002 0 0 1 1203 384)"/><path d="M2466.61 1613.11 2466.61 93.885" stroke="#000000" stroke-width="6.32222" stroke-linecap="square" fill="none" transform="matrix(1.0002 0 0 1 1203 384)"/><path d="M93.885 1613.11 2466.61 1613.11" stroke="#000000" stroke-width="6.32222" stroke-linecap="square" fill="none" transform="matrix(1.0002 0 0 1 1203 384)"/><path d="M93.885 93.885 2466.61 93.885" stroke="#000000" stroke-width="6.32222" stroke-linecap="square" fill="none" transform="matrix(1.0002 0 0 1 1203 384)"/></g></g></g><path d="M1323.32 645.927C1162.14 375.972 1000.95 106.016 1411.8 195.852 1822.65 285.689 3411.84 944.123 3788.42 1184.95 4165 1425.77 3713.6 1645.46 3671.25 1640.8" stroke="#000000" stroke-width="10.3125" stroke-linejoin="round" stroke-miterlimit="10" stroke-dasharray="41.25 30.9375" fill="none" fill-rule="evenodd"/><path d="M1323.5 729C1323.5 699.453 1350.81 675.5 1384.5 675.5 1418.19 675.5 1445.5 699.453 1445.5 729 1445.5 758.547 1418.19 782.5 1384.5 782.5 1350.81 782.5 1323.5 758.547 1323.5 729Z" stroke="#000000" stroke-width="6.875" stroke-miterlimit="8" fill-rule="evenodd"/><path d="M2289.5 897C2289.5 867.453 2316.81 843.5 2350.5 843.5 2384.19 843.5 2411.5 867.453 2411.5 897 2411.5 926.547 2384.19 950.5 2350.5 950.5 2316.81 950.5 2289.5 926.547 2289.5 897Z" stroke="#000000" stroke-width="6.875" stroke-miterlimit="8" fill-rule="evenodd"/><path d="M3532.5 1701C3532.5 1671.45 3559.81 1647.5 3593.5 1647.5 3627.19 1647.5 3654.5 1671.45 3654.5 1701 3654.5 1730.55 3627.19 1754.5 3593.5 1754.5 3559.81 1754.5 3532.5 1730.55 3532.5 1701Z" stroke="#000000" stroke-width="6.875" stroke-miterlimit="8" fill-rule="evenodd"/><path d="M1326.59 618.734 1334.84 656.734 1295.96 655.822Z" stroke="#000000" stroke-width="27.5" stroke-miterlimit="8" fill-rule="evenodd"/><path d="M3099.5 1390C3099.5 1360.45 3127.03 1336.5 3161 1336.5 3194.97 1336.5 3222.5 1360.45 3222.5 1390 3222.5 1419.55 3194.97 1443.5 3161 1443.5 3127.03 1443.5 3099.5 1419.55 3099.5 1390Z" stroke="#000000" stroke-width="6.875" stroke-miterlimit="8" fill-rule="evenodd"/><path d="M2331.74 789.19 2342.05 789.433 2352.51 790.158 2362.8 791.325 2372.84 792.905 2382.57 794.868 2391.91 797.189 2400.81 799.843 2409.2 802.81 2417.01 806.076 2424.19 809.639 2430.69 813.514 2437.67 818.631 2445.05 831.145 2427.28 841.616 2420.98 830.929 2423.77 834.011 2418.89 830.439 2419.71 830.981 2413.97 827.56 2414.67 827.939 2408.14 824.7 2408.74 824.976 2401.51 821.95 2402.04 822.157 2394.18 819.373 2394.67 819.534 2386.25 817.022 2386.71 817.149 2377.82 814.94 2378.26 815.041 2368.97 813.166 2369.41 813.244 2359.81 811.734 2360.25 811.793 2350.41 810.677 2350.86 810.718 2340.86 810.025 2341.33 810.047 2331.26 809.81ZM2459.01 813.111 2459.64 882.286 2403.92 841.288Z"/><path d="M3150.74 1284.19 3161.05 1284.43 3171.51 1285.16 3181.79 1286.32 3191.84 1287.9 3201.57 1289.87 3210.91 1292.19 3219.81 1294.84 3228.2 1297.81 3236.01 1301.08 3243.19 1304.64 3249.69 1308.51 3256.67 1313.63 3264.05 1326.15 3246.28 1336.62 3239.98 1325.93 3242.77 1329.01 3237.89 1325.44 3238.71 1325.98 3232.97 1322.56 3233.67 1322.94 3227.14 1319.7 3227.74 1319.98 3220.51 1316.95 3221.04 1317.16 3213.18 1314.37 3213.67 1314.53 3205.25 1312.02 3205.71 1312.15 3196.82 1309.94 3197.26 1310.04 3187.97 1308.17 3188.41 1308.24 3178.81 1306.73 3179.25 1306.79 3169.41 1305.68 3169.86 1305.72 3159.86 1305.03 3160.33 1305.05 3150.26 1304.81ZM3278.01 1308.11 3278.64 1377.29 3222.92 1336.29Z"/></g></svg>