<?xml version="1.0" encoding="utf-8" standalone="no"?>
<!DOCTYPE svg PUBLIC "-//W3C//DTD SVG 1.1//EN"
  "http://www.w3.org/Graphics/SVG/1.1/DTD/svg11.dtd">
<svg xmlns:xlink="http://www.w3.org/1999/xlink" width="324pt" height="216pt" viewBox="0 0 324 216" xmlns="http://www.w3.org/2000/svg" version="1.1">
 <metadata>
  <rdf:RDF xmlns:dc="http://purl.org/dc/elements/1.1/" xmlns:cc="http://creativecommons.org/ns#" xmlns:rdf="http://www.w3.org/1999/02/22-rdf-syntax-ns#">
   <cc:Work>
    <dc:type rdf:resource="http://purl.org/dc/dcmitype/StillImage"/>
    <dc:date>2025-08-12T15:46:27.723930</dc:date>
    <dc:format>image/svg+xml</dc:format>
    <dc:creator>
     <cc:Agent>
      <dc:title>Matplotlib v3.7.1, https://matplotlib.org/</dc:title>
     </cc:Agent>
    </dc:creator>
   </cc:Work>
  </rdf:RDF>
 </metadata>
 <defs>
  <style type="text/css">*{stroke-linejoin: round; stroke-linecap: butt}</style>
 </defs>
 <g id="figure_1">
  <g id="patch_1">
   <path d="M 0 216 
L 324 216 
L 324 0 
L 0 0 
z
" style="fill: #ffffff"/>
  </g>
  <g id="axes_1">
   <g id="patch_2">
    <path d="M 53.558354 172.96 
L 312.12 172.96 
L 312.12 11.88 
L 53.558354 11.88 
z
" style="fill: #ffffff"/>
   </g>
   <g id="matplotlib.axis_1">
    <g id="xtick_1">
     <g id="line2d_1">
      <defs>
       <path id="m24727f6737" d="M 0 0 
L 0 3.5 
" style="stroke: #000000; stroke-width: 0.8"/>
      </defs>
      <g>
       <use xlink:href="#m24727f6737" x="65.311157" y="172.96" style="stroke: #000000; stroke-width: 0.8"/>
      </g>
     </g>
     <g id="text_1">
      <!-- $0$ -->
      <g transform="translate(62.811157 187.558437) scale(0.1 -0.1)">
       <defs>
        <path id="Cmr10-30" d="M 1600 -141 
Q 816 -141 533 504 
Q 250 1150 250 2041 
Q 250 2597 351 3087 
Q 453 3578 754 3920 
Q 1056 4263 1600 4263 
Q 2022 4263 2290 4056 
Q 2559 3850 2700 3523 
Q 2841 3197 2892 2823 
Q 2944 2450 2944 2041 
Q 2944 1491 2842 1011 
Q 2741 531 2444 195 
Q 2147 -141 1600 -141 
z
M 1600 25 
Q 1956 25 2131 390 
Q 2306 756 2347 1200 
Q 2388 1644 2388 2144 
Q 2388 2625 2347 3031 
Q 2306 3438 2132 3767 
Q 1959 4097 1600 4097 
Q 1238 4097 1063 3765 
Q 888 3434 847 3029 
Q 806 2625 806 2144 
Q 806 1788 823 1472 
Q 841 1156 916 820 
Q 991 484 1158 254 
Q 1325 25 1600 25 
z
" transform="scale(0.015625)"/>
       </defs>
       <use xlink:href="#Cmr10-30" transform="translate(0 0.390625)"/>
      </g>
     </g>
    </g>
    <g id="xtick_2">
     <g id="line2d_2">
      <g>
       <use xlink:href="#m24727f6737" x="182.839177" y="172.96" style="stroke: #000000; stroke-width: 0.8"/>
      </g>
     </g>
     <g id="text_2">
      <!-- $2\pi$ -->
      <g transform="translate(177.489177 187.558437) scale(0.1 -0.1)">
       <defs>
        <path id="Cmr10-32" d="M 319 0 
L 319 172 
Q 319 188 331 206 
L 1325 1306 
Q 1550 1550 1690 1715 
Q 1831 1881 1968 2097 
Q 2106 2313 2186 2536 
Q 2266 2759 2266 3009 
Q 2266 3272 2169 3511 
Q 2072 3750 1880 3894 
Q 1688 4038 1416 4038 
Q 1138 4038 916 3870 
Q 694 3703 603 3438 
Q 628 3444 672 3444 
Q 816 3444 917 3347 
Q 1019 3250 1019 3097 
Q 1019 2950 917 2848 
Q 816 2747 672 2747 
Q 522 2747 420 2851 
Q 319 2956 319 3097 
Q 319 3338 409 3548 
Q 500 3759 670 3923 
Q 841 4088 1055 4175 
Q 1269 4263 1509 4263 
Q 1875 4263 2190 4108 
Q 2506 3953 2690 3670 
Q 2875 3388 2875 3009 
Q 2875 2731 2753 2481 
Q 2631 2231 2440 2026 
Q 2250 1822 1953 1562 
Q 1656 1303 1563 1216 
L 838 519 
L 1453 519 
Q 1906 519 2211 526 
Q 2516 534 2534 550 
Q 2609 631 2688 1141 
L 2875 1141 
L 2694 0 
L 319 0 
z
" transform="scale(0.015625)"/>
        <path id="Cmmi10-bc" d="M 647 109 
Q 647 144 672 213 
Q 850 584 1004 942 
Q 1159 1300 1282 1639 
Q 1406 1978 1509 2363 
L 1100 2363 
Q 866 2363 662 2216 
Q 459 2069 325 1844 
Q 313 1819 288 1819 
L 213 1819 
Q 153 1819 153 1881 
Q 153 1894 166 1919 
Q 375 2275 614 2517 
Q 853 2759 1153 2759 
L 3475 2759 
Q 3541 2759 3587 2715 
Q 3634 2672 3634 2597 
Q 3634 2503 3567 2433 
Q 3500 2363 3406 2363 
L 2591 2363 
Q 2488 1859 2478 1381 
Q 2478 766 2694 269 
Q 2713 231 2713 191 
Q 2713 122 2672 62 
Q 2631 3 2567 -34 
Q 2503 -72 2431 -72 
Q 2263 -72 2200 203 
Q 2138 478 2138 738 
Q 2138 1103 2200 1442 
Q 2263 1781 2400 2363 
L 1703 2363 
Q 1197 313 1094 103 
Q 1003 -72 844 -72 
Q 766 -72 706 -20 
Q 647 31 647 109 
z
" transform="scale(0.015625)"/>
       </defs>
       <use xlink:href="#Cmr10-32" transform="translate(0 0.390625)"/>
       <use xlink:href="#Cmmi10-bc" transform="translate(50 0.390625)"/>
      </g>
     </g>
    </g>
    <g id="xtick_3">
     <g id="line2d_3">
      <g>
       <use xlink:href="#m24727f6737" x="300.367198" y="172.96" style="stroke: #000000; stroke-width: 0.8"/>
      </g>
     </g>
     <g id="text_3">
      <!-- $4\pi$ -->
      <g transform="translate(295.017198 187.558437) scale(0.1 -0.1)">
       <defs>
        <path id="Cmr10-34" d="M 178 1056 
L 178 1281 
L 2156 4231 
Q 2178 4263 2222 4263 
L 2316 4263 
Q 2388 4263 2388 4191 
L 2388 1281 
L 3016 1281 
L 3016 1056 
L 2388 1056 
L 2388 428 
Q 2388 297 2575 261 
Q 2763 225 3009 225 
L 3009 0 
L 1247 0 
L 1247 225 
Q 1494 225 1681 261 
Q 1869 297 1869 428 
L 1869 1056 
L 178 1056 
z
M 391 1281 
L 1906 1281 
L 1906 3547 
L 391 1281 
z
" transform="scale(0.015625)"/>
       </defs>
       <use xlink:href="#Cmr10-34" transform="translate(0 0.390625)"/>
       <use xlink:href="#Cmmi10-bc" transform="translate(50 0.390625)"/>
      </g>
     </g>
    </g>
    <g id="text_4">
     <!-- $\varphi$ -->
     <g transform="translate(179.209177 201.864062) scale(0.11 -0.11)">
      <defs>
       <path id="Cmmi10-27" d="M 1044 -1216 
Q 1044 -1191 1056 -1141 
L 1416 -13 
Q 938 106 628 428 
Q 319 750 319 1216 
Q 319 1450 406 1744 
Q 494 2038 631 2302 
Q 769 2566 928 2741 
Q 966 2759 972 2759 
L 1050 2759 
Q 1069 2759 1084 2740 
Q 1100 2722 1100 2700 
Q 1100 2675 1088 2663 
Q 981 2547 879 2380 
Q 778 2213 698 2028 
Q 619 1844 566 1641 
Q 513 1438 513 1288 
Q 513 909 814 676 
Q 1116 444 1528 366 
L 1709 941 
Q 1828 1313 1945 1605 
Q 2063 1897 2239 2176 
Q 2416 2456 2666 2642 
Q 2916 2828 3225 2828 
Q 3469 2828 3633 2706 
Q 3797 2584 3876 2381 
Q 3956 2178 3956 1947 
Q 3956 1566 3787 1202 
Q 3619 838 3325 548 
Q 3031 259 2662 93 
Q 2294 -72 1919 -72 
Q 1869 -69 1811 -66 
Q 1753 -63 1716 -63 
L 1503 -1178 
Q 1484 -1272 1407 -1333 
Q 1331 -1394 1234 -1394 
Q 1156 -1394 1100 -1345 
Q 1044 -1297 1044 -1216 
z
M 1784 331 
Q 1856 325 1991 325 
Q 2388 325 2798 520 
Q 3209 716 3479 1056 
Q 3750 1397 3750 1797 
Q 3750 1978 3676 2122 
Q 3603 2266 3470 2348 
Q 3338 2431 3163 2431 
Q 2666 2431 2331 1950 
Q 1997 1469 1894 916 
L 1784 331 
z
" transform="scale(0.015625)"/>
      </defs>
      <use xlink:href="#Cmmi10-27" transform="translate(0 0.8125)"/>
     </g>
    </g>
   </g>
   <g id="matplotlib.axis_2">
    <g id="ytick_1">
     <g id="line2d_4">
      <defs>
       <path id="m068230438c" d="M 0 0 
L -3.5 0 
" style="stroke: #000000; stroke-width: 0.8"/>
      </defs>
      <g>
       <use xlink:href="#m068230438c" x="53.558354" y="24.598828" style="stroke: #000000; stroke-width: 0.8"/>
      </g>
     </g>
     <g id="text_5">
      <!-- $0$ -->
      <g transform="translate(41.558354 28.398047) scale(0.1 -0.1)">
       <use xlink:href="#Cmr10-30" transform="translate(0 0.390625)"/>
      </g>
     </g>
    </g>
    <g id="ytick_2">
     <g id="line2d_5">
      <g>
       <use xlink:href="#m068230438c" x="53.558354" y="58.509407" style="stroke: #000000; stroke-width: 0.8"/>
      </g>
     </g>
     <g id="text_6">
      <!-- $-2\pi$ -->
      <g transform="translate(28.058354 62.308626) scale(0.1 -0.1)">
       <defs>
        <path id="Cmsy10-a1" d="M 653 1472 
Q 600 1472 565 1512 
Q 531 1553 531 1600 
Q 531 1647 565 1687 
Q 600 1728 653 1728 
L 4325 1728 
Q 4375 1728 4408 1687 
Q 4441 1647 4441 1600 
Q 4441 1553 4408 1512 
Q 4375 1472 4325 1472 
L 653 1472 
z
" transform="scale(0.015625)"/>
       </defs>
       <use xlink:href="#Cmsy10-a1" transform="translate(0 0.390625)"/>
       <use xlink:href="#Cmr10-32" transform="translate(77.685547 0.390625)"/>
       <use xlink:href="#Cmmi10-bc" transform="translate(127.685547 0.390625)"/>
      </g>
     </g>
    </g>
    <g id="ytick_3">
     <g id="line2d_6">
      <g>
       <use xlink:href="#m068230438c" x="53.558354" y="92.419987" style="stroke: #000000; stroke-width: 0.8"/>
      </g>
     </g>
     <g id="text_7">
      <!-- $-4\pi$ -->
      <g transform="translate(28.058354 96.219205) scale(0.1 -0.1)">
       <use xlink:href="#Cmsy10-a1" transform="translate(0 0.390625)"/>
       <use xlink:href="#Cmr10-34" transform="translate(77.685547 0.390625)"/>
       <use xlink:href="#Cmmi10-bc" transform="translate(127.685547 0.390625)"/>
      </g>
     </g>
    </g>
    <g id="ytick_4">
     <g id="line2d_7">
      <g>
       <use xlink:href="#m068230438c" x="53.558354" y="126.330566" style="stroke: #000000; stroke-width: 0.8"/>
      </g>
     </g>
     <g id="text_8">
      <!-- $-6\pi$ -->
      <g transform="translate(28.058354 130.129785) scale(0.1 -0.1)">
       <defs>
        <path id="Cmr10-36" d="M 1600 -141 
Q 1203 -141 937 70 
Q 672 281 526 617 
Q 381 953 325 1322 
Q 269 1691 269 2069 
Q 269 2575 466 3084 
Q 663 3594 1045 3928 
Q 1428 4263 1953 4263 
Q 2172 4263 2361 4180 
Q 2550 4097 2658 3936 
Q 2766 3775 2766 3547 
Q 2766 3416 2677 3327 
Q 2588 3238 2456 3238 
Q 2331 3238 2240 3328 
Q 2150 3419 2150 3547 
Q 2150 3672 2240 3762 
Q 2331 3853 2456 3853 
L 2491 3853 
Q 2409 3969 2261 4023 
Q 2113 4078 1953 4078 
Q 1759 4078 1595 3993 
Q 1431 3909 1300 3765 
Q 1169 3622 1081 3448 
Q 994 3275 945 3053 
Q 897 2831 884 2637 
Q 872 2444 872 2150 
Q 984 2413 1190 2580 
Q 1397 2747 1656 2747 
Q 1941 2747 2175 2631 
Q 2409 2516 2578 2311 
Q 2747 2106 2836 1843 
Q 2925 1581 2925 1313 
Q 2925 938 2758 598 
Q 2591 259 2287 59 
Q 1984 -141 1600 -141 
z
M 1600 63 
Q 1847 63 1997 175 
Q 2147 288 2217 473 
Q 2288 659 2305 848 
Q 2322 1038 2322 1313 
Q 2322 1675 2287 1931 
Q 2253 2188 2100 2383 
Q 1947 2578 1631 2578 
Q 1372 2578 1205 2403 
Q 1038 2228 961 1961 
Q 884 1694 884 1447 
Q 884 1363 891 1319 
Q 891 1309 889 1303 
Q 888 1297 884 1288 
Q 884 1013 940 731 
Q 997 450 1156 256 
Q 1316 63 1600 63 
z
" transform="scale(0.015625)"/>
       </defs>
       <use xlink:href="#Cmsy10-a1" transform="translate(0 0.390625)"/>
       <use xlink:href="#Cmr10-36" transform="translate(77.685547 0.390625)"/>
       <use xlink:href="#Cmmi10-bc" transform="translate(127.685547 0.390625)"/>
      </g>
     </g>
    </g>
    <g id="ytick_5">
     <g id="line2d_8">
      <g>
       <use xlink:href="#m068230438c" x="53.558354" y="160.241145" style="stroke: #000000; stroke-width: 0.8"/>
      </g>
     </g>
     <g id="text_9">
      <!-- $-8\pi$ -->
      <g transform="translate(28.058354 164.040364) scale(0.1 -0.1)">
       <defs>
        <path id="Cmr10-38" d="M 269 972 
Q 269 1356 522 1651 
Q 775 1947 1172 2144 
L 934 2297 
Q 716 2441 578 2680 
Q 441 2919 441 3181 
Q 441 3488 602 3734 
Q 763 3981 1030 4122 
Q 1297 4263 1600 4263 
Q 1884 4263 2148 4147 
Q 2413 4031 2583 3815 
Q 2753 3600 2753 3303 
Q 2753 3088 2651 2903 
Q 2550 2719 2373 2572 
Q 2197 2425 1997 2322 
L 2363 2088 
Q 2616 1922 2770 1653 
Q 2925 1384 2925 1088 
Q 2925 741 2739 456 
Q 2553 172 2247 15 
Q 1941 -141 1600 -141 
Q 1269 -141 961 -6 
Q 653 128 461 383 
Q 269 638 269 972 
z
M 616 972 
Q 616 719 755 509 
Q 894 300 1122 181 
Q 1350 63 1600 63 
Q 1972 63 2275 280 
Q 2578 497 2578 856 
Q 2578 978 2529 1098 
Q 2481 1219 2395 1317 
Q 2309 1416 2203 1478 
L 1344 2034 
Q 1144 1928 976 1765 
Q 809 1603 712 1400 
Q 616 1197 616 972 
z
M 1056 2925 
L 1831 2425 
Q 2100 2581 2272 2803 
Q 2444 3025 2444 3303 
Q 2444 3519 2323 3698 
Q 2203 3878 2009 3978 
Q 1816 4078 1594 4078 
Q 1400 4078 1203 4003 
Q 1006 3928 878 3779 
Q 750 3631 750 3431 
Q 750 3131 1056 2925 
z
" transform="scale(0.015625)"/>
       </defs>
       <use xlink:href="#Cmsy10-a1" transform="translate(0 0.390625)"/>
       <use xlink:href="#Cmr10-38" transform="translate(77.685547 0.390625)"/>
       <use xlink:href="#Cmmi10-bc" transform="translate(127.685547 0.390625)"/>
      </g>
     </g>
    </g>
    <g id="text_10">
     <!-- $U$ -->
     <g transform="translate(21.770698 96.215) rotate(-90) scale(0.11 -0.11)">
      <defs>
       <path id="Cmmi10-55" d="M 941 891 
Q 941 656 1033 472 
Q 1125 288 1300 186 
Q 1475 84 1709 84 
Q 1984 84 2245 196 
Q 2506 309 2715 509 
Q 2925 709 3073 965 
Q 3222 1222 3284 1472 
L 3859 3781 
Q 3872 3850 3872 3878 
Q 3872 4147 3378 4147 
Q 3316 4147 3316 4231 
Q 3338 4313 3350 4342 
Q 3363 4372 3425 4372 
L 4813 4372 
Q 4841 4372 4859 4344 
Q 4878 4316 4878 4288 
Q 4878 4284 4865 4239 
Q 4853 4194 4836 4170 
Q 4819 4147 4794 4147 
Q 4181 4147 4084 3756 
L 3506 1447 
Q 3434 1147 3264 864 
Q 3094 581 2845 351 
Q 2597 122 2298 -9 
Q 2000 -141 1691 -141 
Q 1338 -141 1045 14 
Q 753 169 587 447 
Q 422 725 422 1088 
Q 422 1297 469 1472 
L 1088 3956 
Q 1100 4019 1100 4044 
Q 1100 4113 1025 4122 
Q 903 4147 563 4147 
Q 500 4147 500 4231 
Q 522 4313 534 4342 
Q 547 4372 609 4372 
L 2328 4372 
Q 2394 4372 2394 4288 
Q 2391 4272 2381 4234 
Q 2372 4197 2356 4172 
Q 2341 4147 2309 4147 
Q 1919 4147 1766 4103 
Q 1681 4072 1644 3928 
L 1025 1447 
Q 941 1109 941 891 
z
" transform="scale(0.015625)"/>
      </defs>
      <use xlink:href="#Cmmi10-55" transform="translate(0 0.6875)"/>
     </g>
    </g>
   </g>
   <g id="line2d_9">
    <path d="M 65.311157 29.995864 
L 69.075818 29.886924 
L 72.840479 29.564502 
L 76.840432 29.002718 
L 81.310967 28.138962 
L 86.252085 26.952522 
L 93.075534 25.064983 
L 104.369518 21.92976 
L 109.545927 20.749687 
L 114.016462 19.963512 
L 118.016415 19.482444 
L 121.781076 19.242331 
L 125.545738 19.218462 
L 129.310399 19.4118 
L 133.310352 19.846337 
L 137.545596 20.541821 
L 142.251422 21.555565 
L 147.898414 23.018453 
L 166.721721 28.11327 
L 171.192256 28.983009 
L 175.4275 29.577701 
L 179.427453 29.906339 
L 183.192114 29.994903 
L 186.956776 29.865627 
L 190.956728 29.49557 
L 194.956681 28.902444 
L 199.427216 28.009124 
L 204.603626 26.736485 
L 212.132948 24.624286 
L 221.544601 22.018738 
L 226.721011 20.821749 
L 231.191546 20.016493 
L 235.191499 19.515763 
L 238.95616 19.255742 
L 242.720821 19.211423 
L 246.485483 19.384594 
L 250.485435 19.798926 
L 254.720679 20.475388 
L 259.191215 21.416926 
L 264.602915 22.792861 
L 274.24986 25.536013 
L 281.3086 27.428533 
L 286.249718 28.530308 
L 290.484962 29.260017 
L 294.484915 29.73119 
L 298.249576 29.961315 
L 300.367198 29.995864 
L 300.367198 29.995864 
" clip-path="url(#p1cd9462ac7)" style="fill: none; stroke: #000000; stroke-width: 1.5; stroke-linecap: square"/>
   </g>
   <g id="line2d_10">
    <path d="M 65.311157 29.995864 
L 69.075818 30.973149 
L 73.075771 31.777853 
L 77.075723 32.357578 
L 81.546259 32.771784 
L 86.487377 33.001258 
L 93.310825 33.07611 
L 104.134226 33.190668 
L 109.075344 33.473433 
L 113.54588 33.951772 
L 117.545832 34.598641 
L 121.545785 35.476542 
L 125.310446 36.525263 
L 129.310399 37.877621 
L 133.310352 39.466271 
L 137.545596 41.383758 
L 142.486714 43.879479 
L 148.368997 47.113599 
L 166.251138 57.133525 
L 170.956965 59.425253 
L 175.192209 61.255292 
L 179.192162 62.751904 
L 183.192114 64.007316 
L 186.956776 64.964265 
L 190.956728 65.748321 
L 194.956681 66.30931 
L 199.427216 66.705881 
L 204.603626 66.926801 
L 211.897657 66.987047 
L 221.544601 67.097066 
L 226.721011 67.393636 
L 231.191546 67.878272 
L 235.191499 68.531656 
L 239.191451 69.416596 
L 242.956113 70.472134 
L 246.956065 71.831625 
L 250.956018 73.426976 
L 255.191262 75.350748 
L 260.13238 77.852333 
L 266.249955 81.224354 
L 283.426222 90.862741 
L 288.36734 93.28166 
L 292.602584 95.118335 
L 296.602537 96.621858 
L 300.367198 97.817023 
L 300.367198 97.817023 
" clip-path="url(#p1cd9462ac7)" style="fill: none; stroke: #0000ff; stroke-width: 1.5; stroke-linecap: square"/>
   </g>
   <g id="line2d_11">
    <path d="M 65.311157 29.995864 
L 69.311109 32.181162 
L 73.546353 34.233433 
L 77.781597 36.03647 
L 82.487424 37.787714 
L 87.899125 39.551002 
L 96.604904 42.106676 
L 104.369518 44.468924 
L 109.545927 46.275969 
L 114.016462 48.069577 
L 118.251706 50.011313 
L 122.251659 52.085716 
L 126.251612 54.404811 
L 130.486856 57.126296 
L 134.957391 60.279986 
L 139.663218 63.875761 
L 145.31021 68.48634 
L 153.545406 75.541072 
L 163.662934 84.154817 
L 169.309926 88.65854 
L 174.015752 92.135946 
L 178.486288 95.15965 
L 182.721532 97.749027 
L 186.721484 99.941531 
L 190.721437 101.893453 
L 194.956681 103.716175 
L 199.427216 105.402638 
L 204.603626 107.117117 
L 212.132948 109.349818 
L 221.544601 112.175394 
L 226.721011 113.965523 
L 231.191546 115.740051 
L 235.42679 117.660912 
L 239.426743 119.714075 
L 243.426695 122.011436 
L 247.661939 124.710468 
L 251.897183 127.67068 
L 256.60301 131.233662 
L 262.014711 135.619124 
L 269.544033 142.038806 
L 281.3086 152.072825 
L 286.955592 156.569974 
L 291.661419 160.040324 
L 296.131954 163.056423 
L 300.367198 165.638182 
L 300.367198 165.638182 
" clip-path="url(#p1cd9462ac7)" style="fill: none; stroke: #ff0000; stroke-width: 1.5; stroke-linecap: square"/>
   </g>
   <g id="patch_3">
    <path d="M 53.558354 172.96 
L 53.558354 11.88 
" style="fill: none; stroke: #000000; stroke-width: 0.8; stroke-linejoin: miter; stroke-linecap: square"/>
   </g>
   <g id="patch_4">
    <path d="M 312.12 172.96 
L 312.12 11.88 
" style="fill: none; stroke: #000000; stroke-width: 0.8; stroke-linejoin: miter; stroke-linecap: square"/>
   </g>
   <g id="patch_5">
    <path d="M 53.558354 172.96 
L 312.12 172.96 
" style="fill: none; stroke: #000000; stroke-width: 0.8; stroke-linejoin: miter; stroke-linecap: square"/>
   </g>
   <g id="patch_6">
    <path d="M 53.558354 11.88 
L 312.12 11.88 
" style="fill: none; stroke: #000000; stroke-width: 0.8; stroke-linejoin: miter; stroke-linecap: square"/>
   </g>
   <g id="legend_1">
    <g id="patch_7">
     <path d="M 60.558354 167.96 
L 130.458354 167.96 
Q 132.458354 167.96 132.458354 165.96 
L 132.458354 121.664687 
Q 132.458354 119.664687 130.458354 119.664687 
L 60.558354 119.664687 
Q 58.558354 119.664687 58.558354 121.664687 
L 58.558354 165.96 
Q 58.558354 167.96 60.558354 167.96 
z
" style="fill: #ffffff; opacity: 0.8; stroke: #cccccc; stroke-linejoin: miter"/>
    </g>
    <g id="line2d_12">
     <path d="M 62.558354 127.763125 
L 72.558354 127.763125 
L 82.558354 127.763125 
" style="fill: none; stroke: #000000; stroke-width: 1.5; stroke-linecap: square"/>
    </g>
    <g id="text_11">
     <!-- $I_0/I_c = 0$ -->
     <g transform="translate(90.558354 131.263125) scale(0.1 -0.1)">
      <defs>
       <path id="Cmmi10-49" d="M 269 0 
Q 206 0 206 84 
Q 231 225 288 225 
Q 666 225 800 250 
Q 947 284 984 441 
L 1863 3956 
Q 1875 4019 1875 4038 
Q 1875 4078 1854 4095 
Q 1834 4113 1791 4122 
Q 1663 4147 1306 4147 
Q 1241 4147 1241 4231 
Q 1263 4313 1275 4342 
Q 1288 4372 1350 4372 
L 3138 4372 
Q 3200 4372 3200 4288 
Q 3197 4272 3187 4234 
Q 3178 4197 3162 4172 
Q 3147 4147 3116 4147 
Q 2741 4147 2597 4122 
Q 2456 4088 2419 3928 
L 1544 416 
Q 1528 338 1528 331 
Q 1528 316 1533 302 
Q 1538 288 1552 277 
Q 1566 266 1580 261 
Q 1594 256 1613 250 
Q 1734 225 2100 225 
Q 2163 225 2163 141 
Q 2141 50 2128 25 
Q 2116 0 2053 0 
L 269 0 
z
" transform="scale(0.015625)"/>
       <path id="Cmmi10-3d" d="M 359 -1472 
Q 359 -1453 366 -1447 
L 2591 4722 
Q 2603 4759 2634 4779 
Q 2666 4800 2706 4800 
Q 2763 4800 2798 4765 
Q 2834 4731 2834 4672 
L 2834 4647 
L 609 -1522 
Q 572 -1600 488 -1600 
Q 434 -1600 396 -1562 
Q 359 -1525 359 -1472 
z
" transform="scale(0.015625)"/>
       <path id="Cmmi10-63" d="M 750 763 
Q 750 484 892 290 
Q 1034 97 1300 97 
Q 1681 97 2032 272 
Q 2384 447 2606 756 
Q 2625 775 2656 775 
Q 2688 775 2720 739 
Q 2753 703 2753 672 
Q 2753 647 2741 634 
Q 2506 306 2109 117 
Q 1713 -72 1288 -72 
Q 981 -72 747 73 
Q 513 219 384 462 
Q 256 706 256 1013 
Q 256 1444 497 1869 
Q 738 2294 1138 2561 
Q 1538 2828 1978 2828 
Q 2266 2828 2495 2689 
Q 2725 2550 2725 2278 
Q 2725 2103 2623 1979 
Q 2522 1856 2350 1856 
Q 2247 1856 2176 1920 
Q 2106 1984 2106 2088 
Q 2106 2238 2215 2344 
Q 2325 2450 2472 2450 
L 2484 2450 
Q 2409 2559 2267 2611 
Q 2125 2663 1972 2663 
Q 1597 2663 1315 2342 
Q 1034 2022 892 1576 
Q 750 1131 750 763 
z
" transform="scale(0.015625)"/>
       <path id="Cmr10-3d" d="M 481 850 
Q 428 850 393 890 
Q 359 931 359 978 
Q 359 1031 393 1068 
Q 428 1106 481 1106 
L 4500 1106 
Q 4547 1106 4581 1068 
Q 4616 1031 4616 978 
Q 4616 931 4581 890 
Q 4547 850 4500 850 
L 481 850 
z
M 481 2094 
Q 428 2094 393 2131 
Q 359 2169 359 2222 
Q 359 2269 393 2309 
Q 428 2350 481 2350 
L 4500 2350 
Q 4547 2350 4581 2309 
Q 4616 2269 4616 2222 
Q 4616 2169 4581 2131 
Q 4547 2094 4500 2094 
L 481 2094 
z
" transform="scale(0.015625)"/>
      </defs>
      <use xlink:href="#Cmmi10-49"/>
      <use xlink:href="#Cmr10-30" transform="translate(43.896484 -17.00625) scale(0.7)"/>
      <use xlink:href="#Cmmi10-3d" transform="translate(85.273828 0)"/>
      <use xlink:href="#Cmmi10-49" transform="translate(135.273828 0)"/>
      <use xlink:href="#Cmmi10-63" transform="translate(179.170312 -17.00625) scale(0.7)"/>
      <use xlink:href="#Cmr10-3d" transform="translate(233.355273 0)"/>
      <use xlink:href="#Cmr10-30" transform="translate(328.599414 0)"/>
     </g>
    </g>
    <g id="line2d_13">
     <path d="M 62.558354 142.861562 
L 72.558354 142.861562 
L 82.558354 142.861562 
" style="fill: none; stroke: #0000ff; stroke-width: 1.5; stroke-linecap: square"/>
    </g>
    <g id="text_12">
     <!-- $I_0/I_c = 1$ -->
     <g transform="translate(90.558354 146.361562) scale(0.1 -0.1)">
      <defs>
       <path id="Cmr10-31" d="M 594 0 
L 594 225 
Q 1394 225 1394 428 
L 1394 3788 
Q 1063 3628 556 3628 
L 556 3853 
Q 1341 3853 1741 4263 
L 1831 4263 
Q 1853 4263 1873 4245 
Q 1894 4228 1894 4206 
L 1894 428 
Q 1894 225 2694 225 
L 2694 0 
L 594 0 
z
" transform="scale(0.015625)"/>
      </defs>
      <use xlink:href="#Cmmi10-49"/>
      <use xlink:href="#Cmr10-30" transform="translate(43.896484 -17.00625) scale(0.7)"/>
      <use xlink:href="#Cmmi10-3d" transform="translate(85.273828 0)"/>
      <use xlink:href="#Cmmi10-49" transform="translate(135.273828 0)"/>
      <use xlink:href="#Cmmi10-63" transform="translate(179.170312 -17.00625) scale(0.7)"/>
      <use xlink:href="#Cmr10-3d" transform="translate(233.355273 0)"/>
      <use xlink:href="#Cmr10-31" transform="translate(328.599414 0)"/>
     </g>
    </g>
    <g id="line2d_14">
     <path d="M 62.558354 157.96 
L 72.558354 157.96 
L 82.558354 157.96 
" style="fill: none; stroke: #ff0000; stroke-width: 1.5; stroke-linecap: square"/>
    </g>
    <g id="text_13">
     <!-- $I_0/I_c = 2$ -->
     <g transform="translate(90.558354 161.46) scale(0.1 -0.1)">
      <use xlink:href="#Cmmi10-49"/>
      <use xlink:href="#Cmr10-30" transform="translate(43.896484 -17.00625) scale(0.7)"/>
      <use xlink:href="#Cmmi10-3d" transform="translate(85.273828 0)"/>
      <use xlink:href="#Cmmi10-49" transform="translate(135.273828 0)"/>
      <use xlink:href="#Cmmi10-63" transform="translate(179.170312 -17.00625) scale(0.7)"/>
      <use xlink:href="#Cmr10-3d" transform="translate(233.355273 0)"/>
      <use xlink:href="#Cmr10-32" transform="translate(328.599414 0)"/>
     </g>
    </g>
   </g>
  </g>
 </g>
 <defs>
  <clipPath id="p1cd9462ac7">
   <rect x="53.558354" y="11.88" width="258.561646" height="161.08"/>
  </clipPath>
 </defs>
</svg>
