<?xml version="1.0" encoding="utf-8" standalone="no"?>
<!DOCTYPE svg PUBLIC "-//W3C//DTD SVG 1.1//EN"
  "http://www.w3.org/Graphics/SVG/1.1/DTD/svg11.dtd">
<svg xmlns:xlink="http://www.w3.org/1999/xlink" width="324pt" height="216pt" viewBox="0 0 324 216" xmlns="http://www.w3.org/2000/svg" version="1.1">
 <metadata>
  <rdf:RDF xmlns:dc="http://purl.org/dc/elements/1.1/" xmlns:cc="http://creativecommons.org/ns#" xmlns:rdf="http://www.w3.org/1999/02/22-rdf-syntax-ns#">
   <cc:Work>
    <dc:type rdf:resource="http://purl.org/dc/dcmitype/StillImage"/>
    <dc:date>2025-08-05T11:45:22.249177</dc:date>
    <dc:format>image/svg+xml</dc:format>
    <dc:creator>
     <cc:Agent>
      <dc:title>Matplotlib v3.7.1, https://matplotlib.org/</dc:title>
     </cc:Agent>
    </dc:creator>
   </cc:Work>
  </rdf:RDF>
 </metadata>
 <defs>
  <style type="text/css">*{stroke-linejoin: round; stroke-linecap: butt}</style>
 </defs>
 <g id="figure_1">
  <g id="patch_1">
   <path d="M 0 216 
L 324 216 
L 324 0 
L 0 0 
z
" style="fill: #ffffff"/>
  </g>
  <g id="axes_1">
   <g id="patch_2">
    <path d="M 53.558354 172.96 
L 312.12 172.96 
L 312.12 11.88 
L 53.558354 11.88 
z
" style="fill: #ffffff"/>
   </g>
   <g id="matplotlib.axis_1">
    <g id="xtick_1">
     <g id="line2d_1">
      <defs>
       <path id="m46764aad7b" d="M 0 0 
L 0 3.5 
" style="stroke: #000000; stroke-width: 0.8"/>
      </defs>
      <g>
       <use xlink:href="#m46764aad7b" x="65.311157" y="172.96" style="stroke: #000000; stroke-width: 0.8"/>
      </g>
     </g>
     <g id="text_1">
      <!-- $0$ -->
      <g transform="translate(62.811157 187.558437) scale(0.1 -0.1)">
       <defs>
        <path id="Cmr10-30" d="M 1600 -141 
Q 816 -141 533 504 
Q 250 1150 250 2041 
Q 250 2597 351 3087 
Q 453 3578 754 3920 
Q 1056 4263 1600 4263 
Q 2022 4263 2290 4056 
Q 2559 3850 2700 3523 
Q 2841 3197 2892 2823 
Q 2944 2450 2944 2041 
Q 2944 1491 2842 1011 
Q 2741 531 2444 195 
Q 2147 -141 1600 -141 
z
M 1600 25 
Q 1956 25 2131 390 
Q 2306 756 2347 1200 
Q 2388 1644 2388 2144 
Q 2388 2625 2347 3031 
Q 2306 3438 2132 3767 
Q 1959 4097 1600 4097 
Q 1238 4097 1063 3765 
Q 888 3434 847 3029 
Q 806 2625 806 2144 
Q 806 1788 823 1472 
Q 841 1156 916 820 
Q 991 484 1158 254 
Q 1325 25 1600 25 
z
" transform="scale(0.015625)"/>
       </defs>
       <use xlink:href="#Cmr10-30" transform="translate(0 0.390625)"/>
      </g>
     </g>
    </g>
    <g id="xtick_2">
     <g id="line2d_2">
      <g>
       <use xlink:href="#m46764aad7b" x="182.839177" y="172.96" style="stroke: #000000; stroke-width: 0.8"/>
      </g>
     </g>
     <g id="text_2">
      <!-- $2\pi$ -->
      <g transform="translate(177.489177 187.558437) scale(0.1 -0.1)">
       <defs>
        <path id="Cmr10-32" d="M 319 0 
L 319 172 
Q 319 188 331 206 
L 1325 1306 
Q 1550 1550 1690 1715 
Q 1831 1881 1968 2097 
Q 2106 2313 2186 2536 
Q 2266 2759 2266 3009 
Q 2266 3272 2169 3511 
Q 2072 3750 1880 3894 
Q 1688 4038 1416 4038 
Q 1138 4038 916 3870 
Q 694 3703 603 3438 
Q 628 3444 672 3444 
Q 816 3444 917 3347 
Q 1019 3250 1019 3097 
Q 1019 2950 917 2848 
Q 816 2747 672 2747 
Q 522 2747 420 2851 
Q 319 2956 319 3097 
Q 319 3338 409 3548 
Q 500 3759 670 3923 
Q 841 4088 1055 4175 
Q 1269 4263 1509 4263 
Q 1875 4263 2190 4108 
Q 2506 3953 2690 3670 
Q 2875 3388 2875 3009 
Q 2875 2731 2753 2481 
Q 2631 2231 2440 2026 
Q 2250 1822 1953 1562 
Q 1656 1303 1563 1216 
L 838 519 
L 1453 519 
Q 1906 519 2211 526 
Q 2516 534 2534 550 
Q 2609 631 2688 1141 
L 2875 1141 
L 2694 0 
L 319 0 
z
" transform="scale(0.015625)"/>
        <path id="Cmmi10-bc" d="M 647 109 
Q 647 144 672 213 
Q 850 584 1004 942 
Q 1159 1300 1282 1639 
Q 1406 1978 1509 2363 
L 1100 2363 
Q 866 2363 662 2216 
Q 459 2069 325 1844 
Q 313 1819 288 1819 
L 213 1819 
Q 153 1819 153 1881 
Q 153 1894 166 1919 
Q 375 2275 614 2517 
Q 853 2759 1153 2759 
L 3475 2759 
Q 3541 2759 3587 2715 
Q 3634 2672 3634 2597 
Q 3634 2503 3567 2433 
Q 3500 2363 3406 2363 
L 2591 2363 
Q 2488 1859 2478 1381 
Q 2478 766 2694 269 
Q 2713 231 2713 191 
Q 2713 122 2672 62 
Q 2631 3 2567 -34 
Q 2503 -72 2431 -72 
Q 2263 -72 2200 203 
Q 2138 478 2138 738 
Q 2138 1103 2200 1442 
Q 2263 1781 2400 2363 
L 1703 2363 
Q 1197 313 1094 103 
Q 1003 -72 844 -72 
Q 766 -72 706 -20 
Q 647 31 647 109 
z
" transform="scale(0.015625)"/>
       </defs>
       <use xlink:href="#Cmr10-32" transform="translate(0 0.390625)"/>
       <use xlink:href="#Cmmi10-bc" transform="translate(50 0.390625)"/>
      </g>
     </g>
    </g>
    <g id="xtick_3">
     <g id="line2d_3">
      <g>
       <use xlink:href="#m46764aad7b" x="300.367198" y="172.96" style="stroke: #000000; stroke-width: 0.8"/>
      </g>
     </g>
     <g id="text_3">
      <!-- $4\pi$ -->
      <g transform="translate(295.017198 187.558437) scale(0.1 -0.1)">
       <defs>
        <path id="Cmr10-34" d="M 178 1056 
L 178 1281 
L 2156 4231 
Q 2178 4263 2222 4263 
L 2316 4263 
Q 2388 4263 2388 4191 
L 2388 1281 
L 3016 1281 
L 3016 1056 
L 2388 1056 
L 2388 428 
Q 2388 297 2575 261 
Q 2763 225 3009 225 
L 3009 0 
L 1247 0 
L 1247 225 
Q 1494 225 1681 261 
Q 1869 297 1869 428 
L 1869 1056 
L 178 1056 
z
M 391 1281 
L 1906 1281 
L 1906 3547 
L 391 1281 
z
" transform="scale(0.015625)"/>
       </defs>
       <use xlink:href="#Cmr10-34" transform="translate(0 0.390625)"/>
       <use xlink:href="#Cmmi10-bc" transform="translate(50 0.390625)"/>
      </g>
     </g>
    </g>
    <g id="text_4">
     <!-- $\varphi$ -->
     <g transform="translate(179.209177 201.864062) scale(0.11 -0.11)">
      <defs>
       <path id="Cmmi10-27" d="M 1044 -1216 
Q 1044 -1191 1056 -1141 
L 1416 -13 
Q 938 106 628 428 
Q 319 750 319 1216 
Q 319 1450 406 1744 
Q 494 2038 631 2302 
Q 769 2566 928 2741 
Q 966 2759 972 2759 
L 1050 2759 
Q 1069 2759 1084 2740 
Q 1100 2722 1100 2700 
Q 1100 2675 1088 2663 
Q 981 2547 879 2380 
Q 778 2213 698 2028 
Q 619 1844 566 1641 
Q 513 1438 513 1288 
Q 513 909 814 676 
Q 1116 444 1528 366 
L 1709 941 
Q 1828 1313 1945 1605 
Q 2063 1897 2239 2176 
Q 2416 2456 2666 2642 
Q 2916 2828 3225 2828 
Q 3469 2828 3633 2706 
Q 3797 2584 3876 2381 
Q 3956 2178 3956 1947 
Q 3956 1566 3787 1202 
Q 3619 838 3325 548 
Q 3031 259 2662 93 
Q 2294 -72 1919 -72 
Q 1869 -69 1811 -66 
Q 1753 -63 1716 -63 
L 1503 -1178 
Q 1484 -1272 1407 -1333 
Q 1331 -1394 1234 -1394 
Q 1156 -1394 1100 -1345 
Q 1044 -1297 1044 -1216 
z
M 1784 331 
Q 1856 325 1991 325 
Q 2388 325 2798 520 
Q 3209 716 3479 1056 
Q 3750 1397 3750 1797 
Q 3750 1978 3676 2122 
Q 3603 2266 3470 2348 
Q 3338 2431 3163 2431 
Q 2666 2431 2331 1950 
Q 1997 1469 1894 916 
L 1784 331 
z
" transform="scale(0.015625)"/>
      </defs>
      <use xlink:href="#Cmmi10-27" transform="translate(0 0.8125)"/>
     </g>
    </g>
   </g>
   <g id="matplotlib.axis_2">
    <g id="ytick_1">
     <g id="line2d_4">
      <defs>
       <path id="m5ddd4419db" d="M 0 0 
L -3.5 0 
" style="stroke: #000000; stroke-width: 0.8"/>
      </defs>
      <g>
       <use xlink:href="#m5ddd4419db" x="53.558354" y="21.364557" style="stroke: #000000; stroke-width: 0.8"/>
      </g>
     </g>
     <g id="text_5">
      <!-- $0$ -->
      <g transform="translate(41.558354 25.163776) scale(0.1 -0.1)">
       <use xlink:href="#Cmr10-30" transform="translate(0 0.390625)"/>
      </g>
     </g>
    </g>
    <g id="ytick_2">
     <g id="line2d_5">
      <g>
       <use xlink:href="#m5ddd4419db" x="53.558354" y="56.052763" style="stroke: #000000; stroke-width: 0.8"/>
      </g>
     </g>
     <g id="text_6">
      <!-- $-2\pi$ -->
      <g transform="translate(28.058354 59.851982) scale(0.1 -0.1)">
       <defs>
        <path id="Cmsy10-a1" d="M 653 1472 
Q 600 1472 565 1512 
Q 531 1553 531 1600 
Q 531 1647 565 1687 
Q 600 1728 653 1728 
L 4325 1728 
Q 4375 1728 4408 1687 
Q 4441 1647 4441 1600 
Q 4441 1553 4408 1512 
Q 4375 1472 4325 1472 
L 653 1472 
z
" transform="scale(0.015625)"/>
       </defs>
       <use xlink:href="#Cmsy10-a1" transform="translate(0 0.390625)"/>
       <use xlink:href="#Cmr10-32" transform="translate(77.685547 0.390625)"/>
       <use xlink:href="#Cmmi10-bc" transform="translate(127.685547 0.390625)"/>
      </g>
     </g>
    </g>
    <g id="ytick_3">
     <g id="line2d_6">
      <g>
       <use xlink:href="#m5ddd4419db" x="53.558354" y="90.74097" style="stroke: #000000; stroke-width: 0.8"/>
      </g>
     </g>
     <g id="text_7">
      <!-- $-4\pi$ -->
      <g transform="translate(28.058354 94.540189) scale(0.1 -0.1)">
       <use xlink:href="#Cmsy10-a1" transform="translate(0 0.390625)"/>
       <use xlink:href="#Cmr10-34" transform="translate(77.685547 0.390625)"/>
       <use xlink:href="#Cmmi10-bc" transform="translate(127.685547 0.390625)"/>
      </g>
     </g>
    </g>
    <g id="ytick_4">
     <g id="line2d_7">
      <g>
       <use xlink:href="#m5ddd4419db" x="53.558354" y="125.429176" style="stroke: #000000; stroke-width: 0.8"/>
      </g>
     </g>
     <g id="text_8">
      <!-- $-6\pi$ -->
      <g transform="translate(28.058354 129.228395) scale(0.1 -0.1)">
       <defs>
        <path id="Cmr10-36" d="M 1600 -141 
Q 1203 -141 937 70 
Q 672 281 526 617 
Q 381 953 325 1322 
Q 269 1691 269 2069 
Q 269 2575 466 3084 
Q 663 3594 1045 3928 
Q 1428 4263 1953 4263 
Q 2172 4263 2361 4180 
Q 2550 4097 2658 3936 
Q 2766 3775 2766 3547 
Q 2766 3416 2677 3327 
Q 2588 3238 2456 3238 
Q 2331 3238 2240 3328 
Q 2150 3419 2150 3547 
Q 2150 3672 2240 3762 
Q 2331 3853 2456 3853 
L 2491 3853 
Q 2409 3969 2261 4023 
Q 2113 4078 1953 4078 
Q 1759 4078 1595 3993 
Q 1431 3909 1300 3765 
Q 1169 3622 1081 3448 
Q 994 3275 945 3053 
Q 897 2831 884 2637 
Q 872 2444 872 2150 
Q 984 2413 1190 2580 
Q 1397 2747 1656 2747 
Q 1941 2747 2175 2631 
Q 2409 2516 2578 2311 
Q 2747 2106 2836 1843 
Q 2925 1581 2925 1313 
Q 2925 938 2758 598 
Q 2591 259 2287 59 
Q 1984 -141 1600 -141 
z
M 1600 63 
Q 1847 63 1997 175 
Q 2147 288 2217 473 
Q 2288 659 2305 848 
Q 2322 1038 2322 1313 
Q 2322 1675 2287 1931 
Q 2253 2188 2100 2383 
Q 1947 2578 1631 2578 
Q 1372 2578 1205 2403 
Q 1038 2228 961 1961 
Q 884 1694 884 1447 
Q 884 1363 891 1319 
Q 891 1309 889 1303 
Q 888 1297 884 1288 
Q 884 1013 940 731 
Q 997 450 1156 256 
Q 1316 63 1600 63 
z
" transform="scale(0.015625)"/>
       </defs>
       <use xlink:href="#Cmsy10-a1" transform="translate(0 0.390625)"/>
       <use xlink:href="#Cmr10-36" transform="translate(77.685547 0.390625)"/>
       <use xlink:href="#Cmmi10-bc" transform="translate(127.685547 0.390625)"/>
      </g>
     </g>
    </g>
    <g id="ytick_5">
     <g id="line2d_8">
      <g>
       <use xlink:href="#m5ddd4419db" x="53.558354" y="160.117382" style="stroke: #000000; stroke-width: 0.8"/>
      </g>
     </g>
     <g id="text_9">
      <!-- $-8\pi$ -->
      <g transform="translate(28.058354 163.916601) scale(0.1 -0.1)">
       <defs>
        <path id="Cmr10-38" d="M 269 972 
Q 269 1356 522 1651 
Q 775 1947 1172 2144 
L 934 2297 
Q 716 2441 578 2680 
Q 441 2919 441 3181 
Q 441 3488 602 3734 
Q 763 3981 1030 4122 
Q 1297 4263 1600 4263 
Q 1884 4263 2148 4147 
Q 2413 4031 2583 3815 
Q 2753 3600 2753 3303 
Q 2753 3088 2651 2903 
Q 2550 2719 2373 2572 
Q 2197 2425 1997 2322 
L 2363 2088 
Q 2616 1922 2770 1653 
Q 2925 1384 2925 1088 
Q 2925 741 2739 456 
Q 2553 172 2247 15 
Q 1941 -141 1600 -141 
Q 1269 -141 961 -6 
Q 653 128 461 383 
Q 269 638 269 972 
z
M 616 972 
Q 616 719 755 509 
Q 894 300 1122 181 
Q 1350 63 1600 63 
Q 1972 63 2275 280 
Q 2578 497 2578 856 
Q 2578 978 2529 1098 
Q 2481 1219 2395 1317 
Q 2309 1416 2203 1478 
L 1344 2034 
Q 1144 1928 976 1765 
Q 809 1603 712 1400 
Q 616 1197 616 972 
z
M 1056 2925 
L 1831 2425 
Q 2100 2581 2272 2803 
Q 2444 3025 2444 3303 
Q 2444 3519 2323 3698 
Q 2203 3878 2009 3978 
Q 1816 4078 1594 4078 
Q 1400 4078 1203 4003 
Q 1006 3928 878 3779 
Q 750 3631 750 3431 
Q 750 3131 1056 2925 
z
" transform="scale(0.015625)"/>
       </defs>
       <use xlink:href="#Cmsy10-a1" transform="translate(0 0.390625)"/>
       <use xlink:href="#Cmr10-38" transform="translate(77.685547 0.390625)"/>
       <use xlink:href="#Cmmi10-bc" transform="translate(127.685547 0.390625)"/>
      </g>
     </g>
    </g>
    <g id="text_10">
     <!-- $U$ -->
     <g transform="translate(21.770698 96.215) rotate(-90) scale(0.11 -0.11)">
      <defs>
       <path id="Cmmi10-55" d="M 941 891 
Q 941 656 1033 472 
Q 1125 288 1300 186 
Q 1475 84 1709 84 
Q 1984 84 2245 196 
Q 2506 309 2715 509 
Q 2925 709 3073 965 
Q 3222 1222 3284 1472 
L 3859 3781 
Q 3872 3850 3872 3878 
Q 3872 4147 3378 4147 
Q 3316 4147 3316 4231 
Q 3338 4313 3350 4342 
Q 3363 4372 3425 4372 
L 4813 4372 
Q 4841 4372 4859 4344 
Q 4878 4316 4878 4288 
Q 4878 4284 4865 4239 
Q 4853 4194 4836 4170 
Q 4819 4147 4794 4147 
Q 4181 4147 4084 3756 
L 3506 1447 
Q 3434 1147 3264 864 
Q 3094 581 2845 351 
Q 2597 122 2298 -9 
Q 2000 -141 1691 -141 
Q 1338 -141 1045 14 
Q 753 169 587 447 
Q 422 725 422 1088 
Q 422 1297 469 1472 
L 1088 3956 
Q 1100 4019 1100 4044 
Q 1100 4113 1025 4122 
Q 903 4147 563 4147 
Q 500 4147 500 4231 
Q 522 4313 534 4342 
Q 547 4372 609 4372 
L 2328 4372 
Q 2394 4372 2394 4288 
Q 2391 4272 2381 4234 
Q 2372 4197 2356 4172 
Q 2341 4147 2309 4147 
Q 1919 4147 1766 4103 
Q 1681 4072 1644 3928 
L 1025 1447 
Q 941 1109 941 891 
z
" transform="scale(0.015625)"/>
      </defs>
      <use xlink:href="#Cmmi10-55" transform="translate(0 0.6875)"/>
     </g>
    </g>
   </g>
   <g id="line2d_9">
    <path d="M 65.311157 26.885357 
L 69.075818 26.996145 
L 72.840479 26.888556 
L 76.840432 26.550006 
L 81.075676 25.968578 
L 86.016794 25.056774 
L 92.604951 23.590754 
L 104.369518 20.939885 
L 109.310636 20.073413 
L 113.54588 19.542859 
L 117.545832 19.260099 
L 121.310494 19.209574 
L 125.075155 19.379495 
L 128.839816 19.771974 
L 132.604478 20.380138 
L 136.60443 21.245068 
L 141.074966 22.443402 
L 146.251375 24.067867 
L 154.25128 26.848973 
L 162.95706 29.813448 
L 168.133469 31.33485 
L 172.604004 32.412743 
L 176.603957 33.151037 
L 180.368618 33.629077 
L 184.13328 33.886181 
L 187.897941 33.920942 
L 191.662602 33.740928 
L 195.662555 33.332639 
L 200.13309 32.647632 
L 205.3095 31.622481 
L 213.544696 29.724428 
L 221.779893 27.900815 
L 226.721011 27.028836 
L 230.956255 26.492178 
L 234.956207 26.202774 
L 238.720869 26.145492 
L 242.48553 26.308445 
L 246.250191 26.694027 
L 250.014853 27.295643 
L 254.014805 28.154293 
L 258.485341 29.346777 
L 263.66175 30.966427 
L 271.426364 33.661671 
L 280.367435 36.713751 
L 285.543844 38.240897 
L 290.014379 39.325281 
L 294.014332 40.070269 
L 297.778993 40.555092 
L 300.367198 40.760639 
L 300.367198 40.760639 
" clip-path="url(#pac3b1ab56e)" style="fill: none; stroke: #000000; stroke-width: 1.5; stroke-linecap: square"/>
   </g>
   <g id="line2d_10">
    <path d="M 65.311157 26.885357 
L 69.075818 27.885052 
L 72.840479 28.66637 
L 76.840432 29.272283 
L 81.075676 29.690876 
L 86.016794 29.945763 
L 92.604951 30.035329 
L 104.369518 30.162295 
L 109.310636 30.462514 
L 113.54588 30.93198 
L 117.545832 31.593683 
L 121.310494 32.432065 
L 125.075155 33.490893 
L 128.839816 34.772279 
L 132.839769 36.369768 
L 137.075013 38.305227 
L 141.78084 40.707703 
L 147.427832 43.852268 
L 167.662886 55.374718 
L 172.368713 57.640643 
L 176.603957 59.42935 
L 180.60391 60.874455 
L 184.368571 62.006517 
L 188.133232 62.916448 
L 192.133185 63.649097 
L 196.368429 64.184471 
L 200.838964 64.521297 
L 206.250665 64.695044 
L 217.544649 64.74594 
L 223.662223 64.931465 
L 228.36805 65.295026 
L 232.603294 65.846563 
L 236.603247 66.596404 
L 240.367908 67.523511 
L 244.132569 68.673008 
L 248.132522 70.136135 
L 252.132475 71.835591 
L 256.60301 73.985226 
L 261.544128 76.612702 
L 268.132285 80.388117 
L 281.543891 88.138801 
L 286.720301 90.828618 
L 291.190836 92.902259 
L 295.190789 94.523906 
L 299.190741 95.903624 
L 300.367198 96.261769 
L 300.367198 96.261769 
" clip-path="url(#pac3b1ab56e)" style="fill: none; stroke: #0000ff; stroke-width: 1.5; stroke-linecap: square"/>
   </g>
   <g id="line2d_11">
    <path d="M 65.311157 26.885357 
L 69.311109 29.120767 
L 73.311062 31.110409 
L 77.546306 32.968192 
L 82.016841 34.687388 
L 87.193251 36.436238 
L 94.722573 38.717341 
L 103.898935 41.534094 
L 109.075344 43.359602 
L 113.54588 45.168381 
L 117.781124 47.126215 
L 121.781076 49.219239 
L 125.781029 51.561871 
L 129.780982 54.154955 
L 134.016226 57.161635 
L 138.722052 60.785782 
L 144.133753 65.254027 
L 151.427784 71.601129 
L 163.898225 82.484292 
L 169.309926 86.893267 
L 174.015752 90.450416 
L 178.250996 93.388127 
L 182.48624 96.052449 
L 186.486193 98.309987 
L 190.486146 100.320793 
L 194.72139 102.198865 
L 199.191925 103.935991 
L 204.368334 105.69983 
L 211.662366 107.920114 
L 221.544601 110.949402 
L 226.721011 112.780582 
L 231.191546 114.595802 
L 235.42679 116.560712 
L 239.426743 118.660958 
L 243.426695 121.011001 
L 247.426648 123.611346 
L 251.661892 126.625185 
L 256.367719 130.256212 
L 261.779419 134.730436 
L 269.073451 141.081518 
L 281.543891 151.959545 
L 286.955592 156.362025 
L 291.661419 159.911955 
L 295.896663 162.842311 
L 300.131907 165.498853 
L 300.367198 165.638182 
L 300.367198 165.638182 
" clip-path="url(#pac3b1ab56e)" style="fill: none; stroke: #ff0000; stroke-width: 1.5; stroke-linecap: square"/>
   </g>
   <g id="patch_3">
    <path d="M 53.558354 172.96 
L 53.558354 11.88 
" style="fill: none; stroke: #000000; stroke-width: 0.8; stroke-linejoin: miter; stroke-linecap: square"/>
   </g>
   <g id="patch_4">
    <path d="M 312.12 172.96 
L 312.12 11.88 
" style="fill: none; stroke: #000000; stroke-width: 0.8; stroke-linejoin: miter; stroke-linecap: square"/>
   </g>
   <g id="patch_5">
    <path d="M 53.558354 172.96 
L 312.12 172.96 
" style="fill: none; stroke: #000000; stroke-width: 0.8; stroke-linejoin: miter; stroke-linecap: square"/>
   </g>
   <g id="patch_6">
    <path d="M 53.558354 11.88 
L 312.12 11.88 
" style="fill: none; stroke: #000000; stroke-width: 0.8; stroke-linejoin: miter; stroke-linecap: square"/>
   </g>
   <g id="legend_1">
    <g id="patch_7">
     <path d="M 60.558354 167.96 
L 124.258354 167.96 
Q 126.258354 167.96 126.258354 165.96 
L 126.258354 122.925625 
Q 126.258354 120.925625 124.258354 120.925625 
L 60.558354 120.925625 
Q 58.558354 120.925625 58.558354 122.925625 
L 58.558354 165.96 
Q 58.558354 167.96 60.558354 167.96 
z
" style="fill: #ffffff; opacity: 0.8; stroke: #cccccc; stroke-linejoin: miter"/>
    </g>
    <g id="line2d_12">
     <path d="M 62.558354 129.024063 
L 72.558354 129.024063 
L 82.558354 129.024063 
" style="fill: none; stroke: #000000; stroke-width: 1.5; stroke-linecap: square"/>
    </g>
    <g id="text_11">
     <!-- $i_0 = 0.2$ -->
     <g transform="translate(90.558354 132.524063) scale(0.1 -0.1)">
      <defs>
       <path id="Cmmi10-69" d="M 500 459 
Q 500 578 550 709 
L 1069 2088 
Q 1153 2322 1153 2472 
Q 1153 2663 1013 2663 
Q 759 2663 595 2402 
Q 431 2141 353 1819 
Q 341 1778 300 1778 
L 225 1778 
Q 172 1778 172 1838 
L 172 1856 
Q 275 2238 487 2533 
Q 700 2828 1025 2828 
Q 1253 2828 1411 2678 
Q 1569 2528 1569 2297 
Q 1569 2178 1516 2047 
L 997 672 
Q 909 459 909 288 
Q 909 97 1056 97 
Q 1306 97 1473 364 
Q 1641 631 1709 941 
Q 1722 978 1759 978 
L 1838 978 
Q 1863 978 1878 961 
Q 1894 944 1894 922 
Q 1894 916 1888 903 
Q 1800 541 1583 234 
Q 1366 -72 1044 -72 
Q 819 -72 659 83 
Q 500 238 500 459 
z
M 1222 3878 
Q 1222 4013 1334 4122 
Q 1447 4231 1581 4231 
Q 1691 4231 1761 4164 
Q 1831 4097 1831 3994 
Q 1831 3850 1717 3742 
Q 1603 3634 1466 3634 
Q 1363 3634 1292 3704 
Q 1222 3775 1222 3878 
z
" transform="scale(0.015625)"/>
       <path id="Cmr10-3d" d="M 481 850 
Q 428 850 393 890 
Q 359 931 359 978 
Q 359 1031 393 1068 
Q 428 1106 481 1106 
L 4500 1106 
Q 4547 1106 4581 1068 
Q 4616 1031 4616 978 
Q 4616 931 4581 890 
Q 4547 850 4500 850 
L 481 850 
z
M 481 2094 
Q 428 2094 393 2131 
Q 359 2169 359 2222 
Q 359 2269 393 2309 
Q 428 2350 481 2350 
L 4500 2350 
Q 4547 2350 4581 2309 
Q 4616 2269 4616 2222 
Q 4616 2169 4581 2131 
Q 4547 2094 4500 2094 
L 481 2094 
z
" transform="scale(0.015625)"/>
       <path id="Cmmi10-3a" d="M 538 353 
Q 538 497 644 600 
Q 750 703 891 703 
Q 978 703 1062 656 
Q 1147 609 1194 525 
Q 1241 441 1241 353 
Q 1241 213 1137 106 
Q 1034 0 891 0 
Q 750 0 644 106 
Q 538 213 538 353 
z
" transform="scale(0.015625)"/>
      </defs>
      <use xlink:href="#Cmmi10-69" transform="translate(0 0.390625)"/>
      <use xlink:href="#Cmr10-30" transform="translate(34.423828 -16.615625) scale(0.7)"/>
      <use xlink:href="#Cmr10-3d" transform="translate(93.359766 0.390625)"/>
      <use xlink:href="#Cmr10-30" transform="translate(188.603906 0.390625)"/>
      <use xlink:href="#Cmmi10-3a" transform="translate(238.603906 0.390625)"/>
      <use xlink:href="#Cmr10-32" transform="translate(266.289453 0.390625)"/>
     </g>
    </g>
    <g id="line2d_13">
     <path d="M 62.558354 143.702188 
L 72.558354 143.702188 
L 82.558354 143.702188 
" style="fill: none; stroke: #0000ff; stroke-width: 1.5; stroke-linecap: square"/>
    </g>
    <g id="text_12">
     <!-- $i_0 = 1$ -->
     <g transform="translate(90.558354 147.202188) scale(0.1 -0.1)">
      <defs>
       <path id="Cmr10-31" d="M 594 0 
L 594 225 
Q 1394 225 1394 428 
L 1394 3788 
Q 1063 3628 556 3628 
L 556 3853 
Q 1341 3853 1741 4263 
L 1831 4263 
Q 1853 4263 1873 4245 
Q 1894 4228 1894 4206 
L 1894 428 
Q 1894 225 2694 225 
L 2694 0 
L 594 0 
z
" transform="scale(0.015625)"/>
      </defs>
      <use xlink:href="#Cmmi10-69" transform="translate(0 0.390625)"/>
      <use xlink:href="#Cmr10-30" transform="translate(34.423828 -16.615625) scale(0.7)"/>
      <use xlink:href="#Cmr10-3d" transform="translate(93.359766 0.390625)"/>
      <use xlink:href="#Cmr10-31" transform="translate(188.603906 0.390625)"/>
     </g>
    </g>
    <g id="line2d_14">
     <path d="M 62.558354 158.380313 
L 72.558354 158.380313 
L 82.558354 158.380313 
" style="fill: none; stroke: #ff0000; stroke-width: 1.5; stroke-linecap: square"/>
    </g>
    <g id="text_13">
     <!-- $i_0 = 2$ -->
     <g transform="translate(90.558354 161.880313) scale(0.1 -0.1)">
      <use xlink:href="#Cmmi10-69" transform="translate(0 0.390625)"/>
      <use xlink:href="#Cmr10-30" transform="translate(34.423828 -16.615625) scale(0.7)"/>
      <use xlink:href="#Cmr10-3d" transform="translate(93.359766 0.390625)"/>
      <use xlink:href="#Cmr10-32" transform="translate(188.603906 0.390625)"/>
     </g>
    </g>
   </g>
  </g>
 </g>
 <defs>
  <clipPath id="pac3b1ab56e">
   <rect x="53.558354" y="11.88" width="258.561646" height="161.08"/>
  </clipPath>
 </defs>
</svg>
