<svg width="505" height="360" xmlns="http://www.w3.org/2000/svg" xmlns:xlink="http://www.w3.org/1999/xlink" xml:space="preserve" overflow="hidden"><g transform="translate(-943 -572)"><rect x="990.5" y="574.5" width="419" height="355" stroke="#000000" stroke-width="4.58333" stroke-miterlimit="8" fill="#FFFFFF"/><path d="M1194.5 574.5 1194.5 928.944" stroke="#000000" stroke-width="4.58333" stroke-miterlimit="8" fill="none" fill-rule="evenodd"/><path d="M945.5 725.5C945.5 704.513 964.752 687.5 988.5 687.5 1012.25 687.5 1031.5 704.513 1031.5 725.5 1031.5 746.487 1012.25 763.5 988.5 763.5 964.752 763.5 945.5 746.487 945.5 725.5Z" stroke="#000000" stroke-width="3.4375" stroke-miterlimit="8" fill="#FFFFFF" fill-rule="evenodd"/><path d="M945.5 770.5C945.5 749.513 964.752 732.5 988.5 732.5 1012.25 732.5 1031.5 749.513 1031.5 770.5 1031.5 791.487 1012.25 808.5 988.5 808.5 964.752 808.5 945.5 791.487 945.5 770.5Z" stroke="#000000" stroke-width="4.58333" stroke-miterlimit="8" fill="#FFFFFF" fill-rule="evenodd"/><path d="M945.5 725.5C945.5 704.513 964.752 687.5 988.5 687.5 1012.25 687.5 1031.5 704.513 1031.5 725.5 1031.5 746.487 1012.25 763.5 988.5 763.5 964.752 763.5 945.5 746.487 945.5 725.5Z" stroke="#000000" stroke-width="4.58333" stroke-miterlimit="8" fill="none" fill-rule="evenodd"/><rect x="1156.5" y="675.5" width="75.0002" height="136" stroke="#000000" stroke-width="4.58333" stroke-miterlimit="8" fill="#FFFFFF"/><path d="M1373.43 775.566 1405.08 743.24 1372.68 711.521 1376.93 707.177 1409.33 738.897 1440.98 706.571 1445.32 710.824 1413.67 743.149 1446.07 774.869 1441.82 779.212 1409.42 747.493 1377.77 779.819Z" stroke="#000000" stroke-width="2.29167" stroke-miterlimit="8" fill-rule="evenodd"/></g></svg>