<svg width="730" height="361" xmlns="http://www.w3.org/2000/svg" xmlns:xlink="http://www.w3.org/1999/xlink" xml:space="preserve" overflow="hidden"><g transform="translate(-943 -572)"><rect x="990.5" y="574.5" width="644" height="355" stroke="#000000" stroke-width="4.58333" stroke-miterlimit="8" fill="#FFFFFF"/><path d="M1194.5 574.5 1194.5 738.546" stroke="#000000" stroke-width="4.58333" stroke-miterlimit="8" fill="none" fill-rule="evenodd"/><path d="M1428.5 574.5 1428.5 928.944" stroke="#000000" stroke-width="4.58333" stroke-miterlimit="8" fill="none" fill-rule="evenodd"/><path d="M1151.5 738.5 1237.57 738.5" stroke="#000000" stroke-width="4.58333" stroke-miterlimit="8" fill="none" fill-rule="evenodd"/><path d="M1597.8 784.037 1629.45 751.711 1597.05 719.991 1601.3 715.648 1633.7 747.368 1665.35 715.042 1669.7 719.294 1638.04 751.62 1670.44 783.34 1666.19 787.683 1633.79 755.964 1602.14 788.289Z" stroke="#000000" stroke-width="2.29167" stroke-miterlimit="8" fill-rule="evenodd"/><rect x="1386.5" y="684.5" width="76.0004" height="135" stroke="#000000" stroke-width="4.58333" stroke-miterlimit="8" fill="#FFFFFF"/><path d="M1194.5 763.5 1194.5 929.838" stroke="#000000" stroke-width="4.58333" stroke-miterlimit="8" fill="none" fill-rule="evenodd"/><path d="M1151.5 763.5 1237.57 763.5" stroke="#000000" stroke-width="4.58333" stroke-miterlimit="8" fill="none" fill-rule="evenodd"/><path d="M945.5 725.5C945.5 704.513 964.752 687.5 988.5 687.5 1012.25 687.5 1031.5 704.513 1031.5 725.5 1031.5 746.487 1012.25 763.5 988.5 763.5 964.752 763.5 945.5 746.487 945.5 725.5Z" stroke="#000000" stroke-width="4.58333" stroke-miterlimit="8" fill="#FFFFFF" fill-rule="evenodd"/><path d="M945.5 770.5C945.5 749.513 964.752 732.5 988.5 732.5 1012.25 732.5 1031.5 749.513 1031.5 770.5 1031.5 791.487 1012.25 808.5 988.5 808.5 964.752 808.5 945.5 791.487 945.5 770.5Z" stroke="#000000" stroke-width="4.58333" stroke-miterlimit="8" fill="#FFFFFF" fill-rule="evenodd"/><path d="M945.5 725.5C945.5 704.513 964.752 687.5 988.5 687.5 1012.25 687.5 1031.5 704.513 1031.5 725.5 1031.5 746.487 1012.25 763.5 988.5 763.5 964.752 763.5 945.5 746.487 945.5 725.5Z" stroke="#000000" stroke-width="4.58333" stroke-miterlimit="8" fill="none" fill-rule="evenodd"/></g></svg>