<svg width="1485" height="990" xmlns="http://www.w3.org/2000/svg" xmlns:xlink="http://www.w3.org/1999/xlink" xml:space="preserve" overflow="hidden"><defs><clipPath id="clip0"><rect x="1620" y="613" width="1485" height="990"/></clipPath></defs><g clip-path="url(#clip0)" transform="translate(-1620 -613)"><path d="M1620 1603 3105 1603 3105 613 1620 613Z" fill="#FFFFFF"/><path d="M1876.92 1405.73 3037.74 1405.73 3037.74 667.45 1876.92 667.45Z" fill="#FFFFFF"/><path d="M1892 1405.73 1892 1421.77" stroke="#000000" stroke-width="3.66667" stroke-linejoin="round" fill="none"/><path d="M11.4583-1.00977C7.71528-1.00977 5.16819 0.529948 3.81706 3.60938 2.46593 6.69358 1.79036 10.3626 1.79036 14.6165 1.79036 17.2711 2.03147 19.768 2.51367 22.1074 3.00065 24.4516 3.96267 26.4401 5.39974 28.0729 6.84158 29.7105 8.86111 30.5293 11.4583 30.5293 13.4731 30.5293 15.1202 30.0352 16.3997 29.0469 17.684 28.0634 18.6628 26.791 19.3359 25.2298 20.0091 23.6734 20.4674 22.0024 20.7109 20.2168 20.9592 18.436 21.0833 16.5692 21.0833 14.6165 21.0833 11.9907 20.8398 9.5319 20.3529 7.24023 19.8707 4.94857 18.9206 3.00065 17.5026 1.39648 16.0846-0.207682 14.0699-1.00977 11.4583-1.00977ZM11.4583 0.179036C13.158 0.179036 14.4256 1.05035 15.2611 2.79297 16.0966 4.54036 16.6122 6.47396 16.8079 8.59375 17.0037 10.7135 17.1016 12.967 17.1016 15.3542 17.1016 17.6506 17.0037 19.768 16.8079 21.7064 16.6122 23.6495 16.099 25.4065 15.2682 26.9772 14.4423 28.5527 13.1723 29.3405 11.4583 29.3405 9.73003 29.3405 8.44813 28.548 7.61263 26.9629 6.77713 25.3826 6.2615 23.6257 6.06576 21.6921 5.87001 19.7632 5.77214 17.6506 5.77214 15.3542 5.77214 13.6545 5.81272 12.0503 5.89388 10.5417 5.97982 9.03299 6.20182 7.47656 6.5599 5.8724 6.91797 4.26823 7.49566 2.9171 8.29297 1.81901 9.09028 0.725694 10.1454 0.179036 11.4583 0.179036Z" transform="matrix(1 0 0 -1 1880.54 1472.46)"/><path d="M2268.89 1405.73 2268.89 1421.77" stroke="#000000" stroke-width="3.66667" stroke-linejoin="round" fill="none"/><path d="M2.28451 0 2.28451 1.23177C2.28451 1.30816 2.31315 1.38932 2.37044 1.47526L9.48893 9.35287C10.5632 10.5178 11.4345 11.4941 12.1029 12.2819 12.776 13.0744 13.4397 13.9863 14.0938 15.0176 14.7526 16.0488 15.273 17.0968 15.6549 18.1615 16.0369 19.2261 16.2279 20.3553 16.2279 21.5488 16.2279 22.8045 15.9963 24.0028 15.5332 25.1439 15.0701 26.2849 14.3802 27.1992 13.4635 27.8867 12.5469 28.5742 11.4392 28.918 10.1406 28.918 8.81337 28.918 7.61979 28.5169 6.5599 27.7148 5.5 26.9175 4.75282 25.8863 4.31836 24.6211 4.43772 24.6497 4.60243 24.6641 4.8125 24.6641 5.5 24.6641 6.08485 24.4325 6.56706 23.9694 7.05404 23.5063 7.29753 22.9095 7.29753 22.179 7.29753 21.4772 7.05404 20.8828 6.56706 20.3958 6.08485 19.9136 5.5 19.6725 4.8125 19.6725 4.09635 19.6725 3.49479 19.9208 3.00781 20.4173 2.52561 20.9186 2.28451 21.5059 2.28451 22.179 2.28451 23.3296 2.49935 24.4062 2.92904 25.4089 3.3635 26.4162 3.98655 27.3114 4.79818 28.0944 5.61458 28.8822 6.53364 29.4837 7.55534 29.8991 8.57704 30.3192 9.66081 30.5293 10.8066 30.5293 12.554 30.5293 14.1797 30.1593 15.6836 29.4193 17.1923 28.6793 18.3859 27.6337 19.2643 26.2826 20.1476 24.9362 20.5892 23.3583 20.5892 21.5488 20.5892 20.2216 20.298 18.9612 19.7155 17.7676 19.133 16.574 18.3859 15.4878 17.474 14.5091 16.5668 13.5352 15.4043 12.4275 13.9863 11.1862 12.5684 9.94965 11.6374 9.1237 11.1934 8.70833L6.0013 3.7168 10.4056 3.7168C12.5684 3.7168 14.3778 3.73351 15.834 3.76693 17.2901 3.80512 18.0612 3.86241 18.1471 3.9388 18.5052 4.32552 18.8728 5.73633 19.25 8.17122L20.5892 8.17122 19.293 0 2.28451 0Z" transform="matrix(1 0 0 -1 2244.37 1472.46)"/><path d="M4.63346 0.780599C4.63346 0.9477 4.69314 1.19596 4.8125 1.52539 5.66233 3.29666 6.45486 5.03689 7.1901 6.74609 7.93012 8.45529 8.59375 10.1191 9.18099 11.7376 9.773 13.3561 10.3149 15.0844 10.8066 16.9225L7.8776 16.9225C6.76042 16.9225 5.71484 16.5716 4.74089 15.8698 3.7717 15.168 2.96723 14.2799 2.32747 13.2057 2.27018 13.0864 2.18186 13.0267 2.0625 13.0267L1.52539 13.0267C1.23893 13.0267 1.0957 13.1747 1.0957 13.4707 1.0957 13.5328 1.12674 13.6235 1.1888 13.7428 2.18663 15.4425 3.25608 16.87 4.39714 18.0254 5.53819 19.1808 6.82487 19.7585 8.25716 19.7585L24.8861 19.7585C25.2012 19.7585 25.4685 19.6534 25.6882 19.4434 25.9125 19.2381 26.0247 18.9564 26.0247 18.5983 26.0247 18.1495 25.8648 17.758 25.5449 17.4238 25.225 17.0896 24.8407 16.9225 24.3919 16.9225L18.5553 16.9225C18.0636 14.5163 17.7938 12.1721 17.7461 9.88997 17.7461 6.95378 18.2617 4.29926 19.293 1.92643 19.3837 1.74501 19.429 1.55881 19.429 1.36784 19.429 1.03841 19.3312 0.730469 19.1354 0.44401 18.9397 0.162326 18.689-0.0668403 18.3835-0.24349 18.0779-0.424913 17.7533-0.515625 17.4095-0.515625 16.6074-0.515625 16.056 0.140842 15.7552 1.45378 15.4592 2.76671 15.3112 4.04384 15.3112 5.28516 15.3112 7.02778 15.4592 8.70833 15.7552 10.3268 16.056 11.9453 16.5334 14.1439 17.1875 16.9225L12.196 16.9225C9.78016 7.1352 8.32639 1.74023 7.83464 0.73763 7.40017-0.0978733 6.80339-0.515625 6.04427-0.515625 5.67188-0.515625 5.34245-0.391493 5.05599-0.143229 4.77431 0.10026 4.63346 0.408203 4.63346 0.780599Z" transform="matrix(1 0 0 -1 2267.28 1472.46)"/><path d="M2645.78 1405.73 2645.78 1421.77" stroke="#000000" stroke-width="3.66667" stroke-linejoin="round" fill="none"/><path d="M1.27474 7.5625 1.27474 9.17383 15.4401 30.3001C15.5451 30.4529 15.7027 30.5293 15.9128 30.5293L16.5859 30.5293C16.9297 30.5293 17.1016 30.3574 17.1016 30.0137L17.1016 9.17383 21.599 9.17383 21.599 7.5625 17.1016 7.5625 17.1016 3.0651C17.1016 2.43967 17.548 2.04102 18.4408 1.86914 19.3383 1.69727 20.3743 1.61133 21.5488 1.61133L21.5488 0 8.93034 0 8.93034 1.61133C10.1096 1.61133 11.1456 1.69727 12.0384 1.86914 12.936 2.04102 13.3848 2.43967 13.3848 3.0651L13.3848 7.5625 1.27474 7.5625ZM2.80013 9.17383 13.6497 9.17383 13.6497 25.4017 2.80013 9.17383Z" transform="matrix(1 0 0 -1 2621.26 1472.46)"/><path d="M4.63346 0.780599C4.63346 0.9477 4.69314 1.19596 4.8125 1.52539 5.66233 3.29666 6.45486 5.03689 7.1901 6.74609 7.93012 8.45529 8.59375 10.1191 9.18099 11.7376 9.773 13.3561 10.3149 15.0844 10.8066 16.9225L7.8776 16.9225C6.76042 16.9225 5.71484 16.5716 4.74089 15.8698 3.7717 15.168 2.96723 14.2799 2.32747 13.2057 2.27018 13.0864 2.18186 13.0267 2.0625 13.0267L1.52539 13.0267C1.23893 13.0267 1.0957 13.1747 1.0957 13.4707 1.0957 13.5328 1.12674 13.6235 1.1888 13.7428 2.18663 15.4425 3.25608 16.87 4.39714 18.0254 5.53819 19.1808 6.82487 19.7585 8.25716 19.7585L24.8861 19.7585C25.2012 19.7585 25.4685 19.6534 25.6882 19.4434 25.9125 19.2381 26.0247 18.9564 26.0247 18.5983 26.0247 18.1495 25.8648 17.758 25.5449 17.4238 25.225 17.0896 24.8407 16.9225 24.3919 16.9225L18.5553 16.9225C18.0636 14.5163 17.7938 12.1721 17.7461 9.88997 17.7461 6.95378 18.2617 4.29926 19.293 1.92643 19.3837 1.74501 19.429 1.55881 19.429 1.36784 19.429 1.03841 19.3312 0.730469 19.1354 0.44401 18.9397 0.162326 18.689-0.0668403 18.3835-0.24349 18.0779-0.424913 17.7533-0.515625 17.4095-0.515625 16.6074-0.515625 16.056 0.140842 15.7552 1.45378 15.4592 2.76671 15.3112 4.04384 15.3112 5.28516 15.3112 7.02778 15.4592 8.70833 15.7552 10.3268 16.056 11.9453 16.5334 14.1439 17.1875 16.9225L12.196 16.9225C9.78016 7.1352 8.32639 1.74023 7.83464 0.73763 7.40017-0.0978733 6.80339-0.515625 6.04427-0.515625 5.67188-0.515625 5.34245-0.391493 5.05599-0.143229 4.77431 0.10026 4.63346 0.408203 4.63346 0.780599Z" transform="matrix(1 0 0 -1 2644.17 1472.46)"/><path d="M3022.67 1405.73 3022.67 1421.77" stroke="#000000" stroke-width="3.66667" stroke-linejoin="round" fill="none"/><path d="M11.4583-1.00977C9.56293-1.00977 7.98025-0.506076 6.71029 0.501302 5.4451 1.50868 4.46398 2.81445 3.76693 4.41862 3.07465 6.02279 2.59484 7.70573 2.32747 9.46745 2.06011 11.2292 1.92643 13.0124 1.92643 14.8171 1.92643 17.2329 2.3967 19.6558 3.33724 22.0859 4.27778 24.5208 5.65994 26.5356 7.48372 28.1302 9.31228 29.7296 11.4798 30.5293 13.9863 30.5293 15.0319 30.5293 16.0059 30.3312 16.9082 29.9349 17.8105 29.5386 18.5195 28.9562 19.0352 28.1875 19.5508 27.4188 19.8086 26.4902 19.8086 25.4017 19.8086 24.7763 19.5961 24.2511 19.1712 23.8262 18.7463 23.4013 18.2188 23.1888 17.5885 23.1888 16.9918 23.1888 16.4761 23.4036 16.0417 23.8333 15.612 24.2678 15.3971 24.7906 15.3971 25.4017 15.3971 25.9985 15.612 26.5117 16.0417 26.9414 16.4761 27.3759 16.9918 27.5931 17.5885 27.5931L17.8392 27.5931C17.4477 28.1469 16.8987 28.5527 16.1921 28.8105 15.4855 29.0731 14.7502 29.2044 13.9863 29.2044 13.0601 29.2044 12.2055 29.0015 11.4225 28.5957 10.6395 28.1947 9.93533 27.6504 9.3099 26.9629 8.68446 26.2802 8.16168 25.5234 7.74154 24.6927 7.32617 23.8668 7.00152 22.9238 6.76758 21.8639 6.53841 20.804 6.3928 19.811 6.33073 18.8848 6.27344 17.9633 6.24479 16.8008 6.24479 15.3971 6.77951 16.6528 7.53863 17.6793 8.52214 18.4766 9.51042 19.2739 10.6228 19.6725 11.8594 19.6725 13.2201 19.6725 14.459 19.3956 15.5762 18.8418 16.6934 18.2928 17.6554 17.5289 18.4622 16.5501 19.2691 15.5714 19.885 14.4542 20.3099 13.1986 20.7348 11.9477 20.9473 10.6825 20.9473 9.403 20.9473 7.61263 20.5486 5.90582 19.7513 4.28255 18.954 2.66406 17.8296 1.37739 16.3783 0.422526 14.9316-0.532335 13.2917-1.00977 11.4583-1.00977ZM11.4583 0.451172C12.6376 0.451172 13.5853 0.718533 14.3014 1.25326 15.0176 1.79275 15.5428 2.50412 15.877 3.38737 16.2159 4.27539 16.426 5.17057 16.5072 6.07292 16.5883 6.98003 16.6289 8.09006 16.6289 9.403 16.6289 11.1313 16.5454 12.6066 16.3783 13.8288 16.2159 15.0558 15.7695 16.1348 15.0391 17.0658 14.3086 17.9967 13.189 18.4622 11.6803 18.4622 10.4438 18.4622 9.42687 18.0445 8.62956 17.209 7.83225 16.3735 7.24978 15.3184 6.88216 14.0436 6.51454 12.7689 6.33073 11.5419 6.33073 10.3626 6.33073 9.96159 6.34744 9.65603 6.38086 9.44596 6.38086 9.39822 6.37609 9.36003 6.36654 9.33138 6.36176 9.30273 6.34983 9.26693 6.33073 9.22396 6.33073 7.91102 6.46441 6.58138 6.73177 5.23503 7.00391 3.89345 7.51953 2.75955 8.27865 1.83333 9.04253 0.911892 10.1024 0.451172 11.4583 0.451172Z" transform="matrix(1 0 0 -1 2998.15 1472.46)"/><path d="M4.63346 0.780599C4.63346 0.9477 4.69314 1.19596 4.8125 1.52539 5.66233 3.29666 6.45486 5.03689 7.1901 6.74609 7.93012 8.45529 8.59375 10.1191 9.18099 11.7376 9.773 13.3561 10.3149 15.0844 10.8066 16.9225L7.8776 16.9225C6.76042 16.9225 5.71484 16.5716 4.74089 15.8698 3.7717 15.168 2.96723 14.2799 2.32747 13.2057 2.27018 13.0864 2.18186 13.0267 2.0625 13.0267L1.52539 13.0267C1.23893 13.0267 1.0957 13.1747 1.0957 13.4707 1.0957 13.5328 1.12674 13.6235 1.1888 13.7428 2.18663 15.4425 3.25608 16.87 4.39714 18.0254 5.53819 19.1808 6.82487 19.7585 8.25716 19.7585L24.8861 19.7585C25.2012 19.7585 25.4685 19.6534 25.6882 19.4434 25.9125 19.2381 26.0247 18.9564 26.0247 18.5983 26.0247 18.1495 25.8648 17.758 25.5449 17.4238 25.225 17.0896 24.8407 16.9225 24.3919 16.9225L18.5553 16.9225C18.0636 14.5163 17.7938 12.1721 17.7461 9.88997 17.7461 6.95378 18.2617 4.29926 19.293 1.92643 19.3837 1.74501 19.429 1.55881 19.429 1.36784 19.429 1.03841 19.3312 0.730469 19.1354 0.44401 18.9397 0.162326 18.689-0.0668403 18.3835-0.24349 18.0779-0.424913 17.7533-0.515625 17.4095-0.515625 16.6074-0.515625 16.056 0.140842 15.7552 1.45378 15.4592 2.76671 15.3112 4.04384 15.3112 5.28516 15.3112 7.02778 15.4592 8.70833 15.7552 10.3268 16.056 11.9453 16.5334 14.1439 17.1875 16.9225L12.196 16.9225C9.78016 7.1352 8.32639 1.74023 7.83464 0.73763 7.40017-0.0978733 6.80339-0.515625 6.04427-0.515625 5.67188-0.515625 5.34245-0.391493 5.05599-0.143229 4.77431 0.10026 4.63346 0.408203 4.63346 0.780599Z" transform="matrix(1 0 0 -1 3021.06 1472.46)"/><path d="M8.22422-9.57917C8.22422-9.44787 8.25573-9.25093 8.31875-8.98835L11.1547-0.102409C8.64436 0.522548 6.57517 1.68056 4.94714 3.37161 3.32435 5.06267 2.51296 7.13186 2.51296 9.57917 2.51296 10.8081 2.74141 12.1945 3.19831 13.7385 3.66046 15.2826 4.25128 16.7478 4.97077 18.1342 5.69551 19.5207 6.47539 20.6735 7.31042 21.5925 7.50998 21.687 7.62552 21.7343 7.65703 21.7343L8.27148 21.7343C8.37127 21.7343 8.46055 21.6844 8.53932 21.5846 8.62335 21.4901 8.66536 21.3851 8.66536 21.2695 8.66536 21.1382 8.63385 21.0411 8.57083 20.9781 8.0089 20.3689 7.46009 19.6257 6.92441 18.7487 6.39399 17.8717 5.91871 16.9474 5.49857 15.9758 5.08368 15.0095 4.73707 13.9933 4.45872 12.9271 4.18038 11.861 4.04121 10.9341 4.04121 10.1464 4.04121 8.15595 4.8316 6.54891 6.41237 5.32526 7.99839 4.10686 9.87326 3.29284 12.037 2.8832L13.4628 7.41283C14.0878 9.36647 14.7075 11.11 15.3219 12.6436 15.9416 14.1771 16.7136 15.6764 17.638 17.1417 18.5675 18.6122 19.6888 19.8358 21.0017 20.8126 22.3146 21.7895 23.7825 22.2779 25.4053 22.2779 26.6867 22.2779 27.7581 21.9575 28.6193 21.3168 29.4806 20.6761 30.1187 19.8227 30.5336 18.7566 30.9537 17.6905 31.1638 16.5508 31.1638 15.3377 31.1638 13.3368 30.72 11.3805 29.8325 9.46888 28.9502 7.55725 27.737 5.83993 26.193 4.31693 24.649 2.79918 22.9081 1.60441 20.9702 0.732617 19.0375-0.133919 17.0865-0.567187 15.1171-0.567187 14.8545-0.551432 14.5709-0.535677 14.2663-0.519922 13.9617-0.504167 13.7123-0.496289 13.518-0.496289L11.84-9.27982C11.7403-9.77348 11.4882-10.1805 11.0838-10.5008 10.6847-10.8212 10.2304-10.9814 9.72096-10.9814 9.31133-10.9814 8.95946-10.8527 8.66536-10.5954 8.37127-10.3433 8.22422-10.0046 8.22422-9.57917ZM14.0536 2.60749C14.4318 2.57598 14.9753 2.56022 15.6843 2.56022 17.7692 2.56022 19.8883 3.07227 22.0415 4.09635 24.2 5.12569 25.9882 6.53316 27.4062 8.31875 28.8294 10.1096 29.541 12.0554 29.541 14.1561 29.541 15.1066 29.3467 15.96 28.9581 16.7163 28.5747 17.4725 28.0338 18.066 27.3353 18.4966 26.6421 18.9325 25.8359 19.1505 24.9169 19.1505 22.3067 19.1505 20.122 17.8874 18.3627 15.3613 16.6086 12.8352 15.4611 10.1201 14.9202 7.21589L14.0536 2.60749Z" transform="matrix(1 0 0 -1 2440.7 1537.8)"/><path d="M1876.92 695.272 1860.88 695.272" stroke="#000000" stroke-width="3.66667" stroke-linejoin="round" fill="none"/><path d="M11.4583-1.00977C7.71528-1.00977 5.16819 0.529948 3.81706 3.60938 2.46593 6.69358 1.79036 10.3626 1.79036 14.6165 1.79036 17.2711 2.03147 19.768 2.51367 22.1074 3.00065 24.4516 3.96267 26.4401 5.39974 28.0729 6.84158 29.7105 8.86111 30.5293 11.4583 30.5293 13.4731 30.5293 15.1202 30.0352 16.3997 29.0469 17.684 28.0634 18.6628 26.791 19.3359 25.2298 20.0091 23.6734 20.4674 22.0024 20.7109 20.2168 20.9592 18.436 21.0833 16.5692 21.0833 14.6165 21.0833 11.9907 20.8398 9.5319 20.3529 7.24023 19.8707 4.94857 18.9206 3.00065 17.5026 1.39648 16.0846-0.207682 14.0699-1.00977 11.4583-1.00977ZM11.4583 0.179036C13.158 0.179036 14.4256 1.05035 15.2611 2.79297 16.0966 4.54036 16.6122 6.47396 16.8079 8.59375 17.0037 10.7135 17.1016 12.967 17.1016 15.3542 17.1016 17.6506 17.0037 19.768 16.8079 21.7064 16.6122 23.6495 16.099 25.4065 15.2682 26.9772 14.4423 28.5527 13.1723 29.3405 11.4583 29.3405 9.73003 29.3405 8.44813 28.548 7.61263 26.9629 6.77713 25.3826 6.2615 23.6257 6.06576 21.6921 5.87001 19.7632 5.77214 17.6506 5.77214 15.3542 5.77214 13.6545 5.81272 12.0503 5.89388 10.5417 5.97982 9.03299 6.20182 7.47656 6.5599 5.8724 6.91797 4.26823 7.49566 2.9171 8.29297 1.81901 9.09028 0.725694 10.1454 0.179036 11.4583 0.179036Z" transform="matrix(1 0 0 -1 1821.92 712.506)"/><path d="M1876.92 982.095 1860.88 982.095" stroke="#000000" stroke-width="3.66667" stroke-linejoin="round" fill="none"/><path d="M4.67643 10.5417C4.42339 10.5417 4.21332 10.6372 4.04622 10.8281 3.8839 11.0239 3.80273 11.2339 3.80273 11.4583 3.80273 11.6827 3.8839 11.8904 4.04622 12.0814 4.21332 12.2771 4.42339 12.375 4.67643 12.375L30.9733 12.375C31.212 12.375 31.4102 12.2771 31.5677 12.0814 31.7253 11.8904 31.804 11.6827 31.804 11.4583 31.804 11.2339 31.7253 11.0239 31.5677 10.8281 31.4102 10.6372 31.212 10.5417 30.9733 10.5417L4.67643 10.5417Z" transform="matrix(1 0 0 -1 1786.17 999.329)"/><path d="M3.98177 5.21354C4.29688 4.32075 4.77908 3.50673 5.42839 2.77148 6.07769 2.04102 6.84635 1.47049 7.73438 1.0599 8.6224 0.65408 9.54384 0.451172 10.4987 0.451172 12.7044 0.451172 14.225 1.30816 15.0605 3.02214 15.8961 4.73611 16.3138 6.81771 16.3138 9.26693 16.3138 10.3268 16.2947 11.2172 16.2565 11.9382 16.2231 12.6638 16.1228 13.3609 15.9557 14.0293 15.674 15.1035 15.1775 16.0441 14.4661 16.8509 13.7595 17.6578 12.8906 18.0612 11.8594 18.0612 10.8329 18.0612 9.94965 17.9036 9.20964 17.5885 8.46962 17.2782 7.86806 16.913 7.40495 16.4928 6.94661 16.0775 6.53841 15.6382 6.18034 15.1751 5.82227 14.712 5.59787 14.4661 5.50716 14.4375L4.99154 14.4375C4.91515 14.4375 4.81966 14.4852 4.70508 14.5807 4.59527 14.6762 4.54036 14.7693 4.54036 14.86L4.54036 30.1712C4.54036 30.2428 4.58811 30.3192 4.68359 30.4004 4.78385 30.4863 4.8865 30.5293 4.99154 30.5293L5.1276 30.5293C7.18533 29.541 9.36958 29.0469 11.6803 29.0469 13.9481 29.0469 16.1348 29.541 18.2402 30.5293L18.3763 30.5293C18.4813 30.5293 18.5768 30.4911 18.6628 30.4147 18.7535 30.3383 18.7988 30.2572 18.7988 30.1712L18.7988 29.7415C18.7988 29.5935 18.7702 29.5195 18.7129 29.5195 17.6673 28.1302 16.3568 27.0464 14.7812 26.2682 13.2057 25.4948 11.5753 25.1081 9.88997 25.1081 8.66775 25.1081 7.4145 25.2799 6.13021 25.6237L6.13021 16.9655C7.14714 17.7867 8.05425 18.3715 8.85156 18.7201 9.64887 19.0734 10.6682 19.25 11.9095 19.25 13.5948 19.25 15.1035 18.763 16.4355 17.7891 17.7724 16.8199 18.7988 15.5547 19.515 13.9935 20.2311 12.4371 20.5892 10.8472 20.5892 9.22396 20.5892 7.38585 20.138 5.68381 19.2357 4.11784 18.3333 2.55187 17.1063 1.30577 15.5547 0.379557 14.003-0.546658 12.3177-1.00977 10.4987-1.00977 8.99002-1.00977 7.60547-0.623047 6.34505 0.150391 5.08464 0.928603 4.09158 1.97418 3.36589 3.28711 2.64497 4.60004 2.28451 5.99653 2.28451 7.47656 2.28451 8.16406 2.50651 8.72266 2.95052 9.15234 3.39931 9.58681 3.96029 9.80404 4.63346 9.80404 5.30664 9.80404 5.87001 9.58203 6.32357 9.13802 6.77713 8.69878 7.00391 8.14497 7.00391 7.47656 7.00391 6.81771 6.77713 6.2615 6.32357 5.80794 5.87001 5.35438 5.30664 5.1276 4.63346 5.1276 4.52843 5.1276 4.40907 5.13715 4.27539 5.15625 4.14171 5.18012 4.04384 5.19922 3.98177 5.21354Z" transform="matrix(1 0 0 -1 1821.78 999.329)"/><path d="M1876.92 1268.92 1860.88 1268.92" stroke="#000000" stroke-width="3.66667" stroke-linejoin="round" fill="none"/><path d="M4.67643 10.5417C4.42339 10.5417 4.21332 10.6372 4.04622 10.8281 3.8839 11.0239 3.80273 11.2339 3.80273 11.4583 3.80273 11.6827 3.8839 11.8904 4.04622 12.0814 4.21332 12.2771 4.42339 12.375 4.67643 12.375L30.9733 12.375C31.212 12.375 31.4102 12.2771 31.5677 12.0814 31.7253 11.8904 31.804 11.6827 31.804 11.4583 31.804 11.2339 31.7253 11.0239 31.5677 10.8281 31.4102 10.6372 31.212 10.5417 30.9733 10.5417L4.67643 10.5417Z" transform="matrix(1 0 0 -1 1763.26 1286.15)"/><path d="M4.25391 0 4.25391 1.61133C8.07335 1.61133 9.98307 2.09592 9.98307 3.0651L9.98307 27.1276C8.40278 26.3637 6.40234 25.9818 3.98177 25.9818L3.98177 27.5931C7.7296 27.5931 10.5584 28.5718 12.4681 30.5293L13.1126 30.5293C13.2177 30.5293 13.3179 30.4863 13.4134 30.4004 13.5137 30.3192 13.5638 30.2261 13.5638 30.1211L13.5638 3.0651C13.5638 2.09592 15.4735 1.61133 19.293 1.61133L19.293 0 4.25391 0Z" transform="matrix(1 0 0 -1 1798.86 1286.15)"/><path d="M11.4583-1.00977C7.71528-1.00977 5.16819 0.529948 3.81706 3.60938 2.46593 6.69358 1.79036 10.3626 1.79036 14.6165 1.79036 17.2711 2.03147 19.768 2.51367 22.1074 3.00065 24.4516 3.96267 26.4401 5.39974 28.0729 6.84158 29.7105 8.86111 30.5293 11.4583 30.5293 13.4731 30.5293 15.1202 30.0352 16.3997 29.0469 17.684 28.0634 18.6628 26.791 19.3359 25.2298 20.0091 23.6734 20.4674 22.0024 20.7109 20.2168 20.9592 18.436 21.0833 16.5692 21.0833 14.6165 21.0833 11.9907 20.8398 9.5319 20.3529 7.24023 19.8707 4.94857 18.9206 3.00065 17.5026 1.39648 16.0846-0.207682 14.0699-1.00977 11.4583-1.00977ZM11.4583 0.179036C13.158 0.179036 14.4256 1.05035 15.2611 2.79297 16.0966 4.54036 16.6122 6.47396 16.8079 8.59375 17.0037 10.7135 17.1016 12.967 17.1016 15.3542 17.1016 17.6506 17.0037 19.768 16.8079 21.7064 16.6122 23.6495 16.099 25.4065 15.2682 26.9772 14.4423 28.5527 13.1723 29.3405 11.4583 29.3405 9.73003 29.3405 8.44813 28.548 7.61263 26.9629 6.77713 25.3826 6.2615 23.6257 6.06576 21.6921 5.87001 19.7632 5.77214 17.6506 5.77214 15.3542 5.77214 13.6545 5.81272 12.0503 5.89388 10.5417 5.97982 9.03299 6.20182 7.47656 6.5599 5.8724 6.91797 4.26823 7.49566 2.9171 8.29297 1.81901 9.09028 0.725694 10.1454 0.179036 11.4583 0.179036Z" transform="matrix(1 0 0 -1 1821.78 1286.15)"/><path d="M7.41283 7.01895C7.41283 5.78479 7.65441 4.68455 8.13756 3.71823 8.62072 2.75191 9.32183 2.00091 10.2409 1.46523 11.1599 0.929557 12.2339 0.661719 13.4628 0.661719 14.9071 0.661719 16.3145 0.955816 17.6852 1.54401 19.0559 2.13746 20.2901 2.95935 21.3877 4.0097 22.4906 5.06005 23.4306 6.25744 24.2079 7.60189 24.9904 8.95158 25.5444 10.2829 25.8701 11.5958L30.3997 29.7852C30.4679 30.1476 30.5021 30.4023 30.5021 30.5493 30.5021 31.9621 29.2049 32.6684 26.6105 32.6684 26.2849 32.6684 26.1221 32.889 26.1221 33.3301 26.2377 33.7608 26.327 34.0523 26.39 34.2046 26.4582 34.3621 26.6552 34.4409 26.9808 34.4409L37.9149 34.4409C38.062 34.4409 38.1827 34.3674 38.2773 34.2203 38.3771 34.0733 38.427 33.9262 38.427 33.7792 38.427 33.7582 38.3928 33.6295 38.3245 33.3932 38.2615 33.1568 38.1854 32.9757 38.0961 32.8496 38.0068 32.7288 37.8965 32.6684 37.7652 32.6684 34.5459 32.6684 32.6816 31.6417 32.1721 29.5883L27.6189 11.3989C27.2408 9.82337 26.6053 8.29249 25.7125 6.80625 24.8197 5.32001 23.7195 3.97294 22.4118 2.76504 21.1094 1.56239 19.673 0.617079 18.1027-0.0708984 16.5377-0.764128 14.9438-1.11074 13.321-1.11074 11.4672-1.11074 9.77085-0.703733 8.2321 0.110286 6.69859 0.924306 5.49594 2.06131 4.62415 3.52129 3.75762 4.98127 3.32435 6.66445 3.32435 8.57083 3.32435 9.66845 3.44776 10.6768 3.6946 11.5958L8.57083 31.1638C8.63385 31.4947 8.66536 31.7257 8.66536 31.857 8.66536 32.2194 8.46842 32.4242 8.07454 32.4715 7.43383 32.6028 6.22068 32.6684 4.43509 32.6684 4.10423 32.6684 3.9388 32.889 3.9388 33.3301 4.05434 33.7608 4.14362 34.0523 4.20664 34.2046 4.27491 34.3621 4.47185 34.4409 4.79746 34.4409L18.3391 34.4409C18.6857 34.4409 18.859 34.2203 18.859 33.7792 18.8432 33.6951 18.8091 33.5533 18.7566 33.3538 18.7093 33.1595 18.6437 32.9967 18.5596 32.8654 18.4809 32.7341 18.3574 32.6684 18.1894 32.6684 16.1412 32.6684 14.7154 32.5529 13.9118 32.3218 13.4655 32.159 13.1451 31.6995 12.9508 30.9432L8.07454 11.3989C7.6334 9.62381 7.41283 8.16382 7.41283 7.01895Z" transform="matrix(6.12323e-17 -1 -1 -6.12323e-17 1732.32 1094.07)"/><path d="M2.82806-11.5958C2.82806-11.4961 2.84644-11.4304 2.8832-11.3989L20.4109 37.198C20.4739 37.3924 20.5868 37.542 20.7496 37.6471 20.9177 37.7574 21.1067 37.8125 21.3168 37.8125 21.6161 37.8125 21.8577 37.7206 22.0415 37.5368 22.2306 37.3582 22.3251 37.114 22.3251 36.8042L22.3251 36.6072 4.79746-11.9897C4.60315-12.3993 4.28542-12.6042 3.84427-12.6042 3.56068-12.6042 3.3191-12.5044 3.11953-12.3048 2.92522-12.1105 2.82806-11.8742 2.82806-11.5958Z" transform="matrix(6.12323e-17 -1 -1 -6.12323e-17 1732.32 1059.68)"/><path d="M7.41283 7.01895C7.41283 5.78479 7.65441 4.68455 8.13756 3.71823 8.62072 2.75191 9.32183 2.00091 10.2409 1.46523 11.1599 0.929557 12.2339 0.661719 13.4628 0.661719 14.9071 0.661719 16.3145 0.955816 17.6852 1.54401 19.0559 2.13746 20.2901 2.95935 21.3877 4.0097 22.4906 5.06005 23.4306 6.25744 24.2079 7.60189 24.9904 8.95158 25.5444 10.2829 25.8701 11.5958L30.3997 29.7852C30.4679 30.1476 30.5021 30.4023 30.5021 30.5493 30.5021 31.9621 29.2049 32.6684 26.6105 32.6684 26.2849 32.6684 26.1221 32.889 26.1221 33.3301 26.2377 33.7608 26.327 34.0523 26.39 34.2046 26.4582 34.3621 26.6552 34.4409 26.9808 34.4409L37.9149 34.4409C38.062 34.4409 38.1827 34.3674 38.2773 34.2203 38.3771 34.0733 38.427 33.9262 38.427 33.7792 38.427 33.7582 38.3928 33.6295 38.3245 33.3932 38.2615 33.1568 38.1854 32.9757 38.0961 32.8496 38.0068 32.7288 37.8965 32.6684 37.7652 32.6684 34.5459 32.6684 32.6816 31.6417 32.1721 29.5883L27.6189 11.3989C27.2408 9.82337 26.6053 8.29249 25.7125 6.80625 24.8197 5.32001 23.7195 3.97294 22.4118 2.76504 21.1094 1.56239 19.673 0.617079 18.1027-0.0708984 16.5377-0.764128 14.9438-1.11074 13.321-1.11074 11.4672-1.11074 9.77085-0.703733 8.2321 0.110286 6.69859 0.924306 5.49594 2.06131 4.62415 3.52129 3.75762 4.98127 3.32435 6.66445 3.32435 8.57083 3.32435 9.66845 3.44776 10.6768 3.6946 11.5958L8.57083 31.1638C8.63385 31.4947 8.66536 31.7257 8.66536 31.857 8.66536 32.2194 8.46842 32.4242 8.07454 32.4715 7.43383 32.6028 6.22068 32.6684 4.43509 32.6684 4.10423 32.6684 3.9388 32.889 3.9388 33.3301 4.05434 33.7608 4.14362 34.0523 4.20664 34.2046 4.27491 34.3621 4.47185 34.4409 4.79746 34.4409L18.3391 34.4409C18.6857 34.4409 18.859 34.2203 18.859 33.7792 18.8432 33.6951 18.8091 33.5533 18.7566 33.3538 18.7093 33.1595 18.6437 32.9967 18.5596 32.8654 18.4809 32.7341 18.3574 32.6684 18.1894 32.6684 16.1412 32.6684 14.7154 32.5529 13.9118 32.3218 13.4655 32.159 13.1451 31.6995 12.9508 30.9432L8.07454 11.3989C7.6334 9.62381 7.41283 8.16382 7.41283 7.01895Z" transform="matrix(6.12323e-17 -1 -1 -6.12323e-17 1732.32 1034.47)"/><path d="M8.82292-0.77752C5.94076-0.77752 3.9795 0.40806 2.93913 2.77922 1.89877 5.15405 1.37858 7.97923 1.37858 11.2547 1.37858 13.2987 1.56423 15.2214 1.93553 17.0227 2.3105 18.8277 3.05126 20.3589 4.1578 21.6161 5.26802 22.8771 6.82306 23.5076 8.82292 23.5076 10.3743 23.5076 11.6426 23.1271 12.6278 22.3661 13.6167 21.6088 14.3703 20.6291 14.8887 19.427 15.407 18.2285 15.7599 16.9418 15.9474 15.5669 16.1386 14.1957 16.2342 12.7583 16.2342 11.2547 16.2342 9.23281 16.0467 7.33956 15.6717 5.57498 15.3004 3.8104 14.5688 2.3105 13.477 1.07529 12.3852-0.159915 10.8338-0.77752 8.82292-0.77752ZM8.82292 0.137858C10.1316 0.137858 11.1077 0.808767 11.751 2.15059 12.3944 3.49608 12.7914 4.98495 12.9421 6.61719 13.0928 8.24943 13.1682 9.9846 13.1682 11.8227 13.1682 13.591 13.0928 15.2214 12.9421 16.7139 12.7914 18.2101 12.3962 19.563 11.7565 20.7725 11.1206 21.9856 10.1427 22.5922 8.82292 22.5922 7.49213 22.5922 6.50506 21.9819 5.86173 20.7614 5.21839 19.5446 4.82136 18.1918 4.67063 16.7029 4.51991 15.2177 4.44454 13.591 4.44454 11.8227 4.44454 10.514 4.47579 9.27877 4.53829 8.11708 4.60446 6.9554 4.7754 5.75695 5.05112 4.52174 5.32684 3.28654 5.77166 2.24617 6.38559 1.40064 6.99951 0.558785 7.81196 0.137858 8.82292 0.137858Z" transform="matrix(6.12323e-17 -1 -1 -6.12323e-17 1740.89 1000.08)"/><g><path d="M1929.69 701.008 2080.75 724.184 2269.83 867.509 2457.86 896.45 2645.89 1039.48 2834.98 1068.72 2984.98 1182.87 2984.98 1182.87" stroke="#000000" stroke-width="6.875" stroke-linecap="square" stroke-linejoin="round" fill="none"/></g><g><path d="M1929.69 936.203 2268.78 1039.43 2269.83 1097.11 2644.84 1211.27 2645.89 1268.95 2984.98 1372.17 2984.98 1372.17" stroke="#0000FF" stroke-width="6.875" stroke-linecap="square" stroke-linejoin="round" fill="none"/></g><g><path d="M1929.69 775.577 2268.78 982.026 2269.83 925.299 2644.84 1153.61 2645.89 1096.89 2984.98 1303.34 2984.98 1303.34" stroke="#FF0000" stroke-width="6.875" stroke-linecap="square" stroke-linejoin="round" fill="none"/></g><path d="M1876.92 1405.73 1876.92 667.45" stroke="#000000" stroke-width="3.66667" stroke-linecap="square" fill="none"/><path d="M3037.74 1405.73 3037.74 667.45" stroke="#000000" stroke-width="3.66667" stroke-linecap="square" fill="none"/><path d="M1876.92 1405.73 3037.74 1405.73" stroke="#000000" stroke-width="3.66667" stroke-linecap="square" fill="none"/><path d="M1876.92 667.45 3037.74 667.45" stroke="#000000" stroke-width="3.66667" stroke-linecap="square" fill="none"/><path d="M2245.5 957.5C2245.5 953.082 2249.31 949.5 2254 949.5 2258.69 949.5 2262.5 953.082 2262.5 957.5 2262.5 961.918 2258.69 965.5 2254 965.5 2249.31 965.5 2245.5 961.918 2245.5 957.5Z" stroke="#042433" stroke-width="6.875" stroke-miterlimit="8" fill-rule="evenodd"/><path d="M2578.5 1179C2578.5 1174.31 2582.53 1170.5 2587.5 1170.5 2592.47 1170.5 2596.5 1174.31 2596.5 1179 2596.5 1183.69 2592.47 1187.5 2587.5 1187.5 2582.53 1187.5 2578.5 1183.69 2578.5 1179Z" stroke="#042433" stroke-width="6.875" stroke-miterlimit="8" fill-rule="evenodd"/><path d="M2399.5 877C2399.5 872.306 2403.53 868.5 2408.5 868.5 2413.47 868.5 2417.5 872.306 2417.5 877 2417.5 881.694 2413.47 885.5 2408.5 885.5 2403.53 885.5 2399.5 881.694 2399.5 877Z" stroke="#042433" stroke-width="6.875" stroke-miterlimit="8" fill-rule="evenodd"/><path d="M2434.58 877.514C2512.87 877.253 2585.48 900.103 2642.41 942.912" stroke="#000000" stroke-width="6.875" stroke-linejoin="round" stroke-miterlimit="10" stroke-dasharray="27.5 20.625" fill="none" fill-rule="evenodd"/><path d="M2659.87 958.685 2643.57 961.201 2657.33 942.192Z" stroke="#000000" stroke-width="6.875" stroke-miterlimit="8" fill-rule="evenodd"/><path d="M2618.88 1177.37C2696.97 1183 2767.65 1211.24 2821.2 1258.21" stroke="#000000" stroke-width="6.875" stroke-linejoin="round" stroke-miterlimit="10" stroke-dasharray="27.5 20.625" fill="none" fill-rule="evenodd"/><path d="M2841.05 1273.96 2824.74 1276.48 2838.5 1257.47Z" stroke="#000000" stroke-width="6.875" stroke-miterlimit="8" fill-rule="evenodd"/></g></svg>