<?xml version="1.0" encoding="utf-8" standalone="no"?>
<!DOCTYPE svg PUBLIC "-//W3C//DTD SVG 1.1//EN"
  "http://www.w3.org/Graphics/SVG/1.1/DTD/svg11.dtd">
<svg xmlns:xlink="http://www.w3.org/1999/xlink" width="324pt" height="216pt" viewBox="0 0 324 216" xmlns="http://www.w3.org/2000/svg" version="1.1">
 <metadata>
  <rdf:RDF xmlns:dc="http://purl.org/dc/elements/1.1/" xmlns:cc="http://creativecommons.org/ns#" xmlns:rdf="http://www.w3.org/1999/02/22-rdf-syntax-ns#">
   <cc:Work>
    <dc:type rdf:resource="http://purl.org/dc/dcmitype/StillImage"/>
    <dc:date>2025-08-13T00:32:14.858292</dc:date>
    <dc:format>image/svg+xml</dc:format>
    <dc:creator>
     <cc:Agent>
      <dc:title>Matplotlib v3.7.1, https://matplotlib.org/</dc:title>
     </cc:Agent>
    </dc:creator>
   </cc:Work>
  </rdf:RDF>
 </metadata>
 <defs>
  <style type="text/css">*{stroke-linejoin: round; stroke-linecap: butt}</style>
 </defs>
 <g id="figure_1">
  <g id="patch_1">
   <path d="M 0 216 
L 324 216 
L 324 0 
L 0 0 
z
" style="fill: #ffffff"/>
  </g>
  <g id="axes_1">
   <g id="patch_2">
    <path d="M 53.753316 166.264 
L 312.12 166.264 
L 312.12 11.88 
L 53.753316 11.88 
z
" style="fill: #ffffff"/>
   </g>
   <g id="line2d_1">
    <path d="M 65.497256 159.183415 
L 67.869769 159.170513 
L 70.242282 159.154978 
L 72.614795 159.136271 
L 74.987309 159.113747 
L 77.359822 159.086629 
L 79.732335 159.053984 
L 82.104848 159.014689 
L 84.477361 158.967395 
L 86.849874 158.910485 
L 89.222388 158.842016 
L 91.594901 158.75966 
L 93.967414 158.660628 
L 96.339927 158.541584 
L 98.71244 158.398544 
L 101.084953 158.226752 
L 103.457467 158.020553 
L 105.82998 157.773229 
L 108.202493 157.476827 
L 110.575006 157.121966 
L 112.947519 156.697625 
L 115.320032 156.190924 
L 117.692546 155.586903 
L 120.065059 154.868315 
L 122.437572 154.015455 
L 124.810085 153.00605 
L 127.182598 151.815262 
L 129.555111 150.415827 
L 131.927625 148.77841 
L 134.300138 146.87221 
L 136.672651 144.665873 
L 139.045164 142.128736 
L 141.417677 139.232397 
L 143.79019 135.952543 
L 146.162704 132.270923 
L 148.535217 128.177261 
L 150.90773 123.670878 
L 153.280243 118.761761 
L 155.652756 113.470854 
L 158.02527 107.829435 
L 160.397783 101.877585 
L 162.770296 95.66193 
L 165.142809 89.232982 
L 167.515322 82.642551 
L 169.887835 75.94177 
L 172.260349 69.180274 
L 174.632862 62.407096 
L 177.005375 55.673813 
L 179.377888 49.0406 
L 181.750401 42.586039 
L 184.122914 36.421751 
L 186.495428 30.712785 
L 188.867941 25.703165 
L 191.240454 21.741339 
L 193.612967 19.290673 
L 195.98548 18.897455 
L 198.357993 21.085334 
L 200.730507 26.173646 
L 203.10302 34.085642 
L 205.475533 44.271235 
L 207.848046 55.830785 
L 210.220559 67.78803 
L 212.593072 79.35095 
L 214.965586 90.031261 
L 217.338099 99.617212 
L 219.710612 108.078443 
L 222.083125 115.476128 
L 224.455638 121.906223 
L 226.828151 127.471741 
L 229.200665 132.271722 
L 231.573178 136.397701 
L 233.945691 139.932996 
L 236.318204 142.952876 
L 238.690717 145.524962 
L 241.063231 147.709666 
L 243.435744 149.560638 
L 245.808257 151.125238 
L 248.18077 152.445004 
L 250.553283 153.556159 
L 252.925796 154.490113 
L 255.29831 155.27396 
L 257.670823 155.930964 
L 260.043336 156.481017 
L 262.415849 156.941063 
L 264.788362 157.325491 
L 267.160875 157.646481 
L 269.533389 157.914323 
L 271.905902 158.137685 
L 274.278415 158.32386 
L 276.650928 158.478972 
L 279.023441 158.608154 
L 281.395954 158.715705 
L 283.768468 158.805222 
L 286.140981 158.879708 
L 288.513494 158.941671 
L 290.886007 158.993205 
" clip-path="url(#p3bdf4298c7)" style="fill: none; stroke: #000000; stroke-width: 1.5; stroke-linecap: square"/>
   </g>
   <g id="line2d_2">
    <path d="M 65.497256 159.190833 
L 67.869769 159.179448 
L 70.242282 159.165737 
L 72.614795 159.149227 
L 74.987309 159.129349 
L 77.359822 159.105416 
L 79.732335 159.076603 
L 82.104848 159.041921 
L 84.477361 159.000178 
L 86.849874 158.949944 
L 89.222388 158.889506 
L 91.594901 158.816804 
L 93.967414 158.729376 
L 96.339927 158.624271 
L 98.71244 158.497968 
L 101.084953 158.34626 
L 103.457467 158.16414 
L 105.82998 157.945662 
L 108.202493 157.683777 
L 110.575006 157.370166 
L 112.947519 156.995047 
L 115.320032 156.546973 
L 117.692546 156.012632 
L 120.065059 155.376654 
L 122.437572 154.621445 
L 124.810085 153.72708 
L 127.182598 152.671284 
L 129.555111 151.429548 
L 131.927625 149.975425 
L 134.300138 148.281071 
L 136.672651 146.318068 
L 139.045164 144.058578 
L 141.417677 141.476828 
L 143.79019 138.550888 
L 146.162704 135.264641 
L 148.535217 131.609794 
L 150.90773 127.587686 
L 153.280243 123.210659 
L 155.652756 118.502758 
L 158.02527 113.499585 
L 160.397783 108.247286 
L 162.770296 102.800805 
L 165.142809 97.221711 
L 167.515322 91.576047 
L 169.887835 85.932728 
L 172.260349 80.363029 
L 174.632862 74.941639 
L 177.005375 69.749629 
L 179.377888 64.879575 
L 181.750401 60.442896 
L 184.122914 56.579143 
L 186.495428 53.466284 
L 188.867941 51.329389 
L 191.240454 50.441995 
L 193.612967 51.109853 
L 195.98548 53.62338 
L 198.357993 58.170475 
L 200.730507 64.725166 
L 203.10302 72.965787 
L 205.475533 82.293481 
L 207.848046 91.974634 
L 210.220559 101.339929 
L 212.593072 109.928865 
L 214.965586 117.520814 
L 217.338099 124.079353 
L 219.710612 129.67233 
L 222.083125 134.40966 
L 224.455638 138.408293 
L 226.828151 141.776979 
L 229.200665 144.611485 
L 231.573178 146.994254 
L 233.945691 148.995587 
L 236.318204 150.675199 
L 238.690717 152.083712 
L 241.063231 153.263994 
L 243.435744 154.252313 
L 245.808257 155.079318 
L 248.18077 155.77089 
L 250.553283 156.348855 
L 252.925796 156.831602 
L 255.29831 157.234606 
L 257.670823 157.570877 
L 260.043336 157.851339 
L 262.415849 158.08516 
L 264.788362 158.280024 
L 267.160875 158.442365 
L 269.533389 158.57757 
L 271.905902 158.690142 
L 274.278415 158.783847 
L 276.650928 158.861797 
L 279.023441 158.926677 
L 281.395954 158.980651 
L 283.768468 159.025545 
L 286.140981 159.062883 
L 288.513494 159.093931 
L 290.886007 159.119745 
" clip-path="url(#p3bdf4298c7)" style="fill: none; stroke-dasharray: 1.5,2.475; stroke-dashoffset: 0; stroke: #000000; stroke-width: 1.5"/>
   </g>
   <g id="line2d_3">
    <path d="M 65.497256 159.24207 
L 67.869769 159.241155 
L 70.242282 159.240052 
L 72.614795 159.238724 
L 74.987309 159.237125 
L 77.359822 159.235199 
L 79.732335 159.232879 
L 82.104848 159.230085 
L 84.477361 159.22672 
L 86.849874 159.222667 
L 89.222388 159.217786 
L 91.594901 159.211907 
L 93.967414 159.204827 
L 96.339927 159.196302 
L 98.71244 159.186036 
L 101.084953 159.173675 
L 103.457467 159.158791 
L 105.82998 159.140872 
L 108.202493 159.1193 
L 110.575006 159.093335 
L 112.947519 159.062086 
L 115.320032 159.024483 
L 117.692546 158.979244 
L 120.065059 158.924831 
L 122.437572 158.859404 
L 124.810085 158.780759 
L 127.182598 158.686266 
L 129.555111 158.57279 
L 131.927625 158.436599 
L 134.300138 158.273266 
L 136.672651 158.077552 
L 139.045164 157.843281 
L 141.417677 157.563211 
L 143.79019 157.228888 
L 146.162704 156.830514 
L 148.535217 156.356829 
L 150.90773 155.795019 
L 153.280243 155.130689 
L 155.652756 154.347919 
L 158.02527 153.429454 
L 160.397783 152.357071 
L 162.770296 151.112187 
L 165.142809 149.676747 
L 167.515322 148.034465 
L 169.887835 146.172412 
L 172.260349 144.082959 
L 174.632862 141.765997 
L 177.005375 139.231281 
L 179.377888 136.5007 
L 181.750401 133.610185 
L 184.122914 130.610954 
L 186.495428 127.569776 
L 188.867941 124.568039 
L 191.240454 121.699446 
L 193.612967 119.066309 
L 195.98548 116.774517 
L 198.357993 114.927315 
L 200.730507 113.618179 
L 203.10302 112.923166 
L 205.475533 112.89331 
L 207.848046 113.547937 
L 210.220559 114.869959 
L 212.593072 116.804404 
L 214.965586 119.26117 
L 217.338099 122.122416 
L 219.710612 125.253926 
L 222.083125 128.518675 
L 224.455638 131.790046 
L 226.828151 134.96214 
L 229.200665 137.955529 
L 231.573178 140.718177 
L 233.945691 143.222532 
L 236.318204 145.460471 
L 238.690717 147.437731 
L 241.063231 149.168923 
L 243.435744 150.673648 
L 245.808257 151.973737 
L 248.18077 153.091441 
L 250.553283 154.048308 
L 252.925796 154.864534 
L 255.29831 155.558622 
L 257.670823 156.147252 
L 260.043336 156.645263 
L 262.415849 157.065731 
L 264.788362 157.42008 
L 267.160875 157.718227 
L 269.533389 157.968727 
L 271.905902 158.17893 
L 274.278415 158.355122 
L 276.650928 158.502659 
L 279.023441 158.626093 
L 281.395954 158.72928 
L 283.768468 158.815481 
L 286.140981 158.887448 
L 288.513494 158.947497 
L 290.886007 158.997578 
L 293.25852 159.039326 
L 295.631033 159.074114 
L 298.003547 159.103093 
L 300.37606 159.127224 
" clip-path="url(#p3bdf4298c7)" style="fill: none; stroke: #0000ff; stroke-width: 1.5; stroke-linecap: square"/>
   </g>
   <g id="line2d_4">
    <path d="M 65.497256 159.24387 
L 67.869769 159.243323 
L 70.242282 159.242664 
L 72.614795 159.241871 
L 74.987309 159.240915 
L 77.359822 159.239763 
L 79.732335 159.238377 
L 82.104848 159.236707 
L 84.477361 159.234695 
L 86.849874 159.232272 
L 89.222388 159.229355 
L 91.594901 159.225841 
L 93.967414 159.221609 
L 96.339927 159.216512 
L 98.71244 159.210375 
L 101.084953 159.202985 
L 103.457467 159.194087 
L 105.82998 159.183373 
L 108.202493 159.170476 
L 110.575006 159.15495 
L 112.947519 159.136263 
L 115.320032 159.113774 
L 117.692546 159.086716 
L 120.065059 159.054166 
L 122.437572 159.01502 
L 124.810085 158.967957 
L 127.182598 158.911397 
L 129.555111 158.843455 
L 131.927625 158.761884 
L 134.300138 158.664017 
L 136.672651 158.54669 
L 139.045164 158.406168 
L 141.417677 158.238058 
L 143.79019 158.037219 
L 146.162704 157.797672 
L 148.535217 157.512517 
L 150.90773 157.173865 
L 153.280243 156.7728 
L 155.652756 156.299395 
L 158.02527 155.742803 
L 160.397783 155.091458 
L 162.770296 154.333425 
L 165.142809 153.456946 
L 167.515322 152.451219 
L 169.887835 151.307444 
L 172.260349 150.020145 
L 174.632862 148.58874 
L 177.005375 147.019276 
L 179.377888 145.326178 
L 181.750401 143.533794 
L 184.122914 141.67746 
L 186.495428 139.803778 
L 188.867941 137.969851 
L 191.240454 136.241268 
L 193.612967 134.688809 
L 195.98548 133.383982 
L 198.357993 132.393696 
L 200.730507 131.774524 
L 203.10302 131.567128 
L 205.475533 131.791502 
L 207.848046 132.443738 
L 210.220559 133.494966 
L 212.593072 134.892972 
L 214.965586 136.566634 
L 217.338099 138.432801 
L 219.710612 140.404653 
L 222.083125 142.400097 
L 224.455638 144.348716 
L 226.828151 146.196133 
L 229.200665 147.905409 
L 231.573178 149.455845 
L 233.945691 150.840108 
L 236.318204 152.060678 
L 238.690717 153.126458 
L 241.063231 154.049993 
L 243.435744 154.845451 
L 245.808257 155.527282 
L 248.18077 156.109405 
L 250.553283 156.604764 
L 252.925796 157.025116 
L 255.29831 157.380965 
L 257.670823 157.681584 
L 260.043336 157.935086 
L 262.415849 158.148515 
L 264.788362 158.327954 
L 267.160875 158.478626 
L 269.533389 158.605003 
L 271.905902 158.710896 
L 274.278415 158.799548 
L 276.650928 158.873706 
L 279.023441 158.935695 
L 281.395954 158.987479 
L 283.768468 159.030712 
L 286.140981 159.066788 
L 288.513494 159.096878 
L 290.886007 159.121963 
L 293.25852 159.142869 
L 295.631033 159.160285 
L 298.003547 159.174788 
L 300.37606 159.186863 
" clip-path="url(#p3bdf4298c7)" style="fill: none; stroke-dasharray: 1.5,2.475; stroke-dashoffset: 0; stroke: #0000ff; stroke-width: 1.5"/>
   </g>
   <g id="line2d_5">
    <path d="M 65.497256 159.245735 
L 67.869769 159.245569 
L 70.242282 159.24537 
L 72.614795 159.245129 
L 74.987309 159.24484 
L 77.359822 159.244491 
L 79.732335 159.244071 
L 82.104848 159.243565 
L 84.477361 159.242955 
L 86.849874 159.242221 
L 89.222388 159.241337 
L 91.594901 159.240272 
L 93.967414 159.238989 
L 96.339927 159.237444 
L 98.71244 159.235584 
L 101.084953 159.233343 
L 103.457467 159.230644 
L 105.82998 159.227394 
L 108.202493 159.22348 
L 110.575006 159.218766 
L 112.947519 159.21309 
L 115.320032 159.206256 
L 117.692546 159.198028 
L 120.065059 159.188121 
L 122.437572 159.176196 
L 124.810085 159.161842 
L 127.182598 159.144567 
L 129.555111 159.123782 
L 131.927625 159.098776 
L 134.300138 159.068702 
L 136.672651 159.032542 
L 139.045164 158.989081 
L 141.417677 158.936869 
L 143.79019 158.874176 
L 146.162704 158.798946 
L 148.535217 158.708741 
L 150.90773 158.60068 
L 153.280243 158.47137 
L 155.652756 158.316838 
L 158.02527 158.132457 
L 160.397783 157.912879 
L 162.770296 157.651977 
L 165.142809 157.342817 
L 167.515322 156.977656 
L 169.887835 156.54801 
L 172.260349 156.044805 
L 174.632862 155.458642 
L 177.005375 154.780227 
L 179.377888 154.000981 
L 181.750401 153.113887 
L 184.122914 152.114568 
L 186.495428 151.002588 
L 188.867941 149.782922 
L 191.240454 148.467452 
L 193.612967 147.076315 
L 195.98548 145.638835 
L 198.357993 144.19374 
L 200.730507 142.788401 
L 203.10302 141.476863 
L 205.475533 140.316644 
L 207.848046 139.364457 
L 210.220559 138.671236 
L 212.593072 138.277097 
L 214.965586 138.206911 
L 217.338099 138.467229 
L 219.710612 139.045114 
L 222.083125 139.909159 
L 224.455638 141.012636 
L 226.828151 142.298314 
L 229.200665 143.704212 
L 231.573178 145.169374 
L 233.945691 146.638805 
L 236.318204 148.066933 
L 238.690717 149.419333 
L 241.063231 150.672813 
L 243.435744 151.814263 
L 245.808257 152.838786 
L 248.18077 153.747605 
L 250.553283 154.546105 
L 252.925796 155.242208 
L 255.29831 155.845147 
L 257.670823 156.364594 
L 260.043336 156.810094 
L 262.415849 157.190709 
L 264.788362 157.514818 
L 267.160875 157.790024 
L 269.533389 158.023127 
L 271.905902 158.22014 
L 274.278415 158.386333 
L 276.650928 158.526294 
L 279.023441 158.643988 
L 281.395954 158.742828 
L 283.768468 158.825738 
L 286.140981 158.895212 
L 288.513494 158.953375 
L 290.886007 159.002028 
L 293.25852 159.042696 
L 295.631033 159.076666 
L 298.003547 159.105026 
L 300.37606 159.128689 
" clip-path="url(#p3bdf4298c7)" style="fill: none; stroke: #ff0000; stroke-width: 1.5; stroke-linecap: square"/>
   </g>
   <g id="line2d_6">
    <path d="M 65.497256 159.246109 
L 67.869769 159.24602 
L 70.242282 159.245913 
L 72.614795 159.245784 
L 74.987309 159.245628 
L 77.359822 159.24544 
L 79.732335 159.245214 
L 82.104848 159.244942 
L 84.477361 159.244614 
L 86.849874 159.244219 
L 89.222388 159.243743 
L 91.594901 159.24317 
L 93.967414 159.24248 
L 96.339927 159.241649 
L 98.71244 159.240648 
L 101.084953 159.239442 
L 103.457467 159.23799 
L 105.82998 159.236241 
L 108.202493 159.234135 
L 110.575006 159.231599 
L 112.947519 159.228545 
L 115.320032 159.224867 
L 117.692546 159.220439 
L 120.065059 159.215108 
L 122.437572 159.208691 
L 124.810085 159.200966 
L 127.182598 159.191669 
L 129.555111 159.180481 
L 131.927625 159.167021 
L 134.300138 159.150831 
L 136.672651 159.131363 
L 139.045164 159.107962 
L 141.417677 159.079843 
L 143.79019 159.046073 
L 146.162704 159.005541 
L 148.535217 158.956927 
L 150.90773 158.898671 
L 153.280243 158.828932 
L 155.652756 158.745551 
L 158.02527 158.646009 
L 160.397783 158.527386 
L 162.770296 158.386331 
L 165.142809 158.219032 
L 167.515322 158.021219 
L 169.887835 157.788187 
L 172.260349 157.514872 
L 174.632862 157.195987 
L 177.005375 156.82625 
L 179.377888 156.400715 
L 181.750401 155.915244 
L 184.122914 155.367117 
L 186.495428 154.755797 
L 188.867941 154.083801 
L 191.240454 153.357627 
L 193.612967 152.588611 
L 195.98548 151.793562 
L 198.357993 150.994959 
L 200.730507 150.220531 
L 203.10302 149.502044 
L 205.475533 148.87326 
L 207.848046 148.36717 
L 210.220559 148.012792 
L 212.593072 147.831991 
L 214.965586 147.83683 
L 217.338099 148.027956 
L 219.710612 148.394349 
L 222.083125 148.914513 
L 224.455638 149.558911 
L 226.828151 150.293233 
L 229.200665 151.081918 
L 231.573178 151.891381 
L 233.945691 152.692501 
L 236.318204 153.462129 
L 238.690717 154.183603 
L 241.063231 154.846428 
L 243.435744 155.445393 
L 245.808257 155.979421 
L 248.18077 156.450394 
L 250.553283 156.862111 
L 252.925796 157.219456 
L 255.29831 157.527796 
L 257.670823 157.792562 
L 260.043336 158.018988 
L 262.415849 158.211959 
L 264.788362 158.375934 
L 267.160875 158.514916 
L 269.533389 158.632452 
L 271.905902 158.73166 
L 274.278415 158.815255 
L 276.650928 158.885587 
L 279.023441 158.944683 
L 281.395954 158.994278 
L 283.768468 159.035856 
L 286.140981 159.070679 
L 288.513494 159.099821 
L 290.886007 159.12419 
L 293.25852 159.144553 
L 295.631033 159.161559 
L 298.003547 159.175754 
L 300.37606 159.187595 
" clip-path="url(#p3bdf4298c7)" style="fill: none; stroke-dasharray: 1.5,2.475; stroke-dashoffset: 0; stroke: #ff0000; stroke-width: 1.5"/>
   </g>
   <g id="matplotlib.axis_1">
    <g id="xtick_1">
     <g id="line2d_7">
      <defs>
       <path id="md5f2a44386" d="M 0 0 
L 0 3.5 
" style="stroke: #000000; stroke-width: 0.8"/>
      </defs>
      <g>
       <use xlink:href="#md5f2a44386" x="65.497256" y="166.264" style="stroke: #000000; stroke-width: 0.8"/>
      </g>
     </g>
     <g id="text_1">
      <!-- $10^{-2}$ -->
      <g transform="translate(55.447256 180.862437) scale(0.1 -0.1)">
       <defs>
        <path id="Cmr10-31" d="M 594 0 
L 594 225 
Q 1394 225 1394 428 
L 1394 3788 
Q 1063 3628 556 3628 
L 556 3853 
Q 1341 3853 1741 4263 
L 1831 4263 
Q 1853 4263 1873 4245 
Q 1894 4228 1894 4206 
L 1894 428 
Q 1894 225 2694 225 
L 2694 0 
L 594 0 
z
" transform="scale(0.015625)"/>
        <path id="Cmr10-30" d="M 1600 -141 
Q 816 -141 533 504 
Q 250 1150 250 2041 
Q 250 2597 351 3087 
Q 453 3578 754 3920 
Q 1056 4263 1600 4263 
Q 2022 4263 2290 4056 
Q 2559 3850 2700 3523 
Q 2841 3197 2892 2823 
Q 2944 2450 2944 2041 
Q 2944 1491 2842 1011 
Q 2741 531 2444 195 
Q 2147 -141 1600 -141 
z
M 1600 25 
Q 1956 25 2131 390 
Q 2306 756 2347 1200 
Q 2388 1644 2388 2144 
Q 2388 2625 2347 3031 
Q 2306 3438 2132 3767 
Q 1959 4097 1600 4097 
Q 1238 4097 1063 3765 
Q 888 3434 847 3029 
Q 806 2625 806 2144 
Q 806 1788 823 1472 
Q 841 1156 916 820 
Q 991 484 1158 254 
Q 1325 25 1600 25 
z
" transform="scale(0.015625)"/>
        <path id="Cmsy10-a1" d="M 653 1472 
Q 600 1472 565 1512 
Q 531 1553 531 1600 
Q 531 1647 565 1687 
Q 600 1728 653 1728 
L 4325 1728 
Q 4375 1728 4408 1687 
Q 4441 1647 4441 1600 
Q 4441 1553 4408 1512 
Q 4375 1472 4325 1472 
L 653 1472 
z
" transform="scale(0.015625)"/>
        <path id="Cmr10-32" d="M 319 0 
L 319 172 
Q 319 188 331 206 
L 1325 1306 
Q 1550 1550 1690 1715 
Q 1831 1881 1968 2097 
Q 2106 2313 2186 2536 
Q 2266 2759 2266 3009 
Q 2266 3272 2169 3511 
Q 2072 3750 1880 3894 
Q 1688 4038 1416 4038 
Q 1138 4038 916 3870 
Q 694 3703 603 3438 
Q 628 3444 672 3444 
Q 816 3444 917 3347 
Q 1019 3250 1019 3097 
Q 1019 2950 917 2848 
Q 816 2747 672 2747 
Q 522 2747 420 2851 
Q 319 2956 319 3097 
Q 319 3338 409 3548 
Q 500 3759 670 3923 
Q 841 4088 1055 4175 
Q 1269 4263 1509 4263 
Q 1875 4263 2190 4108 
Q 2506 3953 2690 3670 
Q 2875 3388 2875 3009 
Q 2875 2731 2753 2481 
Q 2631 2231 2440 2026 
Q 2250 1822 1953 1562 
Q 1656 1303 1563 1216 
L 838 519 
L 1453 519 
Q 1906 519 2211 526 
Q 2516 534 2534 550 
Q 2609 631 2688 1141 
L 2875 1141 
L 2694 0 
L 319 0 
z
" transform="scale(0.015625)"/>
       </defs>
       <use xlink:href="#Cmr10-31" transform="translate(0 0.109375)"/>
       <use xlink:href="#Cmr10-30" transform="translate(50 0.109375)"/>
       <use xlink:href="#Cmsy10-a1" transform="translate(104.464141 38.373438) scale(0.7)"/>
       <use xlink:href="#Cmr10-32" transform="translate(158.844023 38.373438) scale(0.7)"/>
      </g>
     </g>
    </g>
    <g id="xtick_2">
     <g id="line2d_8">
      <g>
       <use xlink:href="#md5f2a44386" x="124.216957" y="166.264" style="stroke: #000000; stroke-width: 0.8"/>
      </g>
     </g>
     <g id="text_2">
      <!-- $10^{-1}$ -->
      <g transform="translate(114.166957 180.862437) scale(0.1 -0.1)">
       <use xlink:href="#Cmr10-31" transform="translate(0 0.109375)"/>
       <use xlink:href="#Cmr10-30" transform="translate(50 0.109375)"/>
       <use xlink:href="#Cmsy10-a1" transform="translate(104.464141 38.373438) scale(0.7)"/>
       <use xlink:href="#Cmr10-31" transform="translate(158.844023 38.373438) scale(0.7)"/>
      </g>
     </g>
    </g>
    <g id="xtick_3">
     <g id="line2d_9">
      <g>
       <use xlink:href="#md5f2a44386" x="182.936658" y="166.264" style="stroke: #000000; stroke-width: 0.8"/>
      </g>
     </g>
     <g id="text_3">
      <!-- $10^0$ -->
      <g transform="translate(175.636658 180.862437) scale(0.1 -0.1)">
       <use xlink:href="#Cmr10-31" transform="translate(0 0.109375)"/>
       <use xlink:href="#Cmr10-30" transform="translate(50 0.109375)"/>
       <use xlink:href="#Cmr10-30" transform="translate(104.464141 38.373438) scale(0.7)"/>
      </g>
     </g>
    </g>
    <g id="xtick_4">
     <g id="line2d_10">
      <g>
       <use xlink:href="#md5f2a44386" x="241.656359" y="166.264" style="stroke: #000000; stroke-width: 0.8"/>
      </g>
     </g>
     <g id="text_4">
      <!-- $10^1$ -->
      <g transform="translate(234.356359 180.862437) scale(0.1 -0.1)">
       <use xlink:href="#Cmr10-31" transform="translate(0 0.109375)"/>
       <use xlink:href="#Cmr10-30" transform="translate(50 0.109375)"/>
       <use xlink:href="#Cmr10-31" transform="translate(104.464141 38.373438) scale(0.7)"/>
      </g>
     </g>
    </g>
    <g id="xtick_5">
     <g id="line2d_11">
      <g>
       <use xlink:href="#md5f2a44386" x="300.37606" y="166.264" style="stroke: #000000; stroke-width: 0.8"/>
      </g>
     </g>
     <g id="text_5">
      <!-- $10^2$ -->
      <g transform="translate(293.07606 180.862437) scale(0.1 -0.1)">
       <use xlink:href="#Cmr10-31" transform="translate(0 0.109375)"/>
       <use xlink:href="#Cmr10-30" transform="translate(50 0.109375)"/>
       <use xlink:href="#Cmr10-32" transform="translate(104.464141 38.373438) scale(0.7)"/>
      </g>
     </g>
    </g>
    <g id="xtick_6">
     <g id="line2d_12">
      <defs>
       <path id="m8ddaf06392" d="M 0 0 
L 0 2 
" style="stroke: #000000; stroke-width: 0.6"/>
      </defs>
      <g>
       <use xlink:href="#m8ddaf06392" x="56.401459" y="166.264" style="stroke: #000000; stroke-width: 0.6"/>
      </g>
     </g>
    </g>
    <g id="xtick_7">
     <g id="line2d_13">
      <g>
       <use xlink:href="#m8ddaf06392" x="59.806729" y="166.264" style="stroke: #000000; stroke-width: 0.6"/>
      </g>
     </g>
    </g>
    <g id="xtick_8">
     <g id="line2d_14">
      <g>
       <use xlink:href="#m8ddaf06392" x="62.81039" y="166.264" style="stroke: #000000; stroke-width: 0.6"/>
      </g>
     </g>
    </g>
    <g id="xtick_9">
     <g id="line2d_15">
      <g>
       <use xlink:href="#m8ddaf06392" x="83.173647" y="166.264" style="stroke: #000000; stroke-width: 0.6"/>
      </g>
     </g>
    </g>
    <g id="xtick_10">
     <g id="line2d_16">
      <g>
       <use xlink:href="#m8ddaf06392" x="93.513673" y="166.264" style="stroke: #000000; stroke-width: 0.6"/>
      </g>
     </g>
    </g>
    <g id="xtick_11">
     <g id="line2d_17">
      <g>
       <use xlink:href="#m8ddaf06392" x="100.850038" y="166.264" style="stroke: #000000; stroke-width: 0.6"/>
      </g>
     </g>
    </g>
    <g id="xtick_12">
     <g id="line2d_18">
      <g>
       <use xlink:href="#m8ddaf06392" x="106.540565" y="166.264" style="stroke: #000000; stroke-width: 0.6"/>
      </g>
     </g>
    </g>
    <g id="xtick_13">
     <g id="line2d_19">
      <g>
       <use xlink:href="#m8ddaf06392" x="111.190065" y="166.264" style="stroke: #000000; stroke-width: 0.6"/>
      </g>
     </g>
    </g>
    <g id="xtick_14">
     <g id="line2d_20">
      <g>
       <use xlink:href="#m8ddaf06392" x="115.12116" y="166.264" style="stroke: #000000; stroke-width: 0.6"/>
      </g>
     </g>
    </g>
    <g id="xtick_15">
     <g id="line2d_21">
      <g>
       <use xlink:href="#m8ddaf06392" x="118.52643" y="166.264" style="stroke: #000000; stroke-width: 0.6"/>
      </g>
     </g>
    </g>
    <g id="xtick_16">
     <g id="line2d_22">
      <g>
       <use xlink:href="#m8ddaf06392" x="121.530091" y="166.264" style="stroke: #000000; stroke-width: 0.6"/>
      </g>
     </g>
    </g>
    <g id="xtick_17">
     <g id="line2d_23">
      <g>
       <use xlink:href="#m8ddaf06392" x="141.893348" y="166.264" style="stroke: #000000; stroke-width: 0.6"/>
      </g>
     </g>
    </g>
    <g id="xtick_18">
     <g id="line2d_24">
      <g>
       <use xlink:href="#m8ddaf06392" x="152.233374" y="166.264" style="stroke: #000000; stroke-width: 0.6"/>
      </g>
     </g>
    </g>
    <g id="xtick_19">
     <g id="line2d_25">
      <g>
       <use xlink:href="#m8ddaf06392" x="159.569739" y="166.264" style="stroke: #000000; stroke-width: 0.6"/>
      </g>
     </g>
    </g>
    <g id="xtick_20">
     <g id="line2d_26">
      <g>
       <use xlink:href="#m8ddaf06392" x="165.260266" y="166.264" style="stroke: #000000; stroke-width: 0.6"/>
      </g>
     </g>
    </g>
    <g id="xtick_21">
     <g id="line2d_27">
      <g>
       <use xlink:href="#m8ddaf06392" x="169.909766" y="166.264" style="stroke: #000000; stroke-width: 0.6"/>
      </g>
     </g>
    </g>
    <g id="xtick_22">
     <g id="line2d_28">
      <g>
       <use xlink:href="#m8ddaf06392" x="173.840861" y="166.264" style="stroke: #000000; stroke-width: 0.6"/>
      </g>
     </g>
    </g>
    <g id="xtick_23">
     <g id="line2d_29">
      <g>
       <use xlink:href="#m8ddaf06392" x="177.246131" y="166.264" style="stroke: #000000; stroke-width: 0.6"/>
      </g>
     </g>
    </g>
    <g id="xtick_24">
     <g id="line2d_30">
      <g>
       <use xlink:href="#m8ddaf06392" x="180.249792" y="166.264" style="stroke: #000000; stroke-width: 0.6"/>
      </g>
     </g>
    </g>
    <g id="xtick_25">
     <g id="line2d_31">
      <g>
       <use xlink:href="#m8ddaf06392" x="200.613049" y="166.264" style="stroke: #000000; stroke-width: 0.6"/>
      </g>
     </g>
    </g>
    <g id="xtick_26">
     <g id="line2d_32">
      <g>
       <use xlink:href="#m8ddaf06392" x="210.953075" y="166.264" style="stroke: #000000; stroke-width: 0.6"/>
      </g>
     </g>
    </g>
    <g id="xtick_27">
     <g id="line2d_33">
      <g>
       <use xlink:href="#m8ddaf06392" x="218.28944" y="166.264" style="stroke: #000000; stroke-width: 0.6"/>
      </g>
     </g>
    </g>
    <g id="xtick_28">
     <g id="line2d_34">
      <g>
       <use xlink:href="#m8ddaf06392" x="223.979967" y="166.264" style="stroke: #000000; stroke-width: 0.6"/>
      </g>
     </g>
    </g>
    <g id="xtick_29">
     <g id="line2d_35">
      <g>
       <use xlink:href="#m8ddaf06392" x="228.629467" y="166.264" style="stroke: #000000; stroke-width: 0.6"/>
      </g>
     </g>
    </g>
    <g id="xtick_30">
     <g id="line2d_36">
      <g>
       <use xlink:href="#m8ddaf06392" x="232.560562" y="166.264" style="stroke: #000000; stroke-width: 0.6"/>
      </g>
     </g>
    </g>
    <g id="xtick_31">
     <g id="line2d_37">
      <g>
       <use xlink:href="#m8ddaf06392" x="235.965832" y="166.264" style="stroke: #000000; stroke-width: 0.6"/>
      </g>
     </g>
    </g>
    <g id="xtick_32">
     <g id="line2d_38">
      <g>
       <use xlink:href="#m8ddaf06392" x="238.969493" y="166.264" style="stroke: #000000; stroke-width: 0.6"/>
      </g>
     </g>
    </g>
    <g id="xtick_33">
     <g id="line2d_39">
      <g>
       <use xlink:href="#m8ddaf06392" x="259.33275" y="166.264" style="stroke: #000000; stroke-width: 0.6"/>
      </g>
     </g>
    </g>
    <g id="xtick_34">
     <g id="line2d_40">
      <g>
       <use xlink:href="#m8ddaf06392" x="269.672776" y="166.264" style="stroke: #000000; stroke-width: 0.6"/>
      </g>
     </g>
    </g>
    <g id="xtick_35">
     <g id="line2d_41">
      <g>
       <use xlink:href="#m8ddaf06392" x="277.009141" y="166.264" style="stroke: #000000; stroke-width: 0.6"/>
      </g>
     </g>
    </g>
    <g id="xtick_36">
     <g id="line2d_42">
      <g>
       <use xlink:href="#m8ddaf06392" x="282.699668" y="166.264" style="stroke: #000000; stroke-width: 0.6"/>
      </g>
     </g>
    </g>
    <g id="xtick_37">
     <g id="line2d_43">
      <g>
       <use xlink:href="#m8ddaf06392" x="287.349168" y="166.264" style="stroke: #000000; stroke-width: 0.6"/>
      </g>
     </g>
    </g>
    <g id="xtick_38">
     <g id="line2d_44">
      <g>
       <use xlink:href="#m8ddaf06392" x="291.280263" y="166.264" style="stroke: #000000; stroke-width: 0.6"/>
      </g>
     </g>
    </g>
    <g id="xtick_39">
     <g id="line2d_45">
      <g>
       <use xlink:href="#m8ddaf06392" x="294.685533" y="166.264" style="stroke: #000000; stroke-width: 0.6"/>
      </g>
     </g>
    </g>
    <g id="xtick_40">
     <g id="line2d_46">
      <g>
       <use xlink:href="#m8ddaf06392" x="297.689194" y="166.264" style="stroke: #000000; stroke-width: 0.6"/>
      </g>
     </g>
    </g>
    <g id="text_6">
     <!-- $i_0 / U_0$ -->
     <g transform="translate(169.956658 195.192125) scale(0.11 -0.11)">
      <defs>
       <path id="Cmmi10-69" d="M 500 459 
Q 500 578 550 709 
L 1069 2088 
Q 1153 2322 1153 2472 
Q 1153 2663 1013 2663 
Q 759 2663 595 2402 
Q 431 2141 353 1819 
Q 341 1778 300 1778 
L 225 1778 
Q 172 1778 172 1838 
L 172 1856 
Q 275 2238 487 2533 
Q 700 2828 1025 2828 
Q 1253 2828 1411 2678 
Q 1569 2528 1569 2297 
Q 1569 2178 1516 2047 
L 997 672 
Q 909 459 909 288 
Q 909 97 1056 97 
Q 1306 97 1473 364 
Q 1641 631 1709 941 
Q 1722 978 1759 978 
L 1838 978 
Q 1863 978 1878 961 
Q 1894 944 1894 922 
Q 1894 916 1888 903 
Q 1800 541 1583 234 
Q 1366 -72 1044 -72 
Q 819 -72 659 83 
Q 500 238 500 459 
z
M 1222 3878 
Q 1222 4013 1334 4122 
Q 1447 4231 1581 4231 
Q 1691 4231 1761 4164 
Q 1831 4097 1831 3994 
Q 1831 3850 1717 3742 
Q 1603 3634 1466 3634 
Q 1363 3634 1292 3704 
Q 1222 3775 1222 3878 
z
" transform="scale(0.015625)"/>
       <path id="Cmmi10-3d" d="M 359 -1472 
Q 359 -1453 366 -1447 
L 2591 4722 
Q 2603 4759 2634 4779 
Q 2666 4800 2706 4800 
Q 2763 4800 2798 4765 
Q 2834 4731 2834 4672 
L 2834 4647 
L 609 -1522 
Q 572 -1600 488 -1600 
Q 434 -1600 396 -1562 
Q 359 -1525 359 -1472 
z
" transform="scale(0.015625)"/>
       <path id="Cmmi10-55" d="M 941 891 
Q 941 656 1033 472 
Q 1125 288 1300 186 
Q 1475 84 1709 84 
Q 1984 84 2245 196 
Q 2506 309 2715 509 
Q 2925 709 3073 965 
Q 3222 1222 3284 1472 
L 3859 3781 
Q 3872 3850 3872 3878 
Q 3872 4147 3378 4147 
Q 3316 4147 3316 4231 
Q 3338 4313 3350 4342 
Q 3363 4372 3425 4372 
L 4813 4372 
Q 4841 4372 4859 4344 
Q 4878 4316 4878 4288 
Q 4878 4284 4865 4239 
Q 4853 4194 4836 4170 
Q 4819 4147 4794 4147 
Q 4181 4147 4084 3756 
L 3506 1447 
Q 3434 1147 3264 864 
Q 3094 581 2845 351 
Q 2597 122 2298 -9 
Q 2000 -141 1691 -141 
Q 1338 -141 1045 14 
Q 753 169 587 447 
Q 422 725 422 1088 
Q 422 1297 469 1472 
L 1088 3956 
Q 1100 4019 1100 4044 
Q 1100 4113 1025 4122 
Q 903 4147 563 4147 
Q 500 4147 500 4231 
Q 522 4313 534 4342 
Q 547 4372 609 4372 
L 2328 4372 
Q 2394 4372 2394 4288 
Q 2391 4272 2381 4234 
Q 2372 4197 2356 4172 
Q 2341 4147 2309 4147 
Q 1919 4147 1766 4103 
Q 1681 4072 1644 3928 
L 1025 1447 
Q 941 1109 941 891 
z
" transform="scale(0.015625)"/>
      </defs>
      <use xlink:href="#Cmmi10-69"/>
      <use xlink:href="#Cmr10-30" transform="translate(34.423828 -17.00625) scale(0.7)"/>
      <use xlink:href="#Cmmi10-3d" transform="translate(75.801172 0)"/>
      <use xlink:href="#Cmmi10-55" transform="translate(125.801172 0)"/>
      <use xlink:href="#Cmr10-30" transform="translate(194.014062 -17.00625) scale(0.7)"/>
     </g>
    </g>
   </g>
   <g id="matplotlib.axis_2">
    <g id="ytick_1">
     <g id="line2d_47">
      <defs>
       <path id="m9ec7d1d2d2" d="M 0 0 
L -3.5 0 
" style="stroke: #000000; stroke-width: 0.8"/>
      </defs>
      <g>
       <use xlink:href="#m9ec7d1d2d2" x="53.753316" y="159.246545" style="stroke: #000000; stroke-width: 0.8"/>
      </g>
     </g>
     <g id="text_7">
      <!-- $2$ -->
      <g transform="translate(41.753316 163.045764) scale(0.1 -0.1)">
       <use xlink:href="#Cmr10-32" transform="translate(0 0.390625)"/>
      </g>
     </g>
    </g>
    <g id="ytick_2">
     <g id="line2d_48">
      <g>
       <use xlink:href="#m9ec7d1d2d2" x="53.753316" y="36.982911" style="stroke: #000000; stroke-width: 0.8"/>
      </g>
     </g>
     <g id="text_8">
      <!-- $10$ -->
      <g transform="translate(36.753316 40.782129) scale(0.1 -0.1)">
       <use xlink:href="#Cmr10-31" transform="translate(0 0.390625)"/>
       <use xlink:href="#Cmr10-30" transform="translate(50 0.390625)"/>
      </g>
     </g>
    </g>
    <g id="ytick_3">
     <g id="line2d_49">
      <defs>
       <path id="md70a5b65b4" d="M 0 0 
L -2 0 
" style="stroke: #000000; stroke-width: 0.6"/>
      </defs>
      <g>
       <use xlink:href="#md70a5b65b4" x="53.753316" y="128.444712" style="stroke: #000000; stroke-width: 0.6"/>
      </g>
     </g>
    </g>
    <g id="ytick_4">
     <g id="line2d_50">
      <g>
       <use xlink:href="#md70a5b65b4" x="53.753316" y="106.590464" style="stroke: #000000; stroke-width: 0.6"/>
      </g>
     </g>
    </g>
    <g id="ytick_5">
     <g id="line2d_51">
      <g>
       <use xlink:href="#md70a5b65b4" x="53.753316" y="89.638992" style="stroke: #000000; stroke-width: 0.6"/>
      </g>
     </g>
    </g>
    <g id="ytick_6">
     <g id="line2d_52">
      <g>
       <use xlink:href="#md70a5b65b4" x="53.753316" y="75.788631" style="stroke: #000000; stroke-width: 0.6"/>
      </g>
     </g>
    </g>
    <g id="ytick_7">
     <g id="line2d_53">
      <g>
       <use xlink:href="#md70a5b65b4" x="53.753316" y="64.078318" style="stroke: #000000; stroke-width: 0.6"/>
      </g>
     </g>
    </g>
    <g id="ytick_8">
     <g id="line2d_54">
      <g>
       <use xlink:href="#md70a5b65b4" x="53.753316" y="53.934383" style="stroke: #000000; stroke-width: 0.6"/>
      </g>
     </g>
    </g>
    <g id="ytick_9">
     <g id="line2d_55">
      <g>
       <use xlink:href="#md70a5b65b4" x="53.753316" y="44.986798" style="stroke: #000000; stroke-width: 0.6"/>
      </g>
     </g>
    </g>
   </g>
   <g id="LineCollection_1">
    <path d="M 65.497256 159.246545 
L 300.37606 159.246545 
" clip-path="url(#p3bdf4298c7)" style="fill: none; stroke-dasharray: 7.4,3.2; stroke-dashoffset: 0; stroke: #000000; stroke-width: 2"/>
   </g>
   <g id="patch_3">
    <path d="M 53.753316 166.264 
L 53.753316 11.88 
" style="fill: none; stroke: #000000; stroke-width: 0.8; stroke-linejoin: miter; stroke-linecap: square"/>
   </g>
   <g id="patch_4">
    <path d="M 312.12 166.264 
L 312.12 11.88 
" style="fill: none; stroke: #000000; stroke-width: 0.8; stroke-linejoin: miter; stroke-linecap: square"/>
   </g>
   <g id="patch_5">
    <path d="M 53.753316 166.264 
L 312.12 166.264 
" style="fill: none; stroke: #000000; stroke-width: 0.8; stroke-linejoin: miter; stroke-linecap: square"/>
   </g>
   <g id="patch_6">
    <path d="M 53.753316 11.88 
L 312.12 11.88 
" style="fill: none; stroke: #000000; stroke-width: 0.8; stroke-linejoin: miter; stroke-linecap: square"/>
   </g>
   <g id="text_9">
    <!-- $\tilde{\mathcal{Q}}$ -->
    <g transform="translate(203.605993 25.883864) scale(0.11 -0.11)">
     <defs>
      <path id="Cmr10-7e" d="M 531 3769 
L 716 3988 
Q 966 4275 1216 4275 
Q 1338 4275 1483 4203 
Q 1628 4131 1773 4059 
Q 1919 3988 2041 3988 
Q 2297 3988 2534 4275 
L 2663 4166 
L 2478 3950 
Q 2225 3659 1978 3659 
Q 1856 3659 1711 3732 
Q 1566 3806 1420 3878 
Q 1275 3950 1153 3950 
Q 897 3950 659 3659 
L 531 3769 
z
" transform="scale(0.015625)"/>
      <path id="Cmsy10-51" d="M 897 -184 
Q 850 -159 850 -134 
Q 850 -28 1039 75 
Q 1228 178 1338 191 
Q 1844 191 2158 217 
Q 2472 244 2800 355 
Q 3128 466 3431 703 
Q 3878 1078 4134 1589 
Q 4391 2100 4391 2669 
Q 4391 2956 4309 3223 
Q 4228 3491 4067 3695 
Q 3906 3900 3662 4017 
Q 3419 4134 3116 4134 
Q 2644 4134 2222 3829 
Q 1800 3525 1550 3056 
Q 1300 2588 1300 2119 
Q 1300 1828 1417 1578 
Q 1534 1328 1756 1179 
Q 1978 1031 2278 1031 
Q 2478 1031 2741 1119 
Q 2828 1163 2887 1192 
Q 2947 1222 3012 1250 
Q 3078 1278 3150 1281 
L 3188 1281 
Q 3231 1259 3231 1234 
Q 3231 1203 3206 1166 
Q 3106 1028 2859 911 
Q 2613 794 2330 723 
Q 2047 653 1850 653 
L 1813 653 
Q 1481 653 1234 814 
Q 988 975 858 1244 
Q 728 1513 728 1838 
Q 728 2328 976 2809 
Q 1225 3291 1645 3680 
Q 2066 4069 2567 4291 
Q 3069 4513 3547 4513 
L 3578 4513 
Q 3909 4513 4167 4391 
Q 4425 4269 4603 4051 
Q 4781 3834 4870 3551 
Q 4959 3269 4959 2944 
Q 4959 2431 4759 1951 
Q 4559 1472 4217 1090 
Q 3875 709 3428 425 
Q 2981 141 2478 -19 
Q 2613 -63 2842 -144 
Q 3072 -225 3286 -289 
Q 3500 -353 3700 -389 
Q 3900 -425 4109 -428 
Q 4266 -428 4347 -359 
Q 4409 -294 4439 -208 
Q 4469 -122 4500 -78 
Q 4581 31 4709 103 
Q 4838 175 4966 191 
L 4997 191 
Q 5044 169 5044 128 
Q 4972 -134 4748 -348 
Q 4525 -563 4236 -684 
Q 3947 -806 3688 -806 
L 3653 -806 
Q 3334 -806 3042 -732 
Q 2750 -659 2294 -500 
Q 1838 -341 1541 -262 
Q 1244 -184 897 -184 
z
" transform="scale(0.015625)"/>
     </defs>
     <use xlink:href="#Cmr10-7e" transform="translate(26.101074 26.203125)"/>
     <use xlink:href="#Cmsy10-51" transform="translate(0 0.359375)"/>
    </g>
   </g>
   <g id="text_10">
    <!-- $\tilde{\mathcal{L}}$ -->
    <g transform="translate(190.687658 74.272681) scale(0.11 -0.11)">
     <defs>
      <path id="Cmsy10-4c" d="M 238 -141 
Q 197 -141 197 -97 
Q 197 -72 219 -38 
Q 266 38 359 130 
Q 453 222 494 275 
Q 656 509 750 691 
Q 913 1028 1031 1466 
Q 1206 2163 1348 2597 
Q 1491 3031 1722 3419 
Q 1903 3719 2168 3967 
Q 2434 4216 2757 4364 
Q 3081 4513 3419 4513 
L 3456 4513 
Q 3622 4513 3734 4430 
Q 3847 4347 3905 4208 
Q 3963 4069 3963 3909 
Q 3963 3666 3884 3572 
Q 3663 3331 3359 3291 
L 3322 3291 
Q 3284 3291 3284 3334 
Q 3284 3341 3300 3431 
Q 3316 3522 3316 3584 
Q 3316 3791 3212 3944 
Q 3109 4097 2906 4097 
Q 2669 4097 2669 4056 
Q 2494 3934 2333 3651 
Q 2172 3369 2051 3039 
Q 1931 2709 1837 2376 
Q 1744 2044 1672 1753 
Q 1594 1438 1470 1148 
Q 1347 859 1178 603 
Q 1253 628 1363 628 
L 1403 628 
Q 1625 628 1847 583 
Q 2069 538 2378 450 
Q 2688 363 2894 320 
Q 3100 278 3328 275 
Q 3397 275 3440 337 
Q 3484 400 3526 511 
Q 3569 622 3597 659 
Q 3694 766 3834 844 
Q 3975 922 4116 941 
L 4153 941 
Q 4172 941 4184 928 
Q 4197 916 4197 897 
Q 4197 897 4191 878 
Q 4128 628 3897 386 
Q 3666 144 3370 1 
Q 3075 -141 2828 -141 
L 2791 -141 
Q 2569 -141 2356 -100 
Q 2144 -59 1834 28 
Q 1525 116 1304 162 
Q 1084 209 863 213 
Q 578 -100 275 -141 
L 238 -141 
z
" transform="scale(0.015625)"/>
     </defs>
     <use xlink:href="#Cmr10-7e" transform="translate(17.927246 26.203125)"/>
     <use xlink:href="#Cmsy10-4c" transform="translate(0 0.359375)"/>
    </g>
   </g>
   <g id="legend_1">
    <g id="patch_7">
     <path d="M 60.753316 63.914375 
L 125.153316 63.914375 
Q 127.153316 63.914375 127.153316 61.914375 
L 127.153316 18.88 
Q 127.153316 16.88 125.153316 16.88 
L 60.753316 16.88 
Q 58.753316 16.88 58.753316 18.88 
L 58.753316 61.914375 
Q 58.753316 63.914375 60.753316 63.914375 
z
" style="fill: #ffffff; opacity: 0.8; stroke: #cccccc; stroke-linejoin: miter"/>
    </g>
    <g id="line2d_56">
     <path d="M 62.753316 24.978438 
L 72.753316 24.978438 
L 82.753316 24.978438 
" style="fill: none; stroke: #000000; stroke-width: 1.5; stroke-linecap: square"/>
    </g>
    <g id="text_11">
     <!-- $D = 0.1$ -->
     <g transform="translate(90.753316 28.478438) scale(0.1 -0.1)">
      <defs>
       <path id="Cmmi10-44" d="M 313 0 
Q 250 0 250 84 
Q 253 100 262 139 
Q 272 178 289 201 
Q 306 225 331 225 
Q 722 225 878 269 
Q 959 297 997 441 
L 1875 3956 
Q 1888 4019 1888 4044 
Q 1888 4113 1813 4122 
Q 1691 4147 1350 4147 
Q 1288 4147 1288 4231 
Q 1291 4247 1300 4286 
Q 1309 4325 1326 4348 
Q 1344 4372 1369 4372 
L 3669 4372 
Q 4116 4372 4450 4155 
Q 4784 3938 4962 3570 
Q 5141 3203 5141 2759 
Q 5141 2269 4937 1778 
Q 4734 1288 4368 881 
Q 4003 475 3534 237 
Q 3066 0 2572 0 
L 313 0 
z
M 1509 275 
Q 1509 225 1728 225 
L 2472 225 
Q 2828 225 3159 372 
Q 3491 519 3750 775 
Q 3991 1016 4175 1406 
Q 4359 1797 4461 2222 
Q 4563 2647 4563 3003 
Q 4563 3263 4486 3472 
Q 4409 3681 4270 3831 
Q 4131 3981 3922 4064 
Q 3713 4147 3450 4147 
L 2747 4147 
Q 2572 4147 2515 4117 
Q 2459 4088 2413 3928 
L 1538 416 
Q 1509 338 1509 275 
z
" transform="scale(0.015625)"/>
       <path id="Cmr10-3d" d="M 481 850 
Q 428 850 393 890 
Q 359 931 359 978 
Q 359 1031 393 1068 
Q 428 1106 481 1106 
L 4500 1106 
Q 4547 1106 4581 1068 
Q 4616 1031 4616 978 
Q 4616 931 4581 890 
Q 4547 850 4500 850 
L 481 850 
z
M 481 2094 
Q 428 2094 393 2131 
Q 359 2169 359 2222 
Q 359 2269 393 2309 
Q 428 2350 481 2350 
L 4500 2350 
Q 4547 2350 4581 2309 
Q 4616 2269 4616 2222 
Q 4616 2169 4581 2131 
Q 4547 2094 4500 2094 
L 481 2094 
z
" transform="scale(0.015625)"/>
       <path id="Cmmi10-3a" d="M 538 353 
Q 538 497 644 600 
Q 750 703 891 703 
Q 978 703 1062 656 
Q 1147 609 1194 525 
Q 1241 441 1241 353 
Q 1241 213 1137 106 
Q 1034 0 891 0 
Q 750 0 644 106 
Q 538 213 538 353 
z
" transform="scale(0.015625)"/>
      </defs>
      <use xlink:href="#Cmmi10-44" transform="translate(0 0.6875)"/>
      <use xlink:href="#Cmr10-3d" transform="translate(100.273438 0.6875)"/>
      <use xlink:href="#Cmr10-30" transform="translate(195.517578 0.6875)"/>
      <use xlink:href="#Cmmi10-3a" transform="translate(245.517578 0.6875)"/>
      <use xlink:href="#Cmr10-31" transform="translate(273.203125 0.6875)"/>
     </g>
    </g>
    <g id="line2d_57">
     <path d="M 62.753316 39.656563 
L 72.753316 39.656563 
L 82.753316 39.656563 
" style="fill: none; stroke: #0000ff; stroke-width: 1.5; stroke-linecap: square"/>
    </g>
    <g id="text_12">
     <!-- $D = 0.3$ -->
     <g transform="translate(90.753316 43.156563) scale(0.1 -0.1)">
      <defs>
       <path id="Cmr10-33" d="M 609 494 
Q 759 275 1012 169 
Q 1266 63 1556 63 
Q 1928 63 2084 380 
Q 2241 697 2241 1100 
Q 2241 1281 2208 1462 
Q 2175 1644 2097 1800 
Q 2019 1956 1883 2050 
Q 1747 2144 1550 2144 
L 1125 2144 
Q 1069 2144 1069 2203 
L 1069 2259 
Q 1069 2309 1125 2309 
L 1478 2338 
Q 1703 2338 1851 2506 
Q 2000 2675 2069 2917 
Q 2138 3159 2138 3378 
Q 2138 3684 1994 3881 
Q 1850 4078 1556 4078 
Q 1313 4078 1091 3986 
Q 869 3894 738 3706 
Q 750 3709 759 3711 
Q 769 3713 781 3713 
Q 925 3713 1022 3613 
Q 1119 3513 1119 3372 
Q 1119 3234 1022 3134 
Q 925 3034 781 3034 
Q 641 3034 541 3134 
Q 441 3234 441 3372 
Q 441 3647 606 3850 
Q 772 4053 1033 4158 
Q 1294 4263 1556 4263 
Q 1750 4263 1965 4205 
Q 2181 4147 2356 4039 
Q 2531 3931 2642 3762 
Q 2753 3594 2753 3378 
Q 2753 3109 2633 2881 
Q 2513 2653 2303 2487 
Q 2094 2322 1844 2241 
Q 2122 2188 2372 2031 
Q 2622 1875 2773 1631 
Q 2925 1388 2925 1106 
Q 2925 753 2731 467 
Q 2538 181 2222 20 
Q 1906 -141 1556 -141 
Q 1256 -141 954 -26 
Q 653 88 461 316 
Q 269 544 269 863 
Q 269 1022 375 1128 
Q 481 1234 641 1234 
Q 744 1234 830 1186 
Q 916 1138 964 1050 
Q 1013 963 1013 863 
Q 1013 706 903 600 
Q 794 494 641 494 
L 609 494 
z
" transform="scale(0.015625)"/>
      </defs>
      <use xlink:href="#Cmmi10-44" transform="translate(0 0.6875)"/>
      <use xlink:href="#Cmr10-3d" transform="translate(100.273438 0.6875)"/>
      <use xlink:href="#Cmr10-30" transform="translate(195.517578 0.6875)"/>
      <use xlink:href="#Cmmi10-3a" transform="translate(245.517578 0.6875)"/>
      <use xlink:href="#Cmr10-33" transform="translate(273.203125 0.6875)"/>
     </g>
    </g>
    <g id="line2d_58">
     <path d="M 62.753316 54.334688 
L 72.753316 54.334688 
L 82.753316 54.334688 
" style="fill: none; stroke: #ff0000; stroke-width: 1.5; stroke-linecap: square"/>
    </g>
    <g id="text_13">
     <!-- $D = 0.5$ -->
     <g transform="translate(90.753316 57.834688) scale(0.1 -0.1)">
      <defs>
       <path id="Cmr10-35" d="M 556 728 
Q 622 541 758 387 
Q 894 234 1080 148 
Q 1266 63 1466 63 
Q 1928 63 2103 422 
Q 2278 781 2278 1294 
Q 2278 1516 2270 1667 
Q 2263 1819 2228 1959 
Q 2169 2184 2020 2353 
Q 1872 2522 1656 2522 
Q 1441 2522 1286 2456 
Q 1131 2391 1034 2303 
Q 938 2216 863 2119 
Q 788 2022 769 2016 
L 697 2016 
Q 681 2016 657 2036 
Q 634 2056 634 2075 
L 634 4213 
Q 634 4228 654 4245 
Q 675 4263 697 4263 
L 716 4263 
Q 1147 4056 1631 4056 
Q 2106 4056 2547 4263 
L 2566 4263 
Q 2588 4263 2606 4247 
Q 2625 4231 2625 4213 
L 2625 4153 
Q 2625 4122 2613 4122 
Q 2394 3831 2064 3668 
Q 1734 3506 1381 3506 
Q 1125 3506 856 3578 
L 856 2369 
Q 1069 2541 1236 2614 
Q 1403 2688 1663 2688 
Q 2016 2688 2295 2484 
Q 2575 2281 2725 1954 
Q 2875 1628 2875 1288 
Q 2875 903 2686 575 
Q 2497 247 2172 53 
Q 1847 -141 1466 -141 
Q 1150 -141 886 21 
Q 622 184 470 459 
Q 319 734 319 1044 
Q 319 1188 412 1278 
Q 506 1369 647 1369 
Q 788 1369 883 1276 
Q 978 1184 978 1044 
Q 978 906 883 811 
Q 788 716 647 716 
Q 625 716 597 720 
Q 569 725 556 728 
z
" transform="scale(0.015625)"/>
      </defs>
      <use xlink:href="#Cmmi10-44" transform="translate(0 0.6875)"/>
      <use xlink:href="#Cmr10-3d" transform="translate(100.273438 0.6875)"/>
      <use xlink:href="#Cmr10-30" transform="translate(195.517578 0.6875)"/>
      <use xlink:href="#Cmmi10-3a" transform="translate(245.517578 0.6875)"/>
      <use xlink:href="#Cmr10-35" transform="translate(273.203125 0.6875)"/>
     </g>
    </g>
   </g>
  </g>
 </g>
 <defs>
  <clipPath id="p3bdf4298c7">
   <rect x="53.753316" y="11.88" width="258.366684" height="154.384"/>
  </clipPath>
 </defs>
</svg>
