<?xml version="1.0" encoding="utf-8" standalone="no"?>
<!DOCTYPE svg PUBLIC "-//W3C//DTD SVG 1.1//EN"
  "http://www.w3.org/Graphics/SVG/1.1/DTD/svg11.dtd">
<svg xmlns:xlink="http://www.w3.org/1999/xlink" width="324pt" height="324pt" viewBox="0 0 324 324" xmlns="http://www.w3.org/2000/svg" version="1.1">
 <metadata>
  <rdf:RDF xmlns:dc="http://purl.org/dc/elements/1.1/" xmlns:cc="http://creativecommons.org/ns#" xmlns:rdf="http://www.w3.org/1999/02/22-rdf-syntax-ns#">
   <cc:Work>
    <dc:type rdf:resource="http://purl.org/dc/dcmitype/StillImage"/>
    <dc:date>2025-08-13T01:09:36.744954</dc:date>
    <dc:format>image/svg+xml</dc:format>
    <dc:creator>
     <cc:Agent>
      <dc:title>Matplotlib v3.7.1, https://matplotlib.org/</dc:title>
     </cc:Agent>
    </dc:creator>
   </cc:Work>
  </rdf:RDF>
 </metadata>
 <defs>
  <style type="text/css">*{stroke-linejoin: round; stroke-linecap: butt}</style>
 </defs>
 <g id="figure_1">
  <g id="patch_1">
   <path d="M 0 324 
L 324 324 
L 324 0 
L 0 0 
z
" style="fill: #ffffff"/>
  </g>
  <g id="axes_1">
   <g id="patch_2">
    <path d="M 33.916258 136.279398 
L 305.270451 136.279398 
L 305.270451 16.421203 
L 33.916258 16.421203 
z
" style="fill: #ffffff"/>
   </g>
   <g id="line2d_1">
    <path d="M 46.250539 122.716418 
L 48.742313 122.713598 
L 51.234087 122.710236 
L 53.725861 122.706229 
L 56.217635 122.701451 
L 58.70941 122.695754 
L 61.201184 122.688961 
L 63.692958 122.680861 
L 66.184732 122.671203 
L 68.676506 122.659687 
L 71.16828 122.645958 
L 73.660054 122.629591 
L 76.151828 122.610085 
L 78.643602 122.58684 
L 81.135376 122.559149 
L 83.62715 122.526173 
L 86.118924 122.486918 
L 88.610698 122.440215 
L 91.102472 122.384689 
L 93.594246 122.318711 
L 96.08602 122.240393 
L 98.577794 122.147528 
L 101.069568 122.037553 
L 103.561342 121.907515 
L 106.053116 121.754031 
L 108.54489 121.573252 
L 111.036664 121.360858 
L 113.528438 121.112033 
L 116.020212 120.821502 
L 118.511987 120.48358 
L 121.003761 120.092268 
L 123.495535 119.641398 
L 125.987309 119.12484 
L 128.479083 118.536754 
L 130.970857 117.871906 
L 133.462631 117.126002 
L 135.954405 116.296045 
L 138.446179 115.380654 
L 140.937953 114.380312 
L 143.429727 113.297501 
L 145.921501 112.136694 
L 148.413275 110.904172 
L 150.905049 109.60769 
L 153.396823 108.256003 
L 155.888597 106.858313 
L 158.380371 105.423715 
L 160.872145 103.960678 
L 163.363919 102.47665 
L 165.855693 100.977815 
L 168.347467 99.469005 
L 170.839241 97.953762 
L 173.331015 96.462569 
L 175.822789 94.943407 
L 178.314564 93.447021 
L 180.806338 91.928218 
L 183.298112 90.409231 
L 185.789886 88.890189 
L 188.28166 87.371134 
L 190.773434 85.852076 
L 193.265208 84.33301 
L 195.756982 82.813921 
L 198.248756 81.294781 
L 200.74053 79.753033 
L 203.232304 78.23057 
L 205.724078 76.736887 
L 208.215852 75.217254 
L 210.707626 73.72509 
L 213.1994 72.20887 
L 215.691174 70.692892 
L 218.182948 69.177154 
L 220.674722 67.661654 
L 223.166496 66.146409 
L 225.65827 64.631368 
L 228.150044 63.116531 
L 230.641818 61.601872 
L 233.133592 60.087355 
L 235.625366 58.591728 
L 238.117141 57.08044 
L 240.608915 55.569626 
L 243.100689 54.059267 
L 245.592463 52.549334 
L 248.084237 51.039781 
L 250.576011 49.53054 
L 253.067785 48.021529 
L 255.559559 46.512666 
L 258.051333 45.003807 
L 260.543107 43.602707 
L 263.034881 42.096383 
L 265.526655 40.586439 
L 268.018429 39.094824 
L 270.510203 37.605131 
L 273.001977 36.117411 
L 275.493751 34.670055 
L 277.985525 33.225407 
L 280.477299 31.757941 
L 282.969073 30.295992 
L 285.460847 28.838996 
L 287.952621 27.38556 
L 290.444395 25.941431 
L 292.936169 24.500017 
" clip-path="url(#p46727eb43a)" style="fill: none; stroke: #000000; stroke-width: 1.5; stroke-linecap: square"/>
   </g>
   <g id="line2d_2">
    <path d="M 46.250539 123.245709 
L 48.742313 123.292786 
L 51.234087 123.344161 
L 53.725861 123.400215 
L 56.217635 123.461365 
L 58.70941 123.528059 
L 61.201184 123.600782 
L 63.692958 123.680058 
L 66.184732 123.76645 
L 68.676506 123.860564 
L 71.16828 123.963047 
L 73.660054 124.074591 
L 76.151828 124.195933 
L 78.643602 124.327849 
L 81.135376 124.471157 
L 83.62715 124.626734 
L 86.118924 124.795426 
L 88.610698 124.978148 
L 91.102472 125.175799 
L 93.594246 125.389262 
L 96.08602 125.619373 
L 98.577794 125.866878 
L 101.069568 126.132392 
L 103.561342 126.416322 
L 106.053116 126.718794 
L 108.54489 127.039537 
L 111.036664 127.377757 
L 113.528438 127.731969 
L 116.020212 128.099807 
L 118.511987 128.4778 
L 121.003761 128.860991 
L 123.495535 129.243188 
L 125.987309 129.616006 
L 128.479083 129.969378 
L 130.970857 130.290597 
L 133.462631 130.565656 
L 135.954405 130.778977 
L 138.446179 130.914432 
L 140.937953 130.956571 
L 143.429727 130.892147 
L 145.921501 130.711761 
L 148.413275 130.411304 
L 150.905049 129.992876 
L 153.396823 129.464906 
L 155.888597 128.84138 
L 158.380371 128.14032 
L 160.872145 127.381829 
L 163.363919 126.586088 
L 165.855693 125.771674 
L 168.347467 124.954413 
L 170.839241 124.146826 
L 173.331015 123.372147 
L 175.822789 122.609872 
L 178.314564 121.870511 
L 180.806338 121.170593 
L 183.298112 120.500957 
L 185.789886 119.863628 
L 188.28166 119.259112 
L 190.773434 118.686585 
L 193.265208 118.143754 
L 195.756982 117.629421 
L 198.248756 117.111019 
L 200.74053 117.232427 
L 203.232304 116.253152 
L 205.724078 115.860134 
L 208.215852 115.481733 
L 210.707626 115.123617 
L 213.1994 114.782059 
L 215.691174 114.488792 
L 218.182948 114.195895 
L 220.674722 113.920431 
L 223.166496 113.78242 
L 225.65827 113.561068 
L 228.150044 113.356635 
L 230.641818 113.16821 
L 233.133592 112.969906 
L 235.625366 112.799856 
L 238.117141 112.648663 
L 240.608915 112.513947 
L 243.100689 112.388043 
L 245.592463 112.271959 
L 248.084237 112.168255 
L 250.576011 112.071325 
L 253.067785 111.983092 
L 255.559559 111.903012 
L 258.051333 112.712194 
L 260.543107 111.765775 
L 263.034881 111.716168 
L 265.526655 111.657203 
L 268.018429 111.615254 
L 270.510203 111.582481 
L 273.001977 111.560181 
L 275.493751 111.56883 
L 277.985525 111.556441 
L 280.477299 111.561102 
L 282.969073 111.582593 
L 285.460847 111.595708 
L 287.952621 111.58759 
L 290.444395 111.555947 
L 292.936169 111.470382 
" clip-path="url(#p46727eb43a)" style="fill: none; stroke-dasharray: 1.5,2.475; stroke-dashoffset: 0; stroke: #000000; stroke-width: 1.5"/>
   </g>
   <g id="line2d_3">
    <path d="M 46.250539 122.733795 
L 48.742313 122.733626 
L 51.234087 122.733425 
L 53.725861 122.733185 
L 56.217635 122.732898 
L 58.70941 122.732556 
L 61.201184 122.732147 
L 63.692958 122.731659 
L 66.184732 122.731077 
L 68.676506 122.730381 
L 71.16828 122.729551 
L 73.660054 122.728558 
L 76.151828 122.727373 
L 78.643602 122.725957 
L 81.135376 122.724265 
L 83.62715 122.722243 
L 86.118924 122.719827 
L 88.610698 122.71694 
L 91.102472 122.713486 
L 93.594246 122.709362 
L 96.08602 122.704432 
L 98.577794 122.698539 
L 101.069568 122.691494 
L 103.561342 122.683072 
L 106.053116 122.673005 
L 108.54489 122.66097 
L 111.036664 122.646583 
L 113.528438 122.629393 
L 116.020212 122.608843 
L 118.511987 122.584289 
L 121.003761 122.554959 
L 123.495535 122.519936 
L 125.987309 122.478131 
L 128.479083 122.428268 
L 130.970857 122.368839 
L 133.462631 122.298064 
L 135.954405 122.213877 
L 138.446179 122.113881 
L 140.937953 121.995311 
L 143.429727 121.855017 
L 145.921501 121.68942 
L 148.413275 121.494552 
L 150.905049 121.266057 
L 153.396823 120.999313 
L 155.888597 120.689252 
L 158.380371 120.330974 
L 160.872145 119.919651 
L 163.363919 119.450887 
L 165.855693 118.921055 
L 168.347467 118.327662 
L 170.839241 117.669724 
L 173.331015 116.948098 
L 175.822789 116.165715 
L 178.314564 115.32768 
L 180.806338 114.441186 
L 183.298112 113.514873 
L 185.789886 112.5602 
L 188.28166 111.587223 
L 190.773434 110.607619 
L 193.265208 109.632261 
L 195.756982 108.671109 
L 198.248756 107.732838 
L 200.74053 106.824764 
L 203.232304 105.952819 
L 205.724078 105.121712 
L 208.215852 104.335136 
L 210.707626 103.596019 
L 213.1994 102.906817 
L 215.691174 102.269045 
L 218.182948 101.686437 
L 220.674722 101.156785 
L 223.166496 100.764931 
L 225.65827 100.333367 
L 228.150044 99.988323 
L 230.641818 99.678289 
L 233.133592 99.447504 
L 235.625366 99.273401 
L 238.117141 99.160502 
L 240.608915 99.098019 
L 243.100689 99.099744 
L 245.592463 99.204827 
L 248.084237 99.329607 
L 250.576011 99.502929 
L 253.067785 99.723904 
L 255.559559 99.997357 
L 258.051333 100.32925 
L 260.543107 100.693864 
L 263.034881 101.10102 
L 265.526655 101.544575 
L 268.018429 102.074788 
L 270.510203 102.597567 
L 273.001977 103.134197 
L 275.493751 103.805255 
L 277.985525 104.390726 
L 280.477299 104.995835 
L 282.969073 105.651625 
L 285.460847 106.254434 
L 287.952621 106.847765 
L 290.444395 107.490959 
L 292.936169 108.185686 
" clip-path="url(#p46727eb43a)" style="fill: none; stroke: #0000ff; stroke-width: 1.5; stroke-linecap: square"/>
   </g>
   <g id="line2d_4">
    <path d="M 46.250539 122.771808 
L 48.742313 122.775182 
L 51.234087 122.778863 
L 53.725861 122.782878 
L 56.217635 122.787258 
L 58.70941 122.792039 
L 61.201184 122.797246 
L 63.692958 122.802919 
L 66.184732 122.8091 
L 68.676506 122.81583 
L 71.16828 122.823154 
L 73.660054 122.831138 
L 76.151828 122.839823 
L 78.643602 122.849269 
L 81.135376 122.859535 
L 83.62715 122.870688 
L 86.118924 122.882802 
L 88.610698 122.895936 
L 91.102472 122.910173 
L 93.594246 122.925591 
L 96.08602 122.942271 
L 98.577794 122.960292 
L 101.069568 122.979743 
L 103.561342 123.000703 
L 106.053116 123.023249 
L 108.54489 123.047457 
L 111.036664 123.073383 
L 113.528438 123.101079 
L 116.020212 123.130579 
L 118.511987 123.161885 
L 121.003761 123.194971 
L 123.495535 123.229759 
L 125.987309 123.266126 
L 128.479083 123.303865 
L 130.970857 123.342691 
L 133.462631 123.382195 
L 135.954405 123.421835 
L 138.446179 123.460901 
L 140.937953 123.498485 
L 143.429727 123.533438 
L 145.921501 123.564348 
L 148.413275 123.589477 
L 150.905049 123.606754 
L 153.396823 123.613741 
L 155.888597 123.607679 
L 158.380371 123.585339 
L 160.872145 123.543334 
L 163.363919 123.478078 
L 165.855693 123.385998 
L 168.347467 123.263778 
L 170.839241 123.108666 
L 173.331015 122.918817 
L 175.822789 122.693647 
L 178.314564 122.434134 
L 180.806338 122.143024 
L 183.298112 121.82486 
L 185.789886 121.485822 
L 188.28166 121.133352 
L 190.773434 120.77562 
L 193.265208 120.420897 
L 195.756982 120.076945 
L 198.248756 119.750511 
L 200.74053 119.446973 
L 203.232304 119.170251 
L 205.724078 118.922865 
L 208.215852 118.706211 
L 210.707626 118.520263 
L 213.1994 118.36538 
L 215.691174 118.236249 
L 218.182948 118.139306 
L 220.674722 118.077135 
L 223.166496 118.184517 
L 225.65827 118.01461 
L 228.150044 118.018221 
L 230.641818 118.043661 
L 233.133592 118.088176 
L 235.625366 118.151492 
L 238.117141 118.229738 
L 240.608915 118.325873 
L 243.100689 118.432532 
L 245.592463 118.53804 
L 248.084237 118.667101 
L 250.576011 118.800259 
L 253.067785 118.940715 
L 255.559559 119.084432 
L 258.051333 119.2872 
L 260.543107 119.442095 
L 263.034881 119.597781 
L 265.526655 119.75554 
L 268.018429 119.902559 
L 270.510203 120.077427 
L 273.001977 120.205125 
L 275.493751 120.351639 
L 277.985525 120.493924 
L 280.477299 120.63154 
L 282.969073 120.764069 
L 285.460847 120.891458 
L 287.952621 121.220018 
L 290.444395 121.127637 
L 292.936169 121.235572 
" clip-path="url(#p46727eb43a)" style="fill: none; stroke-dasharray: 1.5,2.475; stroke-dashoffset: 0; stroke: #0000ff; stroke-width: 1.5"/>
   </g>
   <g id="line2d_5">
    <path d="M 46.250539 122.734832 
L 48.742313 122.734805 
L 51.234087 122.734772 
L 53.725861 122.734733 
L 56.217635 122.734687 
L 58.70941 122.734632 
L 61.201184 122.734566 
L 63.692958 122.734487 
L 66.184732 122.734394 
L 68.676506 122.734283 
L 71.16828 122.73415 
L 73.660054 122.73399 
L 76.151828 122.7338 
L 78.643602 122.733572 
L 81.135376 122.733301 
L 83.62715 122.732976 
L 86.118924 122.732589 
L 88.610698 122.732126 
L 91.102472 122.731574 
L 93.594246 122.730912 
L 96.08602 122.730123 
L 98.577794 122.72918 
L 101.069568 122.72806 
L 103.561342 122.726705 
L 106.053116 122.725095 
L 108.54489 122.723171 
L 111.036664 122.72087 
L 113.528438 122.718119 
L 116.020212 122.714843 
L 118.511987 122.710916 
L 121.003761 122.706195 
L 123.495535 122.700572 
L 125.987309 122.69385 
L 128.479083 122.685814 
L 130.970857 122.676206 
L 133.462631 122.664726 
L 135.954405 122.651004 
L 138.446179 122.634611 
L 140.937953 122.615034 
L 143.429727 122.591671 
L 145.921501 122.563805 
L 148.413275 122.530594 
L 150.905049 122.491056 
L 153.396823 122.444049 
L 155.888597 122.388247 
L 158.380371 122.322135 
L 160.872145 122.243998 
L 163.363919 122.15191 
L 165.855693 122.043793 
L 168.347467 121.91727 
L 170.839241 121.769987 
L 173.331015 121.599554 
L 175.822789 121.403625 
L 178.314564 121.180083 
L 180.806338 120.927325 
L 183.298112 120.644587 
L 185.789886 120.331412 
L 188.28166 119.989695 
L 190.773434 119.621517 
L 193.265208 119.231181 
L 195.756982 118.824023 
L 198.248756 118.407527 
L 200.74053 117.989757 
L 203.232304 117.578535 
L 205.724078 117.182245 
L 208.215852 116.810202 
L 210.707626 116.468023 
L 213.1994 116.162177 
L 215.691174 115.895958 
L 218.182948 115.672274 
L 220.674722 115.492306 
L 223.166496 115.356083 
L 225.65827 115.2629 
L 228.150044 115.208075 
L 230.641818 115.198262 
L 233.133592 115.212326 
L 235.625366 115.288148 
L 238.117141 115.364314 
L 240.608915 115.513263 
L 243.100689 115.65828 
L 245.592463 115.828034 
L 248.084237 116.016852 
L 250.576011 116.210168 
L 253.067785 116.435478 
L 255.559559 116.665079 
L 258.051333 116.903064 
L 260.543107 117.17411 
L 263.034881 117.405515 
L 265.526655 117.661262 
L 268.018429 117.913302 
L 270.510203 118.162002 
L 273.001977 118.425219 
L 275.493751 118.664916 
L 277.985525 118.902515 
L 280.477299 119.126067 
L 282.969073 119.487483 
L 285.460847 119.679996 
L 287.952621 119.869913 
L 290.444395 120.027039 
L 292.936169 120.213148 
" clip-path="url(#p46727eb43a)" style="fill: none; stroke: #ff0000; stroke-width: 1.5; stroke-linecap: square"/>
   </g>
   <g id="line2d_6">
    <path d="M 46.250539 122.741431 
L 48.742313 122.742009 
L 51.234087 122.742639 
L 53.725861 122.743327 
L 56.217635 122.744077 
L 58.70941 122.744894 
L 61.201184 122.745785 
L 63.692958 122.746759 
L 66.184732 122.747817 
L 68.676506 122.748969 
L 71.16828 122.750223 
L 73.660054 122.751584 
L 76.151828 122.753068 
L 78.643602 122.754682 
L 81.135376 122.756436 
L 83.62715 122.758341 
L 86.118924 122.760409 
L 88.610698 122.762647 
L 91.102472 122.765078 
L 93.594246 122.76771 
L 96.08602 122.770557 
L 98.577794 122.773637 
L 101.069568 122.776956 
L 103.561342 122.780531 
L 106.053116 122.784378 
L 108.54489 122.788509 
L 111.036664 122.792935 
L 113.528438 122.797668 
L 116.020212 122.802712 
L 118.511987 122.808073 
L 121.003761 122.813747 
L 123.495535 122.819729 
L 125.987309 122.826003 
L 128.479083 122.832541 
L 130.970857 122.839304 
L 133.462631 122.846236 
L 135.954405 122.853259 
L 138.446179 122.860274 
L 140.937953 122.867146 
L 143.429727 122.873705 
L 145.921501 122.879733 
L 148.413275 122.88496 
L 150.905049 122.889048 
L 153.396823 122.891587 
L 155.888597 122.892077 
L 158.380371 122.889919 
L 160.872145 122.884403 
L 163.363919 122.874699 
L 165.855693 122.859853 
L 168.347467 122.838789 
L 170.839241 122.810328 
L 173.331015 122.773195 
L 175.822789 122.72609 
L 178.314564 122.667744 
L 180.806338 122.597028 
L 183.298112 122.513039 
L 185.789886 122.41529 
L 188.28166 122.303834 
L 190.773434 122.179413 
L 193.265208 122.043562 
L 195.756982 121.898731 
L 198.248756 121.747956 
L 200.74053 121.59512 
L 203.232304 121.444444 
L 205.724078 121.300225 
L 208.215852 121.166501 
L 210.707626 121.04673 
L 213.1994 120.943535 
L 215.691174 120.858629 
L 218.182948 120.792736 
L 220.674722 120.745833 
L 223.166496 120.716516 
L 225.65827 120.704864 
L 228.150044 120.707611 
L 230.641818 120.728361 
L 233.133592 120.741971 
L 235.625366 120.879372 
L 238.117141 120.847517 
L 240.608915 120.904402 
L 243.100689 120.967164 
L 245.592463 121.03504 
L 248.084237 121.104906 
L 250.576011 121.175066 
L 253.067785 121.253632 
L 255.559559 121.328659 
L 258.051333 121.402717 
L 260.543107 121.470577 
L 263.034881 121.543455 
L 265.526655 121.613294 
L 268.018429 121.680415 
L 270.510203 121.744046 
L 273.001977 121.826817 
L 275.493751 121.887775 
L 277.985525 121.945898 
L 280.477299 122.011736 
L 282.969073 122.051289 
L 285.460847 122.100581 
L 287.952621 122.147087 
L 290.444395 122.190643 
L 292.936169 122.231479 
" clip-path="url(#p46727eb43a)" style="fill: none; stroke-dasharray: 1.5,2.475; stroke-dashoffset: 0; stroke: #ff0000; stroke-width: 1.5"/>
   </g>
   <g id="matplotlib.axis_1">
    <g id="xtick_1">
     <g id="line2d_7">
      <defs>
       <path id="me1bc32a602" d="M 0 0 
L 0 3.5 
" style="stroke: #000000; stroke-width: 0.8"/>
      </defs>
      <g>
       <use xlink:href="#me1bc32a602" x="46.250539" y="136.279398" style="stroke: #000000; stroke-width: 0.8"/>
      </g>
     </g>
    </g>
    <g id="xtick_2">
     <g id="line2d_8">
      <g>
       <use xlink:href="#me1bc32a602" x="110.827929" y="136.279398" style="stroke: #000000; stroke-width: 0.8"/>
      </g>
     </g>
    </g>
    <g id="xtick_3">
     <g id="line2d_9">
      <g>
       <use xlink:href="#me1bc32a602" x="175.405319" y="136.279398" style="stroke: #000000; stroke-width: 0.8"/>
      </g>
     </g>
    </g>
    <g id="xtick_4">
     <g id="line2d_10">
      <g>
       <use xlink:href="#me1bc32a602" x="239.98271" y="136.279398" style="stroke: #000000; stroke-width: 0.8"/>
      </g>
     </g>
    </g>
    <g id="xtick_5">
     <g id="line2d_11">
      <g>
       <use xlink:href="#me1bc32a602" x="304.5601" y="136.279398" style="stroke: #000000; stroke-width: 0.8"/>
      </g>
     </g>
    </g>
    <g id="xtick_6">
     <g id="line2d_12">
      <defs>
       <path id="ma0f3fd1e9a" d="M 0 0 
L 0 2 
" style="stroke: #000000; stroke-width: 0.6"/>
      </defs>
      <g>
       <use xlink:href="#ma0f3fd1e9a" x="36.247375" y="136.279398" style="stroke: #000000; stroke-width: 0.6"/>
      </g>
     </g>
    </g>
    <g id="xtick_7">
     <g id="line2d_13">
      <g>
       <use xlink:href="#ma0f3fd1e9a" x="39.992344" y="136.279398" style="stroke: #000000; stroke-width: 0.6"/>
      </g>
     </g>
    </g>
    <g id="xtick_8">
     <g id="line2d_14">
      <g>
       <use xlink:href="#ma0f3fd1e9a" x="43.29564" y="136.279398" style="stroke: #000000; stroke-width: 0.6"/>
      </g>
     </g>
    </g>
    <g id="xtick_9">
     <g id="line2d_15">
      <g>
       <use xlink:href="#ma0f3fd1e9a" x="65.690271" y="136.279398" style="stroke: #000000; stroke-width: 0.6"/>
      </g>
     </g>
    </g>
    <g id="xtick_10">
     <g id="line2d_16">
      <g>
       <use xlink:href="#ma0f3fd1e9a" x="77.061785" y="136.279398" style="stroke: #000000; stroke-width: 0.6"/>
      </g>
     </g>
    </g>
    <g id="xtick_11">
     <g id="line2d_17">
      <g>
       <use xlink:href="#ma0f3fd1e9a" x="85.130002" y="136.279398" style="stroke: #000000; stroke-width: 0.6"/>
      </g>
     </g>
    </g>
    <g id="xtick_12">
     <g id="line2d_18">
      <g>
       <use xlink:href="#ma0f3fd1e9a" x="91.388198" y="136.279398" style="stroke: #000000; stroke-width: 0.6"/>
      </g>
     </g>
    </g>
    <g id="xtick_13">
     <g id="line2d_19">
      <g>
       <use xlink:href="#ma0f3fd1e9a" x="96.501516" y="136.279398" style="stroke: #000000; stroke-width: 0.6"/>
      </g>
     </g>
    </g>
    <g id="xtick_14">
     <g id="line2d_20">
      <g>
       <use xlink:href="#ma0f3fd1e9a" x="100.824765" y="136.279398" style="stroke: #000000; stroke-width: 0.6"/>
      </g>
     </g>
    </g>
    <g id="xtick_15">
     <g id="line2d_21">
      <g>
       <use xlink:href="#ma0f3fd1e9a" x="104.569734" y="136.279398" style="stroke: #000000; stroke-width: 0.6"/>
      </g>
     </g>
    </g>
    <g id="xtick_16">
     <g id="line2d_22">
      <g>
       <use xlink:href="#ma0f3fd1e9a" x="107.87303" y="136.279398" style="stroke: #000000; stroke-width: 0.6"/>
      </g>
     </g>
    </g>
    <g id="xtick_17">
     <g id="line2d_23">
      <g>
       <use xlink:href="#ma0f3fd1e9a" x="130.267661" y="136.279398" style="stroke: #000000; stroke-width: 0.6"/>
      </g>
     </g>
    </g>
    <g id="xtick_18">
     <g id="line2d_24">
      <g>
       <use xlink:href="#ma0f3fd1e9a" x="141.639175" y="136.279398" style="stroke: #000000; stroke-width: 0.6"/>
      </g>
     </g>
    </g>
    <g id="xtick_19">
     <g id="line2d_25">
      <g>
       <use xlink:href="#ma0f3fd1e9a" x="149.707392" y="136.279398" style="stroke: #000000; stroke-width: 0.6"/>
      </g>
     </g>
    </g>
    <g id="xtick_20">
     <g id="line2d_26">
      <g>
       <use xlink:href="#ma0f3fd1e9a" x="155.965588" y="136.279398" style="stroke: #000000; stroke-width: 0.6"/>
      </g>
     </g>
    </g>
    <g id="xtick_21">
     <g id="line2d_27">
      <g>
       <use xlink:href="#ma0f3fd1e9a" x="161.078906" y="136.279398" style="stroke: #000000; stroke-width: 0.6"/>
      </g>
     </g>
    </g>
    <g id="xtick_22">
     <g id="line2d_28">
      <g>
       <use xlink:href="#ma0f3fd1e9a" x="165.402155" y="136.279398" style="stroke: #000000; stroke-width: 0.6"/>
      </g>
     </g>
    </g>
    <g id="xtick_23">
     <g id="line2d_29">
      <g>
       <use xlink:href="#ma0f3fd1e9a" x="169.147124" y="136.279398" style="stroke: #000000; stroke-width: 0.6"/>
      </g>
     </g>
    </g>
    <g id="xtick_24">
     <g id="line2d_30">
      <g>
       <use xlink:href="#ma0f3fd1e9a" x="172.45042" y="136.279398" style="stroke: #000000; stroke-width: 0.6"/>
      </g>
     </g>
    </g>
    <g id="xtick_25">
     <g id="line2d_31">
      <g>
       <use xlink:href="#ma0f3fd1e9a" x="194.845051" y="136.279398" style="stroke: #000000; stroke-width: 0.6"/>
      </g>
     </g>
    </g>
    <g id="xtick_26">
     <g id="line2d_32">
      <g>
       <use xlink:href="#ma0f3fd1e9a" x="206.216565" y="136.279398" style="stroke: #000000; stroke-width: 0.6"/>
      </g>
     </g>
    </g>
    <g id="xtick_27">
     <g id="line2d_33">
      <g>
       <use xlink:href="#ma0f3fd1e9a" x="214.284782" y="136.279398" style="stroke: #000000; stroke-width: 0.6"/>
      </g>
     </g>
    </g>
    <g id="xtick_28">
     <g id="line2d_34">
      <g>
       <use xlink:href="#ma0f3fd1e9a" x="220.542978" y="136.279398" style="stroke: #000000; stroke-width: 0.6"/>
      </g>
     </g>
    </g>
    <g id="xtick_29">
     <g id="line2d_35">
      <g>
       <use xlink:href="#ma0f3fd1e9a" x="225.656296" y="136.279398" style="stroke: #000000; stroke-width: 0.6"/>
      </g>
     </g>
    </g>
    <g id="xtick_30">
     <g id="line2d_36">
      <g>
       <use xlink:href="#ma0f3fd1e9a" x="229.979545" y="136.279398" style="stroke: #000000; stroke-width: 0.6"/>
      </g>
     </g>
    </g>
    <g id="xtick_31">
     <g id="line2d_37">
      <g>
       <use xlink:href="#ma0f3fd1e9a" x="233.724514" y="136.279398" style="stroke: #000000; stroke-width: 0.6"/>
      </g>
     </g>
    </g>
    <g id="xtick_32">
     <g id="line2d_38">
      <g>
       <use xlink:href="#ma0f3fd1e9a" x="237.02781" y="136.279398" style="stroke: #000000; stroke-width: 0.6"/>
      </g>
     </g>
    </g>
    <g id="xtick_33">
     <g id="line2d_39">
      <g>
       <use xlink:href="#ma0f3fd1e9a" x="259.422441" y="136.279398" style="stroke: #000000; stroke-width: 0.6"/>
      </g>
     </g>
    </g>
    <g id="xtick_34">
     <g id="line2d_40">
      <g>
       <use xlink:href="#ma0f3fd1e9a" x="270.793955" y="136.279398" style="stroke: #000000; stroke-width: 0.6"/>
      </g>
     </g>
    </g>
    <g id="xtick_35">
     <g id="line2d_41">
      <g>
       <use xlink:href="#ma0f3fd1e9a" x="278.862172" y="136.279398" style="stroke: #000000; stroke-width: 0.6"/>
      </g>
     </g>
    </g>
    <g id="xtick_36">
     <g id="line2d_42">
      <g>
       <use xlink:href="#ma0f3fd1e9a" x="285.120368" y="136.279398" style="stroke: #000000; stroke-width: 0.6"/>
      </g>
     </g>
    </g>
    <g id="xtick_37">
     <g id="line2d_43">
      <g>
       <use xlink:href="#ma0f3fd1e9a" x="290.233686" y="136.279398" style="stroke: #000000; stroke-width: 0.6"/>
      </g>
     </g>
    </g>
    <g id="xtick_38">
     <g id="line2d_44">
      <g>
       <use xlink:href="#ma0f3fd1e9a" x="294.556935" y="136.279398" style="stroke: #000000; stroke-width: 0.6"/>
      </g>
     </g>
    </g>
    <g id="xtick_39">
     <g id="line2d_45">
      <g>
       <use xlink:href="#ma0f3fd1e9a" x="298.301904" y="136.279398" style="stroke: #000000; stroke-width: 0.6"/>
      </g>
     </g>
    </g>
    <g id="xtick_40">
     <g id="line2d_46">
      <g>
       <use xlink:href="#ma0f3fd1e9a" x="301.6052" y="136.279398" style="stroke: #000000; stroke-width: 0.6"/>
      </g>
     </g>
    </g>
   </g>
   <g id="matplotlib.axis_2">
    <g id="ytick_1">
     <g id="line2d_47">
      <defs>
       <path id="mc7bd6fb7ca" d="M 0 0 
L -3.5 0 
" style="stroke: #000000; stroke-width: 0.8"/>
      </defs>
      <g>
       <use xlink:href="#mc7bd6fb7ca" x="33.916258" y="122.73515" style="stroke: #000000; stroke-width: 0.8"/>
      </g>
     </g>
     <g id="text_1">
      <!-- $2$ -->
      <g transform="translate(21.916258 126.534368) scale(0.1 -0.1)">
       <defs>
        <path id="Cmr10-32" d="M 319 0 
L 319 172 
Q 319 188 331 206 
L 1325 1306 
Q 1550 1550 1690 1715 
Q 1831 1881 1968 2097 
Q 2106 2313 2186 2536 
Q 2266 2759 2266 3009 
Q 2266 3272 2169 3511 
Q 2072 3750 1880 3894 
Q 1688 4038 1416 4038 
Q 1138 4038 916 3870 
Q 694 3703 603 3438 
Q 628 3444 672 3444 
Q 816 3444 917 3347 
Q 1019 3250 1019 3097 
Q 1019 2950 917 2848 
Q 816 2747 672 2747 
Q 522 2747 420 2851 
Q 319 2956 319 3097 
Q 319 3338 409 3548 
Q 500 3759 670 3923 
Q 841 4088 1055 4175 
Q 1269 4263 1509 4263 
Q 1875 4263 2190 4108 
Q 2506 3953 2690 3670 
Q 2875 3388 2875 3009 
Q 2875 2731 2753 2481 
Q 2631 2231 2440 2026 
Q 2250 1822 1953 1562 
Q 1656 1303 1563 1216 
L 838 519 
L 1453 519 
Q 1906 519 2211 526 
Q 2516 534 2534 550 
Q 2609 631 2688 1141 
L 2875 1141 
L 2694 0 
L 319 0 
z
" transform="scale(0.015625)"/>
       </defs>
       <use xlink:href="#Cmr10-32" transform="translate(0 0.390625)"/>
      </g>
     </g>
    </g>
    <g id="ytick_2">
     <g id="line2d_48">
      <g>
       <use xlink:href="#mc7bd6fb7ca" x="33.916258" y="95.202328" style="stroke: #000000; stroke-width: 0.8"/>
      </g>
     </g>
     <g id="text_2">
      <!-- $10^1$ -->
      <g transform="translate(12.316258 99.001547) scale(0.1 -0.1)">
       <defs>
        <path id="Cmr10-31" d="M 594 0 
L 594 225 
Q 1394 225 1394 428 
L 1394 3788 
Q 1063 3628 556 3628 
L 556 3853 
Q 1341 3853 1741 4263 
L 1831 4263 
Q 1853 4263 1873 4245 
Q 1894 4228 1894 4206 
L 1894 428 
Q 1894 225 2694 225 
L 2694 0 
L 594 0 
z
" transform="scale(0.015625)"/>
        <path id="Cmr10-30" d="M 1600 -141 
Q 816 -141 533 504 
Q 250 1150 250 2041 
Q 250 2597 351 3087 
Q 453 3578 754 3920 
Q 1056 4263 1600 4263 
Q 2022 4263 2290 4056 
Q 2559 3850 2700 3523 
Q 2841 3197 2892 2823 
Q 2944 2450 2944 2041 
Q 2944 1491 2842 1011 
Q 2741 531 2444 195 
Q 2147 -141 1600 -141 
z
M 1600 25 
Q 1956 25 2131 390 
Q 2306 756 2347 1200 
Q 2388 1644 2388 2144 
Q 2388 2625 2347 3031 
Q 2306 3438 2132 3767 
Q 1959 4097 1600 4097 
Q 1238 4097 1063 3765 
Q 888 3434 847 3029 
Q 806 2625 806 2144 
Q 806 1788 823 1472 
Q 841 1156 916 820 
Q 991 484 1158 254 
Q 1325 25 1600 25 
z
" transform="scale(0.015625)"/>
       </defs>
       <use xlink:href="#Cmr10-31" transform="translate(0 0.109375)"/>
       <use xlink:href="#Cmr10-30" transform="translate(50 0.109375)"/>
       <use xlink:href="#Cmr10-31" transform="translate(104.464141 38.373438) scale(0.7)"/>
      </g>
     </g>
    </g>
    <g id="ytick_3">
     <g id="line2d_49">
      <g>
       <use xlink:href="#mc7bd6fb7ca" x="33.916258" y="55.811766" style="stroke: #000000; stroke-width: 0.8"/>
      </g>
     </g>
     <g id="text_3">
      <!-- $10^2$ -->
      <g transform="translate(12.316258 59.610984) scale(0.1 -0.1)">
       <use xlink:href="#Cmr10-31" transform="translate(0 0.109375)"/>
       <use xlink:href="#Cmr10-30" transform="translate(50 0.109375)"/>
       <use xlink:href="#Cmr10-32" transform="translate(104.464141 38.373438) scale(0.7)"/>
      </g>
     </g>
    </g>
    <g id="ytick_4">
     <g id="line2d_50">
      <g>
       <use xlink:href="#mc7bd6fb7ca" x="33.916258" y="16.421203" style="stroke: #000000; stroke-width: 0.8"/>
      </g>
     </g>
     <g id="text_4">
      <!-- $10^3$ -->
      <g transform="translate(12.316258 20.220422) scale(0.1 -0.1)">
       <defs>
        <path id="Cmr10-33" d="M 609 494 
Q 759 275 1012 169 
Q 1266 63 1556 63 
Q 1928 63 2084 380 
Q 2241 697 2241 1100 
Q 2241 1281 2208 1462 
Q 2175 1644 2097 1800 
Q 2019 1956 1883 2050 
Q 1747 2144 1550 2144 
L 1125 2144 
Q 1069 2144 1069 2203 
L 1069 2259 
Q 1069 2309 1125 2309 
L 1478 2338 
Q 1703 2338 1851 2506 
Q 2000 2675 2069 2917 
Q 2138 3159 2138 3378 
Q 2138 3684 1994 3881 
Q 1850 4078 1556 4078 
Q 1313 4078 1091 3986 
Q 869 3894 738 3706 
Q 750 3709 759 3711 
Q 769 3713 781 3713 
Q 925 3713 1022 3613 
Q 1119 3513 1119 3372 
Q 1119 3234 1022 3134 
Q 925 3034 781 3034 
Q 641 3034 541 3134 
Q 441 3234 441 3372 
Q 441 3647 606 3850 
Q 772 4053 1033 4158 
Q 1294 4263 1556 4263 
Q 1750 4263 1965 4205 
Q 2181 4147 2356 4039 
Q 2531 3931 2642 3762 
Q 2753 3594 2753 3378 
Q 2753 3109 2633 2881 
Q 2513 2653 2303 2487 
Q 2094 2322 1844 2241 
Q 2122 2188 2372 2031 
Q 2622 1875 2773 1631 
Q 2925 1388 2925 1106 
Q 2925 753 2731 467 
Q 2538 181 2222 20 
Q 1906 -141 1556 -141 
Q 1256 -141 954 -26 
Q 653 88 461 316 
Q 269 544 269 863 
Q 269 1022 375 1128 
Q 481 1234 641 1234 
Q 744 1234 830 1186 
Q 916 1138 964 1050 
Q 1013 963 1013 863 
Q 1013 706 903 600 
Q 794 494 641 494 
L 609 494 
z
" transform="scale(0.015625)"/>
       </defs>
       <use xlink:href="#Cmr10-31" transform="translate(0 0.109375)"/>
       <use xlink:href="#Cmr10-30" transform="translate(50 0.109375)"/>
       <use xlink:href="#Cmr10-33" transform="translate(104.464141 38.373438) scale(0.7)"/>
      </g>
     </g>
    </g>
    <g id="ytick_5">
     <g id="line2d_51">
      <defs>
       <path id="m0eff18550d" d="M 0 0 
L -2 0 
" style="stroke: #000000; stroke-width: 0.6"/>
      </defs>
      <g>
       <use xlink:href="#m0eff18550d" x="33.916258" y="134.59289" style="stroke: #000000; stroke-width: 0.6"/>
      </g>
     </g>
    </g>
    <g id="ytick_6">
     <g id="line2d_52">
      <g>
       <use xlink:href="#m0eff18550d" x="33.916258" y="115.798816" style="stroke: #000000; stroke-width: 0.6"/>
      </g>
     </g>
    </g>
    <g id="ytick_7">
     <g id="line2d_53">
      <g>
       <use xlink:href="#m0eff18550d" x="33.916258" y="110.877409" style="stroke: #000000; stroke-width: 0.6"/>
      </g>
     </g>
    </g>
    <g id="ytick_8">
     <g id="line2d_54">
      <g>
       <use xlink:href="#m0eff18550d" x="33.916258" y="107.060069" style="stroke: #000000; stroke-width: 0.6"/>
      </g>
     </g>
    </g>
    <g id="ytick_9">
     <g id="line2d_55">
      <g>
       <use xlink:href="#m0eff18550d" x="33.916258" y="103.941075" style="stroke: #000000; stroke-width: 0.6"/>
      </g>
     </g>
    </g>
    <g id="ytick_10">
     <g id="line2d_56">
      <g>
       <use xlink:href="#m0eff18550d" x="33.916258" y="101.304003" style="stroke: #000000; stroke-width: 0.6"/>
      </g>
     </g>
    </g>
    <g id="ytick_11">
     <g id="line2d_57">
      <g>
       <use xlink:href="#m0eff18550d" x="33.916258" y="99.019668" style="stroke: #000000; stroke-width: 0.6"/>
      </g>
     </g>
    </g>
    <g id="ytick_12">
     <g id="line2d_58">
      <g>
       <use xlink:href="#m0eff18550d" x="33.916258" y="97.004741" style="stroke: #000000; stroke-width: 0.6"/>
      </g>
     </g>
    </g>
    <g id="ytick_13">
     <g id="line2d_59">
      <g>
       <use xlink:href="#m0eff18550d" x="33.916258" y="83.344587" style="stroke: #000000; stroke-width: 0.6"/>
      </g>
     </g>
    </g>
    <g id="ytick_14">
     <g id="line2d_60">
      <g>
       <use xlink:href="#m0eff18550d" x="33.916258" y="76.408253" style="stroke: #000000; stroke-width: 0.6"/>
      </g>
     </g>
    </g>
    <g id="ytick_15">
     <g id="line2d_61">
      <g>
       <use xlink:href="#m0eff18550d" x="33.916258" y="71.486846" style="stroke: #000000; stroke-width: 0.6"/>
      </g>
     </g>
    </g>
    <g id="ytick_16">
     <g id="line2d_62">
      <g>
       <use xlink:href="#m0eff18550d" x="33.916258" y="67.669506" style="stroke: #000000; stroke-width: 0.6"/>
      </g>
     </g>
    </g>
    <g id="ytick_17">
     <g id="line2d_63">
      <g>
       <use xlink:href="#m0eff18550d" x="33.916258" y="64.550513" style="stroke: #000000; stroke-width: 0.6"/>
      </g>
     </g>
    </g>
    <g id="ytick_18">
     <g id="line2d_64">
      <g>
       <use xlink:href="#m0eff18550d" x="33.916258" y="61.913441" style="stroke: #000000; stroke-width: 0.6"/>
      </g>
     </g>
    </g>
    <g id="ytick_19">
     <g id="line2d_65">
      <g>
       <use xlink:href="#m0eff18550d" x="33.916258" y="59.629105" style="stroke: #000000; stroke-width: 0.6"/>
      </g>
     </g>
    </g>
    <g id="ytick_20">
     <g id="line2d_66">
      <g>
       <use xlink:href="#m0eff18550d" x="33.916258" y="57.614179" style="stroke: #000000; stroke-width: 0.6"/>
      </g>
     </g>
    </g>
    <g id="ytick_21">
     <g id="line2d_67">
      <g>
       <use xlink:href="#m0eff18550d" x="33.916258" y="43.954025" style="stroke: #000000; stroke-width: 0.6"/>
      </g>
     </g>
    </g>
    <g id="ytick_22">
     <g id="line2d_68">
      <g>
       <use xlink:href="#m0eff18550d" x="33.916258" y="37.017691" style="stroke: #000000; stroke-width: 0.6"/>
      </g>
     </g>
    </g>
    <g id="ytick_23">
     <g id="line2d_69">
      <g>
       <use xlink:href="#m0eff18550d" x="33.916258" y="32.096284" style="stroke: #000000; stroke-width: 0.6"/>
      </g>
     </g>
    </g>
    <g id="ytick_24">
     <g id="line2d_70">
      <g>
       <use xlink:href="#m0eff18550d" x="33.916258" y="28.278944" style="stroke: #000000; stroke-width: 0.6"/>
      </g>
     </g>
    </g>
    <g id="ytick_25">
     <g id="line2d_71">
      <g>
       <use xlink:href="#m0eff18550d" x="33.916258" y="25.15995" style="stroke: #000000; stroke-width: 0.6"/>
      </g>
     </g>
    </g>
    <g id="ytick_26">
     <g id="line2d_72">
      <g>
       <use xlink:href="#m0eff18550d" x="33.916258" y="22.522878" style="stroke: #000000; stroke-width: 0.6"/>
      </g>
     </g>
    </g>
    <g id="ytick_27">
     <g id="line2d_73">
      <g>
       <use xlink:href="#m0eff18550d" x="33.916258" y="20.238543" style="stroke: #000000; stroke-width: 0.6"/>
      </g>
     </g>
    </g>
    <g id="ytick_28">
     <g id="line2d_74">
      <g>
       <use xlink:href="#m0eff18550d" x="33.916258" y="18.223616" style="stroke: #000000; stroke-width: 0.6"/>
      </g>
     </g>
    </g>
   </g>
   <g id="LineCollection_1">
    <path d="M 46.250539 122.73515 
L 292.936169 122.73515 
" clip-path="url(#p46727eb43a)" style="fill: none; stroke-dasharray: 7.4,3.2; stroke-dashoffset: 0; stroke: #000000; stroke-width: 2"/>
   </g>
   <g id="patch_3">
    <path d="M 33.916258 136.279398 
L 33.916258 16.421203 
" style="fill: none; stroke: #000000; stroke-width: 0.8; stroke-linejoin: miter; stroke-linecap: square"/>
   </g>
   <g id="patch_4">
    <path d="M 305.270451 136.279398 
L 305.270451 16.421203 
" style="fill: none; stroke: #000000; stroke-width: 0.8; stroke-linejoin: miter; stroke-linecap: square"/>
   </g>
   <g id="patch_5">
    <path d="M 33.916258 136.279398 
L 305.270451 136.279398 
" style="fill: none; stroke: #000000; stroke-width: 0.8; stroke-linejoin: miter; stroke-linecap: square"/>
   </g>
   <g id="patch_6">
    <path d="M 33.916258 16.421203 
L 305.270451 16.421203 
" style="fill: none; stroke: #000000; stroke-width: 0.8; stroke-linejoin: miter; stroke-linecap: square"/>
   </g>
   <g id="legend_1">
    <g id="patch_7">
     <path d="M 40.916258 68.455578 
L 105.316258 68.455578 
Q 107.316258 68.455578 107.316258 66.455578 
L 107.316258 23.421203 
Q 107.316258 21.421203 105.316258 21.421203 
L 40.916258 21.421203 
Q 38.916258 21.421203 38.916258 23.421203 
L 38.916258 66.455578 
Q 38.916258 68.455578 40.916258 68.455578 
z
" style="fill: #ffffff; opacity: 0.8; stroke: #cccccc; stroke-linejoin: miter"/>
    </g>
    <g id="line2d_75">
     <path d="M 42.916258 29.519641 
L 52.916258 29.519641 
L 62.916258 29.519641 
" style="fill: none; stroke: #000000; stroke-width: 1.5; stroke-linecap: square"/>
    </g>
    <g id="text_5">
     <!-- $D = 0.1$ -->
     <g transform="translate(70.916258 33.019641) scale(0.1 -0.1)">
      <defs>
       <path id="Cmmi10-44" d="M 313 0 
Q 250 0 250 84 
Q 253 100 262 139 
Q 272 178 289 201 
Q 306 225 331 225 
Q 722 225 878 269 
Q 959 297 997 441 
L 1875 3956 
Q 1888 4019 1888 4044 
Q 1888 4113 1813 4122 
Q 1691 4147 1350 4147 
Q 1288 4147 1288 4231 
Q 1291 4247 1300 4286 
Q 1309 4325 1326 4348 
Q 1344 4372 1369 4372 
L 3669 4372 
Q 4116 4372 4450 4155 
Q 4784 3938 4962 3570 
Q 5141 3203 5141 2759 
Q 5141 2269 4937 1778 
Q 4734 1288 4368 881 
Q 4003 475 3534 237 
Q 3066 0 2572 0 
L 313 0 
z
M 1509 275 
Q 1509 225 1728 225 
L 2472 225 
Q 2828 225 3159 372 
Q 3491 519 3750 775 
Q 3991 1016 4175 1406 
Q 4359 1797 4461 2222 
Q 4563 2647 4563 3003 
Q 4563 3263 4486 3472 
Q 4409 3681 4270 3831 
Q 4131 3981 3922 4064 
Q 3713 4147 3450 4147 
L 2747 4147 
Q 2572 4147 2515 4117 
Q 2459 4088 2413 3928 
L 1538 416 
Q 1509 338 1509 275 
z
" transform="scale(0.015625)"/>
       <path id="Cmr10-3d" d="M 481 850 
Q 428 850 393 890 
Q 359 931 359 978 
Q 359 1031 393 1068 
Q 428 1106 481 1106 
L 4500 1106 
Q 4547 1106 4581 1068 
Q 4616 1031 4616 978 
Q 4616 931 4581 890 
Q 4547 850 4500 850 
L 481 850 
z
M 481 2094 
Q 428 2094 393 2131 
Q 359 2169 359 2222 
Q 359 2269 393 2309 
Q 428 2350 481 2350 
L 4500 2350 
Q 4547 2350 4581 2309 
Q 4616 2269 4616 2222 
Q 4616 2169 4581 2131 
Q 4547 2094 4500 2094 
L 481 2094 
z
" transform="scale(0.015625)"/>
       <path id="Cmmi10-3a" d="M 538 353 
Q 538 497 644 600 
Q 750 703 891 703 
Q 978 703 1062 656 
Q 1147 609 1194 525 
Q 1241 441 1241 353 
Q 1241 213 1137 106 
Q 1034 0 891 0 
Q 750 0 644 106 
Q 538 213 538 353 
z
" transform="scale(0.015625)"/>
      </defs>
      <use xlink:href="#Cmmi10-44" transform="translate(0 0.6875)"/>
      <use xlink:href="#Cmr10-3d" transform="translate(100.273438 0.6875)"/>
      <use xlink:href="#Cmr10-30" transform="translate(195.517578 0.6875)"/>
      <use xlink:href="#Cmmi10-3a" transform="translate(245.517578 0.6875)"/>
      <use xlink:href="#Cmr10-31" transform="translate(273.203125 0.6875)"/>
     </g>
    </g>
    <g id="line2d_76">
     <path d="M 42.916258 44.197766 
L 52.916258 44.197766 
L 62.916258 44.197766 
" style="fill: none; stroke: #0000ff; stroke-width: 1.5; stroke-linecap: square"/>
    </g>
    <g id="text_6">
     <!-- $D = 0.3$ -->
     <g transform="translate(70.916258 47.697766) scale(0.1 -0.1)">
      <use xlink:href="#Cmmi10-44" transform="translate(0 0.6875)"/>
      <use xlink:href="#Cmr10-3d" transform="translate(100.273438 0.6875)"/>
      <use xlink:href="#Cmr10-30" transform="translate(195.517578 0.6875)"/>
      <use xlink:href="#Cmmi10-3a" transform="translate(245.517578 0.6875)"/>
      <use xlink:href="#Cmr10-33" transform="translate(273.203125 0.6875)"/>
     </g>
    </g>
    <g id="line2d_77">
     <path d="M 42.916258 58.875891 
L 52.916258 58.875891 
L 62.916258 58.875891 
" style="fill: none; stroke: #ff0000; stroke-width: 1.5; stroke-linecap: square"/>
    </g>
    <g id="text_7">
     <!-- $D = 0.5$ -->
     <g transform="translate(70.916258 62.375891) scale(0.1 -0.1)">
      <defs>
       <path id="Cmr10-35" d="M 556 728 
Q 622 541 758 387 
Q 894 234 1080 148 
Q 1266 63 1466 63 
Q 1928 63 2103 422 
Q 2278 781 2278 1294 
Q 2278 1516 2270 1667 
Q 2263 1819 2228 1959 
Q 2169 2184 2020 2353 
Q 1872 2522 1656 2522 
Q 1441 2522 1286 2456 
Q 1131 2391 1034 2303 
Q 938 2216 863 2119 
Q 788 2022 769 2016 
L 697 2016 
Q 681 2016 657 2036 
Q 634 2056 634 2075 
L 634 4213 
Q 634 4228 654 4245 
Q 675 4263 697 4263 
L 716 4263 
Q 1147 4056 1631 4056 
Q 2106 4056 2547 4263 
L 2566 4263 
Q 2588 4263 2606 4247 
Q 2625 4231 2625 4213 
L 2625 4153 
Q 2625 4122 2613 4122 
Q 2394 3831 2064 3668 
Q 1734 3506 1381 3506 
Q 1125 3506 856 3578 
L 856 2369 
Q 1069 2541 1236 2614 
Q 1403 2688 1663 2688 
Q 2016 2688 2295 2484 
Q 2575 2281 2725 1954 
Q 2875 1628 2875 1288 
Q 2875 903 2686 575 
Q 2497 247 2172 53 
Q 1847 -141 1466 -141 
Q 1150 -141 886 21 
Q 622 184 470 459 
Q 319 734 319 1044 
Q 319 1188 412 1278 
Q 506 1369 647 1369 
Q 788 1369 883 1276 
Q 978 1184 978 1044 
Q 978 906 883 811 
Q 788 716 647 716 
Q 625 716 597 720 
Q 569 725 556 728 
z
" transform="scale(0.015625)"/>
      </defs>
      <use xlink:href="#Cmmi10-44" transform="translate(0 0.6875)"/>
      <use xlink:href="#Cmr10-3d" transform="translate(100.273438 0.6875)"/>
      <use xlink:href="#Cmr10-30" transform="translate(195.517578 0.6875)"/>
      <use xlink:href="#Cmmi10-3a" transform="translate(245.517578 0.6875)"/>
      <use xlink:href="#Cmr10-35" transform="translate(273.203125 0.6875)"/>
     </g>
    </g>
   </g>
  </g>
  <g id="axes_2">
   <g id="patch_8">
    <path d="M 33.916258 275.477594 
L 305.270451 275.477594 
L 305.270451 155.619398 
L 33.916258 155.619398 
z
" style="fill: #ffffff"/>
   </g>
   <g id="line2d_78">
    <path d="M 46.250539 270.760787 
L 48.742313 270.749501 
L 51.234087 270.735998 
L 53.725861 270.719844 
L 56.217635 270.700524 
L 58.70941 270.678789 
L 61.201184 270.651143 
L 63.692958 270.618103 
L 66.184732 270.577376 
L 68.676506 270.530237 
L 71.16828 270.474348 
L 73.660054 270.407144 
L 76.151828 270.32767 
L 78.643602 270.231922 
L 81.135376 270.117729 
L 83.62715 269.9816 
L 86.118924 269.819411 
L 88.610698 269.626289 
L 91.102472 269.396503 
L 93.594246 269.123273 
L 96.08602 268.798743 
L 98.577794 268.413828 
L 101.069568 267.957681 
L 103.561342 267.418298 
L 106.053116 266.781923 
L 108.54489 266.031933 
L 111.036664 265.150721 
L 113.528438 264.118404 
L 116.020212 262.913228 
L 118.511987 261.511814 
L 121.003761 259.889588 
L 123.495535 258.021434 
L 125.987309 255.882596 
L 128.479083 253.449829 
L 130.970857 250.702806 
L 133.462631 247.625702 
L 135.954405 244.208887 
L 138.446179 240.4506 
L 140.937953 236.358492 
L 143.429727 231.950935 
L 145.921501 227.25897 
L 148.413275 222.323653 
L 150.905049 217.202586 
L 153.396823 211.967956 
L 155.888597 206.710527 
L 158.380371 201.544513 
L 160.872145 196.614982 
L 163.363919 192.106588 
L 165.855693 188.250795 
L 168.347467 185.326355 
L 170.839241 183.638005 
L 173.331015 183.471628 
L 175.822789 185.015704 
L 178.314564 188.278859 
L 180.806338 193.039704 
L 183.298112 198.873487 
L 185.789886 205.255387 
L 188.28166 211.693671 
L 190.773434 217.826686 
L 193.265208 223.451153 
L 195.756982 228.49643 
L 198.248756 232.972177 
L 200.74053 236.931105 
L 203.232304 240.378672 
L 205.724078 243.452573 
L 208.215852 246.182881 
L 210.707626 248.589212 
L 213.1994 250.74335 
L 215.691174 252.666506 
L 218.182948 254.379043 
L 220.674722 255.935893 
L 223.166496 257.299883 
L 225.65827 258.553121 
L 228.150044 259.67836 
L 230.641818 260.699016 
L 233.133592 261.615707 
L 235.625366 262.382692 
L 238.117141 263.149457 
L 240.608915 263.808783 
L 243.100689 264.448952 
L 245.592463 265.095433 
L 248.084237 265.815623 
L 250.576011 266.257593 
L 253.067785 266.657494 
L 255.559559 267.020481 
L 258.051333 267.352851 
L 260.543107 267.651157 
L 263.034881 267.921113 
L 265.526655 268.164754 
L 268.018429 268.383185 
L 270.510203 268.576591 
L 273.001977 268.743608 
L 275.493751 268.879556 
L 277.985525 268.982207 
L 280.477299 269.040665 
L 282.969073 269.054447 
L 285.460847 269.019494 
L 287.952621 268.940926 
L 290.444395 268.834875 
L 292.936169 268.731726 
" clip-path="url(#pb93b3823f9)" style="fill: none; stroke: #000000; stroke-width: 1.5; stroke-linecap: square"/>
   </g>
   <g id="line2d_79">
    <path d="M 46.250539 268.67112 
L 48.742313 268.468935 
L 51.234087 268.247757 
L 53.725861 268.005788 
L 56.217635 267.741056 
L 58.70941 267.4514 
L 61.201184 267.134456 
L 63.692958 266.787629 
L 66.184732 266.408082 
L 68.676506 265.992707 
L 71.16828 265.538102 
L 73.660054 265.040546 
L 76.151828 264.495973 
L 78.643602 263.899941 
L 81.135376 263.247541 
L 83.62715 262.533694 
L 86.118924 261.752465 
L 88.610698 260.897696 
L 91.102472 259.962588 
L 93.594246 258.939989 
L 96.08602 257.822055 
L 98.577794 256.600457 
L 101.069568 255.26635 
L 103.561342 253.810414 
L 106.053116 252.222923 
L 108.54489 250.493847 
L 111.036664 248.612997 
L 113.528438 246.570227 
L 116.020212 244.355699 
L 118.511987 241.960218 
L 121.003761 239.375656 
L 123.495535 236.59547 
L 125.987309 233.61531 
L 128.479083 230.433734 
L 130.970857 227.053021 
L 133.462631 223.480066 
L 135.954405 219.727352 
L 138.446179 215.813995 
L 140.937953 211.766824 
L 143.429727 207.621537 
L 145.921501 203.423923 
L 148.413275 199.231235 
L 150.905049 195.11379 
L 153.396823 191.156893 
L 155.888597 187.463146 
L 158.380371 184.154975 
L 160.872145 181.376956 
L 163.363919 179.295537 
L 165.855693 178.095822 
L 168.347467 177.968061 
L 170.839241 179.082457 
L 173.331015 181.547804 
L 175.822789 185.363429 
L 178.314564 190.381142 
L 180.806338 196.303035 
L 183.298112 202.731441 
L 185.789886 209.25548 
L 188.28166 215.536705 
L 190.773434 221.356018 
L 193.265208 226.612804 
L 195.756982 231.294273 
L 198.248756 235.437102 
L 200.74053 239.097281 
L 203.232304 242.297398 
L 205.724078 245.15043 
L 208.215852 247.691552 
L 210.707626 249.932163 
L 213.1994 251.943403 
L 215.691174 253.738188 
L 218.182948 255.352981 
L 220.674722 256.798277 
L 223.166496 258.098211 
L 225.65827 259.253923 
L 228.150044 260.311739 
L 230.641818 261.269344 
L 233.133592 262.121665 
L 235.625366 262.905985 
L 238.117141 263.612386 
L 240.608915 264.254563 
L 243.100689 264.838567 
L 245.592463 265.36732 
L 248.084237 265.846267 
L 250.576011 266.282955 
L 253.067785 266.626432 
L 255.559559 267.041666 
L 258.051333 267.327253 
L 260.543107 267.63519 
L 263.034881 267.91355 
L 265.526655 268.16523 
L 268.018429 268.39225 
L 270.510203 268.592728 
L 273.001977 268.76912 
L 275.493751 268.915607 
L 277.985525 269.026394 
L 280.477299 269.098269 
L 282.969073 269.121001 
L 285.460847 269.073168 
L 287.952621 269.004382 
L 290.444395 268.890839 
L 292.936169 268.783479 
" clip-path="url(#pb93b3823f9)" style="fill: none; stroke-dasharray: 1.5,2.475; stroke-dashoffset: 0; stroke: #000000; stroke-width: 1.5"/>
   </g>
   <g id="line2d_80">
    <path d="M 46.250539 270.828983 
L 48.742313 270.828305 
L 51.234087 270.827494 
L 53.725861 270.826525 
L 56.217635 270.825366 
L 58.70941 270.823981 
L 61.201184 270.822326 
L 63.692958 270.820348 
L 66.184732 270.817985 
L 68.676506 270.816811 
L 71.16828 270.811793 
L 73.660054 270.807767 
L 76.151828 270.802961 
L 78.643602 270.797224 
L 81.135376 270.790376 
L 83.62715 270.782204 
L 86.118924 270.772438 
L 88.610698 270.760806 
L 91.102472 270.746934 
L 93.594246 270.730393 
L 96.08602 270.710676 
L 98.577794 270.687179 
L 101.069568 270.659189 
L 103.561342 270.625858 
L 106.053116 270.586186 
L 108.54489 270.538989 
L 111.036664 270.482871 
L 113.528438 270.41619 
L 116.020212 270.337017 
L 118.511987 270.243146 
L 121.003761 270.13187 
L 123.495535 269.999975 
L 125.987309 269.844304 
L 128.479083 269.660316 
L 130.970857 269.443546 
L 133.462631 269.188645 
L 135.954405 268.889652 
L 138.446179 268.539806 
L 140.937953 268.1318 
L 143.429727 267.657732 
L 145.921501 267.109285 
L 148.413275 266.477959 
L 150.905049 265.755481 
L 153.396823 264.934242 
L 155.888597 264.00812 
L 158.380371 262.97308 
L 160.872145 261.828379 
L 163.363919 260.578015 
L 165.855693 259.231335 
L 168.347467 257.804671 
L 170.839241 256.322237 
L 173.331015 254.816183 
L 175.822789 253.327395 
L 178.314564 251.903294 
L 180.806338 250.596647 
L 183.298112 249.461689 
L 185.789886 248.550055 
L 188.28166 247.905827 
L 190.773434 247.560726 
L 193.265208 247.529781 
L 195.756982 247.808874 
L 198.248756 248.375071 
L 200.74053 249.188337 
L 203.232304 250.197091 
L 205.724078 251.344163 
L 208.215852 252.573374 
L 210.707626 253.835346 
L 213.1994 255.090055 
L 215.691174 256.307758 
L 218.182948 257.470311 
L 220.674722 258.576263 
L 223.166496 259.587928 
L 225.65827 260.545934 
L 228.150044 261.391326 
L 230.641818 262.334511 
L 233.133592 262.924915 
L 235.625366 263.60739 
L 238.117141 264.227637 
L 240.608915 264.796412 
L 243.100689 265.311597 
L 245.592463 265.78777 
L 248.084237 266.221938 
L 250.576011 266.616859 
L 253.067785 266.966139 
L 255.559559 267.303933 
L 258.051333 267.612353 
L 260.543107 267.890007 
L 263.034881 268.084106 
L 265.526655 268.331939 
L 268.018429 268.516295 
L 270.510203 268.710761 
L 273.001977 268.996915 
L 275.493751 269.152105 
L 277.985525 269.500769 
L 280.477299 269.616409 
L 282.969073 269.720825 
L 285.460847 269.814938 
L 287.952621 269.899577 
L 290.444395 269.975447 
L 292.936169 270.043057 
" clip-path="url(#pb93b3823f9)" style="fill: none; stroke: #0000ff; stroke-width: 1.5; stroke-linecap: square"/>
   </g>
   <g id="line2d_81">
    <path d="M 46.250539 270.678247 
L 48.742313 270.663616 
L 51.234087 270.6476 
L 53.725861 270.630066 
L 56.217635 270.610866 
L 58.70941 270.589815 
L 61.201184 270.566784 
L 63.692958 270.541553 
L 66.184732 270.513934 
L 68.676506 270.483633 
L 71.16828 270.450448 
L 73.660054 270.414015 
L 76.151828 270.374055 
L 78.643602 270.330212 
L 81.135376 270.282095 
L 83.62715 270.229268 
L 86.118924 270.171223 
L 88.610698 270.107483 
L 91.102472 270.037423 
L 93.594246 269.960389 
L 96.08602 269.875649 
L 98.577794 269.782388 
L 101.069568 269.679716 
L 103.561342 269.5666 
L 106.053116 269.441937 
L 108.54489 269.304466 
L 111.036664 269.152837 
L 113.528438 268.985498 
L 116.020212 268.800742 
L 118.511987 268.596687 
L 121.003761 268.371235 
L 123.495535 268.122091 
L 125.987309 267.84674 
L 128.479083 267.542426 
L 130.970857 267.206158 
L 133.462631 266.834734 
L 135.954405 266.424754 
L 138.446179 265.972659 
L 140.937953 265.474804 
L 143.429727 264.927576 
L 145.921501 264.327504 
L 148.413275 263.671519 
L 150.905049 262.957163 
L 153.396823 262.182972 
L 155.888597 261.348893 
L 158.380371 260.456777 
L 160.872145 259.511 
L 163.363919 258.519075 
L 165.855693 257.492231 
L 168.347467 256.446051 
L 170.839241 255.400787 
L 173.331015 254.381406 
L 175.822789 253.417331 
L 178.314564 252.541194 
L 180.806338 251.787483 
L 183.298112 251.189938 
L 185.789886 250.77888 
L 188.28166 250.577822 
L 190.773434 250.600643 
L 193.265208 250.849279 
L 195.756982 251.312773 
L 198.248756 251.967969 
L 200.74053 252.781876 
L 203.232304 253.715366 
L 205.724078 254.727268 
L 208.215852 255.779715 
L 210.707626 256.838474 
L 213.1994 257.87649 
L 215.691174 258.880683 
L 218.182948 259.831116 
L 220.674722 260.724279 
L 223.166496 261.561599 
L 225.65827 262.350131 
L 228.150044 263.034062 
L 230.641818 263.691832 
L 233.133592 264.289949 
L 235.625366 264.84583 
L 238.117141 265.357566 
L 240.608915 265.823957 
L 243.100689 266.25024 
L 245.592463 266.64515 
L 248.084237 267.004637 
L 250.576011 267.333538 
L 253.067785 267.619545 
L 255.559559 267.898128 
L 258.051333 268.152694 
L 260.543107 268.376369 
L 263.034881 268.58632 
L 265.526655 268.777629 
L 268.018429 268.953248 
L 270.510203 269.114005 
L 273.001977 269.262444 
L 275.493751 269.394832 
L 277.985525 269.517372 
L 280.477299 269.574046 
L 282.969073 269.731574 
L 285.460847 269.7706 
L 287.952621 269.868504 
L 290.444395 269.953879 
L 292.936169 270.029869 
" clip-path="url(#pb93b3823f9)" style="fill: none; stroke-dasharray: 1.5,2.475; stroke-dashoffset: 0; stroke: #0000ff; stroke-width: 1.5"/>
   </g>
   <g id="line2d_82">
    <path d="M 46.250539 270.83306 
L 48.742313 270.832952 
L 51.234087 270.832823 
L 53.725861 270.832668 
L 56.217635 270.832483 
L 58.70941 270.832262 
L 61.201184 270.831997 
L 63.692958 270.83168 
L 66.184732 270.831302 
L 68.676506 270.830849 
L 71.16828 270.830308 
L 73.660054 270.829662 
L 76.151828 270.82889 
L 78.643602 270.827967 
L 81.135376 270.826865 
L 83.62715 270.825548 
L 86.118924 270.823976 
L 88.610698 270.822098 
L 91.102472 270.819857 
L 93.594246 270.817181 
L 96.08602 270.813987 
L 98.577794 270.810176 
L 101.069568 270.805629 
L 103.561342 270.800205 
L 106.053116 270.793737 
L 108.54489 270.786025 
L 111.036664 270.776832 
L 113.528438 270.765879 
L 116.020212 270.752838 
L 118.511987 270.737301 
L 121.003761 270.71881 
L 123.495535 270.696812 
L 125.987309 270.670656 
L 128.479083 270.639627 
L 130.970857 270.602725 
L 133.462631 270.558988 
L 135.954405 270.507005 
L 138.446179 270.445574 
L 140.937953 270.372967 
L 143.429727 270.287258 
L 145.921501 270.186177 
L 148.413275 270.067297 
L 150.905049 269.927823 
L 153.396823 269.76461 
L 155.888597 269.574176 
L 158.380371 269.352846 
L 160.872145 269.096697 
L 163.363919 268.801703 
L 165.855693 268.463937 
L 168.347467 268.079884 
L 170.839241 267.646608 
L 173.331015 267.162295 
L 175.822789 266.62677 
L 178.314564 266.041918 
L 180.806338 265.412514 
L 183.298112 264.746663 
L 185.789886 264.056337 
L 188.28166 263.357426 
L 190.773434 262.669634 
L 193.265208 262.015832 
L 195.756982 261.420641 
L 198.248756 260.909099 
L 200.74053 260.503552 
L 203.232304 260.222116 
L 205.724078 260.076694 
L 208.215852 260.070741 
L 210.707626 260.199428 
L 213.1994 260.450117 
L 215.691174 260.804081 
L 218.182948 261.239018 
L 220.674722 261.731305 
L 223.166496 262.258938 
L 225.65827 262.802459 
L 228.150044 263.348924 
L 230.641818 263.884176 
L 233.133592 264.415336 
L 235.625366 264.890678 
L 238.117141 265.369348 
L 240.608915 265.769289 
L 243.100689 266.300395 
L 245.592463 266.54483 
L 248.084237 266.899592 
L 250.576011 267.222533 
L 253.067785 267.519818 
L 255.559559 267.7947 
L 258.051333 268.04796 
L 260.543107 268.280868 
L 263.034881 268.475326 
L 265.526655 268.680604 
L 268.018429 268.863702 
L 270.510203 269.028779 
L 273.001977 269.18167 
L 275.493751 269.275906 
L 277.985525 269.403999 
L 280.477299 269.535461 
L 282.969073 269.619592 
L 285.460847 269.737407 
L 287.952621 269.904385 
L 290.444395 270.173699 
L 292.936169 270.232031 
" clip-path="url(#pb93b3823f9)" style="fill: none; stroke: #ff0000; stroke-width: 1.5; stroke-linecap: square"/>
   </g>
   <g id="line2d_83">
    <path d="M 46.250539 270.807505 
L 48.742313 270.804991 
L 51.234087 270.802239 
L 53.725861 270.799226 
L 56.217635 270.795926 
L 58.70941 270.792312 
L 61.201184 270.788351 
L 63.692958 270.784011 
L 66.184732 270.779241 
L 68.676506 270.774025 
L 71.16828 270.768304 
L 73.660054 270.762044 
L 76.151828 270.755158 
L 78.643602 270.747611 
L 81.135376 270.739298 
L 83.62715 270.730178 
L 86.118924 270.720154 
L 88.610698 270.709142 
L 91.102472 270.697021 
L 93.594246 270.68367 
L 96.08602 270.668967 
L 98.577794 270.652747 
L 101.069568 270.634898 
L 103.561342 270.615183 
L 106.053116 270.593412 
L 108.54489 270.569353 
L 111.036664 270.542745 
L 113.528438 270.513292 
L 116.020212 270.480664 
L 118.511987 270.444475 
L 121.003761 270.404329 
L 123.495535 270.359745 
L 125.987309 270.31016 
L 128.479083 270.254995 
L 130.970857 270.193558 
L 133.462631 270.125082 
L 135.954405 270.048703 
L 138.446179 269.96345 
L 140.937953 269.868239 
L 143.429727 269.761867 
L 145.921501 269.643003 
L 148.413275 269.510181 
L 150.905049 269.36181 
L 153.396823 269.196186 
L 155.888597 269.011499 
L 158.380371 268.805897 
L 160.872145 268.577513 
L 163.363919 268.324569 
L 165.855693 268.045484 
L 168.347467 267.739032 
L 170.839241 267.404553 
L 173.331015 267.042157 
L 175.822789 266.653046 
L 178.314564 266.239864 
L 180.806338 265.806891 
L 183.298112 265.360525 
L 185.789886 264.909293 
L 188.28166 264.46399 
L 190.773434 264.037439 
L 193.265208 263.644079 
L 195.756982 263.299002 
L 198.248756 263.016928 
L 200.74053 262.810795 
L 203.232304 262.690406 
L 205.724078 262.661216 
L 208.215852 262.723611 
L 210.707626 262.872769 
L 213.1994 263.099024 
L 215.691174 263.389816 
L 218.182948 263.730278 
L 220.674722 264.104287 
L 223.166496 264.499445 
L 225.65827 264.900766 
L 228.150044 265.30323 
L 230.641818 265.695975 
L 233.133592 266.089512 
L 235.625366 266.433796 
L 238.117141 266.788845 
L 240.608915 267.074676 
L 243.100689 267.374403 
L 245.592463 267.644964 
L 248.084237 267.902533 
L 250.576011 268.142653 
L 253.067785 268.362864 
L 255.559559 268.565062 
L 258.051333 268.75559 
L 260.543107 268.929666 
L 263.034881 269.089591 
L 265.526655 269.22201 
L 268.018429 269.359724 
L 270.510203 269.486934 
L 273.001977 269.590103 
L 275.493751 269.700297 
L 277.985525 269.795902 
L 280.477299 269.882677 
L 282.969073 269.963211 
L 285.460847 270.036867 
L 287.952621 270.10396 
L 290.444395 270.165948 
L 292.936169 270.222035 
" clip-path="url(#pb93b3823f9)" style="fill: none; stroke-dasharray: 1.5,2.475; stroke-dashoffset: 0; stroke: #ff0000; stroke-width: 1.5"/>
   </g>
   <g id="matplotlib.axis_3">
    <g id="xtick_41">
     <g id="line2d_84">
      <g>
       <use xlink:href="#me1bc32a602" x="46.250539" y="275.477594" style="stroke: #000000; stroke-width: 0.8"/>
      </g>
     </g>
     <g id="text_8">
      <!-- $10^{-2}$ -->
      <g transform="translate(36.200539 290.076031) scale(0.1 -0.1)">
       <defs>
        <path id="Cmsy10-a1" d="M 653 1472 
Q 600 1472 565 1512 
Q 531 1553 531 1600 
Q 531 1647 565 1687 
Q 600 1728 653 1728 
L 4325 1728 
Q 4375 1728 4408 1687 
Q 4441 1647 4441 1600 
Q 4441 1553 4408 1512 
Q 4375 1472 4325 1472 
L 653 1472 
z
" transform="scale(0.015625)"/>
       </defs>
       <use xlink:href="#Cmr10-31" transform="translate(0 0.109375)"/>
       <use xlink:href="#Cmr10-30" transform="translate(50 0.109375)"/>
       <use xlink:href="#Cmsy10-a1" transform="translate(104.464141 38.373438) scale(0.7)"/>
       <use xlink:href="#Cmr10-32" transform="translate(158.844023 38.373438) scale(0.7)"/>
      </g>
     </g>
    </g>
    <g id="xtick_42">
     <g id="line2d_85">
      <g>
       <use xlink:href="#me1bc32a602" x="110.827929" y="275.477594" style="stroke: #000000; stroke-width: 0.8"/>
      </g>
     </g>
     <g id="text_9">
      <!-- $10^{-1}$ -->
      <g transform="translate(100.777929 290.076031) scale(0.1 -0.1)">
       <use xlink:href="#Cmr10-31" transform="translate(0 0.109375)"/>
       <use xlink:href="#Cmr10-30" transform="translate(50 0.109375)"/>
       <use xlink:href="#Cmsy10-a1" transform="translate(104.464141 38.373438) scale(0.7)"/>
       <use xlink:href="#Cmr10-31" transform="translate(158.844023 38.373438) scale(0.7)"/>
      </g>
     </g>
    </g>
    <g id="xtick_43">
     <g id="line2d_86">
      <g>
       <use xlink:href="#me1bc32a602" x="175.405319" y="275.477594" style="stroke: #000000; stroke-width: 0.8"/>
      </g>
     </g>
     <g id="text_10">
      <!-- $10^0$ -->
      <g transform="translate(168.105319 290.076031) scale(0.1 -0.1)">
       <use xlink:href="#Cmr10-31" transform="translate(0 0.109375)"/>
       <use xlink:href="#Cmr10-30" transform="translate(50 0.109375)"/>
       <use xlink:href="#Cmr10-30" transform="translate(104.464141 38.373438) scale(0.7)"/>
      </g>
     </g>
    </g>
    <g id="xtick_44">
     <g id="line2d_87">
      <g>
       <use xlink:href="#me1bc32a602" x="239.98271" y="275.477594" style="stroke: #000000; stroke-width: 0.8"/>
      </g>
     </g>
     <g id="text_11">
      <!-- $10^1$ -->
      <g transform="translate(232.68271 290.076031) scale(0.1 -0.1)">
       <use xlink:href="#Cmr10-31" transform="translate(0 0.109375)"/>
       <use xlink:href="#Cmr10-30" transform="translate(50 0.109375)"/>
       <use xlink:href="#Cmr10-31" transform="translate(104.464141 38.373438) scale(0.7)"/>
      </g>
     </g>
    </g>
    <g id="xtick_45">
     <g id="line2d_88">
      <g>
       <use xlink:href="#me1bc32a602" x="304.5601" y="275.477594" style="stroke: #000000; stroke-width: 0.8"/>
      </g>
     </g>
     <g id="text_12">
      <!-- $10^2$ -->
      <g transform="translate(297.2601 290.076031) scale(0.1 -0.1)">
       <use xlink:href="#Cmr10-31" transform="translate(0 0.109375)"/>
       <use xlink:href="#Cmr10-30" transform="translate(50 0.109375)"/>
       <use xlink:href="#Cmr10-32" transform="translate(104.464141 38.373438) scale(0.7)"/>
      </g>
     </g>
    </g>
    <g id="xtick_46">
     <g id="line2d_89">
      <g>
       <use xlink:href="#ma0f3fd1e9a" x="36.247375" y="275.477594" style="stroke: #000000; stroke-width: 0.6"/>
      </g>
     </g>
    </g>
    <g id="xtick_47">
     <g id="line2d_90">
      <g>
       <use xlink:href="#ma0f3fd1e9a" x="39.992344" y="275.477594" style="stroke: #000000; stroke-width: 0.6"/>
      </g>
     </g>
    </g>
    <g id="xtick_48">
     <g id="line2d_91">
      <g>
       <use xlink:href="#ma0f3fd1e9a" x="43.29564" y="275.477594" style="stroke: #000000; stroke-width: 0.6"/>
      </g>
     </g>
    </g>
    <g id="xtick_49">
     <g id="line2d_92">
      <g>
       <use xlink:href="#ma0f3fd1e9a" x="65.690271" y="275.477594" style="stroke: #000000; stroke-width: 0.6"/>
      </g>
     </g>
    </g>
    <g id="xtick_50">
     <g id="line2d_93">
      <g>
       <use xlink:href="#ma0f3fd1e9a" x="77.061785" y="275.477594" style="stroke: #000000; stroke-width: 0.6"/>
      </g>
     </g>
    </g>
    <g id="xtick_51">
     <g id="line2d_94">
      <g>
       <use xlink:href="#ma0f3fd1e9a" x="85.130002" y="275.477594" style="stroke: #000000; stroke-width: 0.6"/>
      </g>
     </g>
    </g>
    <g id="xtick_52">
     <g id="line2d_95">
      <g>
       <use xlink:href="#ma0f3fd1e9a" x="91.388198" y="275.477594" style="stroke: #000000; stroke-width: 0.6"/>
      </g>
     </g>
    </g>
    <g id="xtick_53">
     <g id="line2d_96">
      <g>
       <use xlink:href="#ma0f3fd1e9a" x="96.501516" y="275.477594" style="stroke: #000000; stroke-width: 0.6"/>
      </g>
     </g>
    </g>
    <g id="xtick_54">
     <g id="line2d_97">
      <g>
       <use xlink:href="#ma0f3fd1e9a" x="100.824765" y="275.477594" style="stroke: #000000; stroke-width: 0.6"/>
      </g>
     </g>
    </g>
    <g id="xtick_55">
     <g id="line2d_98">
      <g>
       <use xlink:href="#ma0f3fd1e9a" x="104.569734" y="275.477594" style="stroke: #000000; stroke-width: 0.6"/>
      </g>
     </g>
    </g>
    <g id="xtick_56">
     <g id="line2d_99">
      <g>
       <use xlink:href="#ma0f3fd1e9a" x="107.87303" y="275.477594" style="stroke: #000000; stroke-width: 0.6"/>
      </g>
     </g>
    </g>
    <g id="xtick_57">
     <g id="line2d_100">
      <g>
       <use xlink:href="#ma0f3fd1e9a" x="130.267661" y="275.477594" style="stroke: #000000; stroke-width: 0.6"/>
      </g>
     </g>
    </g>
    <g id="xtick_58">
     <g id="line2d_101">
      <g>
       <use xlink:href="#ma0f3fd1e9a" x="141.639175" y="275.477594" style="stroke: #000000; stroke-width: 0.6"/>
      </g>
     </g>
    </g>
    <g id="xtick_59">
     <g id="line2d_102">
      <g>
       <use xlink:href="#ma0f3fd1e9a" x="149.707392" y="275.477594" style="stroke: #000000; stroke-width: 0.6"/>
      </g>
     </g>
    </g>
    <g id="xtick_60">
     <g id="line2d_103">
      <g>
       <use xlink:href="#ma0f3fd1e9a" x="155.965588" y="275.477594" style="stroke: #000000; stroke-width: 0.6"/>
      </g>
     </g>
    </g>
    <g id="xtick_61">
     <g id="line2d_104">
      <g>
       <use xlink:href="#ma0f3fd1e9a" x="161.078906" y="275.477594" style="stroke: #000000; stroke-width: 0.6"/>
      </g>
     </g>
    </g>
    <g id="xtick_62">
     <g id="line2d_105">
      <g>
       <use xlink:href="#ma0f3fd1e9a" x="165.402155" y="275.477594" style="stroke: #000000; stroke-width: 0.6"/>
      </g>
     </g>
    </g>
    <g id="xtick_63">
     <g id="line2d_106">
      <g>
       <use xlink:href="#ma0f3fd1e9a" x="169.147124" y="275.477594" style="stroke: #000000; stroke-width: 0.6"/>
      </g>
     </g>
    </g>
    <g id="xtick_64">
     <g id="line2d_107">
      <g>
       <use xlink:href="#ma0f3fd1e9a" x="172.45042" y="275.477594" style="stroke: #000000; stroke-width: 0.6"/>
      </g>
     </g>
    </g>
    <g id="xtick_65">
     <g id="line2d_108">
      <g>
       <use xlink:href="#ma0f3fd1e9a" x="194.845051" y="275.477594" style="stroke: #000000; stroke-width: 0.6"/>
      </g>
     </g>
    </g>
    <g id="xtick_66">
     <g id="line2d_109">
      <g>
       <use xlink:href="#ma0f3fd1e9a" x="206.216565" y="275.477594" style="stroke: #000000; stroke-width: 0.6"/>
      </g>
     </g>
    </g>
    <g id="xtick_67">
     <g id="line2d_110">
      <g>
       <use xlink:href="#ma0f3fd1e9a" x="214.284782" y="275.477594" style="stroke: #000000; stroke-width: 0.6"/>
      </g>
     </g>
    </g>
    <g id="xtick_68">
     <g id="line2d_111">
      <g>
       <use xlink:href="#ma0f3fd1e9a" x="220.542978" y="275.477594" style="stroke: #000000; stroke-width: 0.6"/>
      </g>
     </g>
    </g>
    <g id="xtick_69">
     <g id="line2d_112">
      <g>
       <use xlink:href="#ma0f3fd1e9a" x="225.656296" y="275.477594" style="stroke: #000000; stroke-width: 0.6"/>
      </g>
     </g>
    </g>
    <g id="xtick_70">
     <g id="line2d_113">
      <g>
       <use xlink:href="#ma0f3fd1e9a" x="229.979545" y="275.477594" style="stroke: #000000; stroke-width: 0.6"/>
      </g>
     </g>
    </g>
    <g id="xtick_71">
     <g id="line2d_114">
      <g>
       <use xlink:href="#ma0f3fd1e9a" x="233.724514" y="275.477594" style="stroke: #000000; stroke-width: 0.6"/>
      </g>
     </g>
    </g>
    <g id="xtick_72">
     <g id="line2d_115">
      <g>
       <use xlink:href="#ma0f3fd1e9a" x="237.02781" y="275.477594" style="stroke: #000000; stroke-width: 0.6"/>
      </g>
     </g>
    </g>
    <g id="xtick_73">
     <g id="line2d_116">
      <g>
       <use xlink:href="#ma0f3fd1e9a" x="259.422441" y="275.477594" style="stroke: #000000; stroke-width: 0.6"/>
      </g>
     </g>
    </g>
    <g id="xtick_74">
     <g id="line2d_117">
      <g>
       <use xlink:href="#ma0f3fd1e9a" x="270.793955" y="275.477594" style="stroke: #000000; stroke-width: 0.6"/>
      </g>
     </g>
    </g>
    <g id="xtick_75">
     <g id="line2d_118">
      <g>
       <use xlink:href="#ma0f3fd1e9a" x="278.862172" y="275.477594" style="stroke: #000000; stroke-width: 0.6"/>
      </g>
     </g>
    </g>
    <g id="xtick_76">
     <g id="line2d_119">
      <g>
       <use xlink:href="#ma0f3fd1e9a" x="285.120368" y="275.477594" style="stroke: #000000; stroke-width: 0.6"/>
      </g>
     </g>
    </g>
    <g id="xtick_77">
     <g id="line2d_120">
      <g>
       <use xlink:href="#ma0f3fd1e9a" x="290.233686" y="275.477594" style="stroke: #000000; stroke-width: 0.6"/>
      </g>
     </g>
    </g>
    <g id="xtick_78">
     <g id="line2d_121">
      <g>
       <use xlink:href="#ma0f3fd1e9a" x="294.556935" y="275.477594" style="stroke: #000000; stroke-width: 0.6"/>
      </g>
     </g>
    </g>
    <g id="xtick_79">
     <g id="line2d_122">
      <g>
       <use xlink:href="#ma0f3fd1e9a" x="298.301904" y="275.477594" style="stroke: #000000; stroke-width: 0.6"/>
      </g>
     </g>
    </g>
    <g id="xtick_80">
     <g id="line2d_123">
      <g>
       <use xlink:href="#ma0f3fd1e9a" x="301.6052" y="275.477594" style="stroke: #000000; stroke-width: 0.6"/>
      </g>
     </g>
    </g>
    <g id="text_13">
     <!-- $i_0 / U_0$ -->
     <g transform="translate(156.613354 304.405719) scale(0.11 -0.11)">
      <defs>
       <path id="Cmmi10-69" d="M 500 459 
Q 500 578 550 709 
L 1069 2088 
Q 1153 2322 1153 2472 
Q 1153 2663 1013 2663 
Q 759 2663 595 2402 
Q 431 2141 353 1819 
Q 341 1778 300 1778 
L 225 1778 
Q 172 1778 172 1838 
L 172 1856 
Q 275 2238 487 2533 
Q 700 2828 1025 2828 
Q 1253 2828 1411 2678 
Q 1569 2528 1569 2297 
Q 1569 2178 1516 2047 
L 997 672 
Q 909 459 909 288 
Q 909 97 1056 97 
Q 1306 97 1473 364 
Q 1641 631 1709 941 
Q 1722 978 1759 978 
L 1838 978 
Q 1863 978 1878 961 
Q 1894 944 1894 922 
Q 1894 916 1888 903 
Q 1800 541 1583 234 
Q 1366 -72 1044 -72 
Q 819 -72 659 83 
Q 500 238 500 459 
z
M 1222 3878 
Q 1222 4013 1334 4122 
Q 1447 4231 1581 4231 
Q 1691 4231 1761 4164 
Q 1831 4097 1831 3994 
Q 1831 3850 1717 3742 
Q 1603 3634 1466 3634 
Q 1363 3634 1292 3704 
Q 1222 3775 1222 3878 
z
" transform="scale(0.015625)"/>
       <path id="Cmmi10-3d" d="M 359 -1472 
Q 359 -1453 366 -1447 
L 2591 4722 
Q 2603 4759 2634 4779 
Q 2666 4800 2706 4800 
Q 2763 4800 2798 4765 
Q 2834 4731 2834 4672 
L 2834 4647 
L 609 -1522 
Q 572 -1600 488 -1600 
Q 434 -1600 396 -1562 
Q 359 -1525 359 -1472 
z
" transform="scale(0.015625)"/>
       <path id="Cmmi10-55" d="M 941 891 
Q 941 656 1033 472 
Q 1125 288 1300 186 
Q 1475 84 1709 84 
Q 1984 84 2245 196 
Q 2506 309 2715 509 
Q 2925 709 3073 965 
Q 3222 1222 3284 1472 
L 3859 3781 
Q 3872 3850 3872 3878 
Q 3872 4147 3378 4147 
Q 3316 4147 3316 4231 
Q 3338 4313 3350 4342 
Q 3363 4372 3425 4372 
L 4813 4372 
Q 4841 4372 4859 4344 
Q 4878 4316 4878 4288 
Q 4878 4284 4865 4239 
Q 4853 4194 4836 4170 
Q 4819 4147 4794 4147 
Q 4181 4147 4084 3756 
L 3506 1447 
Q 3434 1147 3264 864 
Q 3094 581 2845 351 
Q 2597 122 2298 -9 
Q 2000 -141 1691 -141 
Q 1338 -141 1045 14 
Q 753 169 587 447 
Q 422 725 422 1088 
Q 422 1297 469 1472 
L 1088 3956 
Q 1100 4019 1100 4044 
Q 1100 4113 1025 4122 
Q 903 4147 563 4147 
Q 500 4147 500 4231 
Q 522 4313 534 4342 
Q 547 4372 609 4372 
L 2328 4372 
Q 2394 4372 2394 4288 
Q 2391 4272 2381 4234 
Q 2372 4197 2356 4172 
Q 2341 4147 2309 4147 
Q 1919 4147 1766 4103 
Q 1681 4072 1644 3928 
L 1025 1447 
Q 941 1109 941 891 
z
" transform="scale(0.015625)"/>
      </defs>
      <use xlink:href="#Cmmi10-69"/>
      <use xlink:href="#Cmr10-30" transform="translate(34.423828 -17.00625) scale(0.7)"/>
      <use xlink:href="#Cmmi10-3d" transform="translate(75.801172 0)"/>
      <use xlink:href="#Cmmi10-55" transform="translate(125.801172 0)"/>
      <use xlink:href="#Cmr10-30" transform="translate(194.014062 -17.00625) scale(0.7)"/>
     </g>
    </g>
   </g>
   <g id="matplotlib.axis_4">
    <g id="ytick_29">
     <g id="line2d_124">
      <g>
       <use xlink:href="#mc7bd6fb7ca" x="33.916258" y="270.834283" style="stroke: #000000; stroke-width: 0.8"/>
      </g>
     </g>
     <g id="text_14">
      <!-- $2$ -->
      <g transform="translate(21.916258 274.633501) scale(0.1 -0.1)">
       <use xlink:href="#Cmr10-32" transform="translate(0 0.390625)"/>
      </g>
     </g>
    </g>
    <g id="ytick_30">
     <g id="line2d_125">
      <g>
       <use xlink:href="#mc7bd6fb7ca" x="33.916258" y="155.619398" style="stroke: #000000; stroke-width: 0.8"/>
      </g>
     </g>
     <g id="text_15">
      <!-- $10$ -->
      <g transform="translate(16.916258 159.418617) scale(0.1 -0.1)">
       <use xlink:href="#Cmr10-31" transform="translate(0 0.390625)"/>
       <use xlink:href="#Cmr10-30" transform="translate(50 0.390625)"/>
      </g>
     </g>
    </g>
    <g id="ytick_31">
     <g id="line2d_126">
      <g>
       <use xlink:href="#m0eff18550d" x="33.916258" y="241.808239" style="stroke: #000000; stroke-width: 0.6"/>
      </g>
     </g>
    </g>
    <g id="ytick_32">
     <g id="line2d_127">
      <g>
       <use xlink:href="#m0eff18550d" x="33.916258" y="221.213933" style="stroke: #000000; stroke-width: 0.6"/>
      </g>
     </g>
    </g>
    <g id="ytick_33">
     <g id="line2d_128">
      <g>
       <use xlink:href="#m0eff18550d" x="33.916258" y="205.239748" style="stroke: #000000; stroke-width: 0.6"/>
      </g>
     </g>
    </g>
    <g id="ytick_34">
     <g id="line2d_129">
      <g>
       <use xlink:href="#m0eff18550d" x="33.916258" y="192.187889" style="stroke: #000000; stroke-width: 0.6"/>
      </g>
     </g>
    </g>
    <g id="ytick_35">
     <g id="line2d_130">
      <g>
       <use xlink:href="#m0eff18550d" x="33.916258" y="181.152699" style="stroke: #000000; stroke-width: 0.6"/>
      </g>
     </g>
    </g>
    <g id="ytick_36">
     <g id="line2d_131">
      <g>
       <use xlink:href="#m0eff18550d" x="33.916258" y="171.593583" style="stroke: #000000; stroke-width: 0.6"/>
      </g>
     </g>
    </g>
    <g id="ytick_37">
     <g id="line2d_132">
      <g>
       <use xlink:href="#m0eff18550d" x="33.916258" y="163.161845" style="stroke: #000000; stroke-width: 0.6"/>
      </g>
     </g>
    </g>
   </g>
   <g id="LineCollection_2">
    <path d="M 46.250539 270.834283 
L 292.936169 270.834283 
" clip-path="url(#pb93b3823f9)" style="fill: none; stroke-dasharray: 7.4,3.2; stroke-dashoffset: 0; stroke: #000000; stroke-width: 2"/>
   </g>
   <g id="patch_9">
    <path d="M 33.916258 275.477594 
L 33.916258 155.619398 
" style="fill: none; stroke: #000000; stroke-width: 0.8; stroke-linejoin: miter; stroke-linecap: square"/>
   </g>
   <g id="patch_10">
    <path d="M 305.270451 275.477594 
L 305.270451 155.619398 
" style="fill: none; stroke: #000000; stroke-width: 0.8; stroke-linejoin: miter; stroke-linecap: square"/>
   </g>
   <g id="patch_11">
    <path d="M 33.916258 275.477594 
L 305.270451 275.477594 
" style="fill: none; stroke: #000000; stroke-width: 0.8; stroke-linejoin: miter; stroke-linecap: square"/>
   </g>
   <g id="patch_12">
    <path d="M 33.916258 155.619398 
L 305.270451 155.619398 
" style="fill: none; stroke: #000000; stroke-width: 0.8; stroke-linejoin: miter; stroke-linecap: square"/>
   </g>
   <g id="text_16">
    <!-- $\tilde{\mathcal{Q}}$ -->
    <g transform="translate(156.025645 212.93502) scale(0.11 -0.11)">
     <defs>
      <path id="Cmr10-7e" d="M 531 3769 
L 716 3988 
Q 966 4275 1216 4275 
Q 1338 4275 1483 4203 
Q 1628 4131 1773 4059 
Q 1919 3988 2041 3988 
Q 2297 3988 2534 4275 
L 2663 4166 
L 2478 3950 
Q 2225 3659 1978 3659 
Q 1856 3659 1711 3732 
Q 1566 3806 1420 3878 
Q 1275 3950 1153 3950 
Q 897 3950 659 3659 
L 531 3769 
z
" transform="scale(0.015625)"/>
      <path id="Cmsy10-51" d="M 897 -184 
Q 850 -159 850 -134 
Q 850 -28 1039 75 
Q 1228 178 1338 191 
Q 1844 191 2158 217 
Q 2472 244 2800 355 
Q 3128 466 3431 703 
Q 3878 1078 4134 1589 
Q 4391 2100 4391 2669 
Q 4391 2956 4309 3223 
Q 4228 3491 4067 3695 
Q 3906 3900 3662 4017 
Q 3419 4134 3116 4134 
Q 2644 4134 2222 3829 
Q 1800 3525 1550 3056 
Q 1300 2588 1300 2119 
Q 1300 1828 1417 1578 
Q 1534 1328 1756 1179 
Q 1978 1031 2278 1031 
Q 2478 1031 2741 1119 
Q 2828 1163 2887 1192 
Q 2947 1222 3012 1250 
Q 3078 1278 3150 1281 
L 3188 1281 
Q 3231 1259 3231 1234 
Q 3231 1203 3206 1166 
Q 3106 1028 2859 911 
Q 2613 794 2330 723 
Q 2047 653 1850 653 
L 1813 653 
Q 1481 653 1234 814 
Q 988 975 858 1244 
Q 728 1513 728 1838 
Q 728 2328 976 2809 
Q 1225 3291 1645 3680 
Q 2066 4069 2567 4291 
Q 3069 4513 3547 4513 
L 3578 4513 
Q 3909 4513 4167 4391 
Q 4425 4269 4603 4051 
Q 4781 3834 4870 3551 
Q 4959 3269 4959 2944 
Q 4959 2431 4759 1951 
Q 4559 1472 4217 1090 
Q 3875 709 3428 425 
Q 2981 141 2478 -19 
Q 2613 -63 2842 -144 
Q 3072 -225 3286 -289 
Q 3500 -353 3700 -389 
Q 3900 -425 4109 -428 
Q 4266 -428 4347 -359 
Q 4409 -294 4439 -208 
Q 4469 -122 4500 -78 
Q 4581 31 4709 103 
Q 4838 175 4966 191 
L 4997 191 
Q 5044 169 5044 128 
Q 4972 -134 4748 -348 
Q 4525 -563 4236 -684 
Q 3947 -806 3688 -806 
L 3653 -806 
Q 3334 -806 3042 -732 
Q 2750 -659 2294 -500 
Q 1838 -341 1541 -262 
Q 1244 -184 897 -184 
z
" transform="scale(0.015625)"/>
     </defs>
     <use xlink:href="#Cmr10-7e" transform="translate(26.101074 26.203125)"/>
     <use xlink:href="#Cmsy10-51" transform="translate(0 0.359375)"/>
    </g>
   </g>
   <g id="text_17">
    <!-- $\tilde{\mathcal{L}}$ -->
    <g transform="translate(128.890225 211.920958) scale(0.11 -0.11)">
     <defs>
      <path id="Cmsy10-4c" d="M 238 -141 
Q 197 -141 197 -97 
Q 197 -72 219 -38 
Q 266 38 359 130 
Q 453 222 494 275 
Q 656 509 750 691 
Q 913 1028 1031 1466 
Q 1206 2163 1348 2597 
Q 1491 3031 1722 3419 
Q 1903 3719 2168 3967 
Q 2434 4216 2757 4364 
Q 3081 4513 3419 4513 
L 3456 4513 
Q 3622 4513 3734 4430 
Q 3847 4347 3905 4208 
Q 3963 4069 3963 3909 
Q 3963 3666 3884 3572 
Q 3663 3331 3359 3291 
L 3322 3291 
Q 3284 3291 3284 3334 
Q 3284 3341 3300 3431 
Q 3316 3522 3316 3584 
Q 3316 3791 3212 3944 
Q 3109 4097 2906 4097 
Q 2669 4097 2669 4056 
Q 2494 3934 2333 3651 
Q 2172 3369 2051 3039 
Q 1931 2709 1837 2376 
Q 1744 2044 1672 1753 
Q 1594 1438 1470 1148 
Q 1347 859 1178 603 
Q 1253 628 1363 628 
L 1403 628 
Q 1625 628 1847 583 
Q 2069 538 2378 450 
Q 2688 363 2894 320 
Q 3100 278 3328 275 
Q 3397 275 3440 337 
Q 3484 400 3526 511 
Q 3569 622 3597 659 
Q 3694 766 3834 844 
Q 3975 922 4116 941 
L 4153 941 
Q 4172 941 4184 928 
Q 4197 916 4197 897 
Q 4197 897 4191 878 
Q 4128 628 3897 386 
Q 3666 144 3370 1 
Q 3075 -141 2828 -141 
L 2791 -141 
Q 2569 -141 2356 -100 
Q 2144 -59 1834 28 
Q 1525 116 1304 162 
Q 1084 209 863 213 
Q 578 -100 275 -141 
L 238 -141 
z
" transform="scale(0.015625)"/>
     </defs>
     <use xlink:href="#Cmr10-7e" transform="translate(17.927246 26.203125)"/>
     <use xlink:href="#Cmsy10-4c" transform="translate(0 0.359375)"/>
    </g>
   </g>
   <g id="legend_2">
    <g id="patch_13">
     <path d="M 40.916258 207.653773 
L 105.316258 207.653773 
Q 107.316258 207.653773 107.316258 205.653773 
L 107.316258 162.619398 
Q 107.316258 160.619398 105.316258 160.619398 
L 40.916258 160.619398 
Q 38.916258 160.619398 38.916258 162.619398 
L 38.916258 205.653773 
Q 38.916258 207.653773 40.916258 207.653773 
z
" style="fill: #ffffff; opacity: 0.8; stroke: #cccccc; stroke-linejoin: miter"/>
    </g>
    <g id="line2d_133">
     <path d="M 42.916258 168.717836 
L 52.916258 168.717836 
L 62.916258 168.717836 
" style="fill: none; stroke: #000000; stroke-width: 1.5; stroke-linecap: square"/>
    </g>
    <g id="text_18">
     <!-- $D = 0.1$ -->
     <g transform="translate(70.916258 172.217836) scale(0.1 -0.1)">
      <use xlink:href="#Cmmi10-44" transform="translate(0 0.6875)"/>
      <use xlink:href="#Cmr10-3d" transform="translate(100.273438 0.6875)"/>
      <use xlink:href="#Cmr10-30" transform="translate(195.517578 0.6875)"/>
      <use xlink:href="#Cmmi10-3a" transform="translate(245.517578 0.6875)"/>
      <use xlink:href="#Cmr10-31" transform="translate(273.203125 0.6875)"/>
     </g>
    </g>
    <g id="line2d_134">
     <path d="M 42.916258 183.395961 
L 52.916258 183.395961 
L 62.916258 183.395961 
" style="fill: none; stroke: #0000ff; stroke-width: 1.5; stroke-linecap: square"/>
    </g>
    <g id="text_19">
     <!-- $D = 0.3$ -->
     <g transform="translate(70.916258 186.895961) scale(0.1 -0.1)">
      <use xlink:href="#Cmmi10-44" transform="translate(0 0.6875)"/>
      <use xlink:href="#Cmr10-3d" transform="translate(100.273438 0.6875)"/>
      <use xlink:href="#Cmr10-30" transform="translate(195.517578 0.6875)"/>
      <use xlink:href="#Cmmi10-3a" transform="translate(245.517578 0.6875)"/>
      <use xlink:href="#Cmr10-33" transform="translate(273.203125 0.6875)"/>
     </g>
    </g>
    <g id="line2d_135">
     <path d="M 42.916258 198.074086 
L 52.916258 198.074086 
L 62.916258 198.074086 
" style="fill: none; stroke: #ff0000; stroke-width: 1.5; stroke-linecap: square"/>
    </g>
    <g id="text_20">
     <!-- $D = 0.5$ -->
     <g transform="translate(70.916258 201.574086) scale(0.1 -0.1)">
      <use xlink:href="#Cmmi10-44" transform="translate(0 0.6875)"/>
      <use xlink:href="#Cmr10-3d" transform="translate(100.273438 0.6875)"/>
      <use xlink:href="#Cmr10-30" transform="translate(195.517578 0.6875)"/>
      <use xlink:href="#Cmmi10-3a" transform="translate(245.517578 0.6875)"/>
      <use xlink:href="#Cmr10-35" transform="translate(273.203125 0.6875)"/>
     </g>
    </g>
   </g>
  </g>
 </g>
 <defs>
  <clipPath id="p46727eb43a">
   <rect x="33.916258" y="16.421203" width="271.354193" height="119.858195"/>
  </clipPath>
  <clipPath id="pb93b3823f9">
   <rect x="33.916258" y="155.619398" width="271.354193" height="119.858195"/>
  </clipPath>
 </defs>
</svg>
